<svg xmlns="http://www.w3.org/2000/svg" xml:space="preserve" width="70px" height="70px" version="1.0" shape-rendering="geometricPrecision" text-rendering="geometricPrecision" image-rendering="optimizeQuality" fill-rule="evenodd" clip-rule="evenodd"
viewBox="0 0 3.93 3.93"
 xmlns:xlink="http://www.w3.org/1999/xlink">
 <g id="Capa_x0020_1">
  <polygon fill="#1A1A1A" points="0,3.93 3.93,3.93 3.93,0 0,0 "/>
  <path fill="white" d="M1.89 2.19l-0.06 0.3 0.27 0 -0.07 -0.29c0,0 0,0 0.01,0 0,-0.01 0.01,-0.01 0.01,-0.02 0.01,0 0.01,0 0.01,0l0 0c0.04,-0.03 0.05,-0.08 0.04,-0.13 -0.02,-0.1 -0.17,-0.13 -0.24,-0.04 -0.03,0.03 -0.04,0.08 -0.02,0.13 0,0 0,0.01 0.01,0.01 0.01,0.02 0.02,0.03 0.03,0.04 0.01,0 0.01,0 0.01,0l0 0zm-0.34 -0.67l0 0.03c0,0.07 0,0.14 0,0.21l0.13 0 0 -0.24c0,0 0,0 0,0 0,-0.01 0.01,-0.03 0.01,-0.05l0 0c0,0 0,0 0,-0.01 0,0 0,0 0.01,0 0,-0.02 0,-0.02 0.01,-0.03l0.01 -0.02c0,0 0,0 0.01,-0.01l0 0c0,-0.01 0.01,-0.02 0.02,-0.02 0,-0.01 0,-0.01 0.01,-0.01 0,-0.01 0,-0.01 0.01,-0.01l0.01 -0.01c0,0 0,0 0,0l0.02 -0.01c0,0 0,0 0,-0.01l0 0c0,0 0,0 0,0l0.06 -0.02c0,0 0,0 0,0l0 -0.01c0.01,0 0.01,0 0.01,0 0,0 0,0 0,0 0,0 0,0 0,0 0.01,0 0.01,0 0.01,0 0,0 0.01,0 0.02,-0.01 0,0 0,0 0,0 0.01,0 0.01,0 0.01,0l0.01 0c0.01,0 0.02,0 0.03,0 0,0 0,0 0,0 0,0 0,0 0.01,0l0.03 0c0.01,0 0.01,0 0.02,0l0.04 0.01c0,0 0.01,0 0.01,0 0,0 0,0 0,0l0.01 0.01c0,0 0,0 0,0 0,0 0,0 0,0l0.01 0c0,0 0,0 0,0 0,0 0,0 0,0l0.01 0c0.03,0.01 0.05,0.03 0.06,0.04 0.02,0.01 0.03,0.02 0.04,0.03l0.01 0.01 0.02 0.03c0,0.01 0.01,0.02 0.01,0.03l0.01 0.01c0,0 0,0 0,0 0,0.01 0,0.01 0,0.02l0 0.01c0.01,0 0.01,0.01 0.01,0.02 0,0 0,0.01 0,0.02l0 0.24 0.13 0 0 -0.25c0,0 0,-0.01 0,-0.01l0 -0.01c0,-0.01 0,-0.02 -0.01,-0.03l0 -0.01c0,-0.01 0,-0.01 0,-0.01 0,0 0,0 0,-0.01l-0.01 -0.01c0,0 0,0 0,0 0,0 0,0 0,0l0 -0.01c0,0 0,0 0,0 0,0 0,0 0,0l-0.01 -0.02c0,0 0,0 0,0 0,0 0,-0.01 0,-0.01 -0.01,-0.01 -0.02,-0.03 -0.03,-0.04 -0.01,-0.01 -0.01,-0.02 -0.02,-0.02l-0.01 -0.02c0,0 0,0 -0.01,0l-0.03 -0.03c0,-0.01 0,-0.01 -0.01,-0.01l-0.03 -0.02c0,-0.01 -0.01,-0.01 -0.02,-0.01 -0.01,-0.01 -0.02,-0.02 -0.03,-0.02 0,0 0,0 0,0l-0.03 -0.01c0,0 0,0 0,0 0,0 0,0 0,0 0,0 0,0 0,0 0,0 0,0 0,0l0 0c0,0 0,0 0,0 -0.01,-0.01 -0.02,-0.01 -0.03,-0.01 -0.01,0 -0.01,-0.01 -0.02,-0.01 -0.01,0 -0.01,0 -0.01,0l-0.01 0c-0.01,0 -0.03,-0.01 -0.04,-0.01 -0.01,0 -0.01,0 -0.02,0l-0.02 0c-0.01,0 -0.03,0 -0.04,0 0,0 0,0 -0.01,0 0,0 -0.01,0 -0.02,0 0,0 0,0 -0.01,0 -0.01,0 -0.02,0.01 -0.03,0.01l-0.01 0c0,0 0,0 0,0 -0.01,0 -0.01,0 -0.02,0 0,0 0,0 0,0l0 0.01c0,0 0,0 0,0l-0.01 0c-0.01,0 -0.02,0 -0.02,0 0,0.01 -0.01,0.01 -0.01,0.01l-0.01 0c0,0 0,0 0,0 0,0 0,0 0,0l-0.02 0.01c-0.01,0.01 -0.02,0.01 -0.03,0.01l-0.02 0.01c0,0 0,0.01 0,0.01 0,0 0,0 0,0 -0.01,0 -0.02,0.01 -0.03,0.02l-0.03 0.02c-0.01,0.01 -0.01,0.02 -0.02,0.02l0 0.01c-0.01,0 -0.01,0 -0.01,0 0,0.01 -0.01,0.02 -0.01,0.02 -0.01,0.01 -0.02,0.03 -0.03,0.04 -0.01,0.01 -0.01,0.03 -0.02,0.05l0 0.01c0,0 0,0 0,0 -0.01,0.01 -0.01,0.02 -0.01,0.03l0 0.02c-0.01,0.01 -0.01,0.02 -0.01,0.03l0 0zm-0.01 0.27c0,0 -0.01,0 -0.03,0 -0.01,0.01 -0.02,0.01 -0.03,0.02 0,0 -0.01,0 -0.01,0.01 0,0 0,0 -0.01,0l0 0.01c0,0 0,0 -0.01,0 0,0 0,0 0,0 0,0.01 0,0.01 -0.01,0.02l0 0.01c-0.01,0.01 -0.01,0.02 -0.01,0.03 0,0.01 0,0.03 0,0.04l0 0.61c0,0.01 0,0.01 0,0.01l0.01 0.01c0.01,0.01 0.04,0.03 0.05,0.04l0.07 0.04c0.01,0.01 0.02,0.01 0.03,0.02l0.02 0.01c0.01,0 0.02,0.01 0.02,0.01 0.01,0 0.01,0 0.02,0.01l0.02 0c0.01,0.01 0.03,0.02 0.05,0.02l0.04 0.01c0,0 0,0.01 0,0.01l0.06 0.01c0.01,0 0.01,0 0.01,0l0.05 0.01c0.02,0 0.06,0 0.06,0l0.03 0c0,0 0,0 0.01,0 0.01,0 0.02,0 0.03,0 0.01,0 0.02,0 0.03,0l0.01 0c0,0 0.01,0 0.01,0l0.02 -0.01c0,0 0.01,0 0.02,0 0,0 0,0 0,0 0.01,0 0.01,0 0.01,0 0.01,0 0.01,-0.01 0.02,-0.01 0,0 0.01,0 0.01,0 0,0 0,0 0,0l0.02 0c0,-0.01 0,-0.01 0,-0.01 0,0 0,0 0,0 0,0 0,0 0,0 0.01,0 0,0 0.01,0l0.01 0c0,0 0,0 0,0l0.01 0c0,0 0,0 0,0l0.02 -0.01c0,0 0,0 0,0 0,0 0,0 0,0l0.02 -0.01c0,0 0,0 0,0l0.06 -0.02c0,0 0,0 0,0l0.01 -0.01c0.01,0 0.01,0 0.01,0 0.01,-0.01 0.02,-0.01 0.03,-0.02l0.03 -0.01c0,0 0,0 0,0l0.01 -0.01c0,0 0,0 0,0l0 0c0.01,-0.01 0.01,-0.01 0.02,-0.01l0.02 -0.01c0,-0.01 0.01,-0.01 0.01,-0.01 0.02,-0.01 0.04,-0.03 0.06,-0.05 0.01,0 0.01,0 0.01,0 0,-0.03 0,-0.05 0,-0.07l0 -0.59 0 -0.02 -0.01 -0.01c0,0 0,-0.01 0,-0.01l0 -0.01c-0.01,0 -0.02,-0.01 -0.02,-0.02 -0.01,-0.01 -0.02,-0.01 -0.02,-0.02l-0.01 0c0,0 -0.01,0 -0.01,0 0,0 0,0 0,0l0 -0.01c-0.01,0 -0.02,0 -0.02,0 -0.01,0 -0.01,0 -0.01,0 -0.01,0 -0.02,0 -0.03,0l-0.83 0c0,0 0,0 0,0l0 0zm1.38 -0.5c0,0 0.01,0 0.01,0 0.05,0.02 0.06,0.01 0.06,0.01 0,0 0.01,0 0.01,0.01 0.01,0 0.02,0.01 0.02,0.02 0,0.01 0,0.01 -0.01,0.02 -0.01,0 -0.05,0 -0.06,-0.01 -0.01,0 -0.01,0 -0.01,-0.01 -0.01,0 -0.01,-0.01 -0.01,-0.02 -0.01,-0.01 -0.01,-0.01 -0.01,-0.02zm-0.05 -0.06l0.04 0c0.01,-0.01 0.02,0 0.03,0 0.01,0 0.02,0 0.03,0.01 0,0 0.01,0.01 0.01,0.02 0,0.01 0,0.02 -0.01,0.02 -0.01,0 -0.02,0 -0.03,0 0,0 -0.02,0 -0.03,0 0,0 0,-0.01 0,-0.01 -0.01,-0.01 -0.03,-0.03 -0.04,-0.04 0,0 0,0 0,0 0,0 0,0 0,0l0 0zm-0.06 -0.09c0,-0.01 0.03,-0.02 0.05,-0.02 0,0 0.02,0 0.02,0 0.01,0.01 0.02,0.02 0.02,0.03 0,0 0,0 0,0.01 0,0 -0.02,0 -0.03,0 0,0 -0.01,0 -0.01,0l-0.02 0.01c0,0 -0.03,-0.02 -0.03,-0.03l0 0zm0 -0.07c0.01,0 0.02,0 0.02,0.01l0.02 0.01c0,0 0,0 0,0l0.02 0.01c0,0.01 0,0.01 0,0.01 -0.02,0 -0.05,0 -0.07,0.01 0,0 0,0 -0.01,0 -0.02,-0.01 -0.04,-0.02 -0.02,-0.04l0.01 0c0.01,0 0.01,-0.01 0.01,-0.01 0.01,0 0.01,0 0.02,0l0 0zm-0.14 -0.05c0,-0.01 0.02,-0.02 0.03,-0.02 0.01,-0.01 0.02,-0.01 0.03,-0.01 0.01,0 0.01,0 0.01,0.01 0.01,0 0.03,0.02 0.04,0.02l0 0c-0.01,0 -0.05,0.02 -0.06,0.02 0,0 0,0 -0.01,0 -0.01,0 -0.04,-0.01 -0.04,-0.02l0 0zm-0.05 -0.03c0,-0.02 0.04,-0.05 0.07,-0.04 0.01,0.01 0.02,0.02 0.03,0.02 0,0.01 0,0.01 0,0.01 -0.02,0 -0.05,0.01 -0.06,0.02 0,0 -0.01,0 -0.01,0 0,0 -0.03,0 -0.03,-0.01l0 0zm-1.64 0.26c0,-0.02 0,-0.02 0,-0.03l0.03 -0.02c0,0.04 0.02,0.05 0.02,0.05 0,0.01 0,0.05 -0.02,0.05 -0.02,0 -0.03,-0.03 -0.03,-0.05l0 0zm0.07 -0.1c0,0 0,0.01 0,0.01 0.01,0.02 0.02,0.03 0.02,0.05 0,0.01 -0.01,0.03 -0.02,0.03 -0.01,0 -0.01,-0.01 -0.02,-0.01 0,-0.01 -0.01,-0.02 -0.01,-0.04 0,-0.01 0,0 0,-0.01 0,0 0.01,-0.01 0.01,-0.01 0,0 0.01,-0.01 0.01,-0.02l0.01 0c0,0 0,0 0,0 0,0 0,0 0,0l0 0zm0.35 -0.18c0,0 0,-0.01 0,-0.01 0,0 0,-0.02 0,-0.03 0,0 0,-0.02 0,-0.03 0,-0.01 0.01,-0.01 0.01,-0.02 0.03,-0.03 0.04,-0.01 0.04,0.01 0,0.01 0,0.02 -0.01,0.03 0,0.01 0,0.01 -0.01,0.01l-0.01 0.02c-0.01,0 -0.01,0.01 -0.02,0.02 0,0 0,0 0,0l0 0zm0.09 -0.13c0.01,0 0.01,0 0.02,0.01 0.01,0.01 0,0.04 -0.01,0.05 0,0 0,0 0,0 0,0.01 0,0.01 0,0.01 -0.01,0 -0.02,0 -0.02,0.01l-0.02 0c0,0 0,0 -0.01,0 0.01,-0.01 0.02,-0.02 0.02,-0.04 0,-0.02 -0.01,-0.01 0,-0.03 0.01,-0.01 0.01,-0.01 0.02,-0.01 0,0 0,0 0,0l0 0zm0.79 2.44c-0.01,0 -0.01,0 -0.01,0 0,0 0,0 0.01,-0.01 0,0 0,-0.01 0,-0.01 0.01,-0.01 0.01,-0.02 0.02,-0.03 0,0 0,-0.01 0,-0.01 0.01,-0.01 0.02,-0.04 0.02,-0.05 0.01,0 0.03,0 0.03,0 0,0.01 -0.01,0.04 -0.02,0.05 -0.01,0.03 -0.01,0.03 -0.03,0.05 0,0 0,0 0,0 0,0.01 -0.01,0.01 -0.02,0.01l0 0zm0.04 -0.13c0,0 0,-0.02 0.01,-0.02 0,-0.01 0,-0.03 0.01,-0.04 0,0 0.01,-0.01 0.02,-0.01 0.01,0 0.01,0 0.01,0 0.01,0.02 0.01,0.03 0.01,0.05 -0.01,0 -0.01,0 -0.01,0 0,0.01 0,0.01 0,0.01 0,0 0,0 -0.01,0 0,0 -0.01,0 -0.02,0.01 0,0 -0.01,0 -0.01,0 0,0 -0.01,0 -0.01,0l0 0zm0.12 -0.12c0.01,-0.01 0.03,0 0.03,0 0.02,0.02 -0.01,0.02 -0.02,0 0,0 -0.01,0 -0.01,0l0 0zm0.3 -0.17c0.01,0 0.01,0.01 0.02,0.01 0.01,0.01 0.01,0.04 0.01,0.06 -0.01,0 -0.01,0 -0.01,0l-0.01 0.01c0,0 -0.02,0.01 -0.02,0.01 0,0 -0.01,-0.05 -0.01,-0.05 0,-0.01 0,-0.01 0,-0.01 0,-0.01 0.01,-0.01 0.01,-0.01 0,-0.01 0.01,-0.02 0.01,-0.02l0 0zm-1.35 0.21c-0.01,0 -0.02,-0.01 -0.02,-0.01 0,-0.01 0.01,-0.02 0.02,-0.03 0,0 0.02,-0.01 0.03,-0.01 0,0 0,0 0,0l0.02 0.01c0.01,0 0.01,0 0.02,0 0,0 0.01,0 0.01,0 0,0 -0.01,0.01 -0.02,0.01 -0.01,0.01 -0.05,0.03 -0.06,0.03l0 0zm-0.05 -0.03c-0.01,0 -0.02,0 -0.02,-0.01 -0.02,-0.01 0.02,-0.03 0.04,-0.04 0,0 0.01,0 0.02,0 0,0 0,0 0,0l0.02 0.01c0,0.01 0.01,0.01 0.01,0.01 0,0 -0.01,0 -0.01,0 -0.01,0.01 -0.02,0.01 -0.03,0.02 -0.02,0.01 -0.01,0.01 -0.02,0.01 -0.01,0 -0.01,0 -0.01,0l0 0zm-0.28 -0.22c0,0 0.03,-0.01 0.04,-0.01 0.01,0 0.01,0 0.02,0 0.01,0 0.03,0.01 0.03,0.02 0,0.02 -0.02,0.03 -0.04,0.03 0,0 -0.01,0 -0.02,0 0,0 -0.01,-0.01 -0.02,-0.02 0,-0.01 -0.01,-0.01 -0.01,-0.02l0 0zm-0.08 -0.09c0,-0.01 0.02,-0.02 0.03,-0.02 0,0 0.01,0 0.01,0 0.02,-0.01 0.03,-0.01 0.03,0 0.01,0 0.01,0.01 0,0.02 0,0 0,0 0,0l-0.02 0.02c-0.01,0.01 -0.01,0.01 -0.02,0 0,0 -0.01,0 -0.01,0 -0.01,0 -0.02,-0.01 -0.02,-0.02l0 0zm-0.07 -0.12c0,0 0,0 0,-0.01 0.01,0 0.02,-0.01 0.03,-0.01 0.01,0 0.03,0 0.03,0.01 0,0 0.01,0.02 0.03,0.03 0,0 0,0.01 0.01,0.01 0,0 0,0 0,0 -0.02,0.01 -0.06,0 -0.07,0 -0.01,-0.01 -0.01,-0.01 -0.01,-0.01 -0.01,0 -0.02,-0.01 -0.02,-0.02l0 0zm0.87 -1.78c0,-0.01 0.01,-0.01 0.02,0 0,0 0.01,0.01 0.01,0.02 -0.01,0 -0.01,0 -0.02,-0.01 -0.01,0 -0.01,-0.01 -0.01,-0.01l0 0zm0.15 -0.02l-0.01 0c-0.01,0 -0.02,-0.01 -0.02,-0.02 0,-0.01 0.01,-0.02 0.01,-0.03 0.01,0 0.02,-0.02 0.02,-0.02 0,0 0.01,0 0.02,0 0,0 0.03,0.01 0.04,0.01 0,0 0,0.01 0,0.01 -0.01,0.01 -0.01,0.01 -0.02,0.02 0,0.01 -0.01,0.02 -0.02,0.02 -0.01,0 -0.02,0.01 -0.02,0.01l0 0zm-0.11 0.03c0,-0.01 -0.01,-0.02 -0.02,-0.03 -0.02,-0.01 -0.03,0.01 -0.03,0.02 0,0.02 0,0.02 0.02,0.03 0,0 0.02,0 0.02,0 0,0.01 0.01,0.01 0,0.03 -0.01,0 -0.01,0.01 -0.02,0.01 -0.02,0.02 -0.04,0.02 -0.06,0.01 -0.01,0 -0.02,-0.01 -0.03,-0.02 -0.01,-0.01 -0.01,-0.04 0,-0.06 0,0 0,0 0,-0.01 0,0 0.01,0 0.01,-0.01 0.01,-0.01 0.02,-0.02 0.03,-0.03 0.04,-0.02 0.04,-0.01 0.07,-0.01 0.03,-0.01 0.04,-0.02 0.06,-0.03 0.01,0 0.02,0 0.02,0 0.01,0 0.01,0 0.01,0 0.01,0 0.01,0 0.01,0 0,0.01 -0.04,0.06 -0.05,0.07 0,0 0,0 0,0 0,0 0,0 0,0.01 -0.01,0 -0.02,0.01 -0.03,0.02 0,0 -0.01,0 -0.01,0l0 0zm0.16 -0.11l-0.03 -0.01c0,0 0.02,-0.03 0.02,-0.03 0,0 0,0 0,-0.01 0.01,0 0.02,-0.01 0.02,-0.02l0.01 -0.01c0,0 0,0 0,0 0.01,-0.01 0.03,-0.02 0.04,-0.02 0.01,0 0.02,0 0.02,0.01 0,0 -0.01,0 -0.01,0.01 0,0 0,0 0,0 -0.01,0 -0.01,0 -0.01,0 0,0 0,0 0,0 -0.02,0.02 -0.05,0.06 -0.06,0.07 0,0 0,0.01 0,0.01l0 0zm-0.09 2.47c-0.01,0 -0.02,0 -0.03,0 0,0 0,0 -0.01,0 0,0 0.01,0 0.01,0l0.03 -0.04c0.01,-0.01 0.04,-0.03 0.05,-0.01 0,0.02 -0.01,0.03 -0.02,0.04 0,0 0,0.01 -0.01,0.01 0,0 0,0 0,0 -0.01,0 -0.01,0 -0.02,0l0 0zm0.03 0c0.01,-0.01 0.01,-0.01 0.02,-0.02 0.01,0 0.01,-0.01 0.01,-0.01 0.01,-0.01 0,-0.01 0.02,-0.02 0.01,0 0.01,-0.01 0.02,-0.01 0.01,0 0.02,0.02 0.01,0.04 -0.01,0.01 -0.01,0.01 -0.02,0.02 -0.01,0.01 -0.01,0.01 -0.02,0l-0.04 0 0 0zm-0.22 -0.02c-0.01,0 -0.01,0 -0.01,0 -0.01,-0.01 -0.01,-0.01 -0.01,-0.01 0,-0.01 0.01,-0.02 0.02,-0.03l0 -0.01c0.01,0 0.01,0 0.01,0l0.01 -0.01c0,0 0.01,0 0.01,0l0.04 0.01c0,0 0,0 0,0l-0.01 0c0,0 0,0 0,0 -0.01,0.01 -0.03,0.02 -0.03,0.03 0,0.01 0,0.01 -0.01,0.01 0,0 0,0 0,0 -0.01,0 -0.02,0.01 -0.02,0.01zm0.06 0.01c-0.01,0 -0.02,-0.01 -0.02,-0.02 0,-0.01 0.02,-0.02 0.03,-0.03 0,0 0,0 0,-0.01 0.01,0 0.01,0 0.01,0 0.02,0 0.03,0 0.05,0 0,-0.01 0.01,-0.01 0.01,-0.01l-0.02 0.02c0,0.01 0,0.01 0,0.01 0,0 -0.01,0.01 -0.01,0.01 0,0 0,0 0,0 -0.01,0.01 -0.04,0.03 -0.05,0.03l0 0zm1.18 -0.54c0,0 0,-0.01 0,-0.02 0,0 0.01,0 0.01,0 0,0 0.01,0 0.01,0 0.03,0.01 0.03,0.06 0.03,0.06 0,0 -0.01,0 -0.01,0.01l0 0c-0.01,0.01 -0.01,0.01 -0.01,0.02l-0.01 0.01c0,-0.02 -0.02,-0.05 -0.02,-0.05 0,-0.01 0,-0.02 0,-0.03l0 0zm0.03 -0.06c0,0 0,-0.02 0.01,-0.02 0.03,0 0.04,0.04 0.05,0.06 0,0.01 -0.01,0.02 -0.01,0.02l-0.02 0.02c0,0 0,0.01 0,0.01l0 -0.01c0,-0.02 -0.01,-0.04 -0.02,-0.06 0,0 0,0 -0.01,0 0,0 0,-0.01 0,-0.02zm-0.01 -1.4c0,0 0,0 0.01,0 0.03,0.02 0.05,0.06 0.07,0.09 0,0.02 0.02,0.05 0.03,0.06 0.01,0.01 0.02,0.02 0.03,0.02 0.03,0.01 0.02,-0.02 0,-0.02 0,0 0,0.01 -0.01,0.01 0,-0.01 0,-0.01 -0.01,-0.02 -0.01,-0.01 -0.02,-0.04 -0.02,-0.05 -0.01,-0.01 -0.01,-0.03 -0.02,-0.04 0,0 0,0 -0.01,-0.01l-0.02 -0.02c-0.01,-0.01 -0.01,-0.01 -0.01,-0.01 -0.02,-0.01 -0.02,-0.01 -0.04,-0.01 0,0 0,0 0,0l0 0zm-2.15 1.38c0.02,0 0.03,0.03 0.03,0.04 0.01,0.02 0.01,0.02 0.02,0.04 0,0 0,0 0,0.01 0,0 0,0 0.01,0 0,0.01 0.01,0.02 0.02,0.03 0.01,0.01 0.03,0.01 0.04,0.01l0.01 0c-0.02,0 -0.03,-0.01 -0.04,-0.01 0,0 0,-0.01 0,-0.01 -0.01,0 -0.01,0 -0.01,0 -0.01,-0.02 -0.01,-0.03 -0.02,-0.04 -0.01,-0.02 -0.01,-0.05 -0.03,-0.06 -0.01,-0.01 -0.02,-0.01 -0.03,-0.01 0,0 0,0 0,0zm-0.11 -0.96c0,0 0,0.01 0,0.01 0.01,0.01 0.01,0 0.02,0 0.01,0 0.02,0.01 0.02,0.02 0.01,0 0,0 0.01,0 0.01,0 -0.02,-0.04 -0.05,-0.04 0,0 0,0 0,0.01zm2.43 -0.16c0,0 0,0.01 0.01,0.01 0.01,0.01 0.03,0.01 0.04,0 0.02,0 0.01,-0.02 0,-0.02 -0.01,0 -0.01,0.02 -0.04,0.01 0,0 0,0 -0.01,0zm0.02 0.05c0,0 0.01,0 0.01,0 0.02,0.01 0.02,0.02 0.03,0.02 0.02,0.01 0.02,0 0.02,-0.01 -0.01,0 -0.01,-0.01 -0.02,-0.01 -0.01,-0.01 -0.02,-0.01 -0.03,-0.01 -0.01,0 -0.01,0 -0.01,0.01l0 0zm0 -0.02c0,0 0.01,0 0.02,0 0.01,0.01 0.01,0.01 0.03,0.01 0,0.01 0.01,0.01 0.02,0.01 0,0 0.01,0 0.01,-0.01 0,0 -0.01,-0.01 -0.02,-0.01 -0.01,-0.01 -0.03,0 -0.04,0 -0.01,0 -0.02,-0.01 -0.02,0zm-2.43 0.07c0,0.02 0.03,0.05 0.04,0.04 0,0 -0.01,-0.01 -0.01,-0.01 -0.01,-0.01 -0.01,-0.02 -0.02,-0.03 0,-0.02 -0.01,-0.01 -0.01,0l0 0zm-0.03 0c0,0.01 0.01,0.02 0.01,0.02 0.01,0.01 0.02,0.02 0.03,0.03 0.01,0.01 0.01,0.01 0.01,0.01 0,0 0,0 0,0 0.01,-0.01 0,-0.01 0,-0.02 -0.01,0 -0.01,0 -0.01,0 -0.01,-0.01 -0.01,-0.02 -0.02,-0.03 -0.01,-0.01 -0.02,-0.02 -0.02,-0.01l0 0zm0.09 1.07c0,0.01 0.01,0.02 0.02,0.02 0.01,0 0.02,0 0.04,0 0,0 0.01,0.01 0.01,0 0,0 -0.01,0 -0.01,0 -0.01,-0.01 -0.03,-0.01 -0.04,-0.02 -0.01,0 -0.02,0 -0.02,0zm0.04 -1.34c0,0 0,0.01 0.01,0.01 0.01,0 0.01,0 0.02,0.01 0.01,0.01 0.01,0.02 0.01,0.02 0.01,0 0.01,-0.01 0.01,-0.01 -0.01,-0.02 -0.02,-0.03 -0.03,-0.04 -0.01,0 -0.02,0 -0.02,0.01l0 0zm2.45 1c0,-0.01 -0.01,-0.02 -0.01,-0.02 -0.01,0 -0.01,0.01 -0.03,0 -0.01,-0.01 -0.01,-0.01 -0.01,-0.01 0,0 0,0 0,0.01 0,0.01 0.02,0.02 0.03,0.02 0.01,0.01 0.01,0.01 0.02,0 0,0 0,0 0,0zm-2.41 -1.05c0,0.01 0,0.02 0.01,0.03 0,0 0,0.01 0,0.01 0,0 0.01,0.01 0.01,0.01 0,0 0,0 0,0 0.01,-0.01 0,-0.01 0,-0.01 0,-0.01 -0.01,-0.02 -0.01,-0.02 0,-0.01 0.01,-0.03 0,-0.03 -0.01,0 -0.01,0 -0.01,0.01l0 0zm0.01 0.06c0,0 0,0 0,-0.01 0,0 -0.01,-0.02 -0.02,-0.03 0,0 0,-0.01 0,-0.01 0,-0.01 0,-0.01 -0.01,-0.02 0,0 -0.01,0 -0.01,0 0,0 0,0.01 0,0.01 0,0.01 0.01,0.02 0.01,0.03 0.01,0 0.01,0 0.01,0 0.01,0.02 0.01,0.03 0.02,0.03l0 0zm-0.13 1.19c0,0.01 0.01,0.01 0.01,0.01 0.01,0 0.01,-0.01 0.02,-0.01l0.01 0c0.01,0 0.01,0 0.01,0 0,0 0,0 0,0 0,0 0,-0.01 -0.01,-0.01 -0.01,0 -0.04,0 -0.04,0.01zm1.59 -1.78c0,0.02 -0.01,0.03 -0.02,0.03 0,0.01 0,0.01 0.01,0 0.01,0 0.02,-0.01 0.02,-0.02 0.02,-0.03 0,-0.03 -0.01,-0.02 0,0.01 0,0.01 0,0.01l0 0zm-0.73 0c0,0 0,0.01 0,0.01 0.01,0.01 0.01,0.02 0,0.03 0,0 0,0.01 0,0.01 0.01,0 0.01,0 0.01,0 0.01,-0.02 0.01,-0.06 0,-0.06 -0.01,0 -0.01,0.01 -0.01,0.01zm-0.88 1.72c0,0.02 0.03,0.02 0.04,0.02 0.02,0.01 0.02,0 0.01,0 0,-0.01 -0.01,0 -0.03,-0.01 0,0 -0.01,-0.02 -0.02,-0.01 0,0 0,0 0,0l0 0zm0.29 0.52c0,0 0.01,0.01 0.02,0.01 0.01,0 0.02,-0.01 0.04,-0.01 0,-0.01 0.01,0 0.01,-0.01 0,0 0,0 0,0 -0.01,0 -0.02,0 -0.03,0l-0.03 0c0,0 -0.01,0 -0.01,0.01l0 0zm0.09 0.08c0,0 0,0 0,0 0.02,0.01 0.03,-0.01 0.05,-0.01 0.01,0 0.02,0 0.02,-0.01 0,-0.01 -0.05,0.01 -0.06,0.01 0,0 -0.01,0 -0.01,0.01l0 0zm1.96 -1.75c0,0 0.02,0.01 0.02,0.01 0.03,0 0.04,0.01 0.05,0.01 0,0 0,-0.01 0,-0.01 -0.01,0 -0.01,0 -0.01,0 0,-0.01 -0.01,-0.01 -0.01,-0.01 -0.01,0 -0.01,0 -0.02,0 0,0 -0.01,0 -0.02,0 0,-0.01 -0.01,-0.01 -0.01,0zm-0.46 -0.42c0,0.01 0.03,-0.01 0.03,-0.01l0.01 -0.02c0.02,-0.02 -0.01,-0.02 -0.01,-0.01 -0.01,0.01 0,0.01 -0.01,0.02 -0.01,0 -0.01,0.01 -0.01,0.01 0,0 -0.01,0 -0.01,0.01l0 0zm0.61 1.44c0,0.01 0,0.01 0.01,0.01 0,0.01 0.01,0.01 0.01,0.02 0,0 0,0 0,0.01 0.01,0 0.01,0.01 0.01,0.01 0.01,0.01 0.01,0.01 0.01,0 0,-0.01 0,-0.02 -0.01,-0.03 0,0 0,0 0,0l-0.01 -0.01c0,0 -0.01,-0.01 -0.02,-0.01l0 0zm-2.51 0.15c0,0.01 0.01,0.01 0.02,0.01 0.01,0.01 0.02,0.01 0.04,0.01 0,0 0.01,0 0.01,0 0,-0.01 -0.02,-0.01 -0.03,-0.01 -0.01,-0.01 -0.02,-0.01 -0.03,-0.01 -0.01,0 -0.01,0 -0.01,0l0 0zm1.94 -1.58c0,0 0,0.01 0,0.01 0.01,0 0.01,-0.01 0.03,-0.02 0,0 0.02,0 0.02,0 0.01,-0.01 0,-0.01 0,-0.01 -0.01,0 -0.03,0 -0.03,0.01 -0.01,0 -0.02,0.01 -0.02,0.01l0 0zm0.58 1.42c0,0.01 0.01,0.01 0.01,0.02 0.02,0.01 0.02,0.01 0.03,0.02 0.01,0.02 0.03,0.02 0.01,0 0,0 0,0 0,-0.01 -0.01,-0.01 -0.02,-0.01 -0.03,-0.02 0,0 -0.01,-0.01 -0.01,-0.01 0,0 -0.01,0 -0.01,0l0 0zm-1.58 -1.55c0,0 0,0 0,0 0.01,0 0.01,-0.01 0.02,-0.02 0,-0.01 0.01,-0.02 0.01,-0.03 0,0 -0.01,-0.01 -0.02,0.02 -0.01,0 -0.01,0.02 -0.01,0.03l0 0zm0.99 0.12c0,0.01 0.02,-0.01 0.03,-0.02 0.01,0 0.04,-0.01 0.04,-0.02 0,0 -0.01,0 -0.01,0 -0.03,0 -0.03,0.02 -0.05,0.03 0,0 -0.01,0 -0.01,0.01l0 0zm-0.28 -0.11c0,0 0,0.01 0.01,0 0,0 0,0 0,0 0.01,-0.01 0.01,-0.01 0.02,-0.01 0,-0.01 0.01,-0.01 0.01,-0.01 0.02,0 0.01,-0.02 -0.01,-0.01 0,0 -0.01,0.01 -0.01,0.01 -0.01,0 -0.02,0.02 -0.02,0.02l0 0zm-0.73 -0.01c0,0 0.01,0 0.01,-0.02 0.01,-0.01 0.01,-0.01 0.01,-0.02 0,0 0,0 0,-0.01 0.01,0 0.01,-0.01 0.01,-0.01 0,-0.01 -0.01,-0.02 -0.02,0 0,0.01 0,0.02 0,0.03 0,0.01 0,0.01 0,0.02 0,0 -0.01,0 -0.01,0.01l0 0zm0.72 0c0,0 0,0 0,0 0.01,0 0.02,-0.01 0.02,-0.02l0.01 0c0,0 0,0 0,0 0.01,-0.01 0.03,-0.02 0.03,-0.03 0,0 -0.01,0 -0.02,0 -0.01,0.01 -0.01,0.01 -0.01,0.02 -0.01,0 -0.01,0.01 -0.02,0.02 0,0 -0.01,0.01 -0.01,0.01l0 0zm0.79 1.82c0,0.02 0.04,0.06 0.04,0.03 0,0 0,-0.01 0,-0.01 -0.01,0 -0.01,0 -0.02,0 -0.01,-0.01 -0.02,-0.02 -0.02,-0.02 0,0 0,0 0,0l0 0zm0 0.03c0,0 0.01,0.02 0.01,0.02 0,0 0,0.01 0.01,0.01 0,0.01 0,0.02 0.01,0.02 0.01,0.02 0.02,0 0.01,-0.02l-0.02 -0.01c0,-0.01 -0.01,-0.01 -0.01,-0.02 -0.01,-0.01 -0.01,0 -0.01,0l0 0zm-0.02 0.01c0,0.01 0.01,0 0.02,0.02 0,0.01 0,0.01 0,0.01 0,0.01 0,0.02 0.01,0.02 0.02,0 0,-0.03 0,-0.04 -0.01,0 -0.02,-0.02 -0.02,-0.02 0,0 -0.01,0 -0.01,0.01l0 0zm-0.34 0.41c0,0.01 0.01,0.02 0.01,0.03 0,0 0.01,0.02 0.02,0.02 0,0 0,-0.01 0,-0.02 0,-0.01 -0.01,0 -0.01,-0.01 -0.01,-0.02 -0.01,-0.03 -0.01,-0.03 0,0 -0.01,0.01 -0.01,0.01l0 0zm-0.11 0.08l0 0.01c0,0.01 0.01,0.03 0.01,0.03 0.01,0 0.01,0 0.01,0 0,0 0,-0.01 0,-0.01 0,0 0,0 0,-0.01 -0.01,0 -0.01,0 -0.01,0 0,-0.01 0,-0.02 0,-0.03l-0.01 0c0,0 0,0 0,0 0,0.01 0,0.01 0,0.01l0 0zm-0.77 0.22c0,0 0,0.01 0.01,0.01 0,0 0.01,-0.01 0.01,-0.01 0,-0.01 -0.01,-0.01 0,-0.03 0,-0.01 0.01,-0.01 0.01,-0.01 -0.01,-0.01 -0.01,0 -0.01,0 -0.01,0.01 -0.02,0.03 -0.02,0.04zm0.88 -0.22c0.01,0 0.01,0 0.01,-0.01 0,-0.01 -0.01,-0.03 -0.01,-0.05 0,0 0,0 0,0 0,0 0,0 0,-0.01 -0.01,0.01 -0.01,0.01 -0.01,0.02 0,0 0.01,0.01 0.01,0.01 0,0.01 -0.01,0.03 0,0.04 0,0 0,0 0,0l0 0zm-0.02 -0.06c0,0.01 0,0.02 0,0.03 0,0.01 -0.01,0.01 -0.01,0.01 0,0 0,0.01 0.01,0.01 0.01,0 0.01,-0.02 0.01,-0.03 0,-0.01 0,-0.03 -0.01,-0.02 0,0 0,0 0,0l0 0zm-0.11 0.08c0,0 0.01,0.01 0.01,0.02 0,0.01 -0.01,0.02 -0.01,0.03 0,0.01 0.01,0.02 0.02,0 0,-0.02 -0.01,-0.03 -0.01,-0.05 0,0 0,0 0,0 0,-0.01 0,-0.01 0,-0.01 0,0 0,0 -0.01,0 0,0 0,0.01 0,0.01l0 0zm-0.01 -0.01c0,0.01 0,0.01 0,0.01 0,0.01 0,0.02 0,0.02 -0.01,0.01 -0.01,0.01 -0.01,0.02 0,0.01 0.01,0.01 0.01,0 0.01,-0.01 0.01,-0.03 0.01,-0.05 -0.01,0 -0.01,0 -0.01,0l0 0c0,0 0,0 0,0zm-0.79 0.21c0,0 0.01,0.01 0.02,0l0 -0.01c0.01,0 0.03,-0.03 0.02,-0.03 -0.01,0 -0.01,0 -0.01,0 0,0.01 -0.01,0.02 -0.02,0.02 0,0.01 -0.01,0.01 -0.01,0.02l0 0zm0.01 0.02c0,0.01 0.01,0.01 0.01,0.01 0,-0.01 0.01,-0.01 0.01,-0.02 0,0 0.01,0 0.01,-0.01 0,0 0,0 0,-0.01l0 -0.01c0.01,0 0.02,-0.01 0.01,-0.01 0,0 -0.01,0.02 -0.02,0.02l-0.01 0.02c0,0 0,0 -0.01,0 0,0.01 0,0.01 0,0.01l0 0zm0.17 -2.51c0,0.01 0.01,0.02 0.02,0.02 0.01,0 0.01,-0.03 0,-0.03 -0.01,0 -0.02,0.01 -0.02,0.01l0 0zm0.24 2.29c0,0.02 0.02,0.01 0.02,0 0,-0.01 -0.01,-0.02 -0.02,-0.01 0,0 0,0 0,0.01zm1.05 -1.31l0 0 0 0c0,0.01 0,0.02 0,0.03 -0.01,0.01 -0.02,0.02 -0.04,0.01 -0.01,0 -0.01,-0.01 -0.02,-0.01 -0.01,-0.01 -0.01,-0.01 -0.01,-0.02l-0.01 -0.01c0,-0.01 0,-0.03 0,-0.04 0.01,-0.02 0.03,-0.02 0.04,-0.01 0.01,0.01 0.02,0.03 0.01,0.04 -0.01,0.01 -0.02,0 -0.02,-0.01 0,0 0,-0.01 0,-0.01 0,0 0,0 0,0 -0.01,-0.01 -0.01,-0.01 -0.01,0 -0.01,0.01 -0.01,0.02 0,0.03 0.01,0.02 0.04,0.02 0.04,-0.01 0,-0.01 0,-0.02 0,-0.02 0,-0.02 -0.02,-0.05 -0.03,-0.06l-0.01 -0.01c-0.01,-0.01 -0.01,-0.01 -0.01,-0.02 -0.01,0 -0.01,0 -0.01,0l-0.01 -0.01c-0.01,-0.01 -0.02,-0.02 -0.04,-0.03 -0.01,0 -0.02,-0.01 -0.03,-0.01 0,0 0.01,0.01 0.01,0.01 0,0 0,0 0,0.01 0,0.01 0,0.04 0,0.05l0 0.03c0,0 0,0 0,0.01 0,0.03 -0.01,0.09 0.03,0.11 0,0.01 0,0.01 0.01,0.01l0 0.02c0,0 0,0 0,0l-0.01 -0.01c0,0 -0.01,-0.01 -0.01,-0.01 -0.01,-0.01 -0.01,-0.02 -0.02,-0.03 0,0 0,0 0,-0.01 -0.01,-0.02 -0.02,-0.04 -0.02,-0.06l0 -0.03c0,0 0,0 0,-0.01l0 -0.01c0,-0.01 0,-0.01 0,-0.02 0,-0.03 -0.02,-0.06 -0.03,-0.07l-0.01 -0.01c-0.02,-0.02 -0.03,-0.03 -0.06,-0.03 -0.01,-0.01 -0.03,0 -0.04,0 -0.01,0.01 -0.02,0.02 -0.02,0.03 -0.01,0.04 0.01,0.1 0.04,0.11 0.01,0.01 0.02,0.01 0.03,0.01 0.02,-0.01 0.03,-0.03 0.02,-0.04 -0.01,0 -0.02,0 -0.03,-0.01 -0.01,-0.02 0.03,-0.03 0.04,0 0,0.02 0,0.03 0,0.04 0,0.01 -0.01,0.01 -0.01,0.02 -0.01,0.01 -0.02,0.01 -0.04,0 -0.01,0 -0.02,-0.01 -0.02,-0.01 -0.02,-0.02 -0.04,-0.04 -0.05,-0.06 -0.01,-0.03 -0.01,-0.06 0,-0.08 0.01,-0.02 0.05,-0.03 0.07,-0.03 0.02,0.01 0.04,0.02 0.05,0.03l0.01 0c0.01,0.01 0.01,0.01 0.02,0.02 0,0 0,0 0,0 0.01,0.01 0.01,0.02 0.02,0.02 0,0.01 0.01,0.02 0.01,0.02 0,-0.02 0,-0.03 -0.01,-0.04 0,-0.02 -0.01,-0.05 -0.03,-0.07 0,0 -0.01,-0.01 -0.01,-0.01 -0.02,0 -0.03,0 -0.05,-0.01 0,0 0,0 0,0l-0.02 -0.01c0,0 -0.01,-0.01 -0.01,-0.01 -0.01,-0.01 -0.01,-0.01 -0.02,-0.02 0,-0.01 0.01,-0.03 0.02,-0.03 0.01,0 0.01,0 0.01,0 0.01,0.01 0.01,0.02 0,0.03 0,0 0,0 0,0 -0.01,0 0,0.01 0,0.01 0,0.01 0.01,0.01 0.02,0.01 0.01,0.01 0.03,0.01 0.04,0 0.01,0 0.01,-0.01 0.01,-0.02 -0.01,-0.01 -0.02,-0.02 -0.02,-0.03 -0.01,0 -0.03,-0.01 -0.04,-0.02l-0.05 0c0,0 -0.01,0 -0.01,0 -0.01,0 -0.01,0 -0.01,0 -0.01,0 -0.01,0 -0.02,0 0,0 -0.01,0 -0.01,0 -0.01,0 -0.03,0 -0.04,-0.01 -0.01,0 -0.01,0 -0.02,0 -0.01,0 -0.03,0 -0.04,0l-0.04 0c-0.02,0 -0.04,0 -0.06,-0.01 0,0 0,0 -0.01,0 -0.01,0 -0.03,0 -0.05,0 -0.01,0 -0.02,0 -0.03,0 -0.01,0 -0.02,0 -0.03,0 0,0 0,0 0,0 -0.01,0 -0.01,0 -0.01,0 0,0 -0.01,0 -0.01,0 0.01,0 0.03,0 0.04,0 0.01,0 0.03,0 0.04,0 0.01,0 0.01,0 0.02,0l0.06 0c0.01,0 0.01,0 0.02,0l0.04 0c0.01,0 0.01,0 0.02,0 0.01,0 0.01,0 0.01,0l0.02 0c0.01,0 0.01,0 0.01,0 0.01,0 0.01,0 0.02,0 0,0 0.01,0 0.01,0l0.07 0.01c0.01,0 0.01,0 0.02,0 0.01,0 0.04,0 0.06,0 0.02,-0.01 0,-0.02 -0.01,-0.03 0,0 -0.01,-0.01 -0.01,-0.01 -0.01,0 -0.01,0 -0.01,0 -0.02,0 -0.03,0 -0.04,-0.01 -0.01,0 -0.03,-0.01 -0.03,-0.01 0,0 0,0 0,0.01 0,0 0,0 0.01,0 0,0.01 0.01,0.01 0.01,0.02 0,0 0.01,0 0.01,0 0,0.01 0.01,0.01 0.01,0.01 -0.01,0 -0.03,-0.01 -0.04,-0.02l-0.01 -0.01c-0.01,-0.01 -0.01,-0.01 -0.02,-0.02 -0.03,-0.04 -0.03,-0.08 -0.06,-0.1 -0.01,0 -0.01,-0.01 -0.02,-0.01 -0.01,0.01 -0.03,0.01 -0.04,0.01 -0.01,0 -0.03,0 -0.04,0 -0.04,0.01 -0.08,0.01 -0.12,0.02 -0.02,0.01 -0.05,0.01 -0.07,0.01 -0.01,0.01 -0.03,0.01 -0.04,0.01 -0.01,0 -0.01,0 -0.02,0.01 0,0 -0.01,0 -0.01,0 0,0 0.02,-0.01 0.02,-0.01 0.01,0 0.02,0 0.03,-0.01 0.01,0 0.02,0 0.03,0 0.01,0 0.02,-0.01 0.03,-0.01 0.02,0 0.03,-0.01 0.05,-0.01 0.01,0 0.02,0 0.03,-0.01 0.02,0 0.04,0 0.06,-0.01 0.02,0 0.05,0 0.08,-0.01 0.03,0 0.06,-0.01 0.09,-0.01 0,0 0.02,-0.01 0.02,-0.01 0,-0.01 -0.01,-0.01 -0.01,-0.01 -0.01,-0.01 -0.02,-0.01 -0.03,-0.01 -0.01,-0.01 -0.01,-0.01 -0.02,0 -0.03,0 -0.06,0.01 -0.1,0.01l-0.1 0.02c-0.04,0.01 -0.09,0.02 -0.13,0.02 -0.02,0.01 -0.03,0.01 -0.05,0.01l-0.06 0.02c-0.02,0 -0.01,0 -0.02,0l0 0c0.01,0 0.02,-0.01 0.03,-0.01l0.08 -0.02c0.01,0 0.01,0 0.02,0 0,0 0,0 0.01,0l0.21 -0.05c0.02,0 0.03,0 0.05,-0.01 0,0 0,0 0,0 0,0 -0.01,0 -0.01,0 -0.01,-0.01 -0.03,-0.02 -0.02,-0.03 0,-0.01 0,-0.01 0,-0.01 -0.01,0 -0.03,-0.01 -0.04,-0.01 -0.02,-0.01 -0.02,-0.04 0,-0.05 0.02,-0.01 0.05,-0.01 0.07,-0.01 0,0 -0.01,0 -0.01,0 0,0 0,0 -0.01,-0.01 -0.01,0 -0.02,-0.01 -0.03,-0.01 -0.01,0 -0.01,0 -0.01,0 -0.01,0.01 -0.02,0.01 -0.03,0.01l-0.06 0.03c-0.02,0.01 -0.04,0.02 -0.06,0.02l-0.24 0.1c-0.01,0 -0.01,0 -0.02,0.01 0,0 -0.01,0 -0.01,0 0,0 0,0 0.01,0 0.01,-0.01 0.02,-0.01 0.04,-0.02 0.01,-0.01 0.03,-0.01 0.04,-0.02 0.02,-0.01 0.03,-0.01 0.05,-0.02l0.01 0c0,-0.01 0.01,-0.01 0.01,-0.01 0.01,0 0.01,0 0.01,0l0.04 -0.02c0.02,-0.01 0.04,-0.02 0.06,-0.03l0.07 -0.03c0,0 0.02,-0.01 0.02,-0.01 -0.01,0 -0.03,0 -0.04,-0.01 -0.01,0 -0.02,-0.01 -0.01,-0.03 -0.01,0 -0.02,0 -0.03,0 -0.04,-0.01 -0.03,-0.04 -0.01,-0.05 0,-0.01 0.01,-0.01 0.02,-0.01 0.01,0 0.02,-0.01 0.03,-0.01 0,0 0.01,0 0.01,0 0,0 -0.01,0 -0.02,-0.01 0,0 -0.01,0 -0.01,0 -0.01,0 -0.03,-0.01 -0.04,-0.01 -0.01,0 -0.01,0 -0.01,0 -0.01,0.01 -0.02,0.01 -0.02,0.01 -0.01,0.01 -0.01,0.01 -0.02,0.01 0,0 0,0 -0.01,0 0,0 0,0 0,0 0,0 0,0 0,0l-0.01 0c0.01,0 0.02,0.01 0.03,0.01 0.01,0.01 0.01,0.02 0,0.03 0,0.01 -0.01,0.02 -0.01,0.02 -0.01,0.01 -0.01,0.01 -0.01,0.01 0,0 0,0 -0.01,0.01 -0.01,0.01 -0.04,0.03 -0.06,0.04 -0.03,0.01 -0.06,0.02 -0.08,0.03 -0.02,0.01 -0.03,0.01 -0.05,0.02l-0.04 0.01c0,0 0,0 0,0 0,0 0.01,0 0.01,0l0.14 -0.07c0.02,-0.01 0.04,-0.02 0.06,-0.03 0.01,-0.01 0.04,-0.04 0.03,-0.06 -0.01,-0.01 -0.03,-0.01 -0.03,-0.01 -0.01,0 -0.01,0 -0.01,0l0 0c0,0 0,-0.01 0.01,-0.01 0.01,0 0.02,0 0.04,-0.01 0,0 0,0 0,0 0.01,-0.01 0.02,-0.01 0.03,-0.02 0.01,-0.02 -0.03,-0.02 -0.04,-0.02 -0.01,0 -0.01,0 -0.02,0 -0.01,0.01 -0.02,0.02 -0.03,0.02 -0.01,0.01 -0.03,0.01 -0.04,0.01 -0.01,0 -0.01,-0.01 -0.02,-0.01 0,-0.02 0.02,-0.03 0.03,-0.02 0.01,0.01 0,0.02 0,0.02 0.01,0 0.02,0 0.02,-0.01 0.01,-0.01 0.03,-0.03 0.02,-0.05 -0.01,0 -0.02,0 -0.04,0 0,0 0,0 0,0 0,0.01 0,0.01 -0.01,0.01 -0.01,0.01 -0.02,0.02 -0.03,0.03 0,0 -0.01,0 -0.01,0 -0.01,0.01 -0.02,0.01 -0.03,0 -0.01,0 -0.01,0 -0.01,-0.01 0,-0.01 0,-0.01 0,-0.02 0.02,-0.01 0.03,0 0.03,0.01 0,0 0,0.01 0,0.01 -0.01,0 -0.01,0 -0.01,0 0,0.01 0.02,0 0.02,0 0.01,0 0.01,-0.01 0.01,-0.01 0.01,-0.01 0.02,-0.02 0.02,-0.04 0,0 0,-0.01 -0.01,-0.01 -0.01,0 -0.02,0 -0.03,0.01 -0.01,0 -0.01,0 -0.01,0 -0.02,0.01 -0.03,0.02 -0.03,0.03 -0.01,0.01 -0.03,0.02 -0.04,0.02 0,-0.01 0,-0.01 0,-0.01l0.02 -0.01c0.01,-0.01 0.04,-0.04 0.04,-0.05 0.01,-0.01 -0.01,0 -0.01,0 -0.01,0 -0.01,0 -0.01,0 -0.01,0.01 -0.02,0.01 -0.02,0.02 0,0 0,0 0,0l-0.01 0.01c0,0 -0.01,0.01 -0.01,0.01 -0.01,0 -0.02,0.01 -0.02,0.02l-0.03 0.02c0,0.01 0,0.01 -0.01,0.01l-0.02 0.03c0,0 0,0 0,0 -0.01,0.01 -0.02,0.02 -0.03,0.02 0,0 0,0 0,0.01 0,0 0,0 0,0 -0.01,0 -0.01,0.01 -0.02,0.01l-0.02 0.02c0,0 0,0 0,0.01 0,0 -0.01,0 -0.01,0 0,0.01 -0.01,0.01 -0.02,0.02 0,0 -0.01,0.01 -0.01,0.01 -0.01,0.01 -0.07,0.08 -0.08,0.08l-0.01 0.01c-0.01,0.01 -0.01,0.01 -0.01,0.01 -0.01,0.01 0,0 -0.01,0 0,0 0.01,0 0.01,-0.01 0.01,0 0.01,0 0.01,0l0.1 -0.11c0,0 0,0 0,0 0.01,0 0.01,0 0.01,-0.01l0.08 -0.09c0.01,0 0.01,0 0.01,-0.01 0,0 0,0 0.01,0l0.03 -0.04c0,0 0,0 0.01,0 0,-0.01 0.02,-0.02 0.02,-0.03 0,0 -0.01,0.01 -0.01,0.01 0,0 0,0 0,0 -0.02,0.01 -0.05,0.02 -0.07,0.01 0,0 -0.01,0 -0.01,-0.01 -0.01,-0.02 0,-0.03 0.01,-0.05l0.01 -0.01c0.01,0 0.02,-0.01 0.03,-0.01 0.01,-0.01 0.03,-0.01 0.04,-0.01 0,0.01 0.01,0.01 0.01,0.02 0,0.01 -0.02,0.02 -0.03,0.01 -0.01,0 0,-0.01 0,-0.01 0,0 0,-0.01 0,-0.01 -0.02,0 -0.04,0.01 -0.04,0.03 -0.01,0 -0.01,0.02 -0.01,0.03 0.01,0.01 0.02,0.01 0.03,0.01 0.01,0 0.05,-0.02 0.06,-0.02l0.03 -0.03c0.01,-0.01 0.05,-0.04 0.07,-0.05 0,0 0,0 0,-0.01l0.02 -0.01c0.01,-0.01 0.03,-0.01 0.05,-0.02 0.02,0 0.05,0 0.06,0.01 0,0 0,0 0,0 -0.01,-0.01 -0.03,-0.01 -0.05,0 0,0 -0.01,0 -0.01,0 -0.02,0.01 -0.04,0.02 -0.05,0.02 0,0.01 0,0.01 0,0.01 -0.02,0.01 -0.03,0.01 -0.04,0.03 0,0 0,0 0,0l-0.03 0.02c0,0 0,0 0,0.01l0.01 -0.01c0.02,0 0.03,0 0.02,0.02 -0.01,0 -0.01,0.01 -0.01,0.01 0,0 0.01,0 0.01,-0.01 0.01,0 0.05,-0.01 0.06,0.01 0,0.01 0,0.01 0,0.02 0.01,0 0.04,-0.01 0.05,0 0.03,0.01 0.01,0.04 0.01,0.04 0,0 0,0 0.01,0 0.01,0 0.04,0 0.05,0 0.01,0 0.02,0 0.02,0.01 0,0.01 0,0.01 0,0.02 0,0 -0.01,0 -0.01,0 0.01,0 0.03,0.01 0.04,0.01 0.04,0.01 0.07,0.02 0.1,0.05l0.01 0.01c0,0 0,0 0,0l0.02 0.01c0,0.01 0,0.01 0,0.01l0.01 0c0,0.01 0.01,0.01 0.01,0.01 0.02,0.01 0.03,0.01 0.03,0.01 0,0.01 -0.01,0.01 -0.01,0.01 0,0 -0.01,0 -0.01,0 -0.01,0 -0.02,0 -0.02,0 0,0.01 0,0.01 0,0.01 0.02,0 0.04,0.01 0.06,0.02 0,0 0.01,0 0.01,0l0.02 0.02c0,0 0.01,0.01 0.01,0.01 0.01,0.01 0.02,0.02 0.02,0.02 0,0 0.01,0.01 0.01,0.01 0,0 0,0 0,0 0,0 0,0 0,0 0.01,0.01 0.01,0.01 0.01,0.02l0.01 0.02c0,0 0.01,0 0.01,0 0,0.01 0,0 -0.02,0.01 -0.01,0 -0.01,0 -0.01,0l0 0c0,0 0.01,0 0.01,0.01 0.01,0 0.02,0 0.04,0.01 0,0.01 0.01,0.01 0,0.02 0,0 0,0 -0.01,0.01 0,0 -0.01,0 -0.01,0 0.01,0 0.02,0.01 0.03,0.01 0.01,0 0.02,0.01 0.03,0.02 0.01,0.01 0.01,0.02 0.01,0.03 0,0 0,0.01 -0.01,0.01l0 0c0.01,0 0.02,0.01 0.03,0.01 0.01,0.01 0.02,0.03 0.02,0.05 0,0 0,0.01 -0.01,0.01 0,0 -0.01,0.01 -0.01,0.01l0 0c0.02,0.01 0.05,0.02 0.06,0.04 0.01,0.01 -0.03,0.01 -0.04,0.01l0.01 0.01c0.01,0.01 0.03,0.02 0.04,0.03 0,0 0,0 0,0.01 0.01,0.01 0.03,0.03 0.01,0.04l-0.01 0.01c0,0 0.01,0.01 0.01,0.01 0,0 0.01,0.01 0.01,0.01 0.01,0.02 0.02,0.03 0.03,0.05 0,0.02 0,0.01 0.01,0.02 0,0 0,0 0,0 0,0 0.01,0 0.01,0 0,0.01 0.01,0.01 0.01,0.01 0.01,0.01 0.01,0.01 0.01,0.01l0.03 0.02c0,0 0.01,0.01 0.02,0.01 0,0 0,0 0,0l0.01 0.01c0.01,0.01 0.02,0.03 0.03,0.04 0.01,0.01 0.03,0.04 0.03,0.06 0,0 0,0.01 0,0.02l0 0zm-2.49 -0.21c0,0 -0.01,-0.02 -0.02,-0.03l-0.01 -0.01c0,0 0,0 0,0 -0.01,-0.02 -0.02,-0.04 -0.03,-0.05 -0.01,-0.03 -0.03,-0.06 -0.03,-0.09 0,-0.01 0,-0.02 0,-0.03 0,0 0,-0.01 0,-0.01 0,-0.01 0,0 0,-0.01l0 0.02c-0.01,0.01 -0.01,0.03 -0.01,0.05 0,0.01 0.01,0.02 0.01,0.03 0,0 0,0.01 0,0.01 0,0 0,0 0.01,0.01 0,0 0,0.01 0,0.01 0,0.01 0,0.01 0.01,0.01 0,0.02 0.03,0.06 0.04,0.08 0.01,0.01 0.02,0.02 0.03,0.03 0,0.01 0.01,0.02 0.02,0.03 0.01,0.01 0.01,0.04 0.02,0.05 0,0.01 0,0.02 -0.01,0.03 -0.02,0 -0.03,0 -0.04,-0.01 -0.01,-0.01 -0.02,-0.02 -0.02,-0.04 0,-0.01 0,-0.01 0,-0.01 0.01,0 0.01,0 0.02,0 0.01,-0.01 0,-0.03 -0.01,-0.03 -0.01,0 -0.01,0.01 -0.01,0.01 -0.01,0.01 -0.01,0.03 -0.01,0.04 0.01,0.04 0.05,0.08 0.08,0.06 0.02,-0.01 0.01,-0.05 0.01,-0.07 -0.01,0 -0.01,0 -0.01,-0.01 0,0.01 0,0.01 0.01,0.01 0,0 0,0 0,0l0.05 0.06c0,0 0,0 0,0l0.01 0.01c0.01,0.01 0.02,0.02 0.02,0.03 0.01,0 0.01,0 0.01,0 0,0 0,0 0,0.01l0.02 0.02c0,0 0,0 0,0l0.01 0.02c0,0 0.01,0 0.01,0l0.01 0.02c0.02,0.02 0.03,0.04 0.05,0.06l0.03 0.04c0,0 0.01,0.01 0.01,0.01 0.01,0.01 0.04,0.04 0.04,0.05 0,0 0,0 0,0 0,0 0,0 0.01,0 0,0 0,0 -0.01,-0.01 0,-0.01 -0.01,-0.02 -0.02,-0.03 -0.03,-0.04 -0.06,-0.07 -0.09,-0.11l0 -0.01c-0.01,0 -0.01,0 -0.01,0 -0.01,-0.01 -0.03,-0.05 -0.04,-0.06l-0.02 -0.02c0,0 0,0 0,-0.01l-0.07 -0.08c0,0 0,0 0,0 -0.01,0 -0.01,-0.01 -0.01,-0.01 0,0 -0.01,-0.01 -0.01,-0.01l-0.02 -0.03c-0.01,0 -0.01,-0.01 -0.01,-0.01 -0.01,-0.01 -0.01,-0.01 -0.01,-0.02 0,0 0,-0.01 0,-0.02 0,0 -0.01,-0.01 0,-0.01 0,-0.01 0,-0.01 0,-0.01 0,0 0.01,0.01 0.01,0.01l0.02 0.02c0,0 0,0.01 0,0.01 0.01,0.01 0.02,0.01 0.02,0.02l0.01 0.01c0,0.01 0,0.01 0,0.02l0 0c0.01,-0.01 0.01,-0.01 0.01,-0.02 -0.01,-0.02 -0.02,-0.04 -0.03,-0.05l-0.01 -0.01c0,-0.01 -0.01,-0.02 -0.01,-0.03 -0.01,-0.05 0.03,-0.04 0.05,-0.01 0,0.01 0.01,0.02 0.01,0.03 0,0 -0.01,0 -0.01,0 0,0 0,-0.01 -0.01,0 -0.01,0 -0.01,0.01 -0.01,0.01 0,0.01 0.02,0.02 0.03,0.01 0.01,-0.01 0,-0.05 -0.01,-0.06l-0.01 -0.03c-0.01,0 -0.01,0 -0.02,-0.01 0,-0.01 0,-0.04 0.01,-0.05 0.01,-0.01 0.03,0 0.04,0.01 0,0.01 0.01,0.01 0.02,0.02 0,0.01 0,0.01 0,0.02 0,0 -0.01,0 -0.01,0 0,0 0,-0.01 -0.01,-0.01 -0.01,0 -0.02,0.01 -0.02,0.02 0.01,0.01 0.02,0.02 0.03,0.01 0.02,0 0.02,-0.02 0.02,-0.03 0,-0.01 0,-0.01 -0.01,-0.02 0,0 0,0 0,-0.01 0,-0.01 -0.01,-0.02 -0.02,-0.02 0,-0.01 0,-0.01 0,-0.01 -0.01,0 -0.01,0 -0.01,0 0,-0.01 0,-0.02 0,-0.04 0.01,-0.02 0.02,-0.03 0.03,-0.01 0.02,0.02 0.03,0.05 0.03,0.08 0,-0.01 0.01,-0.01 0.01,-0.01 0,-0.01 0,-0.01 0,-0.01 0,-0.01 0,-0.02 0,-0.03 0.02,-0.03 0.06,0.02 0.07,0.04 0.02,0.03 0.03,0.1 0.04,0.13 0,0 0,0 0,0.01 0,0 0.01,0.05 0.01,0.05l0 0c0,-0.01 0,0 0,-0.01 0,0 0,-0.01 0,-0.01 0,-0.04 -0.01,-0.08 -0.02,-0.12 0,-0.01 -0.01,-0.02 -0.01,-0.04 0,0 0,0 -0.01,-0.01 0,0 0,0 0,0l0 -0.01c0,0 0,0 0,-0.01 -0.01,0 -0.01,0 -0.01,0 0,-0.01 0,-0.01 0,-0.01 -0.01,0 -0.01,-0.01 -0.01,-0.01l-0.01 -0.01c-0.01,-0.01 -0.02,-0.02 -0.04,-0.02 -0.01,-0.01 -0.02,0.01 -0.02,0.02 0,0 -0.01,-0.02 -0.02,-0.05 -0.01,0 -0.01,0 -0.01,0 0,0 0,-0.01 0.01,-0.01 0,-0.02 0,-0.03 0.01,-0.05 0,0 0.01,0 0.01,0 0,0.02 0.01,0.07 0.03,0.07 0.02,0.01 0.03,0 0.03,-0.01 0.01,-0.01 0.01,-0.02 0.01,-0.03 0,0 0,0 0,-0.01 0,0 0,-0.01 0,-0.01 0,0 0,0 0,0 0.02,0.01 0.03,0 0.04,-0.02 0,-0.01 0,-0.01 0,-0.02 0,0 0,0 0,0 0,0 0,0.01 0.01,0.02 0,0.01 0.01,0.02 0.02,0.04l0.01 0.04c0.03,0.07 0.05,0.14 0.08,0.21 0,0 0,0.01 0.01,0.02 0,0.01 0,0.02 0.01,0.03 0,0.01 0.01,0.02 0.01,0.04 0,0 0,0.01 0.01,0.01 0,-0.01 0,0 0,-0.02 -0.01,0 -0.01,0 -0.01,0 0,-0.02 -0.01,-0.05 -0.02,-0.07 0,-0.01 -0.01,-0.02 -0.01,-0.03l-0.06 -0.18c-0.01,-0.02 -0.01,-0.03 -0.02,-0.05l-0.01 -0.02c0,-0.01 0,-0.01 0,-0.02 -0.01,-0.02 -0.03,-0.05 -0.04,-0.07 0,-0.01 0,-0.01 0,-0.01 0,-0.01 0,-0.06 0.01,-0.04 0.01,0 0.01,0 0.01,0.01 0.01,0 0.01,0.01 0.01,0.02l0.01 0.02c0,0 0,0 0,0.01l0.02 0.03c0.01,0.04 0.03,0.07 0.04,0.11 0.01,0.03 0.02,0.07 0.03,0.1l0.03 0.09c0.01,0 0.01,0.01 0.01,0.01 0,0.01 0,0.01 0,0.02 0.01,0 0.01,0 0.01,-0.01 0,0 0,0 -0.01,-0.01l-0.01 -0.03c0,-0.01 0,-0.01 0,-0.02l-0.07 -0.21c-0.01,-0.02 -0.01,-0.03 -0.02,-0.05l-0.02 -0.07c-0.01,-0.01 -0.01,-0.01 -0.01,-0.02l0 -0.02c0,-0.01 0,-0.02 0.02,-0.03 0.02,-0.01 0.03,0.02 0.04,0.03 0,0.01 0,0.03 -0.01,0.04 0,-0.01 -0.01,-0.02 -0.01,-0.02 -0.01,0 -0.01,0 -0.01,0.01 -0.01,0 -0.01,0 -0.01,0.01 0,0 0.01,0.01 0.01,0.01 0.02,0.01 0.04,-0.01 0.04,-0.03 0,-0.02 0,-0.04 -0.01,-0.05l0 -0.01c-0.01,0 0,0 0,-0.01 0,0 0,-0.01 0,-0.02 0,0 0,0 0.01,-0.01 0,0 0,0 0,0 0.01,-0.01 0.03,-0.01 0.03,0.01 0.01,0 0.01,0 0.01,0 0.01,0.02 0.01,0.04 0,0.05 0,0 0,0 0,-0.01 -0.01,-0.01 -0.02,-0.01 -0.02,0 -0.01,0.01 0,0.03 0.01,0.03 0.01,0 0.01,0 0.01,0 0.01,-0.01 0.02,-0.02 0.02,-0.03 0,-0.01 0,-0.03 -0.01,-0.05 0,-0.01 0,-0.01 0.01,-0.02 0,0 0,-0.01 0,-0.01 0,-0.01 0,-0.01 0.01,-0.02 0,-0.01 0.01,0 0.01,0.01 0.01,0.02 0.01,0.06 0.01,0.08 0.01,0 0.01,-0.01 0.01,-0.01 0.01,-0.01 0.01,-0.02 0,-0.03 0,-0.01 0,-0.02 0,-0.02 0,-0.02 0,-0.04 0.01,-0.05 0,-0.01 0.01,-0.01 0.02,-0.02 0.01,0 0.01,0.01 0.02,0.02 0,0.01 0.01,0.05 0,0.05 0,0 0,-0.01 -0.02,-0.01 -0.01,0 -0.01,0.03 0,0.03 0.03,0.01 0.04,-0.02 0.04,-0.05 0,-0.01 0,-0.02 -0.01,-0.03 0,-0.01 0,-0.01 0.01,-0.02 0,0 0.01,-0.02 0.01,-0.02 0.01,-0.01 0.01,0 0.01,0.01 0.01,0.02 0.02,0.05 0.02,0.08l0 0.04c0,0.01 0,0.02 0,0.03l0 0.02c0,0.01 0,0.01 0,0.02 0.01,0.01 0,0.03 0.01,0.04l0 0.13c0,0 0,0 0,0 0,0 0,-0.01 0,-0.01l0 -0.01c0,-0.01 0,-0.03 0,-0.04 0,-0.01 0,-0.01 0,-0.01 0,-0.01 0,-0.02 0,-0.03 0,-0.01 0,-0.03 0,-0.04 0,0 0,-0.01 0,-0.01l0 -0.06c0,0 0,-0.01 0,-0.01 0,-0.01 0,-0.01 0,-0.02l0 -0.03c0,-0.01 0,-0.01 0,-0.01 0,-0.01 0,-0.01 0.01,-0.01 0,0 0,0 0,-0.01 0.01,0 0.02,-0.01 0.03,-0.02 0.01,0 0.02,0 0.04,-0.01 0.01,0 0.01,-0.01 0.02,-0.01 0.01,-0.01 0.02,-0.01 0.03,-0.02 0,0 0,-0.01 0.01,-0.01 0,-0.01 0.01,-0.02 0.01,-0.03 -0.01,0.01 -0.01,0.02 -0.03,0.03 0,0 -0.01,0 -0.01,0 0,0 0.01,-0.02 0.02,-0.04 0,-0.01 0,-0.03 -0.01,-0.04 0,-0.01 -0.01,-0.01 -0.02,-0.01 -0.01,0.01 -0.04,0.04 -0.04,0.04l0 0c0,-0.01 -0.02,-0.03 -0.04,0.01 -0.01,0.01 -0.02,0.03 -0.03,0.04 0,0 0,0 0,0 0,0.01 0,0.01 0,0.01 0,-0.01 0,-0.04 -0.01,-0.04 -0.01,0 -0.01,0 -0.01,0.01 -0.01,0 -0.03,0.04 -0.03,0.04 0,0 0,0 0,0 0,0 0,0 0,0 -0.01,-0.02 -0.03,-0.02 -0.05,0 -0.01,0.01 -0.01,0.02 -0.01,0.04 0,0 -0.01,0.01 -0.01,0.01l0 0c0,0 0,-0.01 0,-0.02 0,-0.01 -0.01,-0.01 -0.02,-0.01 0,-0.01 0,-0.01 0,-0.02 0,-0.02 0,-0.03 0.01,-0.06 0,-0.02 0.01,-0.04 0.02,-0.06 0.01,-0.01 0.01,-0.01 0.02,-0.02 0.03,-0.01 0.05,0.02 0.04,0.04 -0.01,0.01 -0.03,0.01 -0.03,0 0,0 0.01,-0.01 0.01,-0.01 0,0 0,-0.01 0,-0.02 0,0 -0.01,0 -0.01,0 -0.02,0 -0.03,0.02 -0.02,0.04 0.02,0.02 0.05,0.01 0.06,-0.01 0.01,-0.01 0.01,-0.03 0,-0.04 0,-0.01 0,-0.01 0,-0.01 0,0 0,0 -0.01,0l0 -0.01c0,0 -0.01,0 -0.01,-0.01 -0.03,0 -0.05,0.03 -0.06,0.05 -0.01,0.02 -0.02,0.04 -0.02,0.06 0,0 -0.01,0.01 -0.01,0.02 0,0 0,0 0,0.01 0,0 0,0 0,0.01l0 0.02c0,0 0,0.01 0,0.02 0,0.01 0,0.01 0,0.02 0,0.01 -0.01,0.02 -0.01,0.03 0,0.01 0,0.01 0,0.01 -0.02,-0.02 -0.04,-0.02 -0.05,0 -0.01,0.01 -0.02,0.02 -0.02,0.03 0,0.01 0,0.02 0,0.02 -0.01,0 -0.02,-0.01 -0.03,-0.01 -0.01,0 -0.01,0.01 -0.02,0.01 0,0.01 0,0.02 -0.01,0.03 0,0.01 0,0.02 0,0.03l0 -0.01c0,0 -0.01,-0.01 -0.01,-0.01 -0.01,-0.01 -0.01,-0.01 -0.02,0 0,0.01 0,0.03 0,0.04 0,0 0,0.01 0,0.01 0,0 0,0 0,0.01 -0.01,-0.01 -0.01,-0.02 -0.01,-0.03 0,0 0,-0.01 0,-0.02 0,0 0,0 0,0l-0.01 0.01c0,0.01 -0.01,0.02 -0.01,0.03l-0.03 0.02c0,0 0,0 0,0 -0.01,0.02 -0.04,0.05 -0.05,0.06 0,0.01 0,0.01 -0.01,0.02 -0.01,0.02 -0.01,0.04 -0.01,0.06 -0.01,0 -0.02,0 -0.03,0.01 -0.01,0.01 -0.01,0.06 -0.01,0.07 0,0 0,0 0,0 0,0 -0.01,0 -0.01,0 -0.01,-0.01 -0.02,0.01 -0.03,0.02 0,0.01 0,0.03 0,0.04 0,0.01 0,0.01 0,0.02 -0.01,-0.01 -0.02,-0.01 -0.03,0.01 0,0.02 0,0.04 0.01,0.05 0,0 0,0 -0.01,0 0,0 0,0 0,0 0,-0.01 0,-0.01 -0.01,-0.01 0,0 -0.01,0.01 -0.01,0.02 0,0.01 0.01,0.02 0.01,0.03l0 0.02c0,0 0,0 0,0l0 0zm1.05 -0.98l0 0c0.02,0 0.04,0.02 0.03,0.05 -0.02,0.04 -0.07,0.03 -0.07,0 0,-0.01 0,-0.02 0.01,-0.02 0.01,-0.01 0.02,-0.01 0.03,0 0,0.02 -0.02,0.02 -0.03,0.03 0,0 0.01,0 0.01,0 0,0 0.01,0 0.01,0 0.02,0 0.03,-0.02 0.02,-0.03 -0.02,-0.02 -0.05,-0.01 -0.07,0.01l0 0c-0.01,0.01 -0.02,0.01 -0.02,0.02 -0.01,0.01 -0.02,0.02 -0.03,0.03l-0.02 0.04c0,0 0,0.01 0,0.02 0,-0.01 0.02,-0.01 0.02,-0.01l0.03 0c0.01,0 0.02,0 0.03,0 0.01,0 0.02,0 0.03,0 0.01,0 0.01,0 0.02,-0.01 0,0 0,0 0.01,0 0.01,0 0.01,-0.01 0.02,-0.01l0.01 0c0.01,0 0.02,0 0.03,0 0.01,-0.02 0.03,-0.04 0.04,-0.06 0.01,-0.01 0.01,-0.01 0.01,-0.01l0.01 -0.01c0.01,-0.01 0.01,-0.01 0.02,-0.02 0.01,-0.01 0.03,-0.02 0.05,-0.01 0.01,0.01 0.01,0.01 0.01,0.01 0,0 0,0 0,0 0.02,-0.01 0.03,-0.01 0.04,-0.02 0.02,0 0.04,0 0.05,0.01 0.01,0.02 0,0.05 -0.01,0.06 -0.01,0.01 -0.03,0.02 -0.04,0.02 -0.02,0 -0.04,-0.03 -0.02,-0.05 0,0 0.01,-0.01 0.02,-0.01 0,0 0.01,0.01 0.01,0.01 0.01,0.01 -0.01,0.03 -0.02,0.02 0,0 0,0 0,0 -0.01,0 -0.01,0 0,0.01 0.01,0.01 0.03,0.01 0.04,-0.01 0.01,-0.01 -0.01,-0.03 -0.03,-0.04 -0.02,0 -0.04,0.01 -0.06,0.03 0,0 0,0 -0.01,0l-0.01 0.01c0,0.01 -0.01,0.01 -0.01,0.01 -0.02,0.02 -0.03,0.04 -0.04,0.06 0,0 0.02,0 0.03,0 0,0 0,0 0.01,0 0,0 0,0 0,0 0.01,0 0.02,0 0.02,0 0.01,0 0.02,0 0.03,-0.01 0,0 0,0 0.01,0l0.01 -0.01c0,0.01 -0.01,0.02 -0.02,0.02 -0.01,0.01 -0.03,0.02 -0.05,0.02 -0.01,0 -0.01,0 -0.02,0 0,0 0,0 -0.01,0.01l-0.03 0.06c-0.01,0.03 -0.03,0.05 -0.04,0.08l-0.02 0.05c-0.01,0.01 -0.01,0.02 -0.02,0.02l-0.02 0.05c0,0 0,0 0,0l-0.02 0.03c0,0.01 0,0.01 0,0.01l-0.01 0.02c-0.01,0.01 -0.01,0.01 -0.01,0.01l0 0.01c-0.01,0 -0.01,0.01 -0.01,0.01 0,0.01 -0.01,0.02 -0.01,0.03 -0.01,0 -0.01,0 -0.01,0l0.05 -0.09c0,-0.01 0,-0.01 0,-0.01l0.01 -0.02c0.01,-0.02 0.02,-0.04 0.03,-0.06l0.04 -0.08c0,0 0,0 0,-0.01l0.01 -0.02c0.01,-0.01 0.01,-0.01 0.01,-0.01 0,0 0,-0.01 0,-0.01 0,0 0.02,-0.03 0.02,-0.03l-0.01 0.01c-0.01,0 -0.03,0.01 -0.04,0.02 -0.01,0 -0.02,0 -0.03,0 -0.01,-0.01 -0.01,-0.02 -0.01,-0.03 0,0 0,0 0,0 -0.01,0.01 -0.02,0.02 -0.03,0.03l0 0c-0.01,0.01 -0.02,0.02 -0.03,0.02 0,0 0,0 0,0.01 0.01,0.01 0,0.03 -0.01,0.04 0,0.01 -0.01,0.02 -0.03,0.03 -0.02,0.01 -0.05,0.01 -0.07,0 -0.01,-0.01 -0.02,-0.02 -0.03,-0.03 0,-0.01 0,-0.02 0,-0.03 0,-0.01 0,-0.03 0.01,-0.04 0.01,-0.01 0.01,-0.01 0.01,-0.02 0.01,0 0.01,-0.01 0.02,-0.02l0.02 -0.02c0,0 0.01,0 0.01,-0.01 -0.03,0 -0.06,0.02 -0.08,0.04 0,0 0,0 0,0.01 0,0.01 -0.01,0.02 -0.01,0.03 -0.01,0.02 -0.02,0.05 -0.04,0.04 -0.01,0 -0.01,0 -0.01,-0.01 -0.01,0 -0.01,-0.01 0,-0.01 0,0 0,0 0,-0.01 0.01,-0.01 0.02,0 0.02,0.01 0.01,0 0.02,-0.02 0.02,-0.03 0,-0.01 0,-0.03 -0.01,-0.03 0,-0.02 -0.02,0 -0.03,0l0 0.01c-0.01,0.01 -0.02,0.02 -0.02,0.03 -0.01,0.02 -0.01,0.04 -0.02,0.05 0,0.03 0,0.06 -0.01,0.08 -0.01,0.08 -0.03,0.16 -0.04,0.23l-0.01 0.06c0,0.01 0,0.01 0,0.01 0,0.01 0,0.01 0,0.01 0,0 0,0.01 0,0.01 0,-0.01 0.01,-0.11 0.01,-0.12 0,-0.02 0.01,-0.04 0.01,-0.06 0,-0.01 0,-0.01 0,-0.02 0.01,-0.03 0.01,-0.06 0.02,-0.1 0,-0.02 0.01,-0.06 0.01,-0.08l0 -0.04c0,0 0.01,-0.05 0,-0.05 0,-0.01 -0.01,0 -0.01,0 -0.01,0.01 -0.01,0.02 -0.02,0.02 0,0 0,0 0,0 0.01,-0.02 0.02,-0.03 0.03,-0.04 0,0 0.01,-0.01 0.01,-0.01 0.02,-0.01 0.01,0.03 0.01,0.04 0,0 0,-0.01 0,-0.01l0.01 -0.01c0,0 0.01,-0.01 0.01,-0.01l0.01 -0.01c0.01,-0.01 0.04,-0.03 0.05,-0.01 0,0 0.01,0.01 0.01,0.01 0,0 0,0 0,0l0.01 -0.01c0.01,-0.01 0.01,-0.01 0.01,-0.01l0.02 -0.01c0,0 0.01,0 0.01,-0.01 0,0 0,0 0,0 0,0 0,0 0,0 0.01,0 0.01,0 0.01,0l0.01 -0.02c0,-0.01 0,-0.01 0,-0.01 0.01,-0.01 0.01,-0.02 0.01,-0.02 0.02,-0.04 0.06,-0.08 0.09,-0.1 0.01,0 0.02,0 0.03,0l0 0zm1.26 1.74c0.01,0.01 0.02,0.01 0.02,0.01 0.01,0 0.01,-0.01 0.01,-0.02 0,-0.01 -0.01,-0.02 -0.01,-0.03 0,-0.01 -0.01,-0.01 -0.01,-0.01 0.01,0 0.03,0.02 0.04,0.03 0,0 0,0 0,0.01 0.01,0 0.03,0.03 0.03,0.04 0.06,0.07 0.04,0.11 0.04,0.12 0,0 0,0 0,0.01l0 0c0,-0.01 0,-0.01 0,-0.01 0.01,-0.02 0.01,-0.04 0,-0.06 0,-0.01 0,-0.02 -0.01,-0.03l-0.01 -0.02c0,0 0,-0.01 0,-0.01 -0.01,0 -0.01,-0.01 -0.01,-0.01 0,0 0,0 0,0l-0.01 -0.02c0,0 0,0 -0.01,-0.01 0,-0.01 -0.01,-0.02 -0.02,-0.02 -0.01,-0.02 -0.03,-0.04 -0.05,-0.05l-0.01 -0.01 0 -0.02c-0.01,-0.01 -0.02,-0.03 -0.01,-0.04 0,-0.01 0.02,-0.01 0.04,0 0.01,0 0.02,0.01 0.02,0.03 0,0 0,0.01 0,0.01 0,0 0,0 0,0 -0.01,-0.01 -0.02,0 -0.02,0.02 0.01,0 0.01,0.01 0.02,0.01 0.01,-0.01 0.02,-0.03 0.01,-0.05 -0.01,-0.02 -0.02,-0.03 -0.03,-0.04 0,0 -0.01,-0.01 -0.01,-0.01 -0.02,-0.01 -0.03,-0.01 -0.04,0 -0.03,0.02 0,0.06 0,0.07 0,-0.01 0,-0.01 -0.01,-0.01l-0.04 -0.05c-0.01,0 -0.03,-0.02 -0.03,-0.02 0,-0.01 0,-0.01 -0.01,-0.01 0,0 -0.01,-0.01 -0.01,-0.02 -0.01,0 -0.02,-0.01 -0.03,-0.02 0,0 0,0 0,0l-0.04 -0.05c-0.01,0 -0.01,0 -0.01,0 0,0 0,0 0,-0.01 -0.01,0 -0.01,0 -0.01,-0.01l-0.07 -0.07c0,0 -0.01,-0.02 -0.01,-0.02 0,0.01 0,0.01 0,0.02 0,0 0,0 0.01,0l0.04 0.05c0,0 0,0 0,0 0.01,0.01 0.01,0.01 0.02,0.02l0.03 0.03c0,0 0,0 0,0l0.07 0.08c0.01,0.01 0.02,0.02 0.03,0.04 0.01,0 0.04,0.03 0.05,0.04l0.02 0.03c0.01,0 0.01,0 0.01,0 0.01,0.02 0.02,0.02 0.03,0.04 0,0.01 0.01,0.02 0,0.03 -0.01,0 -0.01,-0.01 -0.02,-0.01 -0.01,-0.01 -0.03,-0.03 -0.04,-0.04 0,0 0,-0.01 -0.01,-0.01 0,-0.01 0,-0.01 0,-0.01 0,0.01 0.01,0.03 0.01,0.03 0.01,0.01 0.01,0.02 0.02,0.02 0.01,0.02 0.03,0.05 0.03,0.07 0,0 0,0.01 0,0.01 -0.01,0.01 -0.02,0 -0.03,0 -0.01,-0.01 -0.01,-0.01 -0.01,-0.01 -0.02,-0.01 -0.02,-0.02 -0.02,-0.04 0.01,0 0.01,0.01 0.02,0 0.01,0 0,-0.02 -0.01,-0.02 -0.01,0 -0.02,0 -0.02,0.01 0,0.01 0,0.03 0,0.04 0.01,0.02 0.02,0.03 0.04,0.04 0,0 0,0.01 0.01,0.02 0,0 0,0.01 0,0.02 0,0.02 -0.04,0 -0.05,-0.01 0,0 0,0 -0.01,0 0,-0.01 0,-0.01 0,-0.01 0,-0.01 0,-0.01 0,-0.02 0,0 0,0.01 0.01,0.01 0.01,0 0.01,-0.01 0.01,-0.02 -0.02,-0.01 -0.03,-0.01 -0.03,0.01 -0.01,0.02 0.01,0.04 0.02,0.05 0,0 0,0.01 0.01,0.01 0,0.01 0.01,0.01 0.01,0.01 0,0.01 0,0.01 0,0.02 0,0 0,0.01 0,0.01 0,0.01 0,0.03 -0.01,0.03 -0.01,0 -0.01,-0.01 -0.02,-0.01 -0.01,-0.01 -0.02,-0.03 -0.03,-0.05 0,0 0,-0.01 0,-0.01 -0.01,0 -0.01,0 -0.01,0 0,0 0,0 0,0.01 0,0 0.01,0 0.01,0.01 0,0.01 0,0.02 -0.01,0.02 0,0.01 -0.01,0.01 -0.02,0.01 -0.01,-0.01 -0.01,-0.01 -0.02,-0.01 -0.03,-0.02 -0.04,-0.06 -0.06,-0.09l-0.01 -0.02c0,-0.01 -0.02,-0.05 -0.02,-0.05l-0.02 -0.04c0,-0.01 0,-0.01 0,-0.01 -0.01,-0.01 -0.01,-0.02 -0.02,-0.03 0,0.01 0,0.01 0,0.01 0,0 0,0 0,0.01 0,0 0.01,0 0.01,0.01 0,0 0,0 0,0.01l0.02 0.05c0.01,0 0.01,0.01 0.01,0.01 0,0.01 0.01,0.03 0.02,0.04 0.01,0.02 0.02,0.05 0.03,0.07 0.01,0 0.01,0.01 0.01,0.01 0,0 0,0 0.01,0.01 0,0 0.01,0.01 0.01,0.02 0.01,0 0.01,0 0.01,0.01 0,0 0,0 0.01,0 0,0 0,0 0,0.01 0.02,0.01 0.03,0 0.04,-0.02 0,0 0.01,0 0.01,-0.01 0,0.02 0.01,0.03 0.02,0.04 0,0.01 0,0.02 0,0.03 0,0.01 0,0.02 -0.01,0.04 0,0 0,0.01 0,0.01 -0.01,0 0,0 -0.01,0 0,-0.01 0,-0.01 0,-0.01 0,-0.01 0,-0.02 0,-0.03 -0.01,-0.02 -0.03,-0.04 -0.05,-0.03 0,0 -0.01,0.01 -0.01,0.01 -0.01,0.02 0,0.03 0,0.05 -0.01,0 -0.02,-0.01 -0.03,0 -0.01,0.01 -0.01,0.02 -0.01,0.04 0,-0.01 -0.01,-0.02 -0.01,-0.03l-0.01 -0.01c0,-0.01 0,-0.01 0,-0.01 0,0 -0.01,-0.01 -0.01,-0.01l-0.05 -0.14c-0.01,-0.02 -0.02,-0.04 -0.03,-0.06 0,0 0,0 0,0 -0.01,-0.03 -0.02,-0.05 -0.03,-0.08l-0.02 -0.02c0,-0.01 0,-0.01 0,-0.02 0,0 -0.01,0 -0.01,-0.01 0,0 0,0.01 0,0.01 0.02,0.05 0.04,0.1 0.06,0.15 0.01,0.01 0.01,0.02 0.02,0.03 0,0.01 0.01,0.02 0.01,0.03l0.07 0.17c0,0.01 0,0.01 0,0.02l0.03 0.05c0,0 0,0.01 0,0.01 0,0 0,0.03 0.01,0.04 0,-0.01 0.02,-0.04 0.02,-0.05 0.01,-0.01 0.02,-0.02 0.03,-0.04 0.03,-0.02 0.04,-0.06 0.05,-0.09 0,-0.01 0,-0.03 0,-0.04 0,0 0,0 0,0 0.01,0 0.02,0.01 0.02,0 0.01,0 0.01,-0.01 0.01,-0.02 0,-0.01 0,-0.02 0,-0.03l0 -0.03c0,0 0.02,0.01 0.03,0 0.01,-0.01 0,-0.05 -0.01,-0.06 0.01,0 0.02,0.01 0.03,0 0,0 0,-0.01 0,-0.02 0,-0.01 0,-0.03 0,-0.04 -0.01,0 -0.01,0 -0.01,-0.01l0 0zm-0.6 0.74c0.01,-0.01 0.01,-0.01 0.02,-0.02 0.02,-0.03 0.03,-0.07 0.01,-0.11 0,0 0,-0.01 -0.01,-0.01 0,-0.01 0,-0.01 -0.01,-0.01 -0.01,-0.02 -0.03,-0.02 -0.05,-0.01 -0.01,0 -0.02,0.01 -0.03,0.02 -0.01,0.01 -0.02,0.02 -0.02,0.04 -0.01,0 -0.01,0.01 -0.01,0.02 0,0 0,0.02 0,0.02 0,0 -0.01,0.01 -0.01,0.01 -0.01,0.01 -0.02,0.03 -0.03,0.04 0,0 -0.01,-0.04 -0.04,-0.01l-0.01 0.01c0,0 0,0.01 0,0.01 0,-0.01 0,-0.02 0,-0.02 0.01,-0.04 0.02,-0.08 0.03,-0.12l0.01 -0.06c0,-0.01 0.01,-0.02 0.01,-0.03l0.01 -0.04c0,-0.01 0,-0.02 0,-0.02l0.02 -0.07c0,0 -0.01,0 -0.01,0 0,0 0,0.01 0,0.01 0,0.01 0,0.01 0,0.02 -0.01,0.01 -0.01,0.02 -0.01,0.03 -0.01,0.01 -0.01,0.02 -0.01,0.02 -0.01,0.03 -0.01,0.06 -0.02,0.09 0,0.02 -0.01,0.04 -0.02,0.07 0,0.03 -0.01,0.07 -0.02,0.1 0,0.02 -0.01,0.07 -0.03,0.09 0,0.01 0,0.01 0,0.01 -0.02,0 -0.05,0.02 -0.06,0.03 0,0.01 -0.01,0.02 -0.01,0.03 0.01,0 0.01,-0.01 0.01,-0.01 0,-0.01 0.01,-0.02 0.02,-0.02 0,0 0,-0.01 0.01,-0.01 0.01,0 0.03,-0.01 0.04,-0.01 0,0.01 -0.01,0.04 -0.02,0.05l0 0.01c0,0 0,0 -0.01,0.01 0,0 0,0.01 0,0.01 -0.01,0.01 -0.02,0.02 -0.02,0.03 -0.01,0 -0.02,0.01 -0.03,0.02 -0.01,0 -0.02,0.01 -0.03,0.01 -0.02,-0.01 -0.04,-0.03 -0.02,-0.04 0,0 0.01,-0.01 0.02,-0.01 0,0.01 0.01,0.01 0.01,0.01 -0.01,0 -0.02,0.01 -0.02,0.02 0,0.01 0.02,0.01 0.03,0.01 0.02,-0.03 -0.01,-0.06 -0.04,-0.04 -0.01,0 -0.01,0 -0.01,0.01 -0.03,0.03 -0.01,0.06 0.03,0.06 0.01,0 0.02,-0.01 0.03,-0.01 0.01,-0.01 0.01,-0.01 0.02,-0.01 0,-0.01 0,0 0.01,0 0.01,0 0.03,-0.01 0.04,-0.02 0,0 0.01,-0.01 0.01,-0.02 0.01,0 0.01,0 0.01,0l0 -0.01c0.01,-0.01 0.01,-0.01 0.01,-0.02 0.01,-0.01 0.01,-0.03 0.02,-0.04 0,-0.01 0.01,-0.02 0.01,-0.04 0,0 0.02,-0.01 0.03,-0.01l0.02 -0.01c0.01,-0.01 0.03,-0.03 0.03,-0.04 0,-0.01 0.01,-0.02 0.01,-0.02 -0.01,0 -0.01,0 -0.01,0.01 0,0 0,0 -0.01,0.01 0,0 0,0 0,0 -0.01,0.01 -0.02,0.02 -0.04,0.03 0,0 -0.01,0 -0.01,0l0.01 -0.01c0,0 0,-0.01 0,-0.02 0.01,-0.02 0.01,-0.04 0.03,-0.06 0,0 0.01,-0.01 0.01,-0.01 0,0.01 0.01,0.02 0.02,0.02 0.01,0.01 0.01,0.01 0.02,0.01 0.02,-0.01 0.02,-0.02 0.01,-0.03 0,-0.01 -0.02,-0.02 -0.03,-0.01 -0.01,0 -0.01,0 -0.01,0 0,-0.01 -0.01,-0.02 0,-0.03 0,-0.01 0.01,-0.02 0.01,-0.02l0.01 -0.01c0.01,-0.02 0.04,-0.03 0.06,-0.02 0.03,0.01 0.04,0.04 0.04,0.07 -0.01,0.02 -0.01,0.03 -0.02,0.05 0,0 -0.01,0.01 -0.01,0.01 -0.01,0.01 -0.02,0.01 -0.02,0.01 -0.01,0.01 -0.01,0.01 -0.01,0.01 -0.01,0 -0.02,0 -0.03,0 -0.02,0.01 -0.03,0.03 -0.04,0.05 0,0.01 0,0.01 0,0.01 0,0 0.01,-0.01 0.01,-0.02 0,0 0,0 0.01,-0.01 0,0 0.01,-0.01 0.02,-0.01 0.02,0 0.04,-0.01 0.06,-0.01 0,0 0.01,0 0.01,0 -0.01,0.02 -0.01,0.04 -0.02,0.07 -0.01,0 -0.01,0.01 -0.01,0.01 0,0.01 0,0.01 0,0.01 0,0 -0.01,0 -0.01,0.01 0,0 0,0 0,0 0,0.01 -0.01,0.02 -0.01,0.02 -0.01,0.01 -0.01,0.01 -0.01,0.01 0,0 -0.02,0.01 -0.03,0.02 -0.02,0 -0.03,-0.02 -0.03,-0.04 0.01,-0.01 0.01,-0.01 0.02,-0.01 0,0 0.01,0 0.02,0 0,0 0.01,0 0.01,0.01 -0.01,0 -0.01,0 -0.01,0 -0.01,0 -0.02,0.01 -0.02,0.02 0,0.01 0.02,0.01 0.03,0 0.01,-0.01 0.01,-0.04 -0.01,-0.05 0,0 -0.01,0 -0.02,0 -0.01,0.01 -0.02,0.01 -0.02,0.02 -0.01,0.01 -0.01,0.03 -0.01,0.04 0,0.03 0.04,0.03 0.07,0.01 0.01,-0.01 0.01,-0.02 0.02,-0.03 0,0 0,0 0,0 0.01,-0.01 0.01,-0.02 0.02,-0.03 0,0 0,0 0,-0.01l0.01 -0.02c0,0 0,-0.01 0,-0.01 0,0 0,-0.01 0.01,-0.01 0,-0.01 0,-0.03 0.01,-0.04 0,-0.01 0,-0.01 0,-0.01 0.01,-0.01 0.02,-0.01 0.03,-0.02 0.01,-0.01 0.01,-0.02 0.02,-0.03 0,0 0,-0.01 0,-0.01l0 0c0.01,0 0.02,0.02 0.02,0.02 0.01,0 0.02,-0.01 0.02,-0.02 0.01,-0.01 0.02,-0.03 0.02,-0.05 0,0 0,0 0,0 0,0.01 0.01,0.01 0.01,0.02 0,0 0,0.01 0,0.01 0,0 0,0 0.01,0.01 0,0 0,-0.01 0,-0.01 0,0 0.01,0 0.01,-0.01 0,0 0.01,-0.01 0.01,-0.02 0.01,-0.01 0.01,-0.03 0.02,-0.04 0,0 0,0 0,0 0,0 0,0 0,0 0,0 0,0 0,0 0,0 0,0 0,0l0 0.02c0,0.01 0,0.02 0,0.03 0,0 0,0 0.01,-0.01 0,0 0.01,-0.01 0.01,-0.01 0.02,-0.01 0.04,-0.02 0.05,-0.04 0.01,-0.01 0.01,-0.01 0.01,-0.01 0,0 0,-0.01 0,-0.01 0,0 0.01,-0.01 0.01,-0.02l0 0c0,0.01 0,0.01 0.01,0.01 0,0.01 0.01,0 0.01,-0.01 0.01,-0.01 0.01,-0.03 0.01,-0.04l0 0c0,0.01 -0.01,0.05 -0.03,0.01 -0.01,-0.01 -0.02,-0.04 -0.02,-0.04 0,0 0.01,-0.01 0.01,-0.01 0,-0.01 0,-0.01 0.01,0l0.01 0c0,0.01 0.01,0.02 0.02,0.02 0,0.01 0,0.01 0,0.01 0.01,0.01 0.02,0.02 0.02,0.02 0.01,0 0.02,-0.03 0.02,-0.03 0,-0.01 0,-0.01 0,-0.02 0,0 0,0 0,0 0.04,0.03 0.04,-0.03 0.04,-0.05 0,0 0,-0.01 0,-0.01 0,0 0,0 0,0l0.01 0.03c0.03,0.06 0.05,0.12 0.03,0.19 0,0.02 -0.01,0.04 -0.03,0.05 0,0 -0.01,0 -0.01,0l0 0.01c0.04,-0.01 0.05,-0.06 0.06,-0.1 0,-0.01 0,-0.01 0,-0.02 0,0 0,0 0,-0.01 0,-0.02 0,-0.03 0,-0.05 -0.01,-0.03 -0.02,-0.06 -0.03,-0.08l-0.01 -0.02c-0.01,-0.01 -0.01,-0.02 -0.02,-0.04 -0.01,0 -0.02,-0.03 -0.02,-0.04 0,0 -0.01,0.01 -0.01,0.01 0,0.01 0.01,0.01 0.01,0.02 0,0.02 0.01,0.03 0.01,0.05 0,0.01 0,0.04 -0.01,0.04 -0.01,0.01 -0.03,-0.01 -0.03,-0.01 0,-0.01 0,-0.01 -0.01,-0.01 0,-0.02 0,-0.04 0.01,-0.04 0,0.01 0.02,0.02 0.02,0.01 0,-0.02 -0.02,-0.04 -0.03,-0.01 -0.01,0 -0.01,0.01 -0.01,0.02 0,0.01 0.01,0.03 0.01,0.04 0,0.01 0.01,0.02 0.02,0.02 0,0 -0.01,0.01 -0.01,0.02 0,0.01 -0.01,0 -0.02,0 0,-0.01 0,-0.01 0,-0.01 0,0 0,0 0,0l-0.01 -0.01c-0.01,0 -0.02,-0.01 -0.02,-0.02 -0.01,0 -0.01,0 -0.02,0 0,0 -0.01,0 -0.01,0.01l0 0c0,0 0,-0.01 0,-0.01l-0.01 -0.02c0,-0.01 0,-0.02 -0.01,-0.03 -0.01,-0.06 -0.03,-0.11 -0.04,-0.17 0,0 0,-0.01 0,-0.01 0,0 0,0.01 0,0.01 0,0.02 0,0.04 0.01,0.07 0,0 0,0.01 0,0.02 0.01,0.02 0.01,0.05 0.02,0.07 0,0.03 0.01,0.06 0.02,0.08 0,0.02 0.01,0.04 0.02,0.06 0,0.01 0,0.01 0,0.02 0,0.01 -0.01,0.02 -0.02,0.03 0,0 0,0 -0.01,0 0,0 0.01,-0.02 0.01,-0.04 0,-0.01 0,-0.02 -0.01,-0.02 -0.01,-0.02 -0.02,-0.03 -0.04,-0.01 0,0 -0.01,0.02 -0.01,0.03 0,-0.01 0,-0.01 0,-0.01l-0.03 -0.12c0,-0.01 0,-0.02 0,-0.02 0,-0.03 -0.01,-0.05 -0.01,-0.08l-0.01 -0.07c0,0 0,0 0,-0.01l0 0c0,0.01 0,0 0,0.02 0,0 0,0.01 0,0.01 0,0 0,0.01 0,0.01l0 0.05c0.01,0.01 0.01,0.01 0.01,0.02 0,0.02 0,0.03 0,0.05 0.01,0.04 0.02,0.1 0.02,0.14l0.01 0.04c0,0 0,0.01 0,0.01 0,0.02 -0.01,0.05 -0.02,0.06 0,0 0,0.01 -0.01,0.01 0,-0.01 0,-0.02 -0.01,-0.03 0,-0.01 0,-0.02 0,-0.02 -0.01,-0.04 -0.02,-0.08 -0.02,-0.12 0,-0.01 0,-0.05 0,-0.06 0,-0.01 -0.01,-0.02 -0.01,-0.03 0,-0.02 0,-0.06 0,-0.07 0,-0.03 -0.01,-0.06 -0.01,-0.09l-0.01 -0.04c0,0 0,-0.01 0,-0.02 0,0 0,0.01 0,0.01 0,0 0,0.04 0,0.05 0,0.01 0,0.03 0.01,0.05l0 0.05c0,0 0,0 0,0.01 0,0 0,0.01 0,0.02l0.01 0.12c0,0.01 0,0.02 0,0.03 0,0.01 0,0.01 0,0.02 0.01,0.01 0.01,0.03 0.01,0.04 0.01,0.02 0.01,0.05 0,0.08 0,0.01 0,0.02 -0.01,0.02 -0.01,0.02 -0.02,0 -0.03,0 -0.01,-0.02 -0.01,-0.04 -0.01,-0.05 0.01,-0.01 0.01,-0.01 0.02,-0.01 0,0 0,0.01 0,0.01 0.01,0.01 0.02,0 0.02,-0.02 -0.01,-0.01 -0.02,-0.01 -0.03,0 -0.01,0 -0.01,0 -0.01,0.01 0,0 -0.01,0.01 -0.01,0.02 0,0.01 0,0.02 0,0.03 0.01,0.02 0.01,0.02 0,0.03 0,0.02 -0.01,0.03 -0.03,0.04 0,0 -0.02,0.01 -0.03,0.01l0 0zm-1.91 -0.97l0 0.01c0,0.03 0.02,0.07 0.04,0.09l0.01 0.01c0.01,0.02 0.03,0.03 0.05,0.05 0,0 0.01,0 0.01,0 0.01,0.01 0.02,0.02 0.04,0.03 0,0.01 0,0 0,0.01 0.01,0.03 0.03,0.06 0.05,0.09 0,0 0.02,0.02 0.02,0.02 0,0 0,0 0,0 -0.01,0 -0.02,0.01 -0.02,0.03 0,0.02 0.02,0.04 0.03,0.05 0,0 0,0 0.01,0 0,0 0.01,0.01 0.01,0.01l0.01 0c0,0 0,0 0,0 0,0 0,0 0,0 -0.01,0 -0.04,0.01 -0.04,0.02 0,0.01 0.05,0.04 0.07,0.04 -0.01,0 -0.04,-0.02 -0.04,-0.03 0,0 0.01,-0.01 0.01,-0.01 0.02,0 0.04,0 0.05,0l0.01 0c0.01,0 0.01,0 0.01,0 0.01,0 0.02,0 0.03,0l0.07 0c0.07,0 0.13,-0.01 0.2,-0.01 0.02,0 0.04,0 0.06,0 0,0 0,0 -0.01,0l-0.15 0c-0.01,0 -0.01,0 -0.01,0 -0.01,0 -0.02,0 -0.03,0 -0.01,0 -0.01,0 -0.01,0 -0.01,0 -0.01,0 -0.01,0 -0.01,0 -0.01,0 -0.02,0 0,-0.01 -0.01,0 -0.01,0 -0.01,0 -0.01,-0.01 -0.01,-0.01l-0.02 0c-0.01,0 -0.01,0 -0.02,0l-0.07 0c0,0 0,0 0,0 -0.01,0 -0.01,0 -0.01,0 -0.02,0 -0.02,0 -0.03,0 -0.02,-0.01 -0.03,-0.01 -0.04,-0.02 -0.01,-0.01 -0.02,-0.02 -0.02,-0.03 0,-0.01 0.02,-0.02 0.04,-0.02 0.01,0 0.02,0 0.03,0.01 0,0 0.01,0.01 0.01,0.02 0,0 -0.01,0 -0.01,0 -0.01,0 -0.01,0.01 -0.01,0.02 0.01,0.01 0.04,0 0.03,-0.02 0,-0.01 -0.01,-0.02 -0.02,-0.03 -0.01,-0.01 -0.03,-0.01 -0.05,-0.02 -0.01,0 -0.01,0 -0.01,0 0,0 0,0 -0.01,-0.01 0,0 0,-0.01 -0.01,-0.01 -0.01,-0.02 -0.02,-0.03 -0.02,-0.04 -0.01,-0.02 -0.01,-0.04 -0.02,-0.06l0 -0.02c0,0 0.01,0.02 0.01,0.02 0.01,0.01 0.01,0.01 0.02,0.02l0.01 0.01c0.01,0.01 0.02,0.02 0.03,0.03 0.01,0 0.01,0 0.02,0 0.02,0.01 0.04,0.01 0.05,0l0.01 -0.01c0,0 0,0 0,0 0,0 0,0 0,0 0.01,-0.01 0.01,-0.02 0.02,-0.03 0,-0.02 0,-0.05 0,-0.08 0,0 -0.01,-0.01 -0.01,-0.01 0,-0.01 -0.01,-0.02 -0.02,-0.04l0 -0.01c-0.02,-0.01 -0.05,-0.03 -0.07,-0.03 -0.02,0 -0.03,0.01 -0.03,0.03 0,0.02 0,0.03 0.01,0.04 0.02,0.03 0.05,0.02 0.05,0 0,-0.02 0,-0.03 -0.01,-0.03 -0.01,0 -0.02,0.01 -0.02,0.01 0,0.01 0.01,0.01 0.02,0.02 -0.01,0 -0.01,0 -0.02,0 0,0 -0.01,0 -0.01,-0.01 -0.01,-0.01 -0.01,-0.03 0,-0.04 0,0 0,-0.01 0.01,-0.01 0,0 0,0 0.01,0 0.01,0 0.02,0.01 0.03,0.01 0,0 0,0.01 0,0.01 0,0 0,0 0.01,0 0.02,0.02 0.03,0.04 0.03,0.07l0 0.03c0,0 0,0 0,0.01 0,0 0,0 0,0.01 -0.01,0.02 -0.02,0.05 -0.05,0.05 -0.01,0 -0.02,0 -0.03,-0.01 0,0 -0.01,0 -0.01,0 0,-0.01 -0.01,-0.01 -0.01,-0.01 0,0 0,0 0,0 -0.01,-0.01 -0.02,-0.02 -0.03,-0.03l0 -0.02c-0.01,0 -0.02,-0.02 -0.02,-0.03 0,0 0,-0.01 0,-0.02 0.01,-0.02 0.01,-0.04 0,-0.06 0,-0.01 -0.01,-0.01 -0.01,-0.02 0,-0.01 -0.01,-0.02 -0.01,-0.03 -0.01,-0.01 -0.02,-0.02 -0.02,-0.02 -0.01,-0.01 -0.01,-0.01 -0.02,-0.02 0,0.01 0.01,0.03 0.01,0.03 0,0 0.01,0.01 0.01,0.01 0,0 0.01,0 0.01,0 0.02,0.02 0.02,0.06 0.01,0.09 0,0.01 0,0.02 0,0.04 0,0.01 0,0.01 0,0.02 0,0.01 0,0.01 0,0.02 -0.01,-0.01 -0.03,-0.02 -0.05,-0.03 -0.01,-0.01 -0.02,-0.02 -0.02,-0.03l-0.02 -0.01c-0.02,-0.03 -0.04,-0.05 -0.04,-0.09 0,-0.01 0,-0.02 0,-0.02 0.01,-0.01 0.02,-0.02 0.03,-0.01 0.01,0 0.02,0.02 0.02,0.03 0,0 0,0.01 -0.01,0.01 0,0.01 0,0.01 -0.01,0.01 0,0 0,-0.02 0,-0.02 -0.02,-0.02 -0.04,0.01 -0.02,0.03 0.03,0.02 0.05,0 0.05,-0.02 0,-0.01 0,-0.02 0,-0.03 -0.01,-0.01 -0.01,-0.01 -0.02,-0.02 -0.01,-0.01 -0.04,-0.03 -0.06,-0.01 0,0.01 0,0.02 0,0.03l0 0zm0.73 0.94l-0.01 0.01c0,0.01 0.01,0.02 0.02,0.02 -0.01,0 -0.05,0.02 -0.06,0.02 -0.02,0.01 -0.05,0.02 -0.06,0.02 -0.01,0 -0.01,-0.01 -0.01,-0.01 -0.02,0 -0.03,0 -0.04,-0.01 -0.01,0 -0.01,0 -0.01,0 -0.01,-0.01 0,-0.04 0.01,-0.04 0.02,0 0.03,0.01 0.02,0.02 0,0 0,0 -0.01,0 -0.01,0 -0.01,0 -0.01,0 0,0 0,0 0,0.01 -0.01,0.01 0,0.02 0.02,0.01 0.01,0 0.03,-0.01 0.02,-0.03 0,0 -0.01,-0.01 -0.01,-0.01 -0.02,-0.02 -0.04,-0.01 -0.06,0 -0.02,0.01 -0.02,0.05 0.03,0.06 0.05,0.01 0.09,0 0.13,-0.02 0.01,0 0.03,-0.01 0.04,-0.01 0.01,-0.01 0.01,-0.01 0.01,-0.01 0.01,0 0.01,0 0.03,0 0,0 0.01,-0.01 0.01,-0.01 0,0.01 -0.02,0.01 -0.02,0.02 0,0.01 0.01,0.01 0.02,0.01 0.01,0 0.02,0 0.04,0 0,0 0,0 0,0 0,0 0,-0.01 0,-0.01 0,0 0,0 -0.01,0 0,0 -0.03,0 -0.02,-0.01 0.01,-0.01 0.03,-0.02 0.04,-0.03 0.01,0 0.02,-0.01 0.03,-0.01 0.01,-0.01 0.01,-0.01 0.01,-0.01 0,0 0,0 0.01,0 0,0 0,0 0,0 -0.03,0 -0.05,-0.01 -0.07,-0.02 -0.01,-0.01 -0.02,-0.01 -0.03,-0.02l-0.01 -0.01c0,0 -0.01,0 -0.01,0 -0.01,-0.01 -0.01,-0.01 -0.02,-0.01 0,-0.01 -0.01,-0.01 -0.01,-0.01 -0.01,0 -0.01,0 -0.02,0 0,0 -0.02,-0.01 -0.03,-0.01 0,0 0.01,0 0,-0.01 0,-0.01 -0.01,-0.01 -0.01,-0.01 -0.02,-0.01 -0.03,-0.01 -0.04,-0.01l0 0c0.01,0 0.01,-0.01 0.01,-0.01 0.01,0 0.02,0 0.02,-0.01l0.05 -0.02c0.01,0 0.01,-0.01 0.01,-0.01l0.02 -0.01c0,0 0,0 0.01,0 0.01,-0.01 0.02,-0.01 0.03,-0.02l0.01 -0.01c0.01,0 0.01,0 0.01,0l0.02 -0.01c0,0 0,0 0.01,0 0,0 0,0 0,0l0.02 -0.01c0.01,-0.01 0.01,-0.01 0.01,-0.01 0.01,0 0.01,0 0.01,0 0.01,0 0.03,-0.02 0.04,-0.02l0 0c-0.01,0 0,0 -0.02,0 -0.02,0.01 -0.05,0.02 -0.07,0.03 -0.01,0.01 -0.03,0.02 -0.04,0.02l-0.03 0.02c-0.01,0 -0.01,0 -0.01,0 -0.01,0.01 -0.03,0.01 -0.04,0.02 0,0 0,0 0,0 -0.01,0 -0.01,0 -0.01,0l-0.02 0.01c-0.02,0.02 -0.05,0.03 -0.08,0.04l-0.01 0.01c-0.01,0 -0.01,0 -0.03,0 0,0 -0.01,0 -0.01,-0.01 -0.01,0 -0.02,0 -0.01,-0.01 0,0 0.02,-0.01 0.03,-0.01 0.01,-0.01 0.01,-0.01 0.03,-0.01 0.01,-0.01 0.02,-0.01 0.03,-0.01 0,0 0,0 0,0 -0.03,-0.01 -0.05,-0.01 -0.08,0.01 0,0 -0.01,0 -0.01,0 -0.01,0 -0.02,0 -0.03,0 0,0 -0.01,-0.01 -0.01,-0.01 -0.01,0 -0.02,-0.01 -0.02,-0.01 0.02,0 0.03,0 0.05,0 0.01,-0.01 0.02,-0.01 0.02,-0.02 0.01,-0.02 0,-0.03 -0.01,-0.03 0,-0.01 -0.02,-0.02 -0.03,-0.02 0,0 0,0 0,0 0,0 0,0 0,0 0.01,0 0.03,-0.01 0.04,-0.01l0.19 -0.05c0.02,-0.01 0.03,-0.01 0.05,-0.02 0.01,0 0.01,0 0.02,0 0.02,-0.01 0.04,-0.01 0.06,-0.02 0.01,0 0.01,0 0.02,0l0 0c-0.01,0 0,0 -0.02,0 -0.05,0.01 -0.09,0.02 -0.14,0.03 -0.03,0.01 -0.06,0.02 -0.09,0.02 -0.04,0.01 -0.08,0.02 -0.11,0.03l-0.06 0.02c0,0 -0.01,0 -0.02,0 0,0 0,0 -0.01,0 0,0 -0.01,-0.01 -0.02,-0.01 -0.01,0 -0.02,-0.01 -0.01,-0.02 0.02,-0.02 0.06,-0.04 0.04,-0.06 0,-0.01 -0.01,-0.01 -0.01,-0.01l0.08 -0.01c0.01,0 0.02,0 0.03,0l0.03 -0.01c0.01,0 0.02,0 0.03,0 0.01,0 0.01,0 0.01,0 0.02,0 0.04,0 0.06,0 0,0 -0.01,0 -0.01,0 0,0 -0.02,0 -0.02,0 -0.01,0 -0.01,0 -0.02,0 -0.01,0 -0.03,0 -0.05,0 0,0 -0.01,0 -0.02,0 0,0 -0.01,0 -0.01,0l-0.01 0c-0.01,0 -0.02,0 -0.03,0l-0.01 0c0,0 -0.01,0 -0.01,0l-0.02 0c-0.03,0.01 -0.05,0.01 -0.08,0.01 0,0 0,0.01 0,0.01 -0.01,0 -0.04,-0.01 -0.04,-0.01 -0.01,-0.01 -0.02,-0.01 -0.02,-0.01 0,-0.01 0,-0.01 0,-0.01 0.02,-0.01 0.05,-0.01 0.07,-0.02 0.02,0 0.03,0 0.04,-0.01 0.01,0 0.02,0 0.03,0 0.03,-0.01 0.07,-0.01 0.11,-0.02 0,0 0,0 0.01,0l0.03 0c0,0 0,0 0,0l0.04 0c0.01,0 0.01,0 0.01,0 0,0 0,-0.01 0,-0.01 -0.01,0 -0.05,0 -0.05,0l-0.03 0.01c-0.01,0 -0.01,0 -0.01,0 -0.02,0 -0.03,0 -0.05,0 -0.01,0 -0.02,0 -0.03,0 -0.03,0.01 -0.07,0.01 -0.1,0.02 0,-0.01 -0.02,-0.02 -0.02,-0.04 -0.01,-0.01 -0.01,-0.02 -0.02,-0.02 -0.01,-0.02 -0.02,-0.02 -0.03,-0.03 -0.01,0 -0.02,-0.01 -0.02,-0.01 0,0.01 0,0.01 0,0.01 0.01,0 0.01,0 0.01,0 0.01,0.01 0.02,0.02 0.03,0.03 0,0 0,0 0,0 -0.01,0 -0.02,0 -0.03,0 -0.01,0 -0.01,0 -0.03,0 -0.01,0 -0.03,0.01 -0.03,0.03 0.01,0.01 0.02,0.02 0.03,0.02 0.01,0.01 0.01,0.01 0.01,0.01 0.01,0 0.01,0 0.02,0 0,0.01 0.01,0.01 0.02,0.01l0 0c-0.01,0 -0.03,0.01 -0.03,0.01 -0.02,0.01 -0.01,0.01 0,0.02 0.01,0 0.02,0.01 0.03,0.01l0.02 0.01c0,0 0,0 0,0 0,0 0,0 0,0 -0.02,0.01 -0.03,0.02 -0.02,0.04 0.01,0 0.02,0.01 0.02,0.01 0.01,0.01 0.02,0.01 0.03,0.01 0,0 0,0 0,0 -0.01,0.01 -0.02,0.02 -0.01,0.03 0.02,0.01 0.05,0.02 0.05,0.02 0,0 -0.02,0 -0.03,0 0,0 0,0 0.01,0 0,0.01 0.01,0.02 0.01,0.02l0.01 0.02c0,0 0.01,0 0.01,0l0.01 0.01c0,0 0,0 0,0 0.01,0.01 0.02,0.02 0.03,0.03 0.01,0 0.03,0.01 0.05,0.01 0,0 0,0 0,0l-0.01 0c0,0 0,0 0,0 -0.05,0.02 0.03,0.04 0.05,0.04 0,0 -0.01,0 -0.01,0 -0.04,0.02 -0.07,0.03 -0.11,0.03 -0.01,0 -0.03,0.01 -0.04,0 -0.02,0 -0.03,0 -0.04,-0.01l-0.01 0c0,0 0,0 0,0 0,0 -0.01,0 -0.01,0 0,0 0,0 0.01,0 0,0 0,0 0,0.01 0.02,0.01 0.04,0.01 0.07,0.01 0.01,0 0.03,0 0.04,0 0.01,0 0.01,0 0.02,0 0,0 0.01,-0.01 0.02,-0.01 0.03,-0.01 0.05,-0.02 0.07,-0.03 0.01,0 0.02,0 0.03,0 0.01,-0.01 0.01,-0.01 0.02,-0.01 0.02,0 0.04,0 0.04,0.02 0,0 -0.01,0.01 -0.01,0.01 0,0.02 -0.02,0.03 -0.03,0.03 -0.01,0 -0.01,0 -0.02,0 0,0 -0.01,-0.01 -0.01,-0.01 0.02,0 0.02,-0.04 0,-0.02 -0.01,0 -0.01,0 -0.01,0.01 -0.01,0.03 0.03,0.03 0.05,0.03 0.02,-0.01 0.04,-0.02 0.05,-0.04 0,0 0,0 0.01,0 0.01,0 0.03,0.01 0.04,0.02 0.01,0 0.01,0 0.01,0 -0.01,0 -0.03,0.01 -0.04,0.01 -0.02,0.01 -0.04,0.02 -0.04,0.04 0,0.02 0.03,0.02 0.05,0.02 0,0 0,0 0.01,0l0 0zm0.15 -0.06c0,0.02 0.02,0.04 0.04,0.03 0.03,-0.02 0.02,-0.05 0,-0.03 -0.01,0 -0.01,0.01 0,0.01 0,0 0,0.01 -0.01,0.01 -0.01,0 -0.02,-0.03 0,-0.04 0.01,-0.01 0.01,-0.01 0.02,-0.01 0.02,0 0.03,0.02 0.03,0.04l0 0c0,0.02 -0.01,0.03 -0.01,0.03 -0.01,0.01 -0.02,0.02 -0.03,0.02 -0.02,0.01 -0.04,0.01 -0.06,0.02 0,0 0,0 0,0 0,0 0,0 -0.01,0 0,0 0,0 0,0.01 0,0 0,-0.01 0.01,-0.01 0.01,0 0.04,-0.01 0.04,0.01 0,0.01 -0.01,0.02 -0.01,0.03 -0.02,0.02 -0.04,0.04 -0.07,0.05 -0.04,0.02 -0.08,0.04 -0.12,0.04 0,0 0,0 -0.01,0 0,0 0,0 0,0 0,0 0,0 -0.01,0l0 0c0.01,0 0.01,0 0.02,0 0.02,0 0.03,0 0.05,0 0.02,-0.01 0.03,-0.01 0.05,-0.02 0.02,-0.01 0.02,-0.01 0.04,-0.02l0.02 -0.01c0,0 0.01,-0.01 0.02,-0.01 0,0 0.01,-0.01 0.01,-0.01 0.01,-0.01 0.01,-0.01 0.02,-0.03 0.01,0 0.03,-0.03 0.01,-0.04l-0.01 0c0.01,0 0.03,-0.01 0.03,-0.01 0,0 0.01,-0.01 0.01,-0.01 0.01,-0.01 0.03,-0.03 0.03,-0.05 0,-0.01 -0.01,-0.03 -0.02,-0.04 -0.04,-0.01 -0.08,0.02 -0.08,0.04l0 0zm0.18 0.34l-0.01 0c-0.01,0 -0.01,0 -0.01,0 0,0 0.01,-0.01 0.01,-0.01 0.02,0.01 0.04,-0.01 0.06,-0.02 0.01,0 0.02,-0.01 0.03,-0.02 0,0 0,0 0,0l0.01 -0.01c0,0 0.01,-0.01 0.01,-0.01 0.01,-0.01 0.02,-0.02 0.03,-0.03l0.02 -0.02c0,0 0.01,-0.01 0.01,-0.02l-0.02 0.01c0,0.01 -0.01,0.01 -0.01,0.01 0,0 -0.01,0 -0.01,0 -0.01,0 -0.01,0 -0.02,0 0,0 0,0 0,-0.01 0,-0.01 0.01,-0.01 0.01,-0.02l-0.02 0.01c-0.01,0.01 -0.03,0.02 -0.04,0.01 -0.01,0 -0.01,-0.01 -0.01,-0.02 0,0 0,0 0,0.01l-0.02 0c-0.01,0 -0.03,0 -0.04,0 0,-0.01 0,-0.02 0,-0.02l0.01 -0.01c-0.01,0 -0.01,0 -0.01,0 0,0 -0.01,0 -0.01,0 0,0 -0.01,0 -0.02,0.01 0,0 0,0 0,0 -0.01,0 -0.01,0 -0.01,0l-0.03 0.03c0,0 -0.01,0.01 -0.01,0.01 -0.01,0 -0.01,0.01 -0.01,0.01 -0.01,0.01 -0.02,0.01 -0.03,0.02 -0.01,0 -0.02,0.01 -0.03,0.01 -0.01,0 -0.02,0.01 -0.03,0.01 -0.01,0 -0.02,0 -0.03,0 -0.01,-0.01 -0.02,-0.01 -0.02,-0.02 -0.01,-0.03 0.01,-0.05 0.03,-0.05 0.04,-0.02 0.06,0.04 0.02,0.05 -0.02,0.01 -0.03,-0.01 -0.02,-0.02 0,0 0,0 0.01,0 0.01,0 0.01,0 0.01,0 0,0 0.01,0 0,-0.01 0,-0.02 -0.02,-0.02 -0.03,-0.01 -0.01,0.02 -0.01,0.04 0.01,0.05 0.02,0 0.03,0 0.04,-0.01 0.01,0 0.02,0 0.03,-0.01 0.02,-0.01 0.05,-0.03 0.06,-0.04 0.01,-0.01 0.02,-0.01 0.02,-0.02 0,0 -0.01,0 -0.01,0 -0.02,0 -0.01,-0.01 0,-0.01 0,-0.01 0,-0.01 0,-0.02 0,0.01 -0.03,0.02 -0.05,0.02 -0.01,0 -0.01,0 -0.01,-0.01 -0.01,-0.01 0,-0.03 0.01,-0.04l0 -0.01c0,0 0,0 0,0 0.01,-0.01 0.02,-0.01 0.03,-0.02 0,0 0,0 0.01,-0.01 0.01,0 0.03,0 0.04,0.01 0,0.01 -0.01,0.02 -0.02,0.03 -0.01,0 -0.01,-0.02 0,-0.03l0 0c0,0 0,0 -0.01,0 -0.01,0 -0.03,0.02 -0.03,0.03 -0.01,0.01 -0.02,0.04 0,0.04 0.01,0 0.05,-0.02 0.05,-0.03 0.01,-0.01 0.02,-0.01 0.03,-0.02 0.01,-0.01 0.01,-0.01 0.03,-0.01 0,0 0,0 0,0 0,0 0,0 0,0 -0.01,0 -0.02,0.01 -0.02,0.01 0,0 -0.01,0.01 -0.02,0.02 0,0 0,0 0,0.01 -0.01,0 -0.01,0 -0.01,0 0,0.01 -0.01,0.02 -0.01,0.03 0.01,0 0.05,-0.01 0.06,-0.02 0,0 0,0 0,0 0.01,0 0.01,-0.01 0.01,-0.01 0,0 0.02,-0.01 0.02,-0.01 0,-0.01 0,-0.01 0,-0.01 -0.02,0 -0.03,0 -0.05,0.01 0.01,-0.01 0.01,-0.01 0.01,-0.01 0,0 0,0 0,0 0,0 0.01,0 0.01,0 0,-0.01 0.01,-0.01 0.02,-0.01 0.03,-0.01 0.05,0 0.08,0.01l0.03 0c0,0 0,0 0,0 0.01,0 0.01,0 0.01,0 0.01,0 0.02,0 0.02,0 0.01,0 0.01,-0.01 0.02,-0.01 0,-0.01 0,-0.01 0,-0.01l0.05 -0.07c0.02,-0.02 0.03,-0.03 0.04,-0.05 0.01,-0.01 0.02,-0.02 0.03,-0.03l0.08 -0.09c0,-0.01 0.01,-0.02 0.01,-0.02 0.01,-0.01 0.01,-0.01 0.02,-0.01 -0.01,0 -0.01,0 -0.01,0l-0.05 0.07c0,0 -0.01,0 -0.01,0.01l-0.02 0.02c0,0 0,0 0,0.01 0,0 0,0 -0.01,0l-0.05 0.07c0,0.01 -0.01,0.02 -0.01,0.03l-0.06 0.07c0,0 0,0.01 0,0.01l-0.03 0.03c0,0.01 -0.01,0.01 -0.01,0.02l-0.01 0.01c0,0.01 -0.01,0.02 -0.01,0.03 0.01,0 0.03,-0.01 0.04,-0.02 0,0 0,0 0.01,-0.01l0.11 -0.15c0,0 0.01,0 0.01,-0.01 0,0 0,0 0,0 0.01,-0.01 0.01,-0.01 0.01,-0.01l0.03 -0.03c0,0 0,0 0,0l0.05 -0.05c0,-0.01 0,-0.01 0.01,-0.01 0,0.01 0,0.01 -0.01,0.01l0 0.01c-0.01,0 -0.01,0 -0.01,0l-0.03 0.04c-0.01,0.01 -0.01,0.01 -0.02,0.02l0 0c-0.01,0.01 -0.01,0.02 -0.02,0.02 0,0 0,0.01 0,0.01l-0.01 0.01c-0.02,0.01 -0.03,0.04 -0.04,0.05l-0.01 0.02c0,0 0,0 -0.01,0 0,0.01 -0.01,0.03 -0.02,0.03 0.01,0 0.03,-0.01 0.04,-0.01 0.01,0 0.02,0.02 0.02,0.03 0,0 0.01,-0.01 0.01,-0.01 0.02,-0.02 0.05,-0.03 0.06,0 0,0.01 -0.01,0.03 -0.02,0.04 0,0 -0.01,0.01 -0.01,0.01 0,0 -0.01,0.01 -0.01,0.02 0,0 0,0 0,0 0.01,0 0.01,0 0.01,0 0.02,-0.01 0.05,-0.02 0.06,-0.03 0.01,0 0.02,-0.01 0.03,-0.01 -0.01,0.01 -0.02,0.01 -0.02,0.02 -0.01,0 -0.02,0.01 -0.03,0.02 -0.04,0.01 -0.09,0.02 -0.13,0.01 -0.03,0 -0.04,-0.01 -0.07,-0.01 0,0 0,0 0,0.01 0,0 -0.01,0.01 -0.01,0.02 -0.02,0.01 -0.02,0.01 -0.03,0.03l-0.02 0.01c-0.01,0.01 -0.01,0.01 -0.01,0.01 -0.01,0.01 -0.02,0.01 -0.03,0.02 -0.01,0 -0.02,0 -0.02,0.01 -0.01,0 -0.02,0.01 -0.03,0.01 -0.01,0 -0.01,0 -0.01,0l0 0z"/>
 </g>
</svg>
