<svg xmlns="http://www.w3.org/2000/svg" xml:space="preserve" width="600px" height="600px" version="1.1" shape-rendering="geometricPrecision" text-rendering="geometricPrecision" image-rendering="optimizeQuality" fill-rule="evenodd" clip-rule="evenodd"
viewBox="0 0 233.07 236.12"
 xmlns:xlink="http://www.w3.org/1999/xlink"
 xmlns:xodm="http://www.corel.com/coreldraw/odm/2003">
 <g id="Capa_x0020_1">
  <metadata id="CorelCorpID_0Corel-Layer"/>
  <path fill="#E8EAED" d="M110.16 137.81l-5.61 25.56 24.04 0 -6.58 -25.01c0.21,-0.14 0.49,-0.28 0.76,-0.41 0.35,-0.21 1.11,-0.7 1.46,-0.97 0.14,-0.07 0.21,-0.14 0.34,-0.28l0.35 -0.28c2.84,-2.56 4.36,-6.58 3.33,-10.67 -2.22,-8.94 -14.69,-11.98 -21.21,-4.29 -2.56,3.04 -3.25,7.55 -1.52,11.29 0.28,0.55 0.55,1.04 0.9,1.52 0.83,1.25 1.73,2.22 3.05,3.12 0.21,0.14 0.42,0.28 0.69,0.42l0 0 0 0zm-29.17 -58.55l-0.07 2.7c0,6.24 -0.06,12.47 0,18.64l11.16 0 0 -20.65c0.07,-0.2 0,-0.13 0.07,-0.13 0,-1.39 0.28,-3.05 0.62,-4.37l0.14 -0.41c0.07,-0.21 0.07,-0.21 0.07,-0.35 0.14,-0.21 0.14,-0.49 0.28,-0.69 0.48,-1.11 0.62,-1.53 1.17,-2.57l0.7 -1.11c0.21,-0.34 0.41,-0.69 0.62,-1.04l0.42 -0.48c0.41,-0.55 0.9,-1.11 1.38,-1.59 0.28,-0.35 0.56,-0.63 0.9,-0.9 0.28,-0.21 0.56,-0.56 0.9,-0.77l0.7 -0.62c0.14,0 0.14,-0.07 0.27,-0.14l1.67 -1.18c0.07,0 0.07,-0.07 0.07,-0.07l0.34 -0.2c0.07,-0.07 0.14,-0.07 0.21,-0.14l4.37 -2.01c0.13,0 0.13,-0.07 0.2,-0.07l0.63 -0.21c0.07,0 0.07,0 0.2,-0.07 0.14,-0.07 0.14,-0.07 0.28,-0.07 0.14,-0.07 0.21,-0.14 0.35,-0.14 0.07,0 0.21,-0.06 0.34,-0.06 0.42,-0.14 1.32,-0.35 1.74,-0.49 0.13,0 0.2,0 0.34,0 0.35,-0.14 0.7,-0.14 1.11,-0.21l0.76 -0.14c0.42,-0.07 1.53,-0.07 2.01,-0.13 0.14,0 0.21,0 0.35,0 0.21,0 0.21,-0.07 0.41,-0.07l2.5 0.07c0.9,0.06 1.59,0.06 2.35,0.2l3.61 0.77c0.07,0.06 0.27,0.06 0.34,0.06 0.07,0.07 0.07,0.07 0.14,0.07l0.83 0.28c0.14,0 0.14,0.07 0.21,0.07 0.07,0 0.07,0 0.07,0l0.42 0.14c0.07,0.07 0.14,0.07 0.27,0.14 0.14,0 0.21,0.07 0.35,0.07l0.83 0.41c1.87,0.76 3.6,1.8 5.2,2.98 1.11,0.83 1.8,1.53 2.77,2.5l1.18 1.31 1.59 2.29c0.49,0.83 0.97,1.73 1.25,2.63l0.21 0.42c0.07,0.07 0.07,0.14 0.07,0.2 0.27,0.77 0.48,1.39 0.62,2.15l0.14 0.56c0.07,0.48 0.2,0.97 0.2,1.52 0.07,0.56 0.07,1.04 0.07,1.66l0 20.72 11.23 0 0 -21.34c0,-0.21 0,-0.35 0,-0.48l-0.14 -1.18c-0.07,-0.97 -0.14,-1.46 -0.35,-2.57l-0.14 -0.97c-0.13,-0.27 -0.2,-0.62 -0.27,-0.9 0,-0.07 0,-0.2 -0.07,-0.27l-0.35 -1.11c0,-0.07 -0.07,-0.14 -0.07,-0.21 -0.07,-0.07 -0.07,-0.14 -0.07,-0.21l-0.07 -0.21c-0.06,-0.13 -0.06,-0.13 -0.06,-0.27 -0.14,-0.14 -0.14,-0.28 -0.21,-0.42l-0.56 -1.38c-0.07,-0.07 -0.07,-0.14 -0.14,-0.21 -0.06,-0.14 -0.13,-0.28 -0.2,-0.42 -0.63,-1.31 -1.39,-2.63 -2.29,-3.81 -0.48,-0.69 -0.97,-1.38 -1.52,-2.01l-1.32 -1.45c-0.14,-0.14 -0.14,-0.14 -0.28,-0.28l-2.77 -2.56c-0.21,-0.14 -0.41,-0.35 -0.69,-0.56l-2.77 -1.94c-0.42,-0.28 -0.97,-0.55 -1.53,-0.83 -0.97,-0.55 -2.01,-1.18 -3.12,-1.59 -0.06,-0.07 -0.06,-0.07 -0.2,-0.14l-2.08 -0.83c0,0 0,0 0,0 -0.07,0 -0.07,0 -0.07,0 0,0 0,0 0,0 -0.07,0 -0.14,-0.07 -0.14,-0.07l-0.21 -0.07c-0.07,0 -0.07,0 -0.14,-0.07 -0.55,-0.21 -1.24,-0.42 -1.87,-0.55 -0.76,-0.28 -1.59,-0.56 -2.35,-0.7 -0.21,0 -0.28,-0.07 -0.49,-0.14l-0.97 -0.13c-0.48,-0.14 -2.98,-0.49 -3.53,-0.56 -0.42,0 -1.11,-0.14 -1.66,-0.14l-1.67 -0.07c-1.17,-0.07 -2.35,-0.07 -3.46,0 -0.21,0.07 -0.42,0 -0.62,0 -0.49,0.14 -1.04,0.14 -1.6,0.21 -0.34,0.07 -0.76,0.07 -1.04,0.07 -0.9,0.14 -1.87,0.35 -2.77,0.49l-0.97 0.2c-0.14,0 -0.21,0.07 -0.28,0.07 -0.34,0.14 -0.69,0.14 -1.03,0.28 0,0 -0.14,0 -0.14,0l-0.56 0.14c-0.07,0 -0.07,0 -0.07,0l-0.62 0.28c-0.55,0.13 -1.11,0.27 -1.66,0.48 -0.21,0.07 -0.35,0.14 -0.49,0.21l-0.83 0.28c-0.14,0.06 -0.14,0.06 -0.21,0.06 -0.07,0.07 -0.14,0.07 -0.21,0.14l-1.66 0.7c-0.76,0.41 -1.59,0.76 -2.35,1.17l-1.53 0.84c-0.07,0.06 -0.07,0.13 -0.21,0.13 0,0.07 -0.07,0.07 -0.13,0.14 -0.84,0.49 -1.67,1.04 -2.43,1.67l-2.91 2.42c-0.48,0.49 -0.97,0.97 -1.45,1.45l-0.56 0.63c-0.07,0.14 -0.21,0.21 -0.28,0.34 -0.48,0.49 -0.9,1.04 -1.31,1.6 -0.76,1.04 -1.46,2.15 -2.08,3.25 -0.83,1.25 -1.39,2.71 -1.87,4.09l-0.42 1.32c-0.07,0 -0.07,0.07 -0.07,0.14 -0.2,0.69 -0.41,1.45 -0.55,2.21l-0.28 1.53c-0.14,0.9 -0.14,1.73 -0.14,2.63l0 0 0 0zm-1.1 23.35c-0.35,0.07 -1.04,0 -2.43,0.42 -1.04,0.27 -1.87,0.69 -2.77,1.24 -0.42,0.28 -0.76,0.56 -1.18,0.9 -0.07,0.14 -0.21,0.21 -0.35,0.35l-0.62 0.69c-0.14,0.14 -0.14,0.14 -0.21,0.21 -0.07,0.07 -0.07,0.14 -0.14,0.21 -0.34,0.41 -0.62,0.9 -0.9,1.45l-0.34 0.7c-0.42,0.9 -0.56,1.73 -0.7,2.7 -0.13,0.9 -0.06,2.49 -0.06,3.39l0 52.94c0,0.69 -0.07,0.41 0.27,0.83l0.9 0.76c1.04,0.9 3.19,2.56 4.3,3.33l5.4 3.46c0.97,0.55 1.8,1.04 2.71,1.52l2.28 1.18c0.49,0.28 1.04,0.56 1.6,0.76 0.62,0.21 1.1,0.49 1.66,0.7l1.45 0.62c1.53,0.62 2.98,1.18 4.58,1.66l3.11 0.97c0.21,0.07 0.35,0.07 0.56,0.14l5.33 1.18c0.14,0.07 0.14,0.07 0.28,0.07l4.85 0.69c1.11,0.14 4.43,0.28 5.2,0.28l2.01 0.07c0.27,0 0.41,-0.07 0.69,-0.07 0.9,0 1.87,0 2.63,-0.07 0.83,-0.07 1.73,-0.07 2.56,-0.21l0.91 -0.14c0.48,0 1.03,-0.07 1.52,-0.13l1.18 -0.21c0.55,-0.07 1.24,-0.21 1.73,-0.28 0.28,0 0.42,-0.07 0.62,-0.14 0.21,0 0.35,0 0.56,-0.07 0.62,-0.14 1.11,-0.27 1.73,-0.34 0.14,-0.07 0.35,-0.14 0.55,-0.14 0.21,-0.14 0.35,-0.14 0.56,-0.14l1.31 -0.42c0.14,0 0.21,0 0.28,-0.07 0.14,0 -0.07,0.07 0.14,0 0.07,-0.07 0,0 0,-0.07 0.14,0 0.07,0 0.14,0l1.32 -0.34c0.13,-0.07 0.06,0 0.13,-0.07l0.56 -0.14c0.14,-0.07 0,0 0.14,-0.07l1.45 -0.41c0,0 0,0 0,-0.07 0,0 0,0 0,0l1.6 -0.56c0.13,-0.07 0.2,-0.07 0.27,-0.07l5.13 -2.08c0.07,-0.06 0.14,-0.13 0.21,-0.13l1.18 -0.56c0.13,-0.07 0.2,-0.14 0.27,-0.14 0.97,-0.48 2.01,-0.97 2.98,-1.45l2.29 -1.32c0.07,0 0.07,0 0.14,-0.07l0.62 -0.34c0.07,-0.07 0.07,-0.07 0.07,-0.14l0.55 -0.28c0.49,-0.28 0.9,-0.48 1.32,-0.83l1.66 -1.04c0.28,-0.14 0.63,-0.35 0.9,-0.55 1.87,-1.25 3.74,-2.64 5.62,-3.95 0.48,-0.42 0.62,-0.42 0.62,-0.77 0.07,-1.8 0,-3.67 0,-5.54l-0.07 -51.13 -0.28 -1.66 -0.27 -0.83c-0.14,-0.42 -0.35,-0.77 -0.56,-1.18l-0.14 -0.21c-0.34,-0.62 -1.18,-1.66 -1.66,-2.15 -0.55,-0.41 -1.11,-0.97 -1.8,-1.31l-0.83 -0.49c-0.14,-0.07 -0.14,-0.07 -0.28,-0.07 -0.07,-0.07 -0.14,-0.14 -0.21,-0.14l-0.41 -0.14c-0.7,-0.27 -0.97,-0.34 -1.67,-0.55 -0.2,0 -0.48,-0.07 -0.62,-0.07 -0.9,-0.14 -1.8,-0.14 -2.63,-0.14l-71.44 0c-0.13,0.07 -0.06,0.07 -0.06,0.07l0 0 0 0zm118.96 -42.89c0.27,0.07 0.62,0.21 0.9,0.28 4.09,1.11 5.19,0.21 5.4,0.28 0.21,0.07 1.04,0.55 1.18,0.69 0.55,0.35 1.59,1.25 1.59,2.01 0,0.69 -0.2,1.04 -0.83,1.45 -1.52,0.84 -4.36,0.35 -5.75,-0.41 -0.35,-0.21 -0.55,-0.21 -0.76,-0.62 -0.28,-0.63 -0.56,-1.25 -0.83,-1.88 -0.35,-0.62 -0.63,-1.17 -0.9,-1.8l0 0zm-4.51 -5.12l3.81 -0.49c0.49,-0.07 1.81,0.21 2.29,0.28 0.9,0.21 1.8,0.48 2.49,0.9 0.7,0.41 1.6,1.04 1.6,2.01 0,0.76 -0.56,1.18 -1.04,1.45 -0.76,0.42 -1.66,0.49 -2.63,0.49 -0.42,0 -2.22,-0.21 -2.43,-0.35 -0.07,0 -0.48,-0.69 -0.55,-0.83 -0.77,-1.18 -2.01,-2.63 -3.33,-3.33 0,0 -0.07,0 -0.14,0 -0.07,-0.13 0,-0.06 -0.07,-0.13l0 0 0 0zm-4.64 -7.9c0,-1.18 2.63,-1.8 4.02,-1.8 0.35,0 1.66,0 1.94,0.27 0.42,0.42 1.39,1.87 1.66,2.36 0.14,0.21 0.21,0.41 0.28,0.55 -0.35,0 -2.15,0.35 -2.63,0.42 -0.42,0.07 -0.83,0.14 -1.18,0.28l-1.32 0.2c-0.27,0 -2.77,-1.04 -2.77,-2.28l0 0zm-0.35 -5.96c0.84,0 1.6,0 2.29,0.41l1.39 1.11c0.07,0.07 0.14,0.07 0.27,0.21l0.97 1.04c0.21,0.14 0.42,0.28 0.56,0.56 -1.6,-0.42 -4.51,-0.42 -5.96,0.69 -0.35,0.21 -0.14,0.48 -1.46,0 -1.38,-0.63 -2.84,-1.53 -1.1,-2.91l0.55 -0.42c0.49,-0.27 0.76,-0.41 1.32,-0.55 0.34,-0.07 0.76,-0.14 1.17,-0.14l0 0 0 0zm-11.7 -4.64c0,-0.97 1.59,-1.6 2.35,-1.87 0.97,-0.28 1.73,-0.42 2.7,-0.42 0.56,0 0.56,0.21 1.04,0.56 0.7,0.48 2.43,1.73 3.26,1.87l0 0.13c-0.62,0 -4.3,1.46 -4.85,1.74 -0.42,0.13 -0.76,0.07 -1.39,-0.07 -0.97,-0.21 -3.11,-0.76 -3.11,-1.94l0 0 0 0zm-4.79 -2.7c0,-1.67 3.47,-3.61 6.17,-2.71 0.62,0.21 1.87,1.25 2.36,1.67 0.2,0.2 0.48,0.41 0.62,0.69 -1.66,0 -4.5,0.62 -5.75,1.73 -0.07,0 -0.21,0.07 -0.21,0.07 -0.28,0.14 -3.19,-0.21 -3.19,-1.45l0 0 0 0zm-141.89 22.51c0,-1.31 0.35,-1.31 0.76,-1.87l2.01 -2.42c0.35,3.67 1.66,4.5 1.73,4.78 0.14,0.48 0.28,3.81 -1.17,3.81 -1.87,0 -3.33,-2.29 -3.33,-4.3l0 0 0 0zm6.24 -8.66c0,0.35 0.27,0.97 0.41,1.32 0.69,1.66 1.32,2.28 1.32,4.43 0,0.83 -0.49,2.22 -1.39,2.22 -0.62,0 -1.11,-0.62 -1.52,-1.04 -0.63,-0.69 -1.11,-1.8 -1.32,-2.84 -0.21,-0.76 -0.28,-0.69 0.14,-1.25 0.21,-0.34 0.49,-0.69 0.83,-0.97 0.35,-0.21 0.9,-0.83 1.18,-1.24l0.21 -0.49c0.07,0 0.07,0 0.07,0 0.07,-0.14 0,-0.07 0.07,-0.14l0 0 0 0zm30.34 -15.45c0,-0.14 -0.07,-0.41 -0.07,-0.62 -0.07,-0.35 0,-1.8 0,-2.22 0,-0.62 0.21,-2.08 0.35,-2.7 0.21,-0.83 0.48,-1.53 0.97,-2.08 1.87,-2.91 3.39,-0.48 3.39,0.69 0,1.32 -0.27,2.08 -0.76,3.19 -0.21,0.62 -0.21,0.21 -1.18,0.9l-1.17 0.97c-0.49,0.56 -0.97,1.18 -1.46,1.8 0,0.07 0,0.07 -0.07,0.07l0 0 0 0zm8.11 -11.29c0.48,0 0.97,0.48 1.18,0.83 0.9,1.18 0.34,3.39 -0.28,4.64 -0.07,0.07 -0.14,0.21 -0.14,0.35 -0.14,0.28 -0.14,0.21 -0.41,0.28 -0.49,0.27 -1.04,0.55 -1.67,0.83l-1.45 0.34c-0.21,0.07 -0.42,0.07 -0.56,0.14 0.21,-0.76 1.04,-2.08 1.04,-3.81 0,-1.25 -0.41,-0.97 0.56,-2.42 0.34,-0.49 0.62,-0.84 1.11,-1.04 0.13,-0.07 0.41,-0.14 0.62,-0.14l0 0 0 0zm67.83 211.52c-0.69,0 -0.42,-0.07 -0.83,-0.13 0.14,-0.28 0.41,-0.56 0.76,-1.04 0.21,-0.35 0.41,-0.7 0.62,-1.11 0.49,-0.76 0.83,-1.53 1.25,-2.36 0.21,-0.48 0.35,-0.83 0.55,-1.31 0.28,-0.63 1.32,-3.19 1.53,-3.88 0.41,-0.07 2.01,-0.35 2.28,-0.49 -0.27,1.04 -0.97,3.81 -1.38,4.78 -0.83,2.15 -0.83,2.36 -2.43,4.23 -0.07,0.14 -0.13,0.14 -0.27,0.21 -0.56,0.48 -1.18,1.1 -2.08,1.1l0 0 0 0zm3.53 -11.71c0.21,-0.27 0.56,-1.45 0.63,-1.8 0.13,-0.55 0.62,-2.56 0.83,-2.91 0.48,-0.69 1.24,-1.66 2.08,-1.66 0.62,0 0.97,0.21 1.31,0.69 0.83,1.11 0.49,2.5 0,3.61 -0.07,0.34 -0.14,0.55 -0.34,0.76 0,0.14 -0.14,0.34 -0.14,0.41 -0.14,0.14 -0.14,0.07 -0.42,0.14 -0.69,0.21 -1.32,0.42 -1.94,0.42 -0.35,0.07 -0.69,0.14 -0.97,0.21 -0.34,0.07 -0.69,0.13 -1.04,0.13l0 0 0 0zm10.81 -10.6c0.49,-0.2 1.87,-0.13 2.49,0.49 1.32,1.32 -1.24,1.45 -2.14,0.14 -0.14,-0.21 -0.35,-0.42 -0.35,-0.63l0 0 0 0zm25.91 -14.13c0.42,0 0.83,0.28 1.11,0.49 1.25,1.1 1.25,3.6 0.76,5.19 -0.14,0.28 -0.07,0.14 -0.41,0.42l-1.04 0.69c-0.21,0.21 -1.32,0.97 -1.46,1.04 0,-0.69 -0.9,-4.92 -0.9,-5.06 0,-0.14 0.07,-0.41 0.14,-0.55 0.14,-0.35 0.21,-0.63 0.35,-0.9 0.27,-0.49 0.76,-1.32 1.45,-1.32l0 0 0 0zm-117.23 17.67c-0.76,0 -1.45,-0.35 -1.52,-1.04 -0.14,-0.83 0.9,-1.73 1.52,-2.15 0.56,-0.35 2.15,-1.32 2.64,-1.32 0.13,0 0.34,0.21 0.48,0.28l1.66 0.69c0.42,0.07 0.77,0.21 1.18,0.28 0.49,0.14 0.97,0.14 1.32,0.21 -0.14,0.21 -1.32,0.83 -1.6,0.97 -1.31,0.76 -4.15,2.08 -5.68,2.08l0 0 0 0zm-4.43 -2.22c-0.69,0 -1.39,-0.07 -1.8,-0.69 -0.97,-1.6 2.28,-3.05 3.53,-3.6 0.35,-0.07 1.46,-0.42 1.8,-0.42 0,0 0.56,0.42 0.63,0.48l1.38 1.04c0.28,0.14 0.69,0.35 0.76,0.49 -0.2,0 -0.62,0.21 -0.83,0.28 -0.83,0.27 -1.66,0.62 -2.35,1.04 -1.8,1.1 -0.63,0.97 -2.08,1.31 -0.35,0.07 -0.69,0.07 -1.04,0.07l0 0 0 0zm-24.04 -19.12c0.34,-0.07 2.91,-0.76 3.46,-0.9 1.25,-0.42 0.97,-0.42 2.29,-0.07 0.83,0.21 2.49,0.9 2.49,1.87 0,1.73 -1.87,2.49 -3.39,2.49 -0.76,0 -1.32,0 -2.01,-0.14 -0.42,-0.13 -1.11,-1.1 -1.53,-1.52 -0.55,-0.55 -0.9,-1.18 -1.31,-1.73l0 0 0 0zm-6.45 -7.76c0,-0.9 1.46,-1.39 2.15,-1.6 0.56,-0.2 0.97,-0.27 1.46,-0.41 1.11,-0.21 1.8,-0.42 2.63,0.07 0.83,0.55 0.48,1.25 -0.07,1.8 -0.07,0.07 -0.07,0.07 -0.14,0.07l-2.35 1.87c-0.49,0.42 -0.42,0.42 -1.11,0.28 -0.42,-0.14 -0.83,-0.28 -1.11,-0.42 -0.62,-0.28 -1.46,-0.83 -1.46,-1.66l0 0 0 0zm-6.44 -10.33c0,-0.41 -0.07,-0.41 0.35,-0.76 0.69,-0.41 1.87,-0.69 2.7,-0.76 0.55,0 2.08,-0.07 2.35,0.21 0.14,0.14 0.7,1.94 2.15,3.12 0.21,0.2 0.76,0.69 1.04,0.69 -0.14,0.21 0,0.07 -0.21,0.14 -1.73,0.41 -4.57,0.14 -6.02,-0.56 -0.28,-0.07 -0.49,-0.2 -0.7,-0.34 -0.55,-0.28 -1.66,-1.18 -1.66,-1.74l0 0 0 0zm75.24 -153.88c0,-1.1 1.39,-0.69 2.01,0 0.21,0.35 0.7,0.97 0.7,1.46 -0.7,0 -1.11,0.28 -2.01,-0.35 -0.28,-0.21 -0.63,-0.69 -0.63,-1.11l-0.07 0zm12.75 -1.66l-0.28 0c-0.97,0 -1.66,-1.04 -1.66,-2.01 0,-0.97 0.42,-1.73 0.83,-2.35 0.21,-0.35 1.32,-1.74 1.46,-1.74 0.34,0 0.83,0.14 1.25,0.14 0.76,0.14 3.32,0.63 4.01,0.63 -0.07,0.2 -0.34,0.62 -0.48,0.83 -0.49,0.97 -0.42,0.97 -1.04,1.73 -0.69,0.69 -1.32,1.39 -2.15,1.94 -0.41,0.28 -1.31,0.83 -1.94,0.83l0 0 0 0zm-9.07 2.7c-0.07,-0.97 -0.7,-2.08 -1.6,-2.56 -1.87,-1.04 -2.84,0.83 -2.84,1.8 0,1.04 0.42,1.8 1.32,2.22 0.76,0.28 1.73,0.21 2.42,-0.14 0,0.69 0.28,1.39 -0.55,2.56 -0.42,0.56 -0.63,0.83 -1.11,1.18 -1.66,1.39 -3.53,1.73 -5.61,0.9 -0.76,-0.34 -1.6,-0.9 -2.15,-1.59 -1.11,-1.53 -1.18,-3.6 -0.49,-5.27 0.14,-0.27 0.21,-0.48 0.28,-0.69 0.28,-0.42 0.49,-0.76 0.76,-1.11 0.7,-1.04 1.81,-2.08 2.84,-2.77 2.91,-1.94 3.12,-0.76 6.1,-1.18 2.22,-0.28 3.4,-1.73 5.2,-2.15 0.48,-0.13 1.11,-0.13 1.66,-0.2 0.35,0 0.56,0.07 0.83,0.07 0.35,0 0.56,0 0.9,0 -0.48,0.97 -3.81,5.33 -4.5,6.02 -0.07,0.14 -0.07,0.14 -0.21,0.28 -0.07,0.14 -0.14,0.21 -0.28,0.28 -0.83,0.83 -1.31,1.31 -2.28,2.01 -0.21,0.14 -0.49,0.2 -0.69,0.34l0 0zm13.58 -9.97l-2.57 -0.28c0.07,-0.42 1.66,-2.7 1.94,-3.05 0.07,-0.14 0.14,-0.21 0.21,-0.35 0.48,-0.76 1.04,-1.38 1.52,-2.01l0.49 -0.55c0.14,-0.14 0.35,-0.28 0.55,-0.48 0.7,-0.77 2.15,-1.88 3.19,-1.88 0.62,0 1.46,0.49 1.73,0.84 -0.41,0.2 -0.76,0.48 -1.11,0.76 -0.07,0.07 -0.13,0.14 -0.2,0.21 -0.14,0.13 -0.14,0.13 -0.28,0.27 -0.07,0 -0.14,0.14 -0.21,0.21 -1.38,1.11 -3.95,4.44 -4.92,5.75 -0.07,0.14 -0.34,0.42 -0.34,0.56l0 0 0 0zm-7.76 213.6c-0.84,0 -1.6,0 -2.36,0.14 -0.28,0 -0.49,0.14 -0.69,0.14 0.14,-0.14 0.27,-0.35 0.41,-0.49l2.7 -3.53c1.04,-0.9 3.12,-2.08 4.02,-0.42 0.63,1.25 -0.34,2.5 -1.11,3.4 -0.41,0.34 -0.55,0.41 -0.83,0.62 -0.14,0.14 -0.07,0.21 -0.27,0.21 -0.7,0 -1.18,-0.07 -1.87,-0.07l0 0zm3.04 0.14c0.84,-0.69 0.9,-0.69 1.74,-1.59 0.34,-0.35 0.69,-0.84 0.83,-1.25 0.48,-0.9 0,-0.63 1.24,-1.53 0.63,-0.41 1.25,-0.76 2.08,-0.76 0.97,0 1.94,1.66 0.42,3.54 -0.83,0.9 -0.69,0.69 -1.46,1.45 -0.9,0.83 -0.76,0.55 -2.14,0.42l-2.71 -0.28 0 0 0 0zm-19.6 -1.87c-0.35,0 -0.63,-0.07 -0.84,-0.28 -0.34,-0.21 -0.34,-0.48 -0.34,-0.9 0,-0.76 0.69,-1.59 1.04,-2.01l0.69 -0.83c0.14,-0.14 0.28,-0.21 0.42,-0.35l1.04 -0.9c0.2,-0.14 0.41,0 0.9,0.07l3.11 0.83c-0.07,0 0,0 -0.13,0l-0.28 0.21c-0.14,0.14 -0.21,0.14 -0.35,0.28 -0.9,0.69 -2.01,1.59 -2.63,2.56 -0.21,0.42 -0.07,0.42 -0.42,0.63 -0.07,0 -0.13,0 -0.2,0.06 -0.49,0.21 -1.32,0.63 -2.01,0.63l0 0zm5.19 0.83c-0.76,0 -1.18,-0.55 -1.18,-1.25 0,-1.24 1.32,-2.42 2.15,-3.18 0.07,-0.14 0.14,-0.14 0.21,-0.21 0.69,-0.63 0.49,-0.42 0.83,-0.42 1.73,0 2.57,0.07 4.16,-0.41 0.28,0 0.55,-0.21 0.83,-0.28l-1.39 1.87c-0.06,0.14 -0.2,0.28 -0.27,0.42 -0.21,0.27 -0.63,0.9 -0.9,1.1 -0.14,0.07 -0.14,0.07 -0.28,0.14 -0.9,0.7 -2.98,2.22 -4.16,2.22l0 0zm102.27 -46.14c0,-0.56 0.07,-1.39 0.27,-1.81 0.07,-0.06 0.21,-0.27 0.28,-0.34 0.28,-0.28 0.97,-0.21 1.32,-0.07 2.08,0.83 2.49,4.99 2.28,5.26 -0.07,0.14 -0.41,0.42 -0.55,0.56l-0.49 0.55c-0.41,0.49 -0.62,0.77 -0.97,1.32l-0.34 0.69c-0.07,-0.97 -1.6,-3.81 -1.66,-4.29 -0.07,-0.56 -0.14,-1.25 -0.14,-1.87l0 0 0 0zm2.77 -5.27c0,-0.76 0,-2.08 1.04,-2.08 2.49,0 3.46,3.47 3.6,5.61 0.07,0.28 -0.69,1.32 -0.83,1.6l-1.25 1.73c-0.14,0.14 -0.34,0.42 -0.48,0.55l0.07 -0.69c0,-1.8 -0.49,-3.88 -1.81,-4.92 -0.13,-0.07 -0.13,0 -0.2,-0.27 -0.07,-0.42 -0.14,-1.11 -0.14,-1.53l0 0zm-1.11 -121.18c0.14,0.14 0.41,0.28 0.62,0.28 3.05,1.38 4.78,4.5 5.96,7.41 0.69,1.6 1.87,3.95 2.98,5.13 0.83,0.97 1.39,1.32 2.77,1.73 2.08,0.49 1.39,-1.45 0.21,-1.45 -0.55,0 -0.76,0.2 -1.11,0.27 -0.14,-0.2 -0.55,-0.55 -0.97,-1.24 -0.76,-1.25 -1.38,-3.33 -2.01,-4.78 -0.34,-0.77 -0.97,-2.22 -1.52,-2.91 -0.21,-0.35 -0.42,-0.56 -0.63,-0.9l-2.35 -2.15c-0.28,-0.28 -0.49,-0.42 -0.9,-0.63 -1.04,-0.62 -1.6,-0.76 -2.77,-0.76 -0.14,0 -0.21,0 -0.28,0l0 0 0 0zm-186.17 119.45c1.73,0 2.7,2.08 3.26,3.53 0.48,1.32 0.48,1.46 1.18,2.91 0.13,0.28 0.34,0.56 0.48,0.83 0.14,0.14 0.14,0.21 0.28,0.42 0.62,0.9 1.31,1.87 2.28,2.49 0.84,0.56 2.64,1.11 3.54,0.9l0.21 -0.07c-0.97,-0.06 -2.08,-0.55 -2.84,-1.1 -0.28,-0.28 -0.49,-0.49 -0.63,-0.7 -0.14,-0.14 -0.21,-0.14 -0.34,-0.34 -0.77,-0.97 -1.18,-1.87 -1.67,-2.98 -0.76,-1.87 -1.18,-4.09 -2.56,-5.41 -0.76,-0.83 -2.01,-1.04 -3.05,-0.55 -0.14,0 -0.14,0 -0.14,0.07zm-9.42 -83.49c0,0.28 0.14,0.76 0.28,0.9 0.48,0.76 0.76,0.35 1.66,0.35 0.83,0 1.66,0.97 2.15,1.59 0.14,0.14 0.07,0.14 0.27,0.21 0.97,-0.62 -1.8,-3.67 -3.74,-3.67 -0.41,0 -0.62,0.27 -0.62,0.62zm210.42 -13.58c-0.35,0 -0.28,0.69 0.83,1.04 1.11,0.42 2.28,0.49 3.39,0.07 1.94,-0.55 0.49,-1.87 -0.27,-1.87 -0.91,0 -0.56,1.25 -2.85,0.97 -0.34,0 -0.76,-0.21 -1.1,-0.21zm1.45 3.95c0,0.69 0.9,0.49 1.39,0.62 1.38,0.42 1.73,1.11 2.28,1.53 1.46,1.11 1.94,0 1.25,-0.9 -0.21,-0.28 -0.69,-0.63 -1.11,-0.83 -0.9,-0.49 -2.01,-0.77 -3.12,-0.77 -0.34,0 -0.69,0.07 -0.69,0.35l0 0 0 0zm0.28 -1.66c0,0.48 0.62,0.62 1.18,0.69 1.66,0.35 1.17,0.14 2.98,0.83 0.34,0.14 0.97,0.42 1.45,0.42 0.49,0 0.83,-0.07 0.83,-0.49 0,-0.41 -0.76,-0.76 -1.11,-0.97 -1.11,-0.62 -2.56,-0.21 -3.81,-0.48 -0.48,-0.07 -1.52,-0.49 -1.52,0l0 0zm-210.49 5.96c0,1.8 2.84,4.71 3.47,4.22 0.41,-0.41 -0.56,-1.11 -0.77,-1.24 -0.97,-1.25 -0.9,-2.01 -1.1,-2.71 -0.63,-1.8 -1.6,-0.97 -1.6,-0.27l0 0 0 0zm-2.22 0.55c0,0.55 0.49,1.39 0.77,1.73 0.83,0.97 2.01,1.39 3.11,2.7 0.07,0.14 0.14,0.21 0.21,0.35 0.14,0.14 0.14,0.14 0.42,0.21 0.34,-0.56 0,-0.97 -0.49,-1.46 -0.14,-0.14 -0.27,-0.2 -0.34,-0.27 -0.97,-0.9 -1.39,-1.74 -2.08,-2.71 -0.56,-0.69 -1.6,-1.45 -1.6,-0.55l0 0zm7.49 92.7c0,0.63 1.04,1.11 1.59,1.18 1.25,0.21 2.29,0 3.53,0.35 0.28,0.07 0.97,0.48 0.97,-0.07 0,-0.28 -0.27,-0.42 -0.48,-0.49 -1.11,-0.62 -2.84,-0.97 -4.02,-1.11 -0.41,-0.07 -1.59,-0.41 -1.59,0.14l0 0zm3.95 -116.4c0,0.42 0.2,0.97 0.69,1.11 0.48,0.14 0.69,-0.07 1.32,0.42 1.24,0.9 1.17,2.08 1.59,2.08 0.35,0 0.28,-0.63 0.21,-0.83 -0.21,-1.32 -1.39,-2.71 -2.5,-3.33 -0.55,-0.35 -1.31,-0.42 -1.31,0.55l0 0 0 0zm211.45 86.54c0,-0.41 -0.48,-1.32 -0.9,-1.32 -0.62,0 -0.97,0.56 -2.42,-0.48 -0.63,-0.49 -0.63,-0.9 -1.04,-0.97 -0.21,0.35 -0.14,0.48 0,0.76 0.41,1.11 1.87,2.08 2.91,2.43 0.41,0.14 0.97,0.34 1.31,0 0.07,-0.07 0.14,-0.28 0.14,-0.42zm-208.47 -90.9c0,1.11 0.27,1.94 0.76,2.84 0.14,0.35 0.34,0.62 0.55,0.9 0.14,0.21 0.63,0.76 0.83,0.76 0.14,0 0.14,0 0.21,0 0.21,-0.41 0.07,-0.69 -0.14,-0.97 -0.34,-0.34 -0.62,-1.17 -0.76,-1.8 -0.07,-0.55 0.14,-2.15 -0.55,-2.42 -0.42,-0.28 -0.9,0.21 -0.9,0.69l0 0 0 0zm0.9 5.33c0.14,-0.2 0.2,-0.13 0.2,-0.41 0,-0.69 -0.97,-1.73 -1.52,-3.05 -0.07,-0.28 -0.14,-0.55 -0.28,-0.83 -0.27,-0.69 -0.27,-0.9 -0.83,-1.46 -0.21,-0.2 -0.48,-0.41 -0.69,-0.13 -0.21,0.27 -0.07,0.62 -0.07,0.9 0.28,1.04 0.55,1.52 1.25,2.28 0.2,0.21 0.34,0.42 0.48,0.63 0.83,0.97 0.9,1.8 1.46,2.07l0 0 0 0zm-11.44 102.96c0,0.63 0.91,1.04 1.18,1.04 0.7,0 0.76,-0.97 2.01,-0.97l0.63 0c0.55,0 0.9,0.28 1.31,0.14 0.07,-0.14 0.07,-0.07 0.07,-0.14 0,-0.41 -0.69,-0.62 -0.97,-0.76 -1.52,-0.62 -4.23,-0.14 -4.23,0.69zm137.74 -153.46c0,0.97 -0.83,1.8 -1.52,2.35 -0.49,0.42 0,0.9 1.11,0.07 0.69,-0.48 1.31,-1.32 1.73,-2.08 1.25,-2.21 -0.28,-2.42 -1.11,-1.52 -0.35,0.34 -0.21,0.62 -0.21,1.18l0 0zm-63.32 -0.35c0,0.35 0.27,0.55 0.48,0.83 0.49,0.62 0.35,1.73 0.14,2.5 -0.14,0.41 -0.35,0.76 0.14,0.76 0.07,0 0.21,-0.14 0.28,-0.21 1.17,-1.18 1.03,-5.06 -0.07,-5.06 -0.49,0 -0.97,0.69 -0.97,1.18zm-75.73 148.55c0,1.45 2.35,2.01 3.53,2.14 1.8,0.28 1.6,-0.55 1.04,-0.76 -0.35,-0.07 -1.25,0.07 -2.49,-0.9 0,0 -1.39,-1.52 -1.94,-0.76 -0.07,0 -0.14,0.14 -0.14,0.28l0 0 0 0zm25.15 44.82c0,0.42 0.9,0.63 1.32,0.63 1.1,0 2.07,-0.63 3.6,-0.9 0.48,-0.07 1.24,0.13 1.24,-0.28 0,-0.28 -0.13,-0.35 -0.41,-0.42 -0.69,-0.14 -1.87,-0.07 -2.56,0.07l-2.29 0.35c-0.35,0.14 -0.9,0.14 -0.9,0.55l0 0zm7.34 6.65c0,0.35 0.28,0.49 0.63,0.56 1.24,0.28 2.63,-0.69 3.88,-1.11 0.83,-0.21 1.59,0 1.59,-0.42 0,-1.03 -4.23,0.21 -4.78,0.35 -0.28,0.07 -1.32,0.35 -1.32,0.62l0 0 0 0zm169.75 -151.17c0.14,0.62 1.32,1.03 1.94,1.03 1.94,0.07 3.33,1.18 3.88,1.18 0.42,0 0,-0.76 -0.07,-0.83 -0.14,-0.21 -0.42,-0.35 -0.55,-0.48 -0.28,-0.28 -0.84,-0.7 -1.32,-0.7 -0.28,0 -0.55,-0.07 -0.97,-0.07 -0.62,0 -1.18,0.07 -1.8,-0.13 -0.69,-0.21 -0.83,-0.28 -1.11,0l0 0zm-39.98 -36.31c0.21,0.9 2.36,-0.48 2.77,-0.83l1.32 -1.46c1.04,-1.73 -1.32,-1.45 -1.59,-0.69 -0.14,0.49 0,1.18 -0.83,1.87 -0.21,0.14 -0.35,0.28 -0.49,0.35 -0.48,0.34 -0.97,0.48 -1.18,0.76l0 0zm53.14 125.06c-0.07,0.28 -0.07,0.48 0.28,0.83 0.62,0.42 0.83,0.55 1.32,1.46 0.14,0.2 0.21,0.34 0.27,0.62 0.07,0.41 0.21,0.97 0.56,1.25 0.62,0.83 1.11,0.34 1.11,-0.49 0,-0.55 -0.56,-1.38 -0.9,-1.87 -0.14,-0.21 -0.28,-0.28 -0.42,-0.48l-0.69 -0.63c-0.42,-0.28 -0.97,-0.97 -1.53,-0.69l0 0 0 0zm-216.79 13.02c0,0.49 0.63,0.77 0.97,0.97 1.11,0.56 2.36,0.14 3.61,0.35 0.34,0.07 1.52,0.49 1.52,0.07 0,-0.83 -1.73,-0.69 -2.63,-0.9 -1.11,-0.42 -2.43,-1.11 -3.26,-0.83 -0.21,0.14 -0.21,0.14 -0.21,0.34l0 0 0 0zm166.98 -136.62c0,0.2 0.14,0.27 0.34,0.27 0.49,0 0.91,-0.9 2.85,-1.11 0.06,0 1.17,0.21 1.8,-0.27 0.55,-0.42 0.07,-1.11 -0.56,-1.11 -0.97,0 -2.08,0.28 -2.7,0.76 -0.42,0.28 -1.73,0.97 -1.73,1.46l0 0zm50.78 122.56c0,0.55 0.63,1.04 0.9,1.32 1.25,1.04 1.25,1.17 2.15,2.35 0.83,1.18 2.29,1.46 1.32,-0.21 -0.14,-0.27 -0.28,-0.48 -0.42,-0.69 -0.55,-0.69 -1.94,-1.38 -2.49,-1.94 -0.28,-0.14 -0.97,-1.04 -1.18,-1.04 -0.14,0 -0.28,0.21 -0.28,0.21l0 0zm-136.9 -134.41c0,0.27 0,0.76 0.34,0.76 0.63,0 0.21,-0.9 1.11,-2.36 0.49,-0.83 1.32,-1.17 1.32,-2.14 0,-0.56 -1.18,-1.04 -2.15,1.17 -0.28,0.7 -0.62,1.81 -0.62,2.57l0 0 0 0zm85.43 10.53c0.2,0.97 1.87,-0.62 3.18,-1.18 0.63,-0.28 2.7,-0.97 2.7,-1.73 0,-0.28 -0.48,-0.35 -0.83,-0.28 -2.01,0.42 -2.35,1.46 -3.67,2.29 -0.48,0.21 -1.25,0.55 -1.38,0.9l0 0 0 0zm-23.98 -9.15c0,0.28 0.21,0.35 0.49,0.21 0.28,-0.14 0.28,-0.21 0.55,-0.48 0.28,-0.35 0.7,-0.56 1.04,-0.84 0.76,-0.41 0.97,-0.34 1.53,-0.55 1.94,-0.62 1.04,-2.29 -1.04,-1.04 -0.35,0.21 -0.97,0.62 -1.25,0.9 -0.28,0.35 -1.32,1.46 -1.32,1.8l0 0 0 0zm-62.84 -1.38c0,0.34 0.63,0.76 0.97,-1.04 0.21,-0.97 0.14,-0.83 0.49,-1.73 0.07,-0.28 0.14,-0.49 0.27,-0.7 0.28,-0.69 0.42,-0.97 0.49,-1.73 0.07,-0.83 -0.49,-1.18 -1.25,0.28 -0.41,0.83 -0.41,1.59 -0.48,2.42 -0.07,0.9 0,0.77 -0.28,1.74 -0.07,0.2 -0.21,0.62 -0.21,0.76l0 0zm61.8 0.41c0,0.14 0.21,0.14 0.35,0.14 0.55,0 1.39,-1.11 1.8,-1.52l0.63 -0.49c0.13,-0.14 0.13,-0.14 0.27,-0.27 0.63,-0.42 1.94,-1.25 1.94,-2.01 0,-0.49 -0.83,-0.14 -1.18,0 -0.76,0.48 -0.9,0.55 -1.45,1.31 -0.35,0.42 -0.97,1.32 -1.25,1.67 -0.21,0.2 -1.11,0.9 -1.11,1.17l0 0zm68.25 157.14c0,1.94 3.88,5.06 3.88,2.98 0,-0.42 -0.21,-0.97 -0.62,-1.11 -0.56,-0.21 -0.63,0.14 -1.39,-0.35 -1.11,-0.69 -1.32,-1.8 -1.66,-1.8 -0.14,0 -0.21,0.21 -0.21,0.28l0 0 0 0zm0 2.56c0,0.49 0.9,1.53 1.18,1.94 0.14,0.21 0.27,0.42 0.41,0.7 0.42,0.76 0.63,1.45 1.18,2.08 0.97,1.17 1.25,-0.21 0.42,-1.6l-0.97 -1.11c-0.7,-0.69 -0.9,-0.9 -1.46,-1.73 -0.55,-1.04 -0.76,-0.41 -0.76,-0.28l0 0 0 0zm-1.25 0.7c0,0.76 0.69,0.55 1.18,2.28 0.07,0.21 0.14,0.42 0.14,0.63 -0.07,0.62 0.21,1.73 0.76,1.73 1.46,0 0.21,-2.56 -0.21,-3.19 -0.14,-0.34 -1.11,-1.66 -1.52,-1.66 -0.14,0 -0.35,0 -0.35,0.21l0 0zm-29.44 35.68c0,1.25 0.13,1.45 0.62,2.56 0.14,0.42 0.83,1.53 1.25,1.53 0.55,0 0.69,-0.7 0.69,-1.11 0,-0.76 -0.76,-0.56 -1.39,-1.6 -0.69,-1.1 -0.34,-2.14 -0.76,-2.14 -0.28,0 -0.41,0.48 -0.41,0.76l0 0 0 0zm-10.05 7.13l0 0.49c0,0.97 0.69,3.26 1.52,3.26 0.28,0 0.42,-0.07 0.56,-0.35 0.14,-0.21 0.14,-0.55 0.14,-0.9 0,-0.28 -0.35,-0.49 -0.56,-0.62 -0.27,-0.28 -0.41,-0.35 -0.55,-0.7 -0.42,-0.69 -0.42,-1.17 -0.42,-2.28l-0.14 -0.14c-0.27,0.07 -0.34,0.21 -0.41,0.41 -0.07,0.28 -0.14,0.56 -0.14,0.84l0 0 0 -0.01zm-66.17 18.78c0,0.49 0,0.97 0.63,0.97 0.27,0 0.97,-0.48 0.97,-1.04 0,-0.55 -0.63,-0.83 0.14,-2.42 0.34,-0.63 0.62,-0.83 0.62,-1.18 -0.35,-0.28 -0.56,-0.07 -0.9,0.35 -0.76,0.76 -1.46,2.28 -1.46,3.32l0 0zm76.35 -18.57c0.49,-0.07 0.49,-0.62 0.56,-1.38 0.07,-0.83 -0.76,-2.22 -0.97,-3.95 0,-0.07 0,-0.28 -0.07,-0.42 -0.07,-0.21 -0.07,-0.21 -0.21,-0.34 -0.55,0.13 -0.41,0.9 -0.28,1.38 0.07,0.28 0.14,0.49 0.14,0.76 0.28,1.18 -0.07,2.91 0.56,3.75 0.14,0.13 0.14,0.13 0.27,0.2l0 0 0 0zm-2.49 -5.54c0,0.42 0.62,1.32 -0.07,2.91 0,0.14 -0.07,0.14 -0.14,0.28 -0.14,0.55 -0.21,1.45 0.63,1.45 0.97,0 0.9,-2.35 0.76,-3.25 -0.14,-0.35 -0.42,-1.94 -0.97,-1.81 -0.14,0.07 -0.21,0.28 -0.21,0.42l0 0 0 0zm-8.87 6.79c0,0.55 0.14,1.18 0.14,2.15 0,0.76 -0.14,1.45 -0.14,1.87 0,1.11 0.76,2.01 1.11,0.62 0.49,-1.8 -0.41,-2.49 -0.41,-4.22 0,-0.28 0,-0.42 0,-0.63 0,-0.41 0,-0.48 -0.28,-0.48 -0.14,0 -0.28,0.14 -0.28,0.27 0,0 -0.14,0.35 -0.14,0.42l0 0 0 0zm-1.31 -0.42c0,0.42 0.13,0.63 0.13,0.9 0,0.49 -0.13,1.32 -0.34,1.67 -0.21,0.48 -0.49,0.76 -0.49,1.45 0,0.63 0.7,0.9 1.18,0.28 0.62,-0.97 0.55,-3.19 0.21,-4.3 -0.14,-0.27 -0.14,-0.27 -0.42,-0.41l-0.14 0.14c-0.06,0.07 -0.13,0.14 -0.13,0.27l0 0zm-68.25 17.6c0,0.56 0.76,0.83 1.8,-0.14l0.49 -0.48c0.41,-0.42 2.01,-2.91 1.11,-2.91 -0.35,0 -0.49,0.55 -0.63,0.69 -0.28,0.69 -0.97,1.32 -1.73,1.66 -0.42,0.21 -1.04,0.7 -1.04,1.18l0 0zm1.18 2.15c0,0.55 0.41,0.42 0.69,0.28 0.28,-0.28 0.9,-0.83 1.04,-1.18 0.14,-0.28 0.28,-0.49 0.42,-0.76 0.13,-0.28 0.2,-0.49 0.27,-0.76l0.35 -0.84c0.42,-0.83 1.39,-1.59 0.48,-1.59 -0.34,0 -1.1,1.66 -1.66,2.36l-0.9 1.17c-0.21,0.14 -0.28,0.28 -0.41,0.49 -0.14,0.28 -0.28,0.55 -0.28,0.83l0 0 0 0zm14.83 -216.72c0,0.83 0.48,1.38 1.1,1.25 1.25,-0.21 1.39,-2.57 0,-2.43 -0.69,0.14 -1.1,0.69 -1.1,1.18l0 0zm20.16 197.11c0,2.01 2.08,1.53 1.94,0.21 0,-0.83 -0.9,-1.66 -1.67,-0.83 -0.13,0.07 -0.27,0.35 -0.27,0.62zm91.38 -113.21l0 0.69 0 0.07c-0.07,0.56 -0.2,1.53 -0.48,1.94 -0.69,1.32 -1.66,1.67 -3.05,1.32 -0.83,-0.28 -1.52,-0.83 -2.15,-1.39 -0.41,-0.41 -0.76,-0.9 -1.04,-1.38l-0.34 -0.76c-0.49,-1.11 -0.42,-2.84 0.13,-3.95 0.7,-1.53 1.94,-1.04 3.05,-0.42 0.83,0.69 1.53,2.43 0.77,3.33 -0.77,0.83 -1.81,0 -1.94,-0.9 0,-0.21 0,-0.49 0,-0.63 0,-0.27 0.06,-0.27 0.06,-0.48 -0.41,-0.07 -0.62,-0.07 -0.83,0.21 -0.48,0.83 -0.27,2.21 0.14,2.91 1.04,2.01 3.19,1.45 3.67,-0.97 0.14,-0.7 0.07,-1.53 -0.07,-2.08 -0.41,-1.8 -1.87,-3.88 -3.04,-5.27l-0.56 -0.62c-0.34,-0.42 -0.69,-0.83 -1.11,-1.18 -0.14,-0.14 -0.2,-0.14 -0.34,-0.28l-0.63 -0.55c-0.97,-0.97 -2.56,-2.01 -3.74,-2.7 -0.9,-0.49 -1.52,-0.76 -2.35,-1.18 0,0.28 0.13,0.42 0.13,0.69 0,0.28 0.07,0.49 0.14,0.76 0.14,1.11 0.42,3.4 0.42,4.44l0 2.42c0.07,0.35 0,0.49 0,0.77 0,3.18 -0.69,8.17 2.49,10.32 0.28,0.21 0.28,0.21 0.35,0.48l0.55 1.87c-0.2,0 -0.2,-0.06 -0.34,-0.2l-0.56 -0.49c-0.48,-0.48 -0.9,-1.04 -1.24,-1.59 -0.49,-0.63 -0.9,-1.32 -1.25,-2.15 -0.07,-0.21 -0.21,-0.48 -0.28,-0.69 -0.76,-1.67 -1.25,-3.54 -1.38,-5.34l-0.21 -2.63c0,-0.14 0,-0.35 0,-0.49l-0.07 -1.1c0,-0.7 0,-1.46 0,-2.22 0,-1.87 -1.66,-4.57 -2.84,-6.03l-0.56 -0.55c-1.45,-1.32 -2.91,-2.29 -4.92,-2.77 -1.1,-0.28 -2.63,-0.28 -3.6,0.48 -0.9,0.69 -1.45,1.52 -1.73,2.7 -0.83,3.05 0.28,7.9 3.33,9.49 0.83,0.35 1.73,0.63 2.7,0.28 1.31,-0.41 2.21,-2.08 1.31,-3.39 -0.69,0.27 -1.8,0.27 -2.21,-0.56 -0.97,-2.08 2.28,-2.84 3.32,0 0.49,1.18 0.49,2.29 0.07,3.54 -0.21,0.48 -0.48,0.9 -0.83,1.24 -0.83,0.77 -2.01,0.83 -3.26,0.42 -0.9,-0.28 -1.66,-0.76 -2.35,-1.32 -1.73,-1.38 -2.91,-3.05 -3.74,-5.19 -0.83,-2.01 -1.25,-4.85 -0.07,-6.86 1.11,-1.8 3.88,-2.57 6.03,-2.29 1.8,0.35 3.32,1.18 4.64,2.29l0.48 0.48c0.49,0.42 0.9,0.9 1.39,1.32 0.14,0.14 0.28,0.34 0.48,0.55 0.42,0.42 0.97,1.18 1.39,1.73 0.14,0.21 0.69,1.04 0.9,1.18 0,-1.18 -0.14,-2.15 -0.35,-3.25 -0.48,-2.22 -1.45,-4.3 -2.84,-6.03 -0.27,-0.28 -0.69,-0.69 -0.83,-0.97 -1.8,0 -2.84,-0.21 -4.36,-0.83 -0.21,-0.07 -0.28,-0.14 -0.49,-0.21l-1.18 -0.76c-0.48,-0.35 -1.04,-0.7 -1.45,-1.11 -0.42,-0.42 -0.9,-0.9 -1.04,-1.6 -0.28,-0.97 0.35,-2.21 1.45,-2.28 0.42,0 0.77,0.14 0.97,0.28 1.04,0.69 0.63,1.52 -0.07,1.94 -0.2,0.06 -0.34,0.06 -0.41,0.2 -0.14,0.28 0.07,0.77 0.21,0.97 0.27,0.49 0.9,0.9 1.45,1.11 1.25,0.56 3.05,0.83 4.02,-0.14 0.62,-0.55 0.69,-1.11 0.35,-1.94 -0.35,-0.9 -0.97,-1.59 -1.67,-2.14 -0.83,-0.7 -2.56,-1.67 -3.6,-1.74l-3.53 -0.27c-0.42,0 -0.9,0 -1.32,-0.07 -0.34,-0.07 -0.69,-0.07 -1.18,-0.07 -0.34,0 -0.76,-0.07 -1.17,-0.14 -0.35,0 -0.84,-0.07 -1.18,-0.07 -0.97,0 -2.57,-0.21 -3.67,-0.21 -0.35,-0.07 -0.84,-0.14 -1.18,-0.14 -1.11,0 -2.57,-0.2 -3.67,-0.2l-3.61 -0.28c-1.59,-0.21 -3.25,-0.14 -4.85,-0.35 -0.27,0 -0.41,0 -0.69,0 -1.18,-0.07 -3.19,-0.21 -4.3,-0.21 -0.9,0 -1.66,0 -2.56,0 -0.83,0 -1.73,0 -2.56,0 -0.35,0 -0.42,0 -0.63,0 -0.2,0 -0.48,0 -0.62,0 -0.35,0 -0.83,0.14 -0.97,-0.34 1.18,0 2.36,0 3.53,0 1.25,0 2.29,-0.07 3.54,-0.07 0.62,0 1.11,0.07 1.73,0.07l5.27 0.07c0.69,0 1.1,0 1.73,0l3.46 0.21c0.63,0 1.04,0.06 1.73,0.06 0.35,0 0.49,0 0.84,0l1.73 0.07c0.34,0 0.48,0.07 0.83,0.07 0.62,0 1.11,0 1.73,0 0.28,0 0.49,0.07 0.83,0.07l5.89 0.28c0.56,0.07 1.18,0.07 1.73,0.07 1.39,0.14 3.61,0.21 5.06,0 2.36,-0.28 0.28,-1.87 -0.69,-2.5 -0.35,-0.27 -0.69,-0.41 -1.11,-0.62 -0.35,-0.21 -0.35,-0.07 -0.83,-0.14 -1.18,-0.07 -2.56,-0.41 -3.6,-0.83 -0.63,-0.21 -2.36,-1.04 -2.43,-1.04 0.07,0.21 0.14,0.42 0.28,0.63 0.14,0.2 0.28,0.34 0.41,0.55 0.42,0.55 0.9,1.04 1.46,1.45 0.21,0.21 0.35,0.28 0.55,0.49 0.14,0.07 0.97,0.62 1.04,0.83 -0.9,-0.07 -2.35,-1.18 -3.12,-1.73l-1.52 -1.39c-0.48,-0.48 -0.97,-0.9 -1.39,-1.45 -2.7,-3.33 -2.21,-7.28 -5.54,-8.94 -0.41,-0.21 -0.97,-0.42 -1.52,-0.35 -1.11,0.21 -2.15,0.35 -3.26,0.49 -1.18,0.14 -2.28,0.28 -3.46,0.41 -3.4,0.49 -6.79,0.91 -10.12,1.46 -2.22,0.42 -4.36,0.76 -6.51,1.18 -1.11,0.27 -2.15,0.41 -3.26,0.69 -0.55,0.07 -1.04,0.21 -1.59,0.28 -0.42,0.14 -1.25,0.48 -1.32,0 0.49,0 1.8,-0.42 2.36,-0.56 0.83,-0.14 1.52,-0.34 2.35,-0.48 0.84,-0.21 1.6,-0.35 2.36,-0.56 0.83,-0.13 1.59,-0.27 2.36,-0.48 1.59,-0.35 3.18,-0.62 4.78,-0.97 0.76,-0.21 1.59,-0.35 2.35,-0.49 1.66,-0.34 3.26,-0.55 4.85,-0.9 2.5,-0.41 4.92,-0.76 7.41,-1.17 2.22,-0.42 5.48,-0.84 7.42,-1.25 0.55,-0.07 1.73,-0.35 1.8,-0.9 -0.21,-0.49 -0.55,-0.56 -0.97,-0.83 -0.76,-0.35 -1.66,-0.63 -2.49,-0.84 -0.56,-0.2 -0.77,-0.2 -1.39,-0.06 -2.77,0.55 -5.61,1.1 -8.52,1.59l-8.59 1.45c-3.88,0.63 -7.76,1.25 -11.57,1.94 -1.32,0.28 -2.84,0.56 -4.23,0.9l-5.47 1.18c-1.32,0.42 -0.7,0.21 -1.25,0.07l0 -0.07c0.41,-0.07 1.73,-0.48 2.15,-0.55l7.48 -1.8c0.35,-0.07 0.62,-0.14 1.04,-0.21 0.35,-0.07 0.69,-0.21 1.11,-0.21l18.57 -3.74c1.24,-0.28 2.56,-0.55 3.81,-0.83 0.27,0 0.34,0.07 0.48,-0.14 -0.35,0 -1.11,-0.28 -1.38,-0.42 -1.11,-0.48 -2.01,-1.24 -1.74,-2.63 0.07,-0.28 0.14,-0.41 0.21,-0.62 -0.9,0 -2.56,-0.56 -3.32,-0.97 -1.94,-1.11 -1.46,-2.98 0.13,-3.88 1.67,-0.9 3.75,-0.9 5.62,-0.9 -0.14,-0.21 -0.42,-0.28 -0.56,-0.42 -0.21,-0.14 -0.41,-0.14 -0.62,-0.28 -1.18,-0.48 -2.15,-0.9 -3.4,-1.17 -0.34,0 -0.41,0.07 -0.69,0.14 -0.9,0.34 -1.73,0.69 -2.63,1.03l-5.2 2.15c-1.66,0.7 -3.39,1.39 -5.06,2.15l-20.64 8.38c-0.49,0.21 -0.9,0.35 -1.32,0.56 -0.42,0.14 -0.97,0.55 -1.25,0.21 0.21,-0.14 0.42,-0.14 0.56,-0.28 1.18,-0.35 2.35,-0.9 3.53,-1.39 1.39,-0.55 2.7,-1.11 4.02,-1.66 1.39,-0.55 2.63,-1.18 4.02,-1.73l0.97 -0.42c0.28,-0.14 0.62,-0.28 0.9,-0.41 0.35,-0.21 0.69,-0.35 1.04,-0.49l2.91 -1.32c1.94,-0.96 3.88,-1.73 5.82,-2.7l5.82 -2.63c0.21,-0.07 1.73,-0.69 1.94,-0.83 -1.25,0 -2.77,-0.21 -3.61,-0.62 -1.24,-0.56 -1.66,-1.18 -1.31,-2.57 -0.69,0 -1.46,-0.07 -2.08,-0.21 -3.88,-0.76 -3.12,-3.39 -1.25,-4.5 0.49,-0.28 0.9,-0.48 1.46,-0.69 0.9,-0.28 1.8,-0.49 2.77,-0.63 0.21,0 0.62,-0.13 0.9,-0.13 -0.14,-0.14 -0.97,-0.49 -1.25,-0.63 -0.48,-0.21 -0.9,-0.34 -1.38,-0.48 -1.04,-0.28 -2.15,-0.49 -3.33,-0.63 -0.41,-0.07 -0.48,0 -0.76,0.14 -0.49,0.35 -1.39,0.69 -2.01,0.97 -0.49,0.14 -0.9,0.28 -1.39,0.49 -0.27,0.07 -0.48,0.14 -0.76,0.2 -0.21,0.07 -0.21,0.07 -0.41,0.07 -0.07,0 -0.07,0 -0.14,0.07l-0.14 0.07c0.69,0 1.59,0.28 2.01,0.56 1.04,0.69 1.04,1.8 0.41,2.77 -0.34,0.69 -0.9,1.25 -1.45,1.8 -0.07,0.14 -0.14,0.21 -0.28,0.35 -0.21,0.27 -0.48,0.41 -0.69,0.69 -1.32,1.25 -3.88,2.77 -5.47,3.6 -2.29,1.18 -4.85,2.15 -7.35,3.05 -1.31,0.55 -2.56,0.97 -3.88,1.45l-3.18 1.32c-0.07,0 -0.42,-0.21 -0.49,-0.21 0.14,-0.14 0.62,-0.34 0.9,-0.41l12.4 -6.1c1.67,-0.83 3.33,-1.59 4.78,-2.7 1.25,-0.9 3.19,-2.77 2.64,-4.57 -0.42,-1.18 -2.29,-0.77 -2.78,-1.04 -0.2,-0.07 -0.62,-0.28 -0.83,-0.35l0 -0.07c0.28,0 0.7,-0.14 0.97,-0.28 1.11,-0.2 2.22,-0.62 3.26,-1.1 0.28,-0.07 0.48,-0.21 0.76,-0.35 0.69,-0.42 1.39,-0.76 1.87,-1.46 1.6,-1.87 -1.94,-1.59 -2.98,-1.59 -0.76,0 -1.38,0.07 -2.08,0.07 -0.41,0.69 -1.8,1.52 -2.56,1.87 -0.69,0.35 -2.56,0.97 -3.6,0.69 -0.56,-0.14 -0.97,-0.55 -0.97,-1.17 -0.07,-1.18 1.52,-2.36 2.35,-1.32 0.56,0.69 0.14,1.18 -0.07,1.45 0.7,0 1.18,-0.13 1.67,-0.48 1.04,-0.76 2.77,-3.26 1.8,-4.16 -0.69,-0.69 -2.29,-0.41 -3.19,-0.14 -0.14,0 -0.21,0 -0.34,0.14 -0.21,0.21 -0.28,0.35 -0.49,0.56 -0.97,0.97 -1.87,1.66 -3.12,2.28 -0.27,0.14 -0.48,0.21 -0.76,0.35 -0.83,0.28 -1.87,0.55 -2.7,0.14 -0.35,-0.21 -0.83,-0.7 -0.97,-1.11 -0.14,-0.56 0.41,-1.32 0.62,-1.6 1.32,-1.45 2.43,-0.34 2.22,0.7 -0.07,0.27 -0.28,0.48 -0.49,0.62 -0.13,0.07 -0.48,0.28 -0.69,0.28 0.49,0.76 1.73,0 2.29,-0.35 0.14,-0.07 0.27,-0.21 0.41,-0.34 0.97,-0.77 2.29,-2.15 2.01,-3.54 -0.07,-0.48 -0.55,-0.62 -0.97,-0.69 -0.9,-0.07 -1.87,0.07 -2.7,0.41 -0.41,0.14 -0.69,0.28 -1.04,0.56 -1.04,0.48 -1.94,1.32 -2.7,2.08 -0.83,0.83 -2.08,1.52 -3.4,1.52 0.14,-0.28 0.49,-0.41 0.7,-0.55l1.52 -1.25c0.9,-0.83 2.98,-2.84 3.53,-3.81 0.42,-0.83 -1.03,-0.28 -1.38,-0.21 -0.35,0.14 -0.56,0.21 -0.76,0.35 -0.49,0.28 -1.18,0.9 -1.6,1.25 -0.07,0.13 -0.14,0.2 -0.27,0.27l-0.56 0.56c-0.34,0.27 -0.83,0.83 -1.18,1.11 -0.48,0.34 -1.24,1.1 -1.73,1.59l-2.22 2.22c-0.2,0.2 -0.27,0.34 -0.55,0.55l-2.22 2.29c-0.07,0.07 -0.14,0.14 -0.27,0.27 -0.7,0.56 -1.32,1.25 -2.01,1.94 -0.07,0.07 -0.14,0.14 -0.28,0.28 -0.07,0.07 -0.14,0.14 -0.28,0.21 -0.48,0.48 -0.9,0.97 -1.38,1.38l-1.46 1.39c-0.21,0.14 -0.34,0.35 -0.48,0.55 -0.14,0.14 -0.28,0.14 -0.35,0.28 -0.55,0.42 -1.18,1.18 -1.73,1.6 -0.49,0.34 -0.97,0.9 -1.39,1.38 -0.55,0.56 -6.03,6.1 -6.72,6.65l-1.18 1.11c-0.07,0.07 -0.13,0.14 -0.27,0.28 -0.63,0.62 -0.49,0.55 -1.04,0.55 0.27,-0.41 0.83,-0.83 1.18,-1.18 0.13,-0.13 0.27,-0.27 0.41,-0.41l8.66 -8.94c0.14,-0.14 0.21,-0.21 0.42,-0.41 0.14,-0.14 0.21,-0.21 0.34,-0.35l7.35 -7.76c0.28,-0.28 0.55,-0.55 0.83,-0.83 0.14,-0.21 0.21,-0.28 0.35,-0.42l3.11 -3.25c0.14,-0.14 0.21,-0.28 0.42,-0.42 0.35,-0.41 1.73,-1.66 1.94,-2.01 -0.21,0.07 -0.56,0.28 -0.76,0.35 -0.14,0.07 -0.21,0.14 -0.42,0.21 -1.45,0.69 -3.95,1.66 -5.54,1.17 -0.56,-0.2 -0.9,-0.55 -1.11,-1.11 -0.48,-1.38 0.21,-3.04 1.04,-4.08l1.04 -1.11c0.62,-0.49 1.38,-0.9 2.08,-1.18 0.83,-0.41 2.56,-0.83 3.53,-0.28 0.42,0.21 0.83,0.77 0.76,1.39 -0.07,1.32 -1.73,2.01 -2.42,1.18 -0.49,-0.56 0.34,-1.25 0.41,-1.46 -0.2,0 -0.41,-0.14 -0.55,-0.21 -1.46,-0.48 -2.84,0.56 -3.46,1.87 -0.35,0.56 -0.63,1.81 -0.35,2.64 0.28,0.9 1.32,0.97 2.22,0.97 1.24,0 4.5,-1.32 5.19,-1.87l2.22 -2.08c1.25,-1.04 4.85,-3.74 6.17,-4.64 0.13,-0.07 0.27,-0.21 0.41,-0.28l1.46 -0.97c1.31,-0.83 2.77,-1.46 4.5,-1.87 1.45,-0.35 3.95,-0.49 5.4,0.28 -0.07,0.13 -0.41,0.34 -0.55,0.41 -0.97,-0.62 -2.63,-0.55 -3.81,-0.28 -0.42,0.07 -0.76,0.14 -1.18,0.28 -1.18,0.42 -2.91,1.32 -3.95,2.08 -0.21,0.07 -0.28,0.14 -0.48,0.28 -1.25,0.9 -2.08,1.52 -3.26,2.49 -0.07,0.07 -0.14,0.07 -0.21,0.21l-2.35 2.08c-0.21,0.14 -0.28,0.14 -0.42,0.34l1.53 -0.34c1.38,-0.28 2.28,0.07 1.31,1.38 -0.27,0.35 -0.76,0.77 -0.83,0.9 0.28,0 0.69,-0.2 0.97,-0.34 1.32,-0.49 3.95,-1.11 4.99,0.21 0.55,0.83 0.14,1.52 0.07,2.14 1.31,-0.34 3.46,-0.69 4.78,-0.2 2.29,0.9 0.41,3.32 0.35,3.53 0.2,0 0.48,0 0.69,0 1.38,-0.21 3.46,-0.21 4.85,-0.14 0.76,0 1.66,0.28 1.73,1.11 0,0.41 -0.14,0.83 -0.28,1.11 -0.14,0.34 -0.41,0.55 -0.62,0.83 1.18,0 2.22,0.14 3.26,0.35 3.67,0.55 6.09,2.14 8.86,4.5l0.42 0.41c0.14,0.07 0.14,0.07 0.28,0.14l1.66 1.53c0.14,0.14 0.28,0.21 0.42,0.41l0.55 0.42c0.28,0.21 0.62,0.48 0.97,0.69 1.25,0.69 2.22,0.49 2.56,1.04 -0.34,0.07 -0.69,0.14 -1.04,0.14 -0.27,0.07 -0.62,0.14 -0.97,0.21 -0.62,0.14 -1.24,0.34 -1.8,0.48 0.07,0.14 0.14,0.14 0.28,0.14 1.94,0.42 3.74,1.18 5.47,2.15 0.14,0.14 0.28,0.21 0.49,0.34l1.59 1.11c0.49,0.42 0.97,0.84 1.46,1.25 0.62,0.55 1.17,1.25 1.73,1.87 0.07,0.07 0.14,0.14 0.21,0.21 0.07,0.14 0.07,0.14 0.21,0.28 0.13,0.13 0.27,0.27 0.41,0.48 0.21,0.35 0.49,0.69 0.69,1.04l1.04 1.66c0.14,0.14 0.21,0.35 0.35,0.56 0.35,0.48 -0.21,0.14 -1.94,0.48 -0.28,0 -0.49,0.14 -0.69,0.14l0 0.14c0.2,0 0.9,0.28 1.1,0.35 1.11,0.41 2.15,0.83 3.05,1.38 0.56,0.35 1.53,0.97 0.83,1.6 -0.27,0.13 -0.69,0.41 -0.96,0.48 -0.28,0.07 -1.04,0.28 -1.18,0.35 0.76,0.2 1.59,0.62 2.35,0.9 1.11,0.41 2.22,1.11 2.98,1.94 0.49,0.62 0.9,1.52 0.76,2.42 -0.13,0.35 -0.34,0.83 -0.69,0.9l0 0.07c0.42,0.07 1.66,0.83 1.94,1.11 1.11,0.76 2.43,2.36 2.08,3.95 -0.14,0.42 -0.35,0.62 -0.62,0.9 -0.14,0.21 -0.7,0.49 -0.97,0.56l0.14 0.06c1.24,0.77 3.81,2.29 4.57,3.4 1.04,1.45 -1.8,1.52 -2.84,1.52l0.27 0.21c1.46,0.76 2.91,1.87 3.95,3.12 0.07,0.14 0.14,0.14 0.21,0.28 0.97,1.24 1.94,2.91 0.35,4.02l-0.63 0.34c0.21,0.28 0.77,0.9 1.04,1.25 0.21,0.28 0.35,0.48 0.56,0.69 0.9,1.53 1.73,2.91 2.42,4.64 0.42,1.18 0.14,1.04 0.9,1.46 0.21,0.07 0.28,0.14 0.42,0.21 0.14,0.07 0.28,0.13 0.41,0.13 0.49,0.35 0.97,0.63 1.46,0.91 0.28,0.2 0.55,0.34 0.76,0.48l2.01 1.46c0.62,0.41 1.18,0.76 1.66,1.31 0.14,0.07 0.21,0.14 0.35,0.28l0.97 0.83c0.9,0.76 1.59,1.87 2.36,2.84 1.24,1.39 2.56,3.4 2.98,5.27 0.06,0.41 0.13,0.9 0.2,1.45l0 0zm-215.33 -17.6c-0.49,-0.55 -1.32,-1.8 -1.87,-2.49l-0.7 -1.04c-0.13,-0.21 -0.2,-0.35 -0.34,-0.49 -0.63,-0.9 -1.87,-2.84 -2.43,-3.81 -1.18,-2.28 -2.49,-5.33 -2.77,-7.89 -0.14,-0.77 -0.14,-1.6 0,-2.43 0.14,-0.55 0.28,-0.76 0.56,-1.25 -0.21,-0.34 -0.21,-0.13 -0.28,-0.34l-0.56 1.18c-0.55,1.45 -0.48,3.04 -0.27,4.57 0.2,0.97 0.48,1.8 0.69,2.7 0.14,0.21 0.14,0.42 0.28,0.62 0,0.21 0.13,0.42 0.13,0.63 0.14,0.48 0.28,0.83 0.49,1.31 0.14,0.49 0.28,0.77 0.49,1.18 0.76,1.6 2.7,4.78 3.81,6.38 0.76,1.04 1.45,1.87 2.28,2.91 0.35,0.48 1.53,1.87 1.94,2.28 0.63,0.69 1.39,3.6 1.53,4.51 0.2,1.17 0.07,1.94 -0.97,2.28 -0.9,0.21 -2.01,-0.07 -2.78,-0.55 -0.97,-0.63 -2,-1.87 -2,-3.12 0.06,-1.39 0.2,-0.97 0.27,-1.52 0.35,0.2 0.9,0.69 1.46,0.27 0.9,-0.9 0.27,-2.49 -0.9,-2.56 -0.7,0 -0.97,0.48 -1.25,0.97 -0.42,0.9 -0.62,2.35 -0.35,3.6 0.77,3.12 4.51,6.58 7.07,4.78 1.66,-1.11 0.9,-3.95 0.21,-5.61 -0.14,-0.21 -0.28,-0.55 -0.35,-0.76 0.21,0.14 0.21,0.28 0.42,0.48 0.07,0 0.14,0.07 0.21,0.14l4.36 4.92c0.07,0.14 0.07,0.14 0.14,0.28l0.83 0.83c0.62,0.69 1.39,1.52 2.01,2.29 0.14,0.13 0.21,0.2 0.35,0.41 0.07,0.07 0.07,0.14 0.2,0.21l1.74 2.08c0.13,0.21 0.2,0.28 0.34,0.48l0.76 0.9c0.14,0.14 0.21,0.28 0.35,0.49l1.46 1.87c1.17,1.59 2.49,3.12 3.74,4.71l2.98 3.74c0.27,0.28 0.55,0.56 0.76,0.9 0.48,0.56 2.98,3.54 3.53,4.02 0.07,0.14 0.14,0.14 0.21,0.28 0.07,0.14 0.07,0.14 0.21,0.21 0,-0.42 0,-0.63 -0.21,-0.83 -0.69,-0.84 -1.66,-1.94 -2.36,-2.85 -2.49,-3.04 -4.98,-6.23 -7.34,-9.42l-0.48 -0.55c-0.14,-0.28 -0.28,-0.42 -0.42,-0.7 -0.69,-1.03 -2.77,-3.81 -3.53,-4.78l-1.39 -1.8c-0.14,-0.21 -0.28,-0.34 -0.48,-0.55l-5.76 -6.86c-0.13,-0.21 -0.27,-0.42 -0.41,-0.62 -0.21,-0.14 -0.35,-0.35 -0.49,-0.56 -0.34,-0.41 -0.69,-0.76 -0.97,-1.11l-1.94 -2.35c-0.34,-0.35 -0.62,-0.7 -0.9,-1.11 -0.55,-0.63 -0.48,-0.63 -0.69,-1.46 -0.14,-0.48 -0.28,-1.17 -0.35,-1.73 0,-0.28 -0.06,-0.76 0,-0.97 0,-0.48 0.07,-0.48 0.14,-0.9 0.35,0 0.83,0.42 0.97,0.69l1.53 1.74c0.27,0.27 0.48,0.62 0.76,0.9 0.48,0.69 0.9,1.24 1.38,1.94l0.56 1.04c0.21,0.34 0.41,0.76 0.55,1.17l0.07 0c0.14,-0.55 0.21,-0.69 0.14,-1.38 -0.28,-1.67 -1.18,-3.26 -2.22,-4.58l-0.69 -0.97c-0.35,-0.62 -0.83,-1.52 -1.04,-2.28 -1.04,-4.16 2.43,-3.6 4.3,-0.56 0.34,0.56 0.62,1.25 0.48,1.94 0,0.35 -0.14,0.42 -0.21,0.7 -0.41,-0.14 -0.69,-0.97 -1.52,-0.77 -0.69,0.07 -0.76,0.97 -0.55,1.53 0.48,0.9 2.14,1.87 2.98,0.83 0.9,-1.25 -0.07,-4.3 -0.84,-5.61l-1.52 -2.01c-0.76,-0.76 -0.9,-0.56 -0.97,-1.39 -0.14,-1.11 -0.35,-3.32 0.35,-4.08 0.83,-0.97 2.56,0.2 3.25,0.76 0.63,0.55 1.32,1.11 1.6,1.94 0.2,0.41 0.27,1.04 0.07,1.52 -0.07,0.14 -0.14,0.14 -0.21,0.35 -0.28,-0.07 -0.76,-0.97 -1.6,-1.18 -0.83,-0.21 -1.24,0.69 -0.97,1.52 0.42,0.91 1.6,1.74 2.57,1.32 1.11,-0.41 1.31,-1.8 1.18,-2.91 -0.07,-0.62 -0.21,-1.18 -0.42,-1.66 -0.14,-0.21 -0.14,-0.35 -0.21,-0.49 -0.41,-0.97 -1.11,-1.87 -1.73,-2.56 -0.14,-0.07 -0.28,-0.21 -0.42,-0.28 -0.13,-0.07 -0.27,-0.2 -0.41,-0.27 0,-1.04 -0.14,-1.94 0.07,-3.12 0.34,-1.87 1.31,-2.63 2.7,-0.97 1.11,1.38 2.36,4.5 2.49,6.44 0.14,-0.07 0.35,-0.48 0.42,-0.69 0.21,-0.35 0.14,-0.42 0.07,-0.9 -0.14,-0.63 0.07,-1.53 0.28,-1.94 1.38,-2.7 5.19,1.59 6.23,3.39 1.11,2.01 2.57,7.83 3.05,10.46 0.14,0.28 0.14,0.63 0.28,0.97 0.14,0.7 0.9,4.23 0.9,4.72l0.07 0c0.07,-0.56 0.21,-0.07 0.07,-0.97 -0.07,-0.35 -0.07,-0.7 -0.14,-1.04 -0.49,-3.26 -0.97,-6.65 -1.73,-9.91 -0.35,-1.18 -0.7,-2.43 -1.11,-3.6 -0.07,-0.28 -0.21,-0.56 -0.35,-0.77 0,-0.2 -0.07,-0.27 -0.14,-0.41l-0.34 -0.83c-0.14,-0.14 -0.14,-0.21 -0.28,-0.35 -0.14,-0.28 -0.28,-0.41 -0.42,-0.69 -0.14,-0.28 -0.27,-0.49 -0.48,-0.69 -0.21,-0.28 -0.28,-0.49 -0.49,-0.7l-0.55 -0.62c-0.9,-0.97 -2.22,-2.15 -3.47,-2.36 -1.24,-0.27 -2.07,1.67 -2.14,2.5 -0.21,-0.28 -0.42,-2.22 -2.01,-4.58 -0.07,-0.13 -0.07,-0.13 -0.07,-0.34 0,-0.21 0,-0.63 0.07,-0.83 0.21,-1.32 0.76,-2.64 1.52,-3.74 0.14,-0.21 0.28,-0.42 0.42,-0.49 0,2.08 0.83,5.68 2.84,6.51 1.31,0.56 2.49,-0.07 2.98,-1.31 0.21,-0.63 0.34,-1.32 0.34,-2.08 0,-0.42 0,-0.83 -0.07,-1.18 -0.06,-0.35 -0.06,-0.69 -0.06,-1.04 0.2,0 0.41,0.28 0.62,0.42 1.52,0.76 2.42,-0.7 2.7,-2.01 0.14,-0.7 0.14,-1.18 0.14,-1.94 0.07,0.07 0,0 0.07,0.07 0.28,0.48 0.48,0.97 0.69,1.45 0.63,1.18 1.11,2.5 1.66,3.74l1.39 3.26c2.29,5.89 4.43,11.99 6.65,17.94 0.28,0.77 0.56,1.53 0.83,2.29 0.28,0.76 0.56,1.46 0.83,2.22 0.35,1.18 0.84,2.28 1.18,3.39 0.14,0.21 0.28,1.04 0.49,1.11 0.07,-0.69 0.34,0.07 -0.14,-1.25 -0.07,-0.27 -0.14,-0.41 -0.21,-0.69 -0.62,-1.73 -1.52,-4.02 -2.08,-5.75 -0.27,-0.76 -0.62,-1.59 -0.9,-2.49l-5.26 -15.52c-0.56,-1.46 -1.11,-2.91 -1.6,-4.37l-0.76 -1.94c-0.14,-0.41 -0.35,-0.83 -0.48,-1.25 -0.77,-2.28 -1.81,-4.57 -2.78,-6.79 -0.07,-0.2 -0.13,-0.41 -0.13,-0.69 -0.07,-0.55 -0.07,-4.71 1.1,-3.6 0.35,0.28 0.56,0.69 0.77,1.04 0.34,0.55 0.62,1.11 0.9,1.66l0.76 1.87c0.07,0.21 0.14,0.42 0.21,0.63l1.31 3.04c1.25,3.12 2.43,6.31 3.47,9.43 0.9,2.7 2.01,5.68 2.98,8.38l2.63 7.69c0.14,0.49 0.28,0.83 0.42,1.32 0.13,0.41 0.34,0.9 0.41,1.31 0.14,-0.07 0.14,-0.13 0.28,-0.27 0.07,-0.28 -0.14,-0.56 -0.28,-1.04l-0.97 -2.98c-0.14,-0.49 -0.35,-1.04 -0.48,-1.53l-5.89 -18.08c-0.56,-1.45 -0.97,-2.91 -1.53,-4.36l-2.21 -5.82c-0.21,-0.7 -0.35,-0.97 -0.35,-1.67l-0.07 -1.94c0,-1.11 0.28,-2.14 1.39,-2.56 1.59,-0.55 2.84,1.25 3.32,2.56 0.28,0.9 0.28,2.36 -0.62,3.05 -0.07,-0.62 -0.49,-1.11 -1.11,-1.18 -0.28,0 -0.62,0.14 -0.76,0.35 -0.21,0.14 -0.21,0.49 -0.21,0.9 0,0.62 0.41,1.18 0.76,1.46 1.39,0.83 3.12,-0.97 3.12,-3.26 0,-1.39 -0.07,-2.7 -0.69,-3.81l-0.49 -0.83c-0.14,-0.21 0,-0.56 0,-0.7 0.07,-0.69 0.28,-1.24 0.49,-1.8 0.13,-0.27 0.2,-0.48 0.34,-0.76 0.14,-0.21 0.35,-0.48 0.49,-0.62 1.11,-0.97 2.15,-0.35 2.91,0.69 0.14,0.21 0.27,0.49 0.41,0.76 0.56,1.25 1.04,3.54 -0.14,4.3 0.07,-0.35 0.14,-0.49 0,-0.97 -0.27,-0.76 -1.52,-1.25 -1.94,-0.28 -0.48,1.11 0.49,2.5 1.6,2.56 0.28,0.07 0.69,-0.06 0.9,-0.13 0.62,-0.42 1.04,-1.25 1.32,-2.01 0.41,-1.6 0.2,-3.19 -0.42,-4.71 -0.28,-0.77 -0.14,-0.9 0.07,-1.67 0.07,-0.27 0.14,-0.62 0.21,-0.9 0.2,-0.48 0.41,-1.11 0.69,-1.45 0.55,-0.76 0.9,-0.14 1.18,0.41 0.76,1.67 1.31,4.99 1.31,7.42 0.14,-0.07 0.63,-1.25 0.84,-1.53 0.48,-0.9 0.27,-1.45 0,-2.42 -0.07,-0.49 -0.35,-1.46 -0.28,-1.94 0,-1.32 0.28,-2.7 0.76,-3.88 0.28,-0.63 0.83,-1.32 1.52,-1.46 0.77,-0.27 1.46,0.9 1.67,1.39 0.55,1.11 1.38,3.95 0,4.71 -0.14,-0.55 -0.07,-1.66 -1.18,-1.52 -1.11,0.13 -1.18,2.63 0,2.91 1.87,0.48 3.26,-2.01 3.26,-3.95 0,-1.18 -0.21,-2.22 -0.56,-3.12 -0.14,-0.56 0,-0.56 0.28,-1.39 0.35,-0.62 0.83,-1.8 1.45,-2.21 0.56,-0.28 0.77,0.41 0.9,0.76 0.7,2.15 0.91,4.85 1.11,7.13l0.35 3.88c0,0.77 0.14,1.53 0.14,2.22l0 1.73c0.14,0.56 0,1.32 0.07,1.87 0.14,1.04 -0.07,2.57 0.07,3.61l0.27 10.87c0.14,0 0.14,-0.07 0.28,-0.13 0.07,-0.07 0.14,-0.14 0.28,-0.21l-0.14 -1.32c-0.07,-0.76 -0.07,-2.77 -0.07,-3.67 0.07,-0.35 0,-0.49 -0.07,-0.69 0,-0.97 0,-2.01 0.07,-2.84 0.07,-0.91 0.07,-2.08 0,-2.98 0,-0.49 0.07,-0.9 0.07,-1.39l0 -4.43c0,-0.56 -0.07,-0.9 -0.07,-1.39 0,-0.48 0.07,-1.04 0,-1.52l-0.07 -2.84c-0.07,-0.21 0,-0.42 -0.07,-0.7 -0.07,-0.41 0.21,-0.55 0.49,-0.9 0.14,-0.14 0.2,-0.21 0.34,-0.41 0.56,-0.7 1.74,-1.39 2.57,-1.74 0.83,-0.41 2.14,-0.69 3.32,-1.17 0.7,-0.28 1.32,-0.63 1.94,-0.97 0.76,-0.42 1.53,-0.9 2.15,-1.53 0.42,-0.41 0.69,-0.62 1.11,-1.11 0.48,-0.69 0.69,-1.24 0.9,-2.07 -0.49,0.34 -0.55,1.17 -2.7,2.07 -0.21,0.14 -0.35,0.14 -0.49,0.21 0,-0.34 0.83,-1.87 1.18,-3.32 0.21,-1.18 0.49,-2.78 -0.42,-3.75 -0.34,-0.34 -0.83,-0.69 -1.59,-0.62 -1.45,0.28 -3.46,2.91 -3.53,3.33l-0.14 0c-0.14,-0.7 -1.8,-2.29 -3.88,0.48 -0.76,1.11 -1.39,2.5 -1.8,3.88 -0.07,0.07 -0.07,0.14 -0.07,0.28 -0.07,0.21 0,0.21 -0.14,0.28 0,-0.77 -0.21,-3.33 -1.32,-3.47 -0.41,0 -0.69,0.42 -0.9,0.69 -0.48,0.56 -2.14,3.47 -2.28,4.09 -0.07,-0.07 0,0 -0.14,-0.07 0,-0.07 0,-0.14 0,-0.14 -0.9,-1.87 -2.43,-1.87 -3.74,-0.27 -0.83,0.9 -1.25,2.21 -1.53,3.46 -0.07,0.42 -0.21,1.04 -0.21,1.46l-0.06 0c0,-0.56 -0.35,-1.53 -0.49,-2.01 -0.21,-0.7 -0.62,-1.32 -1.39,-0.9 0,-0.63 -0.13,-1.18 -0.13,-1.74 0,-2.14 0,-2.97 0.41,-5.12 0.35,-1.8 1.04,-3.74 2.22,-5.2 0.55,-0.69 1.18,-1.32 2.08,-1.59 2.42,-1.04 4.02,1.87 2.56,3.32 -0.76,0.83 -2.29,0.7 -2.35,-0.2 0.41,-0.07 0.83,-0.42 1.1,-0.7 0.28,-0.34 0.28,-1.04 0,-1.38 -0.27,-0.35 -0.62,-0.63 -1.24,-0.42 -1.6,0.42 -1.87,2.22 -1.11,3.47 1.11,1.8 3.88,0.97 4.71,-0.49 0.76,-1.04 0.97,-2.91 0.21,-4.23 -0.07,-0.13 -0.21,-0.41 -0.35,-0.55 0,-0.07 -0.07,-0.14 -0.14,-0.28l-0.48 -0.41c-0.28,-0.21 -0.56,-0.42 -0.9,-0.49 -2.15,-0.69 -4.37,1.73 -5.27,3.54 -0.9,1.73 -1.52,3.46 -1.87,5.4 0,0.48 -0.14,1.04 -0.21,1.59 -0.07,0.21 -0.07,0.49 -0.07,0.77 0,0.27 -0.07,0.55 -0.14,0.83l0 1.73c0,0.69 0,1.18 0,1.8 0,1.11 0.35,1.11 0,1.94 -0.41,0.9 -0.83,2.01 -1.1,2.98 -0.07,0.21 -0.21,0.55 -0.21,0.76 -1.32,-1.52 -2.77,-1.87 -4.16,-0.41 -0.83,0.76 -1.25,2.07 -1.59,3.18 -0.14,0.28 -0.35,0.97 -0.35,1.32 -0.34,-0.14 -0.97,-0.9 -2.01,-0.76 -0.83,0.07 -1.38,0.41 -1.73,1.04 -0.35,0.62 -0.55,1.38 -0.69,2.14 -0.14,0.84 -0.28,1.67 -0.28,2.64l-0.21 -0.42c-0.21,-0.41 -0.48,-0.83 -0.76,-1.18 -0.62,-0.48 -1.18,-0.41 -1.45,0.42 -0.42,0.9 -0.42,2.15 -0.56,3.19 0,0.27 0,0.48 0,0.69 0,0.21 -0.07,0.28 -0.07,0.55 -0.21,-0.27 -0.41,-1.59 -0.41,-1.94 -0.14,-0.69 0,-1.38 -0.21,-2.28 -0.14,0.21 -0.07,0 -0.07,0.27l-0.42 0.97c-0.34,0.84 -0.9,1.46 -1.45,2.08l-1.8 1.8c-0.21,0.14 -0.28,0.28 -0.49,0.42 -1.18,1.32 -3.25,4.02 -4.22,5.47 -0.21,0.42 -0.42,0.77 -0.63,1.18 -0.9,1.73 -1.38,3.6 -1.38,5.75 -0.7,-0.14 -1.25,-0.41 -2.01,0.14 -1.25,1.04 -1.18,5.2 -1.04,6.72 -0.14,-0.07 -0.21,-0.21 -0.42,-0.28 -0.14,-0.07 -0.28,-0.2 -0.48,-0.2 -1.25,-0.42 -2.15,0.76 -2.5,1.73 -0.41,1.11 -0.34,2.84 -0.14,4.02 0.14,0.41 0.21,0.76 0.28,1.17 -1.18,-0.83 -2.49,-0.48 -2.63,1.18 -0.14,1.46 0.07,3.12 0.34,4.37 -0.06,-0.07 -0.13,-0.21 -0.27,-0.35 -0.07,-0.14 -0.21,-0.21 -0.35,-0.28 -0.14,-0.2 -0.41,-0.48 -0.76,-0.48 -0.56,0 -0.56,1.32 -0.56,1.94 0,0.9 0,1.45 0.14,2.28l0.35 1.6c0.07,0.14 0.14,0.28 0.14,0.41l0 0 0 0zm90.27 -84.87l0.14 0c2.22,0.07 3.61,1.66 2.71,3.95 -1.46,3.67 -6.31,3.19 -6.31,0.83 0,-0.97 0.55,-2.15 1.39,-2.56 0.62,-0.28 1.73,-0.14 1.94,0.69 0.2,1.11 -1.04,1.87 -2.01,1.94 0.2,0.14 0.48,0.28 0.69,0.35 0.28,0.13 0.48,0.2 0.83,0.2 1.53,0.28 2.91,-1.66 1.53,-3.04 -1.53,-1.6 -4.16,-0.49 -5.62,0.83l-0.55 0.48c-0.49,0.56 -0.97,0.97 -1.46,1.53 -0.76,0.9 -1.52,1.87 -2.21,2.91l-1.74 3.11c-0.13,0.21 -0.55,1.18 -0.55,1.39 0.28,-0.14 1.8,-0.28 2.22,-0.28l2.42 0c0.7,0 1.67,0.07 2.43,0.14 0.83,0 1.73,-0.07 2.35,-0.14 0.77,-0.14 1.32,-0.41 1.94,-0.69 0.28,-0.14 0.56,-0.28 0.83,-0.42 0.63,-0.2 1.25,-0.48 2.01,-0.55l1.04 -0.14c0.83,-0.07 1.6,0.14 2.43,0.14 1.04,-2.08 2.35,-3.95 3.67,-5.82 0.14,-0.07 0.28,-0.21 0.42,-0.35l0.97 -1.17c0.48,-0.49 0.97,-0.97 1.59,-1.39 1.32,-1.11 3.12,-1.73 4.78,-0.69 0.14,0.14 0.28,0.14 0.42,0.27 0.13,0.14 0.2,0.28 0.41,0.35 1.04,-0.55 2.08,-1.11 3.47,-1.38 1.38,-0.35 2.7,-0.28 3.74,0.76 1.45,1.38 0.41,3.88 -0.83,5.12 -0.77,0.77 -2.22,1.67 -3.33,1.46 -2.01,-0.28 -3.4,-2.36 -1.73,-4.02 0.34,-0.41 0.9,-0.76 1.52,-0.9 0.69,-0.14 1.39,0.21 1.53,0.83 0.2,0.9 -0.97,1.94 -1.81,1.73 -0.34,-0.07 -0.48,-0.34 -0.69,-0.55 -0.14,0.28 0,0.69 0.14,0.9 0.76,1.11 2.7,0.9 3.53,-0.14 1.11,-1.45 -0.34,-3.32 -2.07,-3.53 -2.08,-0.28 -3.82,0.76 -5.34,1.87 -0.21,0.21 -0.42,0.35 -0.62,0.48l-1.11 0.97c-0.35,0.35 -0.69,0.7 -1.04,1.04 -1.39,1.39 -2.77,2.91 -3.74,4.71 0.48,0 1.8,0.35 2.7,0.35 0.28,0 0.35,0.07 0.69,0.07 0.28,0 0.49,0 0.7,0 0.55,0 1.03,-0.07 1.45,-0.07 0.83,-0.14 1.59,-0.35 2.22,-0.76 0.27,-0.21 0.62,-0.62 0.83,-0.69l1.25 -0.21c-0.28,0.34 -1.11,1.04 -1.53,1.31 -1.38,0.91 -2.77,1.53 -4.5,1.74 -0.63,0.07 -1.32,0.07 -1.94,0.07 -0.07,0.13 -0.21,0.34 -0.28,0.55l-3.12 5.82c-1.04,2.15 -2.14,4.36 -3.18,6.51l-2.15 4.3c-0.42,0.76 -0.76,1.45 -1.11,2.15l-1.94 3.74c-0.14,0.21 -0.21,0.34 -0.28,0.48l-1.45 2.7c-0.07,0.14 -0.14,0.28 -0.28,0.49l-1.18 2.08c-0.07,0.21 -0.14,0.34 -0.27,0.48l-0.56 1.11c-0.14,0.14 -0.21,0.28 -0.28,0.49 -0.48,0.9 -0.97,1.73 -1.45,2.56 -0.14,0.28 -0.21,0.28 -0.56,0.28l4.3 -8.11c0.14,-0.28 0.28,-0.55 0.49,-0.9l0.9 -1.8c0.9,-1.73 1.59,-3.46 2.49,-5.2l3.05 -6.51c0.07,-0.21 0.14,-0.28 0.21,-0.48l1.11 -2.36c0.06,-0.21 0.13,-0.28 0.13,-0.49 0.14,-0.27 0.35,-0.55 0.49,-0.9 0.21,-0.41 1.25,-2.63 1.25,-2.84l-0.9 0.77c-0.84,0.69 -1.88,1.45 -2.98,1.73 -0.84,0.27 -1.94,0.48 -2.64,0 -0.69,-0.56 -0.83,-1.25 -0.83,-2.43 -0.14,0.07 -0.21,0.14 -0.28,0.28 -0.62,0.83 -1.31,1.45 -2,2.15l-0.63 0.55c-0.62,0.49 -1.31,1.04 -2.08,1.46 0,0.2 0.07,0.34 0.07,0.55 0.14,1.32 -0.27,2.56 -0.9,3.6 -0.69,1.04 -1.59,1.94 -2.7,2.57 -1.8,1.04 -4.23,1.38 -6.1,0.21 -1.11,-0.63 -2.08,-1.53 -2.56,-2.64 -0.21,-0.55 -0.49,-1.59 -0.42,-2.21 0.07,-1.6 0.63,-2.85 1.32,-3.95 0.35,-0.56 0.62,-1.04 1.04,-1.53 0.35,-0.48 0.76,-1.04 1.18,-1.45l1.94 -1.94c0.14,-0.21 0.48,-0.49 0.62,-0.7 -2.84,0 -4.92,1.25 -6.79,3.19 -0.21,0.21 -0.14,0.28 -0.21,0.69 0,0.97 -0.27,2.15 -0.62,2.91 -0.55,1.39 -2.08,3.88 -3.74,3.33 -0.49,-0.21 -0.83,-0.49 -0.97,-0.97 0,-0.21 0,-0.62 0,-0.83 0.14,-0.28 0.14,-0.42 0.28,-0.56 0.83,-0.97 1.73,-0.2 1.94,0.77 0.83,-0.21 1.38,-1.67 1.52,-2.43 0.14,-1.04 0.28,-2.63 -0.28,-3.32 -0.76,-1.04 -2.21,-0.07 -2.91,0.55l-0.48 0.55c-0.7,0.84 -1.18,1.74 -1.67,2.78 -0.62,1.45 -0.9,2.97 -1.17,4.64 -0.28,2.28 -0.63,4.5 -0.97,6.72 -1.18,6.65 -2.43,13.3 -3.4,20.02l-0.69 5.2c0,0.27 -0.07,0.55 -0.07,0.9 -0.07,0.21 -0.07,0.55 -0.07,0.83 -0.21,0.07 -0.28,0.14 -0.41,0.28 0,-0.7 1.03,-9.08 1.17,-10.33 0.21,-1.73 0.42,-3.46 0.7,-5.12 0,-0.42 0.06,-0.84 0.13,-1.25 0.42,-2.91 0.9,-5.82 1.46,-8.66 0.28,-1.87 0.9,-5.75 1.04,-7.62l0.14 -2.64c0.07,-0.41 0.55,-4.91 -0.07,-5.12 -0.35,-0.14 -0.83,0.48 -1.04,0.69 -0.76,0.83 -0.76,1.59 -1.39,1.59 -0.14,-0.27 -0.14,-0.27 -0.07,-0.62 0.35,-0.97 1.74,-2.42 2.36,-3.12 0.28,-0.21 0.55,-0.48 0.9,-0.69 1.59,-0.76 0.9,2.7 0.9,3.26 0.14,-0.21 0.28,-0.49 0.35,-0.7l0.69 -1.17c0.14,-0.14 0.28,-0.28 0.35,-0.49l0.9 -0.97c0.97,-1.11 3.6,-2.91 4.64,-1.18 0.21,0.28 0.48,0.9 0.48,1.32 0.21,0 0.35,-0.28 0.56,-0.42l1.04 -0.9c0.21,-0.14 0.34,-0.27 0.62,-0.41l1.73 -1.25c0.21,-0.07 0.42,-0.21 0.63,-0.35 0.13,-0.07 0.13,-0.13 0.27,-0.13 0.14,-0.07 0.14,-0.07 0.21,-0.14 0.07,0 0.07,0 0.14,-0.07l0.97 -2.01c0.14,-0.28 0.21,-0.42 0.35,-0.63 0.34,-0.62 0.69,-1.31 1.04,-1.87 1.73,-2.98 4.5,-6.65 7.82,-7.96 0.7,-0.35 1.39,-0.49 2.01,-0.49l0 0 0 0zm109.4 150.76c0.35,0.28 1.04,0.9 1.67,0.77 0.55,-0.07 0.41,-1.32 0.41,-1.88 -0.14,-0.9 -0.48,-2.07 -0.76,-2.91 -0.14,-0.34 -0.28,-0.62 -0.35,-0.9 0.42,0.28 2.29,2.36 2.98,3.05 0.07,0.14 0.07,0.14 0.14,0.28 0.7,0.69 2.36,2.7 2.91,3.53 4.58,6.45 2.7,9.91 2.84,10.47 0,0.2 0.21,0.41 0.28,0.62l0.07 0c0,-0.14 0.14,-0.42 0.21,-0.56 0.48,-1.52 0.48,-3.32 0,-4.85 -0.21,-0.9 -0.49,-1.66 -0.83,-2.42l-1.04 -2.15c-0.21,-0.28 -0.35,-0.62 -0.56,-1.04 -0.14,-0.14 -0.21,-0.27 -0.27,-0.48 -0.14,-0.14 -0.28,-0.35 -0.35,-0.49l-0.62 -1.04c-0.21,-0.27 -0.42,-0.55 -0.63,-0.9 -0.69,-0.83 -1.31,-1.66 -2.01,-2.42 -0.9,-1.11 -2.98,-3.33 -3.95,-4.09l-1.04 -0.97 -0.62 -1.11c-0.42,-0.83 -1.25,-2.63 -0.9,-3.74 0.48,-1.25 2.42,-0.97 3.46,-0.42 1.04,0.49 2.01,1.32 2.36,2.5 0.14,0.62 0,0.9 -0.14,1.38 -0.21,0 -0.14,0 -0.21,-0.13 -0.69,-0.49 -1.8,-0.14 -1.24,1.45 0.13,0.28 0.62,0.97 1.1,0.83 0.97,-0.14 1.74,-2.28 1.04,-4.22 -0.41,-1.11 -1.38,-2.43 -2.28,-3.12 -0.63,-0.49 -0.7,-0.63 -1.46,-1.04 -1.04,-0.49 -2.15,-0.56 -3.05,0.07 -2.28,1.52 0.07,5.19 0.21,5.68 -0.28,-0.14 -0.55,-0.42 -0.76,-0.69l-3.88 -3.74c-0.49,-0.28 -2.22,-2.08 -2.7,-2.5 -0.14,-0.14 -0.21,-0.28 -0.42,-0.41 -0.48,-0.49 -0.97,-1.11 -1.52,-1.46 -0.49,-0.42 -1.39,-1.39 -1.87,-1.87 -0.14,-0.14 -0.28,-0.28 -0.42,-0.42l-3.74 -3.88c-0.14,-0.07 -0.21,-0.2 -0.35,-0.34 -0.13,-0.14 -0.13,-0.21 -0.34,-0.35 -0.28,-0.28 -0.49,-0.55 -0.76,-0.83l-5.69 -6.37c-0.34,-0.35 -1.1,-1.46 -1.45,-1.67 0,0.83 0.07,0.63 0.62,1.32 0.14,0.07 0.14,0.14 0.21,0.21l3.74 4.29c0.14,0.14 0.14,0.14 0.21,0.28 0.48,0.49 0.9,1.04 1.32,1.52l2.49 2.78c0.07,0.13 0.07,0.13 0.14,0.27l6.23 6.65c0.97,0.9 1.94,1.87 2.85,2.84 0.55,0.7 3.04,3.12 3.74,3.82l2.42 2.35c0.14,0.21 0.28,0.28 0.42,0.49 1.24,1.17 1.8,1.59 2.49,3.25 0.35,0.83 0.9,2.15 0.28,2.98 -0.62,-0.14 -1.18,-0.9 -1.59,-1.31 -1.11,-1.04 -2.43,-2.22 -3.33,-3.47 -0.28,-0.28 -0.55,-0.69 -0.76,-1.11 -0.07,-0.21 0,-0.14 -0.21,-0.27 -0.14,0.9 0.41,2 0.69,2.56 0.42,0.69 0.97,1.32 1.53,1.87 1.17,1.32 2.84,3.6 2.84,5.47 0,0.42 -0.28,1.04 -0.49,1.25 -0.62,0.62 -1.73,-0.14 -2.28,-0.55 -0.35,-0.21 -0.7,-0.42 -0.97,-0.7 -1.11,-0.9 -1.81,-1.73 -1.46,-3.46 0.42,0.28 0.83,0.9 1.46,0.62 1.1,-0.62 0.34,-2.21 -1.04,-2.35 -0.7,0 -1.04,0.34 -1.32,0.9 -0.42,1.11 -0.07,2.7 0.28,3.6 0.62,1.45 1.59,2.7 2.91,3.53 0.55,0.35 0.55,0.49 0.9,1.32 0.14,0.35 0.41,1.25 0.27,1.8 -0.34,2.22 -3.18,0.49 -4.08,-0.21 -0.35,-0.2 -0.56,-0.48 -0.83,-0.76 -0.14,-0.14 -0.14,-0.21 -0.28,-0.35 -0.42,-0.62 -0.42,-0.9 -0.28,-1.66 0.21,0.07 0.42,0.35 0.69,0.49 1.04,0.62 1.67,-0.56 0.84,-1.6 -0.97,-1.24 -2.15,-0.48 -2.43,0.97 -0.28,1.53 0.83,3.26 1.59,4.23 0.42,0.42 0.84,0.83 1.18,1.18 0.28,0.21 0.56,0.27 0.76,0.48 0,0.7 0.14,1.25 0.21,1.94 0,0.28 0.14,0.7 0.14,0.97 0.07,0.76 0.14,2.22 -0.97,2.29 -0.55,0 -1.04,-0.35 -1.45,-0.76 -1.18,-0.97 -2.15,-2.43 -2.78,-3.88 -0.13,-0.49 -0.41,-1.04 -0.55,-1.6 -0.14,0.07 -0.21,0.28 -0.28,0.42 -0.07,0.21 0,0.28 0.07,0.41 0.07,0.42 0.21,0.7 0.21,1.04 0.14,0.77 0.14,1.67 -0.28,2.15 -0.48,0.63 -1.04,0.49 -1.87,0.21 -0.55,-0.21 -1.18,-0.49 -1.66,-0.9 -2.43,-1.66 -3.81,-4.5 -5.13,-7.07l-1.04 -2.22c-0.34,-0.83 -1.8,-3.74 -2.08,-4.43l-1.59 -3.46c-0.07,-0.14 -0.14,-0.28 -0.21,-0.49 -0.27,-0.62 -0.83,-1.66 -0.97,-2.29 -0.14,0.14 -0.14,0.28 -0.21,0.49 0,0.21 0.07,0.28 0.14,0.48 0.14,0.35 0.21,0.63 0.35,0.91 0.14,0.34 0.28,0.62 0.42,0.9l1.94 4.64c0.13,0.28 0.2,0.55 0.34,0.83 0.49,1.25 1.04,2.42 1.6,3.6 0.97,1.87 2.07,4.3 3.25,5.89 0.21,0.28 0.35,0.49 0.56,0.76 0.2,0.28 0.27,0.49 0.55,0.77 0.42,0.62 0.83,1.24 1.39,1.8 0.2,0.21 0.41,0.48 0.62,0.62 0.14,0.14 0.28,0.21 0.42,0.35 0.13,0.14 0.48,0.41 0.69,0.55 1.52,0.9 2.56,0.42 3.39,-0.9 0.21,-0.28 0.28,-0.62 0.49,-0.9 0.21,1.11 1.18,2.43 1.87,3.19 0.35,0.34 0.21,1.73 0.21,2.21 -0.14,1.18 -0.49,2.29 -0.9,3.33 -0.14,0.42 -0.42,0.9 -0.49,1.25 -0.21,-0.14 -0.07,-0.14 -0.14,-0.42 0,-0.21 -0.07,-0.34 -0.07,-0.48 -0.14,-0.9 -0.41,-1.8 -0.69,-2.57 -0.69,-1.59 -2.01,-3.05 -3.81,-2.56 -0.55,0.14 -1.04,0.55 -1.25,1.04 -0.55,1.52 -0.14,2.7 0,3.88 -0.48,-0.07 -1.59,-0.69 -2.49,0.62 -0.42,0.63 -0.69,1.73 -0.69,2.77 -0.21,-0.27 -0.84,-1.59 -0.97,-1.94l-0.77 -1.45c-0.07,-0.21 -0.13,-0.35 -0.2,-0.49 -0.14,-0.41 -0.35,-0.69 -0.42,-1.04l-4.78 -11.7c-0.69,-1.81 -1.52,-3.4 -2.22,-5.13 -0.14,-0.21 -0.14,-0.35 -0.21,-0.56 -0.97,-2.21 -2.01,-4.5 -2.97,-6.72l-0.91 -2.01c-0.2,-0.41 -0.34,-0.69 -0.48,-1.1 -0.14,-0.28 -0.49,-0.77 -0.49,-1.04 -0.13,0.13 -0.2,0.48 -0.13,0.62 1.87,4.23 3.6,8.45 5.33,12.68 0.42,0.9 0.83,1.73 1.18,2.7 0.34,0.83 0.69,1.73 1.11,2.63l5.89 14.9c0.2,0.48 0.41,0.83 0.55,1.39l1.8 4.71c0.14,0.2 0.28,0.48 0.28,0.76 0.14,0.41 0.14,2.91 0.55,3.26 0,-0.97 1.74,-2.98 2.36,-3.75 0.97,-1.1 1.87,-2.21 2.7,-3.39 1.87,-2.5 3.4,-5.34 3.74,-8.52 0.14,-0.97 0.14,-2.29 -0.07,-3.19 0.14,0 0.35,0.14 0.49,0.21 0.48,0.21 1.18,0.34 1.66,0.07 0.56,-0.28 0.97,-1.04 0.97,-1.87 0,-0.97 -0.07,-1.74 -0.21,-2.64l-0.34 -2.49c0.48,0.14 1.8,0.97 2.84,-0.07 1.11,-1.11 0.14,-4.3 -0.35,-5.2 0.49,0.14 1.18,0.49 1.87,-0.07 0.49,-0.34 0.62,-1.03 0.62,-1.8 -0.06,-1.11 -0.34,-2.42 -0.69,-3.46 -0.14,-0.14 -0.14,-0.21 -0.21,-0.42l0 0 0 0zm-51.89 63.47c0.35,-0.56 0.76,-0.97 1.04,-1.46 1.73,-2.56 2.84,-6.3 1.59,-9.35 -0.13,-0.55 -0.55,-1.11 -0.83,-1.52 -0.34,-0.35 -0.62,-0.63 -0.9,-0.91 -1.18,-0.9 -2.77,-1.1 -4.29,-0.48 -1.11,0.42 -2.08,1.11 -2.91,1.94 -0.84,0.83 -1.46,1.73 -2.01,2.84 -0.28,0.42 -0.49,1.25 -0.56,1.87 -0.07,0.56 -0.14,1.73 0.07,2.15 -0.34,0.14 -0.9,0.48 -1.11,0.76 -0.76,0.62 -2.01,2.56 -2.08,3.53 -0.2,-0.2 -1.1,-3.25 -3.81,-0.62l-0.48 0.55c-0.14,0.21 -0.35,0.56 -0.56,0.7 0.14,-0.63 0.28,-1.25 0.42,-1.94 0.69,-3.19 1.46,-6.45 2.15,-9.63l1.31 -5.82c0.07,-0.63 0.21,-1.32 0.42,-1.94l0.76 -3.95c0.14,-0.69 0.28,-1.25 0.42,-1.94l1.31 -5.82c-0.06,0 -0.2,0.07 -0.27,0.14 -0.21,0.2 -0.28,0.76 -0.35,1.04 -0.14,0.55 -0.28,0.97 -0.35,1.45 -0.27,1.04 -0.55,2.01 -0.76,2.98 -0.14,0.49 -0.27,0.9 -0.34,1.46 -0.7,2.42 -1.39,4.91 -1.87,7.41 -0.42,2.01 -0.97,3.95 -1.46,5.96 -0.76,2.98 -1.39,6.02 -2.01,9.07 -0.35,1.94 -1.25,6.03 -2.29,7.83 -0.13,0.28 -0.34,0.28 -0.62,0.35 -1.59,0.55 -3.74,1.87 -4.71,3.19 -0.42,0.62 -0.97,1.45 -0.97,2.28 0.42,-0.14 0.76,-0.55 1.11,-0.69 0,-0.97 0.62,-1.59 1.32,-2.08 0.27,-0.14 0.48,-0.28 0.83,-0.35 0.9,-0.34 2.56,-0.9 3.67,-0.9 -0.07,0.63 -1.39,3.61 -1.66,4.23l-0.28 0.62c-0.14,0.28 -0.28,0.49 -0.42,0.7 -0.2,0.41 -0.41,0.83 -0.69,1.24 -0.55,0.77 -1.11,1.53 -1.73,2.15 -0.69,0.69 -1.32,1.39 -2.15,1.87 -0.9,0.56 -1.8,1.04 -2.91,0.83 -1.59,-0.2 -2.84,-2.01 -1.45,-3.32 0.27,-0.28 0.76,-0.49 1.45,-0.42 0.49,0.14 1.04,0.49 1.32,0.76 -0.9,-0.2 -2.01,0.56 -1.87,1.6 0.13,0.9 1.52,1.11 2.28,0.34 2.29,-2.14 -0.9,-4.64 -3.12,-3.39 -0.62,0.28 -1.03,0.76 -1.38,1.25 -1.8,2.77 -0.14,5.54 3.05,5.12 0.76,-0.07 1.87,-0.62 2.49,-0.97 0.83,-0.48 1.32,-0.97 1.53,-1.1 0.2,-0.14 0.41,0.06 0.69,0.13 1.32,0.28 2.84,-0.62 3.74,-1.45 0.49,-0.42 0.9,-0.83 1.32,-1.39 0.14,-0.14 0.27,-0.27 0.41,-0.48l0.56 -0.76c0.27,-0.49 0.55,-0.91 0.76,-1.46 0.48,-1.25 0.9,-2.7 1.32,-4.02 0.2,-0.97 0.48,-1.87 0.76,-2.84 0.55,0 2.01,-0.83 2.56,-1.11l2.01 -1.31c1.11,-0.9 2.22,-2.08 2.7,-3.47 0.07,-0.34 0.35,-1.04 0.35,-1.45 -0.14,0.07 -0.42,0.55 -0.49,0.69 -0.2,0.28 -0.34,0.55 -0.55,0.76 -0.07,0.14 -0.14,0.28 -0.28,0.42 -1.04,1.18 -2.21,2.15 -3.67,2.7 -0.21,0.07 -0.35,0.07 -0.48,0.21l0.48 -1.18c0.14,-0.42 0.21,-0.83 0.35,-1.32 0.48,-2.01 1.04,-4.29 2.49,-5.75 0.28,-0.21 0.69,-0.62 1.04,-0.69 0.07,0.83 0.97,1.73 1.66,2.01 0.42,0.14 0.9,0.28 1.6,0.21 1.31,-0.21 1.45,-1.39 1.11,-2.36 -0.56,-1.11 -1.94,-1.45 -3.12,-1.18 -0.28,0.07 -0.56,0.21 -0.76,0.28 0,-0.76 -0.35,-1.18 0,-2.7 0.2,-0.69 0.62,-1.39 1.03,-1.87l0.49 -0.49c1.52,-1.31 3.67,-2.42 5.68,-1.73 2.29,0.76 3.33,3.53 2.98,5.82 -0.21,1.66 -0.48,2.98 -1.59,4.3 -0.21,0.41 -0.56,0.83 -0.9,1.17 -0.42,0.42 -1.25,1.18 -1.81,1.25 -0.27,0 -0.48,0 -0.76,0 -0.83,0.14 -1.52,0.35 -2.21,0.63 -1.6,0.69 -3.19,2.14 -3.54,3.87 -0.14,0.77 0,0.7 0,1.32 0.21,-0.07 1.04,-1.38 1.11,-1.59 0,-0.35 -0.07,-0.49 0.07,-0.76 0.35,-0.77 1.39,-1.11 2.36,-1.25 1.73,-0.28 3.39,-0.63 5.05,-1.11 0.21,-0.07 0.49,-0.21 0.77,-0.21 -0.49,2.15 -0.97,4.3 -1.94,6.24 -0.21,0.48 -0.42,0.9 -0.63,1.38 -0.14,0.28 -0.21,0.42 -0.34,0.63 -0.07,0.14 -0.14,0.2 -0.14,0.34 -0.14,0.07 -0.14,0.21 -0.28,0.35 -0.42,0.76 -0.83,1.45 -1.39,2.15 -0.07,0.14 -0.13,0.14 -0.2,0.27 -0.56,0.63 -1.6,1.46 -2.5,1.6 -1.87,0.34 -3.39,-1.32 -2.56,-2.98 0.28,-0.56 0.41,-0.76 1.04,-1.04 0.41,-0.14 1.18,-0.35 1.73,-0.14 0.55,0.14 0.76,0.56 0.76,1.32 -0.21,-0.07 -0.34,-0.21 -0.69,-0.28 -0.9,-0.21 -1.52,0.49 -1.52,1.39 0.13,1.04 1.59,1.31 2.49,0.41 0.83,-0.83 1.18,-3.39 -0.42,-3.95 -0.62,-0.21 -0.97,-0.27 -1.66,-0.07 -0.97,0.28 -1.8,0.9 -2.29,1.67 -0.48,0.62 -0.83,2.07 -0.69,3.11 0.28,2.71 3.54,3.05 5.96,0.56 0.62,-0.56 1.18,-1.18 1.59,-1.87 0.07,-0.14 0.07,-0.14 0.21,-0.28 0.56,-0.76 0.97,-1.59 1.46,-2.49 0.07,-0.21 0.14,-0.42 0.27,-0.7l0.84 -2.14c0.13,-0.21 0.2,-0.42 0.27,-0.7 0.14,-0.2 0.14,-0.48 0.21,-0.76 0.42,-1.18 0.76,-2.7 0.97,-4.02 0,-0.48 0,-0.41 0.42,-0.55 0.83,-0.42 1.87,-1.18 2.56,-1.87 0.55,-0.63 1.04,-1.32 1.45,-2.01 0.21,-0.42 0.35,-0.9 0.56,-1.32l0.07 -0.07c0.14,0.49 1.04,1.46 1.52,1.53 0.63,0.07 1.46,-0.83 1.8,-1.25 0.83,-1.11 1.39,-2.63 1.67,-4.09 0.07,-0.21 0,-0.14 0.13,-0.28 0,0.56 0.21,1.18 0.35,1.67 0.14,0.27 0.14,0.55 0.28,0.76 0.14,0.35 0.21,0.48 0.41,0.62 0.14,-0.07 0.21,-0.14 0.35,-0.2 0.28,-0.28 0.69,-0.77 0.83,-1.04 0.42,-0.56 0.69,-1.11 0.9,-1.74 0.56,-1.24 0.97,-2.56 1.32,-3.81 0,0 0,0 0,0.07 0,0 0,0 0.07,0 0,0.07 0,0.14 0,0.14 0,0.07 0,0.21 0,0.28l0.34 1.73c0.14,0.83 -0.13,1.73 -0.13,2.49 0.34,-0.34 0.34,-0.62 0.9,-1.1 0.41,-0.35 0.76,-0.63 1.17,-0.9 1.67,-1.04 3.4,-1.88 4.37,-3.75 0.14,-0.2 0.28,-0.34 0.35,-0.62 0.13,-0.28 0.2,-0.42 0.27,-0.76 0.14,-0.35 0.42,-1.25 0.42,-1.66l0.14 0.13c0.21,0.42 0.48,0.97 0.97,1.11 0.55,0.07 1.11,-0.69 1.38,-1.04 0.83,-0.97 0.83,-2.63 0.83,-3.95l-0.13 0c0,0.77 -1.39,4.92 -3.05,0.9 -0.21,-0.41 -1.18,-2.97 -1.18,-3.53 0,-0.14 0.21,-0.55 0.28,-0.69 0.34,-0.63 0.62,-0.42 1.17,-0.07l0.49 0.41c0.62,0.63 1.25,1.39 1.8,1.94 0.14,0.14 0.28,0.28 0.42,0.49 0.41,0.42 1.45,1.59 2.01,1.66 0.76,0.14 1.03,-2.15 1.1,-2.63 0.07,-0.49 0.21,-1.18 0.21,-1.66 0.14,0.07 0.14,0.14 0.28,0.27 2.91,2.43 3.19,-2.56 3.12,-4.5 -0.07,-0.42 -0.14,-0.83 -0.14,-1.25 0.21,0.14 0.28,0.42 0.34,0.63l1.18 2.35c2.29,5.06 4.02,10.53 2.29,16.01 -0.56,1.66 -1.39,3.32 -2.84,4.29 -0.21,0.21 -0.42,0.28 -0.63,0.42l0 1.11c3.12,-1.6 4.37,-5.55 4.79,-8.8 0.13,-0.63 0.2,-1.25 0.27,-1.87 0,-0.28 0,-0.35 0,-0.63 0,-2.21 0.07,-2.77 -0.41,-4.98 -0.56,-2.22 -1.32,-4.44 -2.29,-6.52l-0.69 -1.45c-0.63,-1.18 -1.32,-2.29 -1.94,-3.47 -0.42,-0.62 -1.73,-2.91 -1.73,-3.74 -0.21,0.14 -0.42,0.69 -0.42,1.04 0,0.42 0.14,0.97 0.28,1.25 0.48,1.66 1.04,2.91 1.11,4.71 0.07,1.11 0.07,2.98 -0.7,3.67 -0.76,0.69 -2.28,-1.04 -2.7,-1.52 -0.21,-0.28 -0.35,-0.63 -0.55,-0.9 -0.49,-1.04 -0.49,-2.64 0.48,-3.26 0.07,1.18 1.39,1.8 1.66,0.69 0.28,-1.31 -1.17,-3.32 -2.7,-0.76 -0.34,0.56 -0.48,1.18 -0.55,1.87 -0.14,1.18 0.34,2.7 0.97,3.74 0.14,0.42 0.69,1.18 1.11,1.32 0,0.48 -0.14,1.11 -0.21,1.59 -0.21,1.18 -1.25,0.49 -1.8,0 -0.14,-0.14 -0.21,-0.14 -0.28,-0.2 -0.14,-0.14 -0.14,-0.14 -0.28,-0.28l-0.69 -0.69c-0.48,-0.49 -1.32,-1.46 -1.87,-1.81 -0.42,-0.2 -0.9,-0.41 -1.39,-0.13 -0.34,0.13 -0.55,0.41 -0.76,0.62l-0.21 0.35c0,-0.21 -0.13,-0.49 -0.13,-0.7l-0.49 -1.87c-0.21,-0.83 -0.41,-1.66 -0.69,-2.56 -1.25,-4.92 -2.5,-9.84 -3.47,-14.83 0,-0.28 -0.13,-0.55 -0.13,-0.76 -0.35,0.28 -0.28,0.55 -0.21,0.9 0.07,1.87 0.48,3.74 0.76,5.54 0.14,0.7 0.28,1.39 0.35,2.08 0.41,2.15 0.97,4.23 1.38,6.31 0.42,2.35 1.04,4.78 1.73,7.06 0.42,1.67 0.9,3.19 1.53,4.71 0.28,0.77 0.62,1.25 0.41,1.94 -0.34,1.11 -0.97,1.94 -1.8,2.57 -0.14,0.14 -0.27,0.21 -0.41,0.28 0,-0.63 0.48,-2.08 0.27,-3.61 -0.13,-0.9 -0.2,-1.59 -0.69,-2.35 -0.62,-1.04 -2.01,-1.8 -3.05,-0.77 -0.55,0.49 -1.45,1.81 -1.45,2.5 -0.14,-0.14 -0.14,-0.49 -0.21,-0.69l-1.87 -10.4c-0.07,-0.48 -0.21,-1.04 -0.21,-1.59 -0.28,-2.15 -0.62,-4.5 -0.83,-6.65l-0.76 -5.89c-0.07,-0.28 -0.14,-0.49 -0.14,-0.76l-0.14 0c-0.07,0.34 -0.28,0 -0.14,1.04 0.07,0.34 0.07,0.83 0.14,1.17 0.07,0.42 0.07,0.84 0.14,1.18l0.28 3.67c0.13,0.77 0.13,1.6 0.27,2.36 0.14,1.25 0.21,2.43 0.35,3.6 0.42,4.09 1.18,8.66 1.87,12.68l0.62 3.33c0.07,0.41 0.21,0.76 0.14,1.18 -0.34,1.52 -0.97,3.53 -1.8,4.85 -0.21,0.27 -0.35,0.48 -0.69,0.62 -0.42,-0.28 -0.63,-1.53 -0.76,-2.08 -0.14,-0.83 -0.28,-1.59 -0.49,-2.35 -0.69,-3.4 -1.25,-6.73 -1.52,-10.19 -0.07,-0.97 -0.42,-4.36 -0.49,-5.33 0,-0.91 -0.21,-1.81 -0.21,-2.71 0,-1.04 -0.34,-4.36 -0.41,-5.33 -0.21,-2.56 -0.76,-5.34 -0.9,-7.83l-0.42 -3.33c0,-0.69 -0.14,-1.38 -0.14,-2.01 -0.07,0 -0.41,0.42 -0.41,0.49 -0.14,0.21 0.27,3.67 0.34,4.23 0.07,1.45 0.28,2.91 0.42,4.36l0.35 4.37c0.07,0.34 0.07,0.62 0.07,0.97 0,0.48 0.13,1.17 0.13,1.66l0.56 10.81c0.07,0.83 0.21,1.73 0.28,2.56 0.06,0.62 0.13,1.11 0.27,1.73 0.14,1.04 0.28,2.15 0.56,3.19 0.48,2.22 0.9,4.43 0.27,6.58 -0.34,0.9 -0.69,1.87 -1.24,2.57 -0.77,0.97 -1.74,-0.07 -2.22,-0.77 -0.83,-1.04 -1.59,-2.98 -0.83,-4.22 0.14,-0.42 0.62,-0.7 1.04,-0.83 0,0.48 -0.14,1.03 0.27,1.38 0.7,0.56 1.88,-0.07 1.32,-1.59 -0.41,-1.04 -1.52,-1.11 -2.29,-0.56 -0.41,0.35 -0.62,0.56 -0.9,0.97 -0.2,0.35 -0.34,0.9 -0.48,1.32 -0.14,0.9 -0.14,2.36 0.14,3.26 0.27,1.31 0.69,1.24 0,2.7 -0.56,1.18 -1.6,2.15 -2.7,2.84 -0.49,0.21 -2.01,0.97 -2.64,1.04l0 0 0 0zm-165.52 -83.49l0 0.9c0,2.49 1.87,5.4 3.4,7.28l1.03 1.1c1.46,1.39 2.85,2.84 4.44,4.09 0.28,0.21 0.55,0.42 0.83,0.63 1.04,0.9 2.22,1.59 3.33,2.42 0.48,0.28 0.41,0.07 0.62,0.76 0.76,2.77 2.15,5.27 3.95,7.49 0.28,0.41 1.38,1.73 1.66,1.87 0.14,0.13 0.28,0.2 0.35,0.41 -0.9,0 -2.36,0.83 -2.36,2.08 0,1.45 1.87,3.26 2.98,4.02 0.14,0.14 0.28,0.21 0.42,0.34 0.41,0.28 0.83,0.63 1.31,0.84l0.77 0.34c0,0 0.06,0 0.06,0.07 0.14,0.07 0.07,0 0.14,0.07 -0.83,0 -3.25,0.14 -3.25,1.18 0,1.25 3.95,3.95 5.4,3.95 -0.28,-0.35 -3.25,-1.73 -3.25,-2.77 0,-0.56 0.83,-0.77 1.24,-0.9 0.97,-0.21 2.98,-0.28 3.95,-0.28l1.04 -0.14c0.35,0 0.62,0 1.04,0 0.76,0 1.32,-0.07 2.08,-0.07l6.44 0c5.68,0 11.23,-0.14 16.91,-0.14 1.87,0 3.67,0.07 5.54,0.07 -0.28,-0.48 -0.21,-0.48 -0.9,-0.48l-13.51 -0.07c-0.28,0 -0.42,0 -0.69,0 -0.97,0 -1.87,-0.07 -2.78,-0.14 -0.27,0 -0.34,0 -0.62,0 -0.28,0 -0.48,0 -0.76,-0.07 -0.42,0 -0.9,0 -1.32,0 -0.41,-0.07 -1.04,0 -1.45,0 -0.28,0 -0.35,-0.07 -0.63,-0.07l-2.14 0c-0.49,0 -0.84,-0.07 -1.39,-0.07l-5.75 0c-0.21,0 -0.42,0 -0.62,0 -0.35,0 -0.42,-0.07 -0.7,-0.07 -1.31,0 -1.31,0.14 -2.49,-0.27 -1.8,-0.63 -2.43,-1.04 -3.74,-2.08 -0.49,-0.42 -1.04,-1.18 -1.04,-1.87 0,-1.46 1.52,-2.08 2.84,-2.08 1.11,0 1.87,0.07 2.7,0.76 0.49,0.42 0.97,1.25 0.97,1.87 -0.14,-0.14 -0.35,-0.21 -0.69,-0.21 -1.04,0 -1.32,1.25 -0.63,1.94 0.91,0.83 2.98,0.35 2.36,-2.01 -0.28,-0.97 -0.97,-1.8 -1.73,-2.28 -1.18,-0.9 -2.84,-1.39 -4.44,-1.6 -0.55,0 -0.34,0.14 -0.69,-0.27 -0.21,-0.14 -0.34,-0.28 -0.55,-0.49 -0.35,-0.48 -0.76,-0.9 -1.32,-1.66 -0.69,-0.97 -1.32,-2.01 -1.8,-3.19 -0.69,-1.38 -1.18,-3.12 -1.32,-4.71l-0.14 -1.94c0.14,0.07 0.77,1.25 1.04,1.66 0.42,0.49 0.84,1.04 1.25,1.53l0.9 0.9c0.9,0.9 1.87,1.8 2.98,2.35 0.42,0.21 0.76,0.49 1.25,0.63 1.8,0.55 3.32,0.62 4.85,-0.56l0.55 -0.41c0.14,-0.07 0.07,-0.07 0.21,-0.21 0,-0.14 0.14,-0.14 0.14,-0.28 0.48,-0.55 0.69,-1.11 0.97,-1.8 0.76,-2.08 0.69,-5.13 0.07,-7.27 -0.07,-0.28 -0.14,-0.7 -0.28,-0.97 -0.48,-1.18 -1.04,-2.08 -1.73,-3.19l-0.49 -0.69c-1.31,-1.67 -3.67,-3.05 -5.82,-3.05 -1.59,0 -2.63,1.11 -2.63,2.63 0,1.32 0.35,2.49 0.97,3.39 1.87,2.64 4.43,1.39 4.43,-0.34 0,-0.9 -0.41,-2.29 -1.45,-2.29 -0.49,0 -1.11,0.56 -1.11,1.11 0,0.62 0.69,1.11 1.25,1.18 -0.21,0.48 -0.35,0.83 -1.04,0.83 -0.49,0 -1.18,-0.62 -1.39,-0.97 -0.83,-1.11 -0.83,-2.77 0,-3.81 0.14,-0.21 0.42,-0.49 0.63,-0.62 0.27,-0.07 0.69,-0.21 1.04,-0.14 1.04,0.14 1.87,0.48 2.63,1.11 0.14,0.07 0.28,0.13 0.35,0.27 0.13,0.07 0.13,0.07 0.2,0.14 1.94,1.66 2.84,3.6 3.05,6.17l0 2.63c-0.07,0.21 -0.07,0.42 -0.14,0.62 0,0.28 0,0.49 -0.07,0.7 -0.41,2.28 -1.8,4.64 -4.36,4.64 -0.83,0 -1.32,-0.14 -2.08,-0.42 -0.48,-0.27 -0.83,-0.41 -1.25,-0.76 -0.27,-0.14 -0.41,-0.21 -0.55,-0.41 -0.14,-0.07 -0.21,-0.14 -0.28,-0.21 -0.9,-0.83 -1.73,-1.73 -2.35,-2.77l-0.56 -0.97c-0.28,-0.49 -1.18,-2.5 -1.18,-2.84 0,-0.49 0.07,-1.11 0.14,-1.53 0.28,-1.8 0.14,-3.6 -0.27,-5.33 -0.14,-0.7 -0.49,-1.46 -0.77,-2.22 -0.27,-0.9 -0.76,-1.73 -1.38,-2.56 -0.42,-0.63 -0.97,-1.32 -1.6,-1.87 -0.41,-0.35 -0.83,-0.77 -1.31,-1.04 0,0.13 0.62,2.21 0.76,2.35 0.14,0.14 0.83,0.42 0.97,0.62 0.14,0.07 0.28,0.21 0.42,0.35 2.07,1.94 1.59,4.92 1.31,7.55 -0.14,1.11 -0.21,2.15 -0.21,3.26 0,0.69 0.07,1.18 0.07,1.94 0,0.62 0.14,1.25 0.14,1.87 -1.45,-0.76 -2.98,-1.59 -4.16,-2.63 -0.83,-0.7 -1.66,-1.46 -2.42,-2.29l-1.25 -1.45c-1.66,-2.01 -3.74,-4.51 -3.74,-7.42 0,-0.83 0.21,-1.66 0.56,-2.15 0.55,-0.83 1.59,-1.52 2.56,-0.83 0.55,0.49 1.11,1.6 1.11,2.43 0,0.62 -0.14,1.11 -0.28,1.52 -0.21,0.35 -0.69,0.7 -1.04,0.7 0.28,-0.49 0,-1.53 -0.35,-1.94 -1.45,-1.74 -2.91,0.69 -1.1,2.49 2.14,2.22 3.81,0.55 3.95,-1.8 0.06,-0.76 0,-1.53 -0.28,-2.22 -0.28,-0.55 -0.63,-1.11 -1.04,-1.59 -1.46,-1.39 -3.74,-3.12 -5.27,-0.76 -0.34,0.41 -0.62,1.8 -0.62,2.49l0 0 0 0zm63.05 80.92l-0.21 0.7c-0.28,0.97 0.49,1.59 1.18,1.59 -0.56,0.55 -4.23,2.01 -5.06,2.29 -1.32,0.55 -3.88,1.17 -5.33,1.17 -0.42,0 -0.63,-0.06 -0.9,-0.06 -1.25,-0.07 -2.71,-0.35 -3.61,-0.97 -0.14,-0.14 -0.34,-0.28 -0.48,-0.42 -0.97,-1.18 -0.42,-3.39 1.24,-3.46 0.97,0 1.88,1.17 1.6,1.94 -0.35,-0.21 -0.56,-0.49 -1.32,-0.28 -0.28,0.07 -0.41,0.14 -0.55,0.28 -0.14,0.07 -0.28,0.34 -0.35,0.48 -0.28,0.76 0.35,1.8 1.8,1.46 1.25,-0.35 2.36,-1.39 1.73,-2.91 -0.13,-0.35 -0.41,-0.84 -0.69,-1.04 -1.38,-1.32 -3.53,-0.9 -4.85,0.14 -1.73,1.31 -2.01,4.71 2.36,5.54 3.88,0.69 7.9,-0.35 11.36,-1.73 0.9,-0.42 2.7,-1.11 3.6,-1.6 0.21,-0.07 0.35,-0.14 0.56,-0.28 1.11,-0.48 0.76,-0.06 2.15,-0.41 0.48,-0.14 0.9,-0.28 1.31,-0.42 -0.28,0.42 -1.59,1.04 -1.59,1.67 0,0.41 0.83,0.69 1.18,0.76 1.1,0.21 2.35,0.07 3.53,-0.14 0.28,0 0.28,0.07 0.41,-0.14 0.07,-0.14 0.21,-0.28 0.28,-0.41 -0.28,0 -0.69,0 -0.97,0.07 -0.55,0.06 -2.63,0.13 -2.08,-0.84 0.56,-1.04 2.57,-2.07 3.61,-2.7 0.83,-0.48 1.73,-1.04 2.7,-1.45 0.21,-0.14 0.48,-0.21 0.76,-0.35 0.14,-0.07 0.21,-0.07 0.35,-0.14 0.2,-0.07 0.27,-0.07 0.34,-0.21 -2.35,0 -4.15,-0.76 -6.16,-1.73 -0.83,-0.41 -1.6,-0.97 -2.36,-1.45l-0.83 -0.49c-0.28,-0.21 -0.55,-0.41 -0.9,-0.69 -0.55,-0.42 -1.11,-0.76 -1.8,-1.04 -0.35,-0.14 -0.63,-0.28 -1.04,-0.42 -0.42,-0.13 -0.76,-0.2 -1.18,-0.34 -0.48,-0.07 -2.01,-0.35 -2.56,-0.21 0,-0.42 0.07,-0.49 -0.07,-0.9 -0.21,-0.76 -0.83,-1.18 -1.53,-1.46 -1.1,-0.34 -2.01,-0.41 -3.46,-0.41l0.69 -0.42c0.28,-0.14 0.49,-0.27 0.76,-0.34 0.56,-0.28 1.11,-0.49 1.53,-0.77l4.5 -2.35c0.28,-0.14 0.49,-0.28 0.76,-0.42l1.46 -0.76c0.28,-0.14 0.48,-0.28 0.76,-0.41 0.76,-0.42 2.15,-1.11 2.98,-1.53l1.11 -0.62c0.14,-0.07 0.28,-0.14 0.42,-0.14l1.52 -0.76c0.28,-0.14 0.48,-0.28 0.76,-0.42 0.14,-0.07 0.21,-0.14 0.42,-0.14l1.94 -0.97c0.27,-0.14 0.55,-0.2 0.76,-0.34 0.28,-0.14 0.55,-0.21 0.83,-0.28 0.42,-0.21 2.84,-1.39 3.26,-1.39l0 -0.07c-0.7,-0.2 -0.07,-0.41 -1.25,0.07 -2.22,0.97 -4.36,1.87 -6.51,2.84 -1.11,0.42 -2.15,0.91 -3.19,1.39l-3.12 1.46c-0.27,0.06 -0.48,0.2 -0.69,0.27 -1.04,0.56 -2.08,0.97 -3.19,1.53 -0.14,0.07 -0.34,0.13 -0.55,0.27 -0.28,0.07 -0.42,0.14 -0.63,0.28l-1.31 0.62c-2.29,1.11 -4.57,2.15 -6.86,3.26l-1.25 0.62c-0.97,0.42 -0.76,0.35 -2.28,0.07 -0.42,-0.07 -0.97,-0.2 -1.46,-0.34 -0.42,-0.07 -1.11,-0.35 -0.69,-0.9 0.41,-0.42 1.73,-1.04 2.42,-1.32 0.9,-0.42 1.6,-0.83 2.64,-1.04 1.03,-0.28 2.14,-0.42 3.32,-0.42 -0.21,-0.13 -0.55,-0.27 -0.76,-0.34 -2.56,-1.04 -3.88,-0.35 -6.17,0.69 -0.41,0.21 -1.18,0.69 -1.66,0.62 -0.69,-0.06 -1.25,-0.2 -1.8,-0.41 -0.63,-0.21 -1.04,-0.42 -1.6,-0.69 -0.27,-0.21 -1.1,-0.7 -1.31,-0.97 1.45,0 2.22,0.2 3.81,-0.21 1.18,-0.28 2.15,-0.69 2.56,-1.66 0.63,-1.25 -0.27,-2.22 -1.04,-2.78 -0.55,-0.41 -2.28,-1.17 -2.98,-1.17 0,0 0.07,-0.07 0.07,-0.07 0,0.07 0.07,0 0.07,0 0.83,-0.35 2.98,-0.9 3.88,-1.18l16.21 -4.3c1.39,-0.34 2.71,-0.76 4.09,-1.04 0.7,-0.2 1.32,-0.34 2.08,-0.55 1.66,-0.42 3.47,-0.9 5.2,-1.18 0.27,-0.14 0.76,-0.27 1.11,-0.27l0 -0.07c-0.63,-0.14 0.13,-0.35 -1.6,0 -3.81,0.76 -7.83,1.59 -11.64,2.56 -2.7,0.69 -5.47,1.25 -8.1,1.94 -3.26,0.83 -6.52,1.66 -9.77,2.49l-4.71 1.39c-0.35,0.14 -1.32,0.48 -1.53,0.42 -0.28,0 -0.69,-0.14 -0.9,-0.21 -0.69,-0.21 -1.52,-0.49 -2.22,-0.83 -0.9,-0.42 -1.31,-0.84 -0.48,-1.67 1.87,-1.87 5.4,-3.32 3.12,-5.61 -0.14,-0.14 -0.49,-0.35 -0.56,-0.55l7.14 -1.04c0.83,-0.14 1.73,-0.14 2.56,-0.21l2.57 -0.14c0.83,0 1.66,-0.14 2.63,-0.14 0.28,0 0.34,0 0.55,-0.07 1.46,0 3.4,0.07 4.78,0.07 0,-0.07 -0.13,-0.21 -0.2,-0.21 -0.21,-0.2 -2.01,-0.2 -2.43,-0.2 -0.35,0 -0.55,-0.14 -0.97,-0.14 -1.45,0.07 -2.84,0 -4.29,0 -0.7,0 -1.32,0.14 -2.01,0.14 -0.35,-0.07 -0.63,0 -1.04,0l-0.97 0.07c-0.77,0.07 -1.39,0 -2.08,0.07l-0.97 0c-0.21,0.06 -0.76,0.06 -1.04,0.06l-1.87 0.21c-2.5,0.35 -3.88,0.49 -6.45,1.04 -0.27,0 -0.55,0.14 -0.83,0.14 -0.69,0.14 -2.7,-0.49 -3.39,-0.83 -0.56,-0.14 -0.97,-0.42 -1.46,-0.62 0,-0.42 0.14,-0.56 0.49,-0.7 1.38,-0.69 4.29,-1.31 5.89,-1.73 1.11,-0.28 2.35,-0.48 3.6,-0.69 0.55,-0.14 1.18,-0.28 1.8,-0.35 3.19,-0.55 6.38,-1.04 9.49,-1.45 0.35,-0.07 0.7,-0.07 0.97,-0.14l2.57 -0.21c0.21,0 0.21,0 0.48,0l3.74 -0.07c0.28,0 0.28,0.07 0.56,0.07 -0.07,-0.14 -0.21,-0.35 -0.35,-0.42 -0.21,-0.07 -3.74,-0.07 -4.02,-0.07l-2.98 0.21c-0.34,0.07 -0.48,0.07 -0.76,0.07 -1.18,0 -2.49,0.28 -3.74,0.35 -0.9,0 -1.94,0.14 -2.91,0.28 -2.49,0.27 -5.89,0.76 -8.31,1.31 -0.35,-0.48 -1.74,-1.38 -2.43,-3.19 -0.35,-0.76 -0.83,-1.52 -1.32,-2.21 -0.76,-1.04 -1.73,-1.8 -2.91,-2.29 -0.41,-0.21 -1.1,-0.41 -1.66,-0.41 0.07,0.13 0.35,0.2 0.49,0.27 0.27,0.14 0.34,0.21 0.48,0.35 0.97,0.55 1.87,1.38 2.29,2.42 0,0.14 0,0.28 0.07,0.42 -0.21,0 -1.67,-0.42 -2.15,-0.42 -0.83,-0.13 -1.39,-0.2 -2.36,-0.2 -1.52,0 -3.11,0.62 -2.63,2.35 0.42,1.18 1.6,1.94 2.63,2.57 0.35,0.13 0.56,0.27 0.84,0.41 0.34,0.14 0.62,0.28 0.97,0.42 0.48,0.2 1.31,0.41 1.8,0.62l0.07 0.07c-0.77,0 -2.01,0.35 -2.57,0.62 -1.18,0.63 -0.55,1.25 0.21,1.74 0.69,0.41 1.46,0.76 2.22,1.03l2.22 0.77c0,0.07 0,0.07 0.06,0.07 0.07,0.07 0.07,0 0.07,0.07 -1.94,0.41 -3.05,1.31 -1.59,3.11 0.48,0.49 1.04,0.9 1.66,1.32 0.35,0.21 1.8,0.83 2.22,0.83 0,0.14 0,0.07 -0.07,0.14 -0.62,0.62 -1.39,1.25 -0.41,1.94 1.17,0.97 4.01,1.66 4.15,1.87 -0.48,0 -2.08,0.48 -2.49,0.28 0,0.14 0.07,0.14 0.27,0.27 0.42,0.28 0.97,1.04 1.39,1.46l0.97 1.25c0.07,0.13 0.21,0.2 0.28,0.27l0.83 0.9c0.07,0.14 0.14,0.21 0.28,0.28 0.69,0.9 1.59,1.46 2.56,2.01 1.04,0.55 2.63,1.04 4.09,1.04 -0.07,0.07 0,0 -0.14,0.07l-0.35 0.14c-0.14,0.07 -0.34,0.14 -0.48,0.21 -3.74,1.52 3.39,2.84 4.57,2.84 -0.28,0.2 -0.62,0.34 -0.9,0.48 -2.91,1.18 -5.75,2.15 -8.94,2.63 -1.31,0.14 -2.7,0.28 -4.02,0.14 -1.24,-0.14 -2.35,-0.41 -3.39,-0.9l-0.69 -0.41c-0.14,-0.07 -0.14,-0.14 -0.21,-0.14 -0.21,0 -0.49,0.07 -0.56,0.21 0.14,0.06 0.28,0.2 0.42,0.27 0.21,0.07 0.28,0.21 0.41,0.28 1.81,0.9 3.47,1.39 5.55,1.52 1.31,0.14 2.77,0 3.95,-0.27 0.48,0 0.83,-0.07 1.24,-0.14 0.77,-0.21 1.46,-0.42 2.22,-0.69 2.08,-0.63 4.16,-1.39 6.17,-2.22 0.76,-0.28 1.38,-0.49 2.08,-0.76 0.83,-0.35 1.52,-0.35 2.42,-0.35 1.18,0 2.7,0.14 2.7,1.45 0,0.42 -0.07,0.84 -0.21,1.18 -0.48,1.25 -1.87,2.43 -3.25,2.43 -0.56,0 -0.83,-0.07 -1.25,-0.28 -0.28,-0.14 -0.62,-0.35 -0.76,-0.62 1.59,-0.14 1.66,-3.12 -0.62,-2.01 -0.35,0.21 -0.77,0.55 -0.84,1.04 -0.48,2.42 2.78,2.84 4.51,2.49 1.73,-0.35 3.6,-1.32 4.5,-2.84 0.14,-0.35 0,-0.35 0.49,-0.42 1.59,-0.34 2.91,0.42 4.08,1.32 0.21,0.14 0.42,0.28 0.49,0.49 -1.04,0.27 -2.36,0.69 -3.46,1.04 -1.46,0.48 -3.54,1.52 -3.4,3.39 0.14,1.87 3.05,1.73 4.5,1.59 0.14,-0.06 0.28,-0.13 0.49,-0.13l0 0 0 -0.01zm13.58 -4.78c0,1.32 1.38,2.84 3.12,1.87 2.49,-1.45 1.31,-3.81 -0.14,-2.56 -0.69,0.55 -0.49,1.39 0.28,1.39 -0.14,0.27 -0.49,0.48 -0.77,0.48 -1.24,0 -1.87,-2.35 -0.48,-3.39 0.69,-0.49 0.97,-0.56 1.8,-0.56 1.45,0 3.05,1.66 3.05,3.19l0 0.41c0,1.04 -0.76,2.15 -1.39,2.64 -1.04,0.83 -1.24,0.97 -2.56,1.52 -1.32,0.56 -3.26,1.11 -4.71,1.32 -0.07,0.07 -0.35,0.07 -0.42,0.07 -0.21,0.07 -0.14,0.07 -0.28,0.21 -0.2,0.2 -0.48,0.34 -0.55,0.48 0.21,0 0.49,-0.07 0.69,-0.14 0.97,-0.14 4.09,-0.76 4.09,0.69 0,0.77 -0.83,2.01 -1.18,2.5 -1.8,2.08 -3.88,3.46 -6.44,4.57 -3.26,1.39 -6.44,2.77 -10.05,2.77 -0.2,0 -0.27,0.07 -0.41,0.07 -0.28,0 -0.14,-0.07 -0.42,0 -0.21,0.07 -0.34,0.21 -0.62,0.28l0 0.14c0.48,0 0.83,0.07 1.32,0.07 1.8,0 2.63,0 4.43,-0.42 1.45,-0.34 2.77,-0.76 4.23,-1.31 1.8,-0.7 2.14,-0.97 3.74,-1.74l1.17 -0.69c0.84,-0.42 1.53,-0.9 2.29,-1.45 0.14,-0.14 0.35,-0.28 0.56,-0.42 0.9,-0.9 1.38,-1.18 2.14,-2.43 0.49,-0.62 2.01,-3.11 0.49,-3.67l-0.35 -0.14c0.49,-0.13 1.94,-0.83 2.43,-1.17 0.2,-0.14 0.34,-0.14 0.48,-0.28 1.39,-1.11 3.12,-2.49 3.12,-4.43 0,-1.39 -0.97,-2.71 -2.15,-3.26 -2.98,-1.39 -6.51,1.38 -6.51,3.39l0 0 0 0zm14.96 29.24l-0.9 0c-0.41,-0.07 -0.69,-0.21 -0.9,-0.48 0.35,-0.07 0.77,-0.63 1.18,-0.49 1.59,0.69 3.81,-0.62 5.06,-1.45 0.9,-0.63 1.59,-1.25 2.49,-1.87 0.14,-0.14 0.28,-0.28 0.42,-0.42l0.9 -0.83c0.21,-0.21 0.35,-0.28 0.48,-0.49 0.9,-0.9 2.08,-2.07 2.91,-3.04l1.18 -1.46c0.42,-0.42 0.83,-0.97 1.18,-1.39l-1.73 0.91c-0.28,0.13 -0.63,0.27 -0.9,0.41 -0.28,0.07 -0.7,0.21 -1.04,0.28 -0.42,0.07 -0.76,0.07 -1.11,-0.07 -0.35,-0.14 -0.42,-0.42 -0.28,-0.9 0.28,-0.63 0.69,-1.04 1.04,-1.6l-1.59 0.84c-0.97,0.41 -2.77,1.31 -3.81,0.83 -0.77,-0.35 -0.9,-1.18 -0.7,-1.6 -0.13,0 -0.34,0.07 -0.48,0.14l-1.52 0.35c-0.91,0.14 -2.36,0.41 -3.19,-0.21 -0.56,-0.41 -0.42,-1.38 -0.07,-1.87l0.48 -0.76c-0.2,0 -0.55,0.14 -0.69,0.21 -0.21,0.07 -0.48,0.13 -0.69,0.2 -0.49,0.14 -0.97,0.21 -1.39,0.35 -0.27,0.14 -0.48,0.14 -0.69,0.21 -0.28,0.07 -0.35,0.21 -0.55,0.41l-2.22 2.15c-0.42,0.42 -0.97,0.76 -1.46,1.18 -0.27,0.28 -0.62,0.48 -0.97,0.69 -0.69,0.56 -1.38,0.97 -2.14,1.46 -0.97,0.55 -1.94,1.04 -3.05,1.31 -0.63,0.28 -1.39,0.42 -2.08,0.56 -0.97,0.14 -2.22,0.27 -3.12,-0.07 -0.97,-0.35 -1.52,-0.83 -1.73,-1.8 -0.56,-2.01 0.83,-3.61 2.63,-4.16 3.53,-1.18 5.34,3.4 1.6,4.57 -1.39,0.42 -2.08,-0.55 -1.6,-1.45 0.21,-0.35 0.62,-0.63 1.11,-0.69 0.83,-0.07 0.9,0.34 1.32,0.48 0,-0.35 0.13,-0.55 0,-0.9 -0.42,-1.59 -2.36,-1.52 -3.05,-0.62 -1.04,1.31 -0.42,3.18 1.18,3.6 1.17,0.35 2.35,0.07 3.32,-0.21 0.83,-0.21 1.46,-0.55 2.15,-0.9 1.87,-0.9 4.23,-2.42 5.82,-3.88 0.41,-0.48 1.11,-0.97 1.45,-1.45 -0.34,0.06 -0.62,0.13 -1.04,0.13 -1.31,0 -0.62,-0.9 -0.2,-1.52 0.2,-0.35 0.55,-0.62 0.76,-0.97 -0.62,0.14 -2.77,1.66 -4.71,1.32 -0.63,-0.14 -0.9,-0.35 -1.25,-0.77 -0.83,-1.1 0.07,-2.7 0.76,-3.6l0.42 -0.55c0.14,-0.07 0.21,-0.14 0.28,-0.21 0.48,-0.62 1.31,-1.18 1.94,-1.59 0.41,-0.21 0.83,-0.49 1.31,-0.63 0.9,-0.41 2.63,-0.48 3.12,0.35 0.62,0.9 -0.21,2.15 -1.11,2.42 -1.04,0.28 -1.52,-1.52 -0.28,-1.94l0.14 -0.14c-0.21,0 -0.41,-0.13 -0.69,-0.13 -1.39,0 -2.63,1.45 -3.26,2.49 -0.41,0.69 -1.59,3.19 0.21,3.26 1.18,0 4.16,-1.53 4.78,-2.29 0.49,-0.69 1.18,-1.32 1.87,-1.87 0.83,-0.69 1.67,-1.18 2.84,-1.18 -0.07,0 -0.07,0 -0.14,0.07 -0.06,0.07 -0.06,0.07 -0.06,0.07 -0.49,0.35 -0.97,0.76 -1.39,1.11 -0.42,0.48 -1.04,0.9 -1.45,1.45 -0.14,0.28 -0.42,0.49 -0.63,0.77 -0.21,0.27 -0.34,0.48 -0.55,0.76 -0.14,0.21 -1.18,1.73 -0.63,1.94 0.84,0.21 3.81,-0.69 4.65,-0.97 0.34,-0.14 0.48,-0.42 0.76,-0.69 0.14,-0.14 0.21,-0.21 0.34,-0.35 0.35,-0.35 1.53,-1.39 2.01,-1.52 -0.07,-0.14 -0.2,-0.14 -0.41,-0.14 -1.25,-0.42 -2.57,-0.42 -3.67,0.14 0,-0.14 0.13,-0.14 0.27,-0.28 0.14,0 0.14,-0.07 0.28,-0.14 0.28,-0.14 0.49,-0.28 0.69,-0.35 0.49,-0.14 1.04,-0.34 1.53,-0.48 2.98,-0.63 4.57,0.14 7.06,0.62l2.57 0.49c0.21,0 0.27,0 0.48,0 0.21,0 0.21,0.07 0.49,0.07 0.48,0 1.31,-0.07 1.73,-0.21 1.04,-0.42 1.11,-0.63 1.73,-1.46 0.14,-0.14 0.21,-0.34 0.35,-0.55l4.36 -5.75c1.18,-1.6 2.29,-3.12 3.47,-4.64 0.76,-0.97 1.52,-1.94 2.28,-2.84l6.45 -7.7c0.48,-0.55 0.9,-1.1 1.38,-1.66 0.49,-0.48 0.49,-0.83 1.18,-0.83 -0.07,0.21 -0.21,0.28 -0.41,0.49l-4.37 5.33c-0.28,0.35 -0.48,0.69 -0.76,0.97l-1.53 2.01c-0.13,0.21 -0.27,0.35 -0.41,0.48 -0.14,0.21 -0.28,0.35 -0.42,0.56l-4.43 6.03c-0.49,0.69 -0.97,1.38 -1.46,2.08l-4.43 6.16c-0.21,0.42 -0.49,0.69 -0.76,1.04l-2.15 3.12c-0.28,0.34 -0.49,0.62 -0.76,1.04l-0.7 0.97c-0.41,0.62 -1.17,1.66 -1.17,2.35 1.04,0 2.35,-0.76 3.11,-1.31 0.49,-0.28 0.49,-0.28 0.84,-0.7l9.63 -12.74c0.34,-0.42 0.83,-0.84 1.1,-1.25 0.14,-0.14 0.21,-0.28 0.35,-0.42 0.14,-0.07 0.21,-0.2 0.35,-0.34l2.56 -2.71c0.14,-0.13 0.21,-0.2 0.35,-0.41l4.09 -4.02c0.34,-0.35 0.41,-0.48 0.97,-0.48 0,0.2 -0.28,0.41 -0.49,0.55l-0.76 0.9c-0.07,0.07 -0.21,0.14 -0.28,0.21l-3.12 3.32c-0.41,0.42 -0.83,0.97 -1.24,1.39l-0.56 0.55c-0.41,0.49 -0.76,0.97 -1.18,1.46 -0.2,0.14 -0.34,0.41 -0.48,0.55l-0.97 1.18c-0.97,1.11 -2.36,3.05 -3.19,4.3l-0.83 1.31c-0.21,0.21 -0.28,0.42 -0.42,0.63 -0.2,0.34 -1.59,2.21 -1.66,2.63 0.63,-0.42 1.94,-1.11 2.98,-0.9 0.97,0.21 1.66,1.25 1.66,2.22 0.35,-0.21 0.9,-0.84 1.32,-1.11 1.25,-0.9 3.95,-2.57 4.57,0 0.28,1.31 -0.69,2.84 -1.24,3.53 -0.35,0.49 -0.7,0.9 -1.11,1.32 -0.21,0.21 -1.11,1.04 -1.25,1.18 0.21,0 0.42,0.06 0.69,0.06 0.35,0 0.49,0 0.77,-0.06 1.8,-0.14 3.81,-1.11 5.4,-1.88 0.28,-0.13 1.66,-0.97 1.87,-1.1 -0.35,0.55 -1.04,1.1 -1.59,1.52 -0.7,0.49 -1.46,0.97 -2.22,1.46 -3.4,1.59 -7.62,2 -11.36,1.45 -2.36,-0.28 -3.33,-0.97 -5.75,-0.69 -0.07,0 -0.21,0 -0.21,0.07 -0.21,0.07 -1.25,1.52 -1.39,1.73 -0.9,1.04 -1.38,1.59 -2.42,2.63l-1.8 1.53c-0.35,0.27 -0.63,0.48 -0.97,0.69 -0.63,0.48 -1.32,0.83 -2.08,1.32 -0.69,0.41 -1.46,0.69 -2.15,1.1 -0.83,0.42 -1.66,0.7 -2.49,0.9 -0.21,0.07 -0.63,0.14 -0.9,0.21l0 0 -0.01 0z"/>
 </g>
</svg>
