<svg xmlns="http://www.w3.org/2000/svg" xml:space="preserve" width="600px" height="600px" version="1.1" shape-rendering="geometricPrecision" text-rendering="geometricPrecision" image-rendering="optimizeQuality" fill-rule="evenodd" clip-rule="evenodd"
viewBox="0 0 167.39 169.58"
 xmlns:xlink="http://www.w3.org/1999/xlink"
 xmlns:xodm="http://www.corel.com/coreldraw/odm/2003">
 <g id="Capa_x0020_1">
  <metadata id="CorelCorpID_0Corel-Layer"/>
  <path fill="black" d="M79.15 99.03l-4.05 18.31 17.23 0 -4.71 -17.94c0.16,-0.13 0.37,-0.17 0.54,-0.29 0.29,-0.17 0.82,-0.54 1.07,-0.7 0.08,-0.09 0.12,-0.13 0.21,-0.21l0.29 -0.21c2.06,-1.81 3.14,-4.75 2.39,-7.64 -1.61,-6.45 -10.58,-8.64 -15.25,-3.1 -1.82,2.19 -2.31,5.45 -1.07,8.1 0.21,0.41 0.37,0.74 0.62,1.11 0.62,0.91 1.28,1.58 2.19,2.24 0.16,0.12 0.33,0.2 0.54,0.33l0 0zm-21 -42.08l-0.04 1.95c0,4.46 -0.04,8.92 0,13.39l8.02 0 0 -14.88c0.04,-0.13 0,-0.04 0.08,-0.08 0,-1 0.17,-2.15 0.41,-3.1l0.09 -0.33c0.04,-0.13 0.04,-0.13 0.08,-0.25 0.08,-0.17 0.08,-0.33 0.16,-0.5 0.38,-0.78 0.5,-1.07 0.87,-1.86l0.46 -0.78c0.16,-0.25 0.33,-0.5 0.49,-0.75l0.29 -0.33c0.29,-0.37 0.66,-0.83 0.99,-1.16 0.21,-0.2 0.42,-0.45 0.62,-0.62 0.25,-0.16 0.46,-0.41 0.66,-0.57l0.54 -0.42c0.04,-0.04 0.08,-0.08 0.17,-0.12l1.2 -0.83c0.04,0 0.08,-0.04 0.08,-0.08l0.21 -0.12c0.08,-0.05 0.12,-0.09 0.16,-0.09l3.14 -1.49c0.08,0 0.13,-0.04 0.13,-0.04l0.49 -0.16c0.04,0 0.04,0 0.13,-0.04 0.08,0 0.12,0 0.2,-0.04 0.13,-0.05 0.13,-0.09 0.25,-0.09 0.04,0 0.17,-0.04 0.25,-0.04 0.29,-0.12 0.91,-0.29 1.2,-0.33 0.16,0 0.16,0 0.29,-0.04 0.24,-0.08 0.49,-0.08 0.78,-0.12l0.54 -0.13c0.29,-0.04 1.11,-0.04 1.45,-0.12 0.12,0 0.16,0 0.24,0 0.17,0 0.17,0 0.33,0l1.78 0.04c0.62,0.04 1.16,0.08 1.7,0.16l2.56 0.54c0.08,0.04 0.2,0.04 0.29,0.04 0,0.04 0.04,0.04 0.08,0.04l0.62 0.21c0.08,0 0.08,0.04 0.12,0.04 0.05,0 0.05,0 0.05,0l0.28 0.13c0.09,0.04 0.13,0.04 0.21,0.04 0.08,0.04 0.17,0.08 0.25,0.12l0.62 0.25c1.32,0.58 2.6,1.32 3.76,2.15 0.74,0.62 1.24,1.11 1.94,1.78l0.87 0.99 1.12 1.65c0.37,0.58 0.7,1.2 0.95,1.86l0.12 0.33c0.04,0 0.04,0.08 0.04,0.13 0.17,0.53 0.33,0.99 0.46,1.52l0.08 0.42c0.04,0.33 0.12,0.7 0.17,1.07 0.04,0.37 0.04,0.75 0.04,1.2l0 14.88 8.06 0 0 -15.29c0,-0.17 0,-0.29 0,-0.42l-0.09 -0.82c-0.04,-0.7 -0.08,-1.04 -0.24,-1.82l-0.13 -0.7c-0.08,-0.21 -0.16,-0.46 -0.21,-0.66 0,-0.05 0,-0.13 -0.04,-0.17l-0.2 -0.83c-0.04,-0.04 -0.09,-0.08 -0.09,-0.12 -0.04,-0.08 -0.04,-0.12 -0.08,-0.17l0 -0.16c-0.04,-0.08 -0.08,-0.08 -0.08,-0.17 -0.08,-0.08 -0.08,-0.2 -0.13,-0.29l-0.45 -1.03c0,-0.04 0,-0.08 -0.04,-0.16 -0.08,-0.09 -0.08,-0.17 -0.17,-0.29 -0.45,-0.95 -1.03,-1.9 -1.65,-2.73 -0.33,-0.5 -0.7,-0.99 -1.12,-1.45l-0.91 -1.03c-0.08,-0.08 -0.08,-0.13 -0.2,-0.21l-1.99 -1.82c-0.16,-0.12 -0.33,-0.24 -0.49,-0.37l-1.99 -1.4c-0.33,-0.21 -0.74,-0.46 -1.07,-0.66 -0.74,-0.38 -1.49,-0.79 -2.27,-1.12 -0.09,-0.04 -0.09,-0.04 -0.13,-0.08l-1.53 -0.58c0,-0.04 0,-0.04 0,-0.04 0,0 -0.04,0 -0.04,0 -0.04,0 -0.08,-0.04 -0.12,-0.04l-0.13 -0.05c-0.04,0 -0.04,0 -0.08,-0.04 -0.41,-0.16 -0.91,-0.29 -1.36,-0.41 -0.54,-0.17 -1.12,-0.37 -1.7,-0.46 -0.12,-0.04 -0.16,-0.08 -0.33,-0.12l-0.7 -0.12c-0.33,-0.09 -2.15,-0.38 -2.56,-0.42 -0.29,0 -0.75,-0.08 -1.16,-0.08l-1.24 -0.04c-0.83,-0.04 -1.65,-0.04 -2.48,0 -0.12,0.04 -0.25,0 -0.41,0 -0.37,0.08 -0.75,0.08 -1.16,0.12 -0.25,0.04 -0.54,0.09 -0.74,0.09 -0.67,0.08 -1.37,0.24 -2.03,0.37l-0.66 0.12c-0.12,0 -0.12,0.04 -0.21,0.04 -0.25,0.09 -0.49,0.13 -0.74,0.17 0,0 -0.08,0.04 -0.13,0.04l-0.37 0.12c-0.04,0 -0.04,0 -0.04,0l-0.45 0.17c-0.37,0.12 -0.83,0.21 -1.2,0.33 -0.13,0.08 -0.25,0.12 -0.33,0.12l-0.62 0.25c-0.08,0.04 -0.13,0.04 -0.13,0.08 -0.08,0 -0.12,0 -0.16,0.05l-1.2 0.49c-0.54,0.29 -1.16,0.58 -1.69,0.87l-1.08 0.62c-0.04,0.04 -0.08,0.04 -0.12,0.08 -0.04,0.04 -0.09,0.04 -0.17,0.09 -0.58,0.37 -1.16,0.78 -1.73,1.19l-2.03 1.74c-0.37,0.37 -0.74,0.7 -1.12,1.03l-0.37 0.46c-0.08,0.12 -0.12,0.16 -0.2,0.25 -0.33,0.37 -0.67,0.78 -0.95,1.19 -0.54,0.75 -1,1.49 -1.49,2.32 -0.58,0.91 -0.95,1.94 -1.37,2.89l-0.29 0.95c-0.04,0.04 -0.04,0.08 -0.04,0.13 -0.16,0.49 -0.29,1.07 -0.37,1.57l-0.21 1.11c-0.08,0.62 -0.12,1.24 -0.12,1.9l0 0zm35.83 -19.17c0,0 0,0 0,0zm-36.61 35.91c-0.25,0.08 -0.75,0 -1.7,0.29 -0.78,0.25 -1.4,0.54 -2.02,0.95 -0.29,0.17 -0.58,0.37 -0.83,0.62 -0.08,0.13 -0.17,0.17 -0.29,0.25l-0.45 0.54c-0.05,0.04 -0.05,0.04 -0.13,0.12 -0.04,0.04 -0.04,0.08 -0.08,0.13 -0.29,0.33 -0.46,0.7 -0.66,1.03l-0.25 0.49c-0.29,0.71 -0.41,1.24 -0.5,1.99 -0.12,0.66 -0.04,1.78 -0.04,2.44l0 38.02c0,0.45 -0.08,0.29 0.21,0.58l0.62 0.58c0.74,0.62 2.27,1.77 3.1,2.35l3.88 2.52c0.66,0.38 1.28,0.71 1.95,1.08l1.61 0.83c0.37,0.2 0.78,0.37 1.16,0.53 0.45,0.17 0.78,0.37 1.19,0.54l1.04 0.41c1.07,0.46 2.15,0.87 3.26,1.24l2.28 0.66c0.12,0.05 0.24,0.09 0.41,0.13l3.8 0.82c0.12,0.05 0.12,0.05 0.21,0.09l3.51 0.49c0.74,0.09 3.14,0.17 3.72,0.17l1.41 0.04c0.2,0 0.28,-0.04 0.49,-0.04 0.66,0 1.37,0 1.94,-0.04 0.58,-0.09 1.2,-0.09 1.78,-0.13l0.66 -0.12c0.37,0 0.79,-0.04 1.12,-0.12l0.87 -0.13c0.37,-0.04 0.86,-0.16 1.24,-0.21 0.16,-0.04 0.24,-0.04 0.41,-0.08 0.16,0 0.29,-0.04 0.45,-0.08 0.42,-0.08 0.79,-0.17 1.2,-0.25 0.13,-0.04 0.25,-0.08 0.37,-0.08 0.17,-0.08 0.29,-0.08 0.46,-0.13l0.95 -0.24c0.04,-0.04 0.12,-0.04 0.17,-0.09 0.08,0 -0.05,0.05 0.08,0 0.08,-0.04 0,0 0.04,-0.04 0.04,0 0.04,0 0.08,0l0.95 -0.29c0.08,0 0.04,0 0.13,0l0.37 -0.12c0.08,-0.04 0,0 0.08,-0.04l1.03 -0.33c0.05,0 0.05,0 0.05,0l1.11 -0.42c0.08,-0.04 0.17,-0.04 0.21,-0.04l3.68 -1.53c0.08,-0.04 0.12,-0.04 0.16,-0.08l0.87 -0.41c0.04,-0.04 0.12,-0.04 0.16,-0.09 0.71,-0.33 1.41,-0.7 2.15,-1.03l1.62 -0.95c0.08,0 0.04,0 0.12,-0.04l0.45 -0.29c0.05,0 0.05,0 0.05,-0.04l0.41 -0.25c0.33,-0.16 0.62,-0.33 0.95,-0.54l1.16 -0.74c0.2,-0.17 0.45,-0.29 0.66,-0.41 1.36,-0.91 2.68,-1.9 4.01,-2.9 0.37,-0.24 0.49,-0.29 0.49,-0.49 0.04,-1.33 0,-2.69 0,-3.97l-0.08 -36.74 -0.16 -1.2 -0.25 -0.62c-0.09,-0.29 -0.25,-0.54 -0.37,-0.83l-0.13 -0.16c-0.21,-0.46 -0.83,-1.16 -1.16,-1.53 -0.41,-0.33 -0.82,-0.66 -1.28,-0.95l-0.62 -0.33c-0.08,-0.04 -0.12,-0.09 -0.16,-0.09 -0.08,-0.04 -0.13,-0.08 -0.17,-0.08l-0.29 -0.12c-0.49,-0.21 -0.74,-0.21 -1.24,-0.37 -0.12,0 -0.33,-0.05 -0.45,-0.05 -0.62,-0.12 -1.28,-0.12 -1.9,-0.12l-51.29 0c-0.09,0.04 -0.04,0.04 -0.04,0.04l0 0zm41.28 57.37c0,0 0,0 0,0zm44.19 -88.16c0.2,0.04 0.45,0.17 0.66,0.21 2.89,0.78 3.67,0.16 3.84,0.2 0.12,0.05 0.74,0.38 0.83,0.5 0.41,0.25 1.2,0.87 1.2,1.45 0,0.49 -0.17,0.74 -0.67,1.03 -1.07,0.58 -3.14,0.25 -4.09,-0.29 -0.25,-0.16 -0.41,-0.16 -0.54,-0.45 -0.24,-0.46 -0.41,-0.91 -0.61,-1.33 -0.25,-0.45 -0.42,-0.86 -0.62,-1.32l0 0zm-3.27 -3.64l2.73 -0.41c0.37,-0.04 1.32,0.17 1.65,0.25 0.66,0.16 1.28,0.33 1.82,0.66 0.5,0.29 1.12,0.74 1.12,1.41 0,0.53 -0.38,0.86 -0.75,1.07 -0.58,0.29 -1.2,0.33 -1.86,0.33 -0.33,0 -1.61,-0.12 -1.73,-0.29 -0.09,0 -0.38,-0.45 -0.42,-0.58 -0.58,-0.82 -1.44,-1.9 -2.39,-2.35 0,0 -0.05,-0.04 -0.09,-0.04 -0.08,-0.05 -0.04,0 -0.08,-0.05l0 0zm-3.31 -5.7c0,-0.87 1.9,-1.32 2.86,-1.32 0.28,0 1.19,0 1.4,0.2 0.33,0.34 0.99,1.33 1.2,1.7 0.08,0.16 0.12,0.29 0.21,0.41 -0.29,0 -1.57,0.25 -1.86,0.33 -0.33,0 -0.62,0.09 -0.91,0.17l-0.91 0.12c-0.25,0 -1.99,-0.7 -1.99,-1.61l0 0zm-0.24 -4.3l0 0 0 0zm0 0c0.57,0 1.15,0.04 1.61,0.29l0.99 0.83c0.08,0.08 0.12,0.08 0.21,0.12l0.74 0.75c0.12,0.16 0.25,0.24 0.33,0.41 -1.12,-0.25 -3.22,-0.25 -4.26,0.5 -0.24,0.16 -0.12,0.37 -1.03,0 -1.03,-0.46 -2.02,-1.08 -0.83,-2.07l0.42 -0.29c0.37,-0.21 0.53,-0.29 0.95,-0.41 0.25,-0.04 0.54,-0.13 0.87,-0.13l0 0zm-8.44 -3.3l0 0 0 0zm0 0c0,-0.71 1.12,-1.16 1.74,-1.33 0.62,-0.24 1.2,-0.33 1.9,-0.33 0.37,0 0.41,0.17 0.79,0.42 0.45,0.37 1.73,1.19 2.27,1.32l0 0.08c-0.41,0.04 -3.06,1.08 -3.47,1.24 -0.29,0.13 -0.54,0.08 -0.99,-0.04 -0.66,-0.12 -2.24,-0.5 -2.24,-1.36l0 0zm-3.47 -1.95c0,-1.19 2.52,-2.56 4.47,-1.94 0.41,0.13 1.36,0.91 1.69,1.2 0.17,0.12 0.37,0.29 0.46,0.45 -1.2,0 -3.27,0.5 -4.14,1.24 -0.04,0 -0.16,0.13 -0.16,0.13 -0.17,0.08 -2.32,-0.17 -2.32,-1.08l0 0zm-101.87 16.16l0 0 0 0zm0 0c0,-0.95 0.24,-0.91 0.57,-1.36l1.45 -1.74c0.21,2.65 1.16,3.27 1.24,3.48 0.08,0.33 0.17,2.72 -0.91,2.72 -1.32,0 -2.35,-1.65 -2.35,-3.1l0 0zm4.46 -6.2c0.04,0.25 0.25,0.71 0.33,0.91 0.45,1.24 0.91,1.66 0.91,3.23 0,0.58 -0.33,1.57 -0.95,1.57 -0.46,0 -0.83,-0.46 -1.12,-0.75 -0.45,-0.49 -0.78,-1.32 -0.95,-2.02 -0.16,-0.58 -0.16,-0.54 0.13,-0.91 0.16,-0.25 0.33,-0.5 0.57,-0.66 0.25,-0.21 0.67,-0.62 0.87,-0.95l0.17 -0.29c0,0 0,-0.04 0,-0.04 0.04,-0.09 0,-0.04 0.04,-0.09l0 0zm21.82 -11.07c0,-0.17 -0.04,-0.33 -0.08,-0.5 0,-0.25 0,-1.28 0,-1.57 0,-0.45 0.16,-1.53 0.29,-1.94 0.16,-0.58 0.33,-1.08 0.66,-1.53 1.4,-2.07 2.44,-0.33 2.44,0.5 0,0.99 -0.17,1.52 -0.54,2.35 -0.17,0.41 -0.17,0.13 -0.83,0.62l-0.82 0.66c-0.42,0.42 -0.75,0.87 -1.08,1.33 0,0.04 0,0.04 -0.04,0.08zm5.79 -8.19c0.37,0 0.74,0.38 0.91,0.62 0.62,0.87 0.2,2.44 -0.21,3.31 -0.08,0.12 -0.12,0.17 -0.12,0.29 -0.13,0.17 -0.09,0.17 -0.29,0.21 -0.38,0.2 -0.75,0.41 -1.2,0.58l-1.04 0.28c-0.16,0.05 -0.33,0.05 -0.41,0.05 0.13,-0.5 0.75,-1.49 0.75,-2.73 0,-0.91 -0.29,-0.7 0.41,-1.74 0.21,-0.33 0.45,-0.58 0.78,-0.74 0.09,-0.04 0.29,-0.13 0.42,-0.13zm48.77 151.97c-0.54,0 -0.29,-0.04 -0.62,-0.12 0.08,-0.17 0.33,-0.37 0.53,-0.74 0.17,-0.25 0.29,-0.5 0.46,-0.79 0.33,-0.54 0.62,-1.12 0.91,-1.69 0.12,-0.33 0.25,-0.58 0.37,-0.91 0.21,-0.5 0.95,-2.36 1.07,-2.81 0.33,-0.05 1.45,-0.25 1.66,-0.33 -0.21,0.74 -0.71,2.68 -0.99,3.43 -0.58,1.48 -0.58,1.65 -1.74,3.01 -0.04,0.09 -0.08,0.09 -0.17,0.17 -0.41,0.33 -0.86,0.78 -1.48,0.78l0 0zm2.52 -8.39c0.12,-0.24 0.37,-1.07 0.45,-1.36 0.08,-0.33 0.42,-1.82 0.58,-2.07 0.33,-0.45 0.91,-1.2 1.53,-1.2 0.41,0 0.66,0.17 0.91,0.5 0.62,0.83 0.37,1.82 0.04,2.6 -0.08,0.25 -0.12,0.42 -0.29,0.58 0,0.09 -0.08,0.21 -0.12,0.25 -0.09,0.13 -0.04,0.08 -0.29,0.13 -0.46,0.16 -0.91,0.28 -1.37,0.33 -0.29,0 -0.49,0.08 -0.74,0.12 -0.21,0.04 -0.5,0.12 -0.7,0.12l0 0zm7.77 -7.64c0.33,-0.17 1.32,-0.08 1.77,0.37 0.96,0.91 -0.86,1.03 -1.57,0.08 -0.08,-0.16 -0.2,-0.29 -0.2,-0.45l0 0 0 0zm18.6 -10.13c0.33,0 0.57,0.17 0.78,0.33 0.91,0.79 0.91,2.61 0.54,3.76 -0.04,0.17 -0.04,0.09 -0.29,0.29l-0.7 0.5c-0.17,0.12 -0.95,0.66 -1.08,0.7 0,-0.49 -0.62,-3.51 -0.62,-3.59 0,-0.09 0.04,-0.29 0.08,-0.42 0.09,-0.25 0.17,-0.45 0.25,-0.66 0.21,-0.33 0.54,-0.91 1.04,-0.91l0 0zm-84.19 12.65c-0.58,0 -1.08,-0.21 -1.12,-0.75 -0.08,-0.57 0.66,-1.24 1.12,-1.52 0.37,-0.29 1.53,-0.91 1.9,-0.91 0.08,0 0.25,0.12 0.33,0.16l1.2 0.46c0.29,0.12 0.53,0.16 0.82,0.24 0.33,0.09 0.71,0.09 0.95,0.17 -0.12,0.12 -0.95,0.54 -1.15,0.7 -0.91,0.54 -2.94,1.45 -4.05,1.45zm-3.19 -1.57c-0.53,0 -1.03,-0.04 -1.28,-0.5 -0.74,-1.15 1.62,-2.23 2.52,-2.56 0.21,-0.08 1.04,-0.33 1.29,-0.33 0,0 0.37,0.33 0.45,0.37l0.99 0.7c0.17,0.13 0.5,0.25 0.54,0.42 -0.12,0 -0.46,0.12 -0.58,0.12 -0.58,0.21 -1.2,0.5 -1.69,0.79 -1.33,0.82 -0.46,0.7 -1.53,0.95 -0.21,0 -0.46,0.04 -0.71,0.04l0 0zm-17.27 -13.76c0.25,0 2.11,-0.5 2.48,-0.62 0.91,-0.29 0.7,-0.34 1.65,-0.05 0.58,0.17 1.78,0.62 1.78,1.33 0,1.24 -1.32,1.82 -2.44,1.82 -0.5,0 -0.95,-0.05 -1.45,-0.13 -0.29,-0.12 -0.78,-0.74 -1.11,-1.07 -0.33,-0.42 -0.62,-0.83 -0.91,-1.28l0 0zm-4.59 -5.54c0,-0.62 0.99,-0.99 1.53,-1.16 0.33,-0.12 0.66,-0.21 1.03,-0.29 0.79,-0.16 1.28,-0.29 1.86,0.08 0.62,0.33 0.38,0.87 -0.04,1.24 -0.04,0.04 -0.04,0.04 -0.08,0.09l-1.69 1.32c-0.38,0.29 -0.29,0.29 -0.79,0.16 -0.29,-0.04 -0.58,-0.16 -0.83,-0.24 -0.45,-0.21 -0.99,-0.62 -0.99,-1.2l0 0zm-4.67 -7.44l0 0 0 0zm0 0c0,-0.25 -0.04,-0.29 0.25,-0.54 0.45,-0.29 1.36,-0.5 1.94,-0.54 0.41,0 1.53,-0.08 1.7,0.17 0.08,0.08 0.49,1.4 1.53,2.23 0.16,0.12 0.57,0.46 0.74,0.5 -0.08,0.12 0.04,0.04 -0.12,0.08 -1.24,0.29 -3.27,0.12 -4.34,-0.41 -0.21,-0.05 -0.34,-0.17 -0.5,-0.25 -0.37,-0.21 -1.2,-0.83 -1.2,-1.24l0 0zm54.06 -110.52c0,-0.78 0.95,-0.49 1.41,0.04 0.16,0.21 0.49,0.67 0.49,1.04 -0.49,0 -0.78,0.2 -1.45,-0.25 -0.16,-0.17 -0.45,-0.54 -0.45,-0.83l0 0zm9.13 -1.2l-0.2 0c-0.66,0 -1.2,-0.74 -1.2,-1.44 0,-0.71 0.33,-1.24 0.58,-1.7 0.16,-0.25 0.95,-1.24 1.07,-1.24 0.25,0 0.62,0.09 0.91,0.13 0.54,0.12 2.4,0.45 2.89,0.45 -0.04,0.13 -0.24,0.46 -0.33,0.62 -0.37,0.66 -0.33,0.66 -0.78,1.2 -0.46,0.54 -0.95,0.99 -1.53,1.41 -0.33,0.2 -0.95,0.57 -1.41,0.57zm-6.48 1.99c-0.09,-0.75 -0.54,-1.53 -1.16,-1.86 -1.37,-0.79 -2.07,0.58 -2.07,1.28 0,0.74 0.29,1.28 0.95,1.57 0.54,0.25 1.24,0.17 1.74,-0.08 0,0.53 0.2,1.03 -0.37,1.86 -0.29,0.41 -0.46,0.58 -0.83,0.86 -1.2,0.96 -2.52,1.2 -4.01,0.62 -0.58,-0.24 -1.16,-0.66 -1.53,-1.15 -0.83,-1.08 -0.87,-2.61 -0.33,-3.8 0.04,-0.17 0.12,-0.34 0.17,-0.46 0.16,-0.29 0.33,-0.54 0.53,-0.83 0.5,-0.7 1.33,-1.48 2.03,-1.94 2.11,-1.4 2.23,-0.58 4.38,-0.91 1.61,-0.16 2.44,-1.2 3.76,-1.53 0.33,-0.08 0.79,-0.08 1.16,-0.12 0.29,0 0.41,0.04 0.62,0.04 0.29,0 0.41,0 0.66,0 -0.33,0.7 -2.73,3.8 -3.22,4.34 -0.09,0.08 -0.09,0.08 -0.17,0.21 -0.08,0.04 -0.12,0.12 -0.21,0.2 -0.58,0.58 -0.91,0.91 -1.65,1.41 -0.17,0.08 -0.29,0.16 -0.45,0.29zm9.71 -7.19l-1.82 -0.21c0.04,-0.29 1.2,-1.94 1.4,-2.19 0.05,-0.12 0.09,-0.17 0.13,-0.25 0.33,-0.54 0.74,-0.99 1.11,-1.45l0.33 -0.37c0.13,-0.12 0.25,-0.25 0.38,-0.37 0.53,-0.54 1.57,-1.36 2.31,-1.36 0.46,0 1.03,0.33 1.24,0.62 -0.29,0.16 -0.54,0.33 -0.78,0.53 -0.05,0.09 -0.09,0.13 -0.13,0.17 -0.12,0.08 -0.16,0.08 -0.2,0.16 -0.09,0.05 -0.13,0.13 -0.17,0.17 -0.99,0.83 -2.85,3.18 -3.55,4.13 -0.05,0.09 -0.21,0.33 -0.25,0.42l0 0zm-5.58 153.41c-0.58,0 -1.16,0 -1.7,0.08 -0.16,0.05 -0.33,0.09 -0.45,0.09 0.04,-0.09 0.16,-0.21 0.25,-0.33l1.98 -2.52c0.7,-0.62 2.23,-1.49 2.89,-0.29 0.42,0.86 -0.29,1.77 -0.82,2.39 -0.29,0.29 -0.42,0.33 -0.58,0.5 -0.08,0.08 -0.04,0.12 -0.21,0.12 -0.45,0 -0.87,-0.04 -1.36,-0.04l0 0zm2.19 0.13c0.62,-0.54 0.66,-0.5 1.28,-1.16 0.25,-0.25 0.45,-0.58 0.58,-0.91 0.33,-0.66 0,-0.41 0.91,-1.07 0.41,-0.29 0.87,-0.58 1.49,-0.58 0.7,0 1.4,1.2 0.28,2.56 -0.57,0.66 -0.45,0.49 -1.07,1.03 -0.62,0.58 -0.5,0.42 -1.53,0.29l-1.94 -0.16 0 0zm-14.05 -1.41c-0.29,0 -0.46,0 -0.62,-0.12 -0.25,-0.17 -0.25,-0.42 -0.25,-0.71 0,-0.53 0.49,-1.11 0.74,-1.44l0.54 -0.58c0.08,-0.12 0.17,-0.12 0.25,-0.25l0.74 -0.66c0.17,-0.08 0.33,0 0.66,0.08l2.24 0.54c-0.05,0.04 0.04,0 -0.05,0.04l-0.2 0.17c-0.13,0.08 -0.17,0.12 -0.29,0.2 -0.62,0.46 -1.45,1.16 -1.86,1.82 -0.17,0.29 -0.04,0.29 -0.33,0.46 -0.04,0 -0.09,0 -0.17,0.04 -0.29,0.16 -0.95,0.41 -1.4,0.41l0 0zm3.72 0.62c-0.54,0 -0.87,-0.37 -0.87,-0.87 0,-0.91 0.95,-1.77 1.57,-2.31 0.04,-0.08 0.08,-0.08 0.12,-0.13 0.54,-0.45 0.37,-0.28 0.66,-0.28 1.2,0 1.78,0 2.98,-0.34 0.17,0 0.37,-0.16 0.58,-0.16l-0.99 1.28c-0.04,0.17 -0.17,0.21 -0.21,0.33 -0.17,0.21 -0.45,0.62 -0.66,0.79 -0.08,0.04 -0.13,0.08 -0.17,0.12 -0.66,0.5 -2.19,1.57 -3.01,1.57l0 0zm73.44 -33.1c0,-0.46 0.08,-1.04 0.25,-1.33 0,-0.08 0.12,-0.2 0.16,-0.24 0.21,-0.21 0.66,-0.17 0.95,-0.05 1.49,0.58 1.78,3.6 1.66,3.76 -0.09,0.09 -0.33,0.29 -0.42,0.42l-0.37 0.41c-0.25,0.33 -0.41,0.54 -0.66,0.91l-0.29 0.54c-0.04,-0.75 -1.16,-2.77 -1.16,-3.14 -0.08,-0.37 -0.12,-0.83 -0.12,-1.28zm1.98 -3.81c0,-0.53 0,-1.48 0.75,-1.48 1.82,0 2.48,2.48 2.6,4.05 0.04,0.16 -0.5,0.95 -0.62,1.11l-0.87 1.24c-0.12,0.08 -0.25,0.33 -0.33,0.37l0.04 -0.45c0,-1.32 -0.33,-2.77 -1.28,-3.56 -0.12,-0.04 -0.12,0 -0.16,-0.2 -0.09,-0.29 -0.13,-0.75 -0.13,-1.08l0 0zm-0.78 -87c0.08,0.09 0.29,0.13 0.45,0.17 2.19,0.99 3.43,3.22 4.3,5.33 0.46,1.12 1.32,2.85 2.11,3.68 0.62,0.7 0.99,0.95 1.98,1.2 1.49,0.37 0.99,-0.99 0.17,-0.99 -0.37,0 -0.54,0.12 -0.79,0.2 -0.12,-0.16 -0.41,-0.41 -0.7,-0.95 -0.54,-0.87 -1.03,-2.35 -1.45,-3.39 -0.24,-0.58 -0.7,-1.61 -1.07,-2.1 -0.17,-0.25 -0.29,-0.42 -0.46,-0.62l-1.69 -1.57c-0.21,-0.17 -0.37,-0.29 -0.62,-0.46 -0.79,-0.45 -1.2,-0.54 -2.07,-0.54 -0.04,0 -0.12,0 -0.16,0.04l0 0zm-133.7 85.76c1.24,0 1.94,1.49 2.35,2.52 0.33,0.96 0.29,1.04 0.83,2.07 0.12,0.25 0.25,0.41 0.33,0.62 0.08,0.13 0.12,0.17 0.21,0.33 0.45,0.62 0.95,1.32 1.61,1.74 0.66,0.45 1.9,0.82 2.56,0.66l0.12 -0.04c-0.66,-0.04 -1.44,-0.42 -1.98,-0.79 -0.21,-0.16 -0.37,-0.33 -0.5,-0.49 -0.08,-0.13 -0.12,-0.13 -0.2,-0.25 -0.54,-0.7 -0.87,-1.32 -1.2,-2.15 -0.54,-1.36 -0.87,-2.94 -1.82,-3.89 -0.62,-0.62 -1.45,-0.74 -2.23,-0.41 -0.08,0.04 -0.08,0.04 -0.08,0.08l0 0zm-6.78 -59.97c0,0.21 0.12,0.54 0.2,0.67 0.34,0.53 0.54,0.24 1.2,0.24 0.58,0 1.2,0.71 1.53,1.12 0.09,0.12 0.04,0.12 0.21,0.16 0.7,-0.45 -1.28,-2.64 -2.69,-2.64 -0.29,0 -0.45,0.21 -0.45,0.45l0 0zm151.14 -9.75c-0.25,0 -0.25,0.5 0.58,0.74 0.78,0.29 1.65,0.34 2.44,0.09 1.4,-0.46 0.37,-1.41 -0.17,-1.41 -0.66,0 -0.41,0.91 -2.06,0.75 -0.25,-0.05 -0.54,-0.17 -0.79,-0.17l0 0zm1.03 2.85c0,0.5 0.62,0.33 1,0.46 1.03,0.29 1.24,0.78 1.65,1.07 1.03,0.79 1.4,0 0.91,-0.66 -0.17,-0.21 -0.54,-0.45 -0.79,-0.58 -0.7,-0.37 -1.48,-0.58 -2.27,-0.58 -0.21,0 -0.5,0.09 -0.5,0.29zm0.21 -1.24c0,0.37 0.46,0.46 0.87,0.54 1.16,0.25 0.83,0.08 2.11,0.58 0.29,0.12 0.74,0.29 1.07,0.29 0.29,0 0.58,-0.04 0.58,-0.29 0,-0.33 -0.54,-0.58 -0.79,-0.75 -0.82,-0.45 -1.86,-0.12 -2.72,-0.33 -0.38,-0.04 -1.12,-0.37 -1.12,-0.04l0 0zm-151.18 4.3c0,1.28 2.06,3.43 2.48,3.06 0.33,-0.33 -0.38,-0.79 -0.54,-0.91 -0.7,-0.91 -0.62,-1.41 -0.79,-1.94 -0.49,-1.28 -1.15,-0.71 -1.15,-0.21zm-1.57 0.41c0,0.38 0.33,0.95 0.49,1.24 0.66,0.71 1.45,1 2.23,1.95 0.09,0.12 0.13,0.12 0.21,0.24 0.08,0.09 0.08,0.09 0.25,0.13 0.29,-0.37 0.04,-0.66 -0.33,-1.03 -0.13,-0.13 -0.17,-0.13 -0.25,-0.21 -0.66,-0.62 -0.99,-1.24 -1.45,-1.9 -0.41,-0.54 -1.15,-1.04 -1.15,-0.42l0 0zm5.33 66.59c0,0.45 0.74,0.78 1.16,0.86 0.9,0.13 1.65,-0.04 2.52,0.21 0.2,0.08 0.7,0.33 0.7,-0.04 0,-0.21 -0.21,-0.29 -0.33,-0.37 -0.79,-0.42 -2.03,-0.66 -2.9,-0.79 -0.28,-0.04 -1.15,-0.25 -1.15,0.13l0 0zm2.89 -83.61c0,0.29 0.12,0.7 0.46,0.78 0.33,0.13 0.49,0 0.99,0.33 0.82,0.62 0.78,1.45 1.11,1.45 0.25,0 0.21,-0.41 0.13,-0.58 -0.17,-0.91 -0.99,-1.94 -1.78,-2.4 -0.41,-0.25 -0.91,-0.29 -0.91,0.42zm151.85 62.16c0,-0.33 -0.33,-0.95 -0.67,-0.95 -0.41,0 -0.7,0.41 -1.69,-0.34 -0.5,-0.37 -0.5,-0.66 -0.79,-0.7 -0.12,0.25 -0.12,0.33 0,0.54 0.29,0.78 1.33,1.49 2.11,1.74 0.29,0.12 0.71,0.24 0.91,0 0.04,-0.05 0.13,-0.21 0.13,-0.29zm-149.78 -65.3c0,0.78 0.2,1.4 0.58,2.06 0.12,0.21 0.24,0.41 0.41,0.62 0.12,0.17 0.41,0.58 0.58,0.58 0.12,0 0.12,-0.04 0.16,-0.04 0.17,-0.25 0.04,-0.46 -0.12,-0.66 -0.25,-0.29 -0.46,-0.87 -0.5,-1.33 -0.08,-0.41 0.09,-1.52 -0.41,-1.73 -0.33,-0.21 -0.7,0.16 -0.7,0.49l0 0.01zm0.66 3.8c0.12,-0.13 0.16,-0.09 0.16,-0.25 0,-0.54 -0.66,-1.24 -1.07,-2.19 -0.08,-0.21 -0.12,-0.41 -0.21,-0.62 -0.16,-0.5 -0.2,-0.62 -0.62,-1.03 -0.12,-0.17 -0.33,-0.34 -0.49,-0.09 -0.13,0.21 -0.04,0.42 0,0.66 0.16,0.71 0.37,1.08 0.86,1.62 0.13,0.16 0.21,0.29 0.38,0.45 0.58,0.7 0.62,1.28 0.99,1.45zm-8.18 73.98c0,0.45 0.62,0.74 0.86,0.74 0.46,0 0.5,-0.7 1.41,-0.7l0.45 0c0.38,0 0.66,0.21 0.95,0.12 0.05,-0.08 0.05,-0.04 0.05,-0.12 0,-0.25 -0.46,-0.46 -0.67,-0.54 -1.11,-0.45 -3.05,-0.12 -3.05,0.5l0 0zm98.94 -110.23c0,0.7 -0.58,1.32 -1.08,1.7 -0.37,0.33 -0.04,0.62 0.75,0.04 0.54,-0.37 0.95,-0.91 1.24,-1.45 0.91,-1.61 -0.17,-1.78 -0.79,-1.12 -0.25,0.25 -0.12,0.46 -0.12,0.83l0 0zm-45.51 -0.25c0,0.25 0.21,0.38 0.34,0.58 0.37,0.5 0.24,1.24 0.12,1.82 -0.08,0.33 -0.25,0.54 0.08,0.54 0.04,0 0.17,-0.08 0.21,-0.13 0.83,-0.86 0.78,-3.67 -0.04,-3.67 -0.33,0 -0.71,0.53 -0.71,0.86zm-54.39 106.72c0,1.03 1.7,1.4 2.53,1.53 1.32,0.2 1.19,-0.42 0.74,-0.54 -0.25,-0.08 -0.87,0.04 -1.74,-0.66 0,0 -1.03,-1.08 -1.4,-0.54 -0.08,0 -0.13,0.12 -0.13,0.21l0 0zm18.11 32.19l0 0 0 0zm0 0c0,0.25 0.62,0.42 0.91,0.42 0.82,0 1.48,-0.46 2.56,-0.62 0.37,-0.05 0.91,0.12 0.91,-0.21 0,-0.17 -0.13,-0.25 -0.29,-0.29 -0.5,-0.12 -1.32,-0.04 -1.82,0.04l-1.65 0.25c-0.25,0.08 -0.62,0.12 -0.62,0.41l0 0zm5.25 4.8c0,0.2 0.2,0.33 0.41,0.37 0.95,0.21 1.9,-0.5 2.85,-0.79 0.54,-0.16 1.12,-0.04 1.12,-0.33 0,-0.74 -3.06,0.17 -3.43,0.29 -0.21,0.04 -0.95,0.25 -0.95,0.46zm121.88 -108.62l0 0 0 0zm0 0c0.12,0.46 0.99,0.75 1.4,0.75 1.41,0.04 2.4,0.82 2.81,0.82 0.33,0 0,-0.49 -0.08,-0.58 -0.08,-0.12 -0.25,-0.24 -0.37,-0.37 -0.17,-0.16 -0.58,-0.45 -0.95,-0.49 -0.21,0 -0.37,0 -0.66,0 -0.46,0 -0.87,0 -1.33,-0.13 -0.49,-0.16 -0.57,-0.2 -0.82,0zm-28.69 -26.08c0.17,0.66 1.7,-0.33 1.99,-0.62l0.95 -0.99c0.74,-1.28 -0.95,-1.07 -1.12,-0.54 -0.12,0.38 -0.04,0.87 -0.62,1.37 -0.16,0.08 -0.25,0.16 -0.37,0.25 -0.33,0.24 -0.7,0.33 -0.83,0.53l0 0zm38.19 89.81c-0.08,0.21 -0.08,0.37 0.21,0.58 0.41,0.33 0.58,0.46 0.91,1.08 0.08,0.16 0.16,0.24 0.21,0.45 0.04,0.29 0.16,0.66 0.37,0.91 0.45,0.54 0.82,0.25 0.82,-0.37 0,-0.37 -0.41,-0.99 -0.66,-1.32 -0.08,-0.13 -0.2,-0.25 -0.29,-0.38l-0.53 -0.45c-0.25,-0.21 -0.67,-0.7 -1.04,-0.5l0 0zm-155.73 9.38l0 0 0 0zm0 0c0,0.34 0.46,0.54 0.71,0.67 0.78,0.41 1.69,0.12 2.6,0.28 0.21,0.05 1.07,0.34 1.07,0.05 0,-0.62 -1.24,-0.5 -1.86,-0.66 -0.82,-0.29 -1.77,-0.79 -2.35,-0.58 -0.17,0.08 -0.17,0.12 -0.17,0.24l0 0zm119.94 -98.11c0,0.12 0.08,0.2 0.21,0.2 0.37,0 0.66,-0.66 2.06,-0.82 0.05,0 0.83,0.12 1.29,-0.21 0.41,-0.29 0.08,-0.83 -0.38,-0.83 -0.74,0 -1.48,0.25 -1.98,0.58 -0.25,0.17 -1.2,0.71 -1.2,1.08l0 0zm36.45 88.03c0,0.37 0.46,0.7 0.67,0.91 0.86,0.74 0.86,0.83 1.52,1.69 0.62,0.87 1.66,1.04 1,-0.16 -0.13,-0.21 -0.21,-0.33 -0.33,-0.5 -0.42,-0.49 -1.41,-0.99 -1.82,-1.36 -0.17,-0.13 -0.66,-0.75 -0.83,-0.75 -0.12,0 -0.21,0.13 -0.21,0.17l0 0zm-98.32 -96.59c0,0.21 0,0.58 0.29,0.58 0.41,0 0.12,-0.66 0.74,-1.69 0.33,-0.62 1,-0.83 1,-1.53 0,-0.42 -0.87,-0.79 -1.57,0.82 -0.17,0.5 -0.46,1.29 -0.46,1.82l0 0zm61.33 7.57c0.17,0.74 1.37,-0.46 2.32,-0.83 0.45,-0.17 1.9,-0.66 1.9,-1.24 0,-0.21 -0.29,-0.25 -0.54,-0.21 -1.44,0.29 -1.69,1.04 -2.64,1.61 -0.33,0.21 -0.91,0.46 -1.04,0.67l0 0zm-17.23 -6.53c0,0.16 0.21,0.24 0.41,0.16 0.21,-0.16 0.21,-0.16 0.37,-0.37 0.17,-0.25 0.5,-0.41 0.79,-0.62 0.5,-0.29 0.66,-0.25 1.03,-0.37 1.41,-0.46 0.79,-1.66 -0.7,-0.75 -0.29,0.13 -0.74,0.46 -0.91,0.66 -0.21,0.21 -0.99,1 -0.99,1.29zm-45.09 -1c0,0.21 0.45,0.54 0.7,-0.78 0.13,-0.66 0.08,-0.58 0.33,-1.2 0.08,-0.21 0.13,-0.37 0.21,-0.54 0.21,-0.45 0.33,-0.7 0.33,-1.2 0.08,-0.62 -0.29,-0.9 -0.91,0.17 -0.29,0.62 -0.25,1.16 -0.33,1.74 -0.04,0.62 0,0.57 -0.17,1.24 -0.04,0.16 -0.16,0.45 -0.16,0.57l0 0zm44.39 0.25l0 0 0 0zm0 0c0,0.13 0.16,0.13 0.25,0.13 0.37,0 0.99,-0.79 1.28,-1.12l0.45 -0.33c0.08,-0.08 0.13,-0.12 0.21,-0.17 0.45,-0.29 1.4,-0.91 1.4,-1.48 0,-0.33 -0.62,-0.09 -0.82,0.04 -0.58,0.33 -0.67,0.37 -1.12,0.95 -0.21,0.29 -0.62,0.91 -0.87,1.16 -0.12,0.16 -0.78,0.66 -0.78,0.82l0 0zm48.97 112.87c0,1.41 2.85,3.64 2.85,2.19 0,-0.29 -0.16,-0.74 -0.49,-0.82 -0.37,-0.13 -0.46,0.08 -0.95,-0.25 -0.79,-0.5 -0.95,-1.28 -1.2,-1.28 -0.08,0 -0.21,0.12 -0.21,0.16zm0 1.86c0,0.37 0.66,1.08 0.91,1.41 0.08,0.16 0.17,0.29 0.25,0.49 0.33,0.54 0.45,1.04 0.87,1.45 0.7,0.87 0.91,-0.12 0.29,-1.12l-0.71 -0.78c-0.49,-0.5 -0.66,-0.66 -0.99,-1.24 -0.45,-0.74 -0.62,-0.33 -0.62,-0.21l0 0zm-0.82 0.5c0,0.54 0.49,0.41 0.82,1.61 0.04,0.17 0.09,0.29 0.09,0.5 -0.05,0.41 0.16,1.24 0.53,1.24 1.08,0 0.17,-1.86 -0.12,-2.32 -0.13,-0.25 -0.83,-1.16 -1.12,-1.16 -0.08,0 -0.2,0 -0.2,0.13zm-21.16 25.62c0,0.91 0.08,1.04 0.41,1.86 0.12,0.29 0.62,1.08 0.91,1.08 0.41,0 0.49,-0.46 0.49,-0.79 0,-0.58 -0.53,-0.37 -0.99,-1.11 -0.49,-0.83 -0.25,-1.57 -0.54,-1.57 -0.2,0 -0.28,0.33 -0.28,0.53zm-7.24 5.13l0 0.33c0,0.7 0.54,2.35 1.12,2.35 0.16,0 0.25,-0.04 0.37,-0.24 0.12,-0.17 0.12,-0.38 0.12,-0.62 0,-0.21 -0.28,-0.38 -0.41,-0.46 -0.21,-0.2 -0.29,-0.25 -0.41,-0.54 -0.25,-0.49 -0.25,-0.82 -0.25,-1.61l-0.17 -0.08c-0.16,0.04 -0.2,0.12 -0.28,0.29 -0.05,0.16 -0.09,0.41 -0.09,0.58l0 0zm-47.53 13.47c0,0.37 0,0.75 0.42,0.75 0.24,0 0.74,-0.38 0.74,-0.79 0,-0.37 -0.45,-0.62 0.08,-1.74 0.25,-0.45 0.46,-0.62 0.46,-0.82 -0.25,-0.21 -0.37,-0.04 -0.62,0.2 -0.58,0.58 -1.08,1.7 -1.08,2.4l0 0zm54.85 -13.31c0.37,-0.08 0.37,-0.45 0.41,-0.99 0.04,-0.62 -0.58,-1.61 -0.7,-2.85 -0.04,-0.08 -0.04,-0.21 -0.04,-0.29 -0.04,-0.12 -0.09,-0.16 -0.17,-0.25 -0.41,0.13 -0.29,0.62 -0.2,0.99 0.04,0.21 0.08,0.34 0.12,0.54 0.16,0.87 -0.08,2.07 0.41,2.69 0.04,0.12 0.04,0.08 0.17,0.16zm-1.78 -4.01l0 0 0 0zm0 0c0,0.34 0.46,1 -0.04,2.11 -0.04,0.08 -0.08,0.13 -0.08,0.21 -0.17,0.41 -0.17,1.03 0.41,1.03 0.7,0 0.66,-1.69 0.54,-2.31 -0.09,-0.29 -0.29,-1.45 -0.66,-1.28 -0.13,0 -0.17,0.16 -0.17,0.24l0 0zm-6.36 4.92c0,0.37 0.08,0.83 0.08,1.49 0,0.58 -0.08,1.08 -0.08,1.41 0,0.78 0.53,1.4 0.78,0.45 0.37,-1.32 -0.29,-1.82 -0.29,-3.1 0,-0.21 0,-0.25 -0.04,-0.41 0,-0.29 0,-0.37 -0.21,-0.37 -0.08,0 -0.16,0.12 -0.16,0.2 0,0.04 -0.08,0.25 -0.08,0.33zm-0.95 -0.29c0,0.29 0.08,0.42 0.08,0.62 0,0.33 -0.13,0.95 -0.25,1.16 -0.17,0.37 -0.37,0.58 -0.37,1.08 0,0.45 0.49,0.66 0.87,0.16 0.45,-0.66 0.41,-2.27 0.12,-3.06 -0.04,-0.16 -0.08,-0.2 -0.29,-0.25l-0.08 0.05c-0.04,0.08 -0.08,0.12 -0.08,0.24l0 0zm-49.02 12.65c0,0.33 0.54,0.58 1.28,-0.17l0.37 -0.33c0.29,-0.28 1.41,-2.06 0.79,-2.06 -0.25,0 -0.38,0.37 -0.46,0.49 -0.2,0.5 -0.7,0.95 -1.24,1.2 -0.29,0.13 -0.74,0.5 -0.74,0.87l0 0zm0.87 1.49c0,0.41 0.24,0.33 0.45,0.2 0.21,-0.16 0.66,-0.62 0.79,-0.82 0.08,-0.21 0.16,-0.37 0.24,-0.58 0.09,-0.17 0.17,-0.33 0.25,-0.54l0.25 -0.58c0.29,-0.62 0.95,-1.15 0.33,-1.15 -0.29,0 -0.83,1.19 -1.24,1.69l-0.62 0.83c-0.16,0.12 -0.21,0.25 -0.33,0.41 -0.04,0.12 -0.12,0.37 -0.12,0.54l0 0zm10.58 -155.65c0,0.62 0.41,1.03 0.82,0.91 0.91,-0.17 1.04,-1.82 0,-1.74 -0.49,0.09 -0.82,0.5 -0.82,0.83zm14.5 141.6c0,1.44 1.49,1.07 1.41,0.12 0,-0.58 -0.66,-1.16 -1.2,-0.62 -0.08,0.12 -0.21,0.29 -0.21,0.5zm65.64 -81.34l0 0.54c-0.05,0.41 -0.17,1.11 -0.34,1.4 -0.49,0.95 -1.19,1.2 -2.19,0.95 -0.62,-0.16 -1.11,-0.58 -1.57,-0.99 -0.24,-0.29 -0.53,-0.62 -0.7,-0.99l-0.29 -0.54c-0.33,-0.78 -0.29,-2.07 0.13,-2.85 0.49,-1.07 1.4,-0.79 2.19,-0.29 0.62,0.46 1.11,1.74 0.53,2.36 -0.53,0.62 -1.28,0 -1.36,-0.62 0,-0.17 0,-0.33 0,-0.46 0,-0.21 0.04,-0.21 0.04,-0.33 -0.29,-0.08 -0.45,-0.08 -0.62,0.12 -0.33,0.62 -0.16,1.62 0.08,2.07 0.75,1.45 2.32,1.08 2.65,-0.66 0.12,-0.5 0.08,-1.07 -0.04,-1.53 -0.29,-1.28 -1.33,-2.77 -2.19,-3.76l-0.38 -0.41c-0.24,-0.29 -0.53,-0.58 -0.82,-0.87 -0.08,-0.13 -0.13,-0.13 -0.21,-0.21l-0.49 -0.41c-0.67,-0.66 -1.82,-1.45 -2.69,-1.94 -0.62,-0.33 -1.12,-0.54 -1.65,-0.83 0,0.21 0.08,0.33 0.08,0.54 0,0.16 0.04,0.29 0.08,0.49 0.13,0.79 0.33,2.48 0.29,3.23l0.04 1.73c0.04,0.25 -0.04,0.33 -0.04,0.54 0,2.27 -0.45,5.87 1.82,7.4 0.21,0.16 0.16,0.16 0.25,0.37l0.41 1.36c-0.17,-0.04 -0.17,-0.08 -0.29,-0.16l-0.37 -0.37c-0.33,-0.38 -0.62,-0.71 -0.91,-1.12 -0.33,-0.5 -0.66,-0.99 -0.87,-1.53 -0.08,-0.21 -0.16,-0.37 -0.25,-0.54 -0.49,-1.15 -0.86,-2.52 -0.95,-3.84l-0.16 -1.86c0,-0.12 0,-0.25 0,-0.37l-0.04 -0.75c0,-0.53 0,-1.07 0,-1.61 0,-1.36 -1.2,-3.3 -2.07,-4.34l-0.41 -0.37c-1.04,-0.99 -2.07,-1.69 -3.52,-2.07 -0.78,-0.16 -1.86,-0.12 -2.6,0.38 -0.62,0.49 -1.03,1.11 -1.24,1.94 -0.58,2.23 0.25,5.7 2.44,6.82 0.58,0.25 1.24,0.45 1.94,0.21 0.91,-0.29 1.57,-1.49 0.95,-2.44 -0.49,0.2 -1.32,0.2 -1.61,-0.42 -0.7,-1.44 1.61,-2.02 2.4,0 0.29,0.87 0.29,1.7 0,2.52 -0.13,0.42 -0.33,0.67 -0.58,0.96 -0.58,0.53 -1.45,0.57 -2.32,0.28 -0.66,-0.2 -1.24,-0.53 -1.69,-0.95 -1.24,-0.99 -2.07,-2.19 -2.69,-3.76 -0.62,-1.44 -0.91,-3.47 -0.04,-4.87 0.79,-1.29 2.77,-1.91 4.3,-1.66 1.28,0.21 2.4,0.87 3.31,1.66l0.41 0.29c0.33,0.33 0.62,0.66 0.95,0.95 0.12,0.16 0.21,0.29 0.37,0.41 0.33,0.33 0.7,0.87 0.95,1.24 0.17,0.16 0.54,0.74 0.66,0.87 0,-0.87 -0.04,-1.57 -0.2,-2.36 -0.37,-1.57 -1.08,-3.06 -2.07,-4.3 -0.16,-0.2 -0.5,-0.53 -0.58,-0.74 -1.28,0 -2.06,-0.13 -3.18,-0.58 -0.12,-0.04 -0.17,-0.08 -0.29,-0.16l-0.87 -0.54c-0.37,-0.21 -0.7,-0.46 -1.03,-0.79 -0.33,-0.29 -0.62,-0.62 -0.79,-1.11 -0.16,-0.71 0.29,-1.62 1.08,-1.66 0.29,-0.04 0.54,0.09 0.7,0.21 0.75,0.5 0.46,1.07 -0.04,1.36 -0.17,0.09 -0.25,0.05 -0.33,0.17 -0.08,0.21 0.08,0.58 0.16,0.7 0.21,0.33 0.67,0.62 1.08,0.79 0.87,0.41 2.15,0.62 2.85,-0.13 0.46,-0.37 0.5,-0.78 0.25,-1.36 -0.25,-0.66 -0.7,-1.16 -1.2,-1.57 -0.58,-0.46 -1.86,-1.16 -2.56,-1.2l-2.56 -0.21c-0.29,-0.04 -0.62,0 -0.91,-0.08 -0.29,0 -0.54,0 -0.87,-0.04 -0.25,0 -0.54,-0.04 -0.83,-0.08 -0.29,0 -0.62,-0.04 -0.87,-0.04 -0.7,0 -1.82,-0.17 -2.6,-0.17 -0.29,-0.04 -0.62,-0.08 -0.87,-0.08 -0.83,-0.04 -1.82,-0.21 -2.64,-0.21l-2.61 -0.16c-1.11,-0.17 -2.35,-0.13 -3.47,-0.25 -0.16,0 -0.33,0 -0.49,0 -0.83,-0.04 -2.32,-0.13 -3.1,-0.13 -0.67,0 -1.2,-0.04 -1.82,-0.04 -0.62,0 -1.24,0 -1.86,0 -0.25,0 -0.29,0.04 -0.46,0.04 -0.16,0 -0.33,0 -0.45,0 -0.25,0 -0.58,0.04 -0.66,-0.24 0.82,0 1.69,0 2.52,0 0.91,0 1.65,-0.05 2.52,-0.05 0.45,0 0.78,0.05 1.28,0.05l3.76 0c0.5,0 0.79,0.04 1.28,0.04l2.44 0.12c0.45,0 0.79,0.04 1.24,0.04 0.25,0 0.37,0.04 0.58,0.04l1.24 0.05c0.29,0 0.37,0 0.66,0 0.41,0 0.79,0.04 1.24,0.04 0.16,0 0.33,0.04 0.58,0.04l4.21 0.2c0.42,0.05 0.87,0.05 1.24,0.05 1,0.12 2.65,0.16 3.68,0 1.66,-0.17 0.21,-1.33 -0.54,-1.78 -0.24,-0.21 -0.49,-0.29 -0.82,-0.46 -0.21,-0.12 -0.21,-0.08 -0.54,-0.12 -0.87,0 -1.82,-0.29 -2.6,-0.58 -0.46,-0.12 -1.7,-0.74 -1.74,-0.74 0.04,0.16 0.13,0.33 0.21,0.45 0.12,0.13 0.2,0.25 0.29,0.37 0.29,0.42 0.66,0.79 1.07,1.08 0.13,0.12 0.21,0.21 0.33,0.33 0.17,0.04 0.75,0.5 0.79,0.62 -0.66,-0.08 -1.74,-0.87 -2.23,-1.24l-1.08 -0.99c-0.37,-0.37 -0.74,-0.71 -1.03,-1.08 -1.94,-2.39 -1.61,-5.2 -3.97,-6.44 -0.29,-0.13 -0.66,-0.29 -1.12,-0.21 -0.78,0.12 -1.52,0.21 -2.35,0.37 -0.83,0.08 -1.61,0.17 -2.44,0.29 -2.44,0.33 -4.88,0.66 -7.27,1.03 -1.62,0.25 -3.14,0.54 -4.67,0.87 -0.83,0.17 -1.57,0.29 -2.36,0.46 -0.37,0.04 -0.74,0.16 -1.12,0.2 -0.33,0.13 -0.9,0.33 -0.95,0 0.29,0 1.28,-0.33 1.7,-0.37 0.54,-0.12 1.07,-0.29 1.65,-0.37 0.58,-0.13 1.16,-0.25 1.7,-0.37 0.62,-0.13 1.15,-0.25 1.73,-0.38 1.12,-0.24 2.23,-0.45 3.39,-0.7 0.54,-0.12 1.16,-0.25 1.7,-0.33 1.19,-0.25 2.31,-0.41 3.51,-0.66 1.78,-0.29 3.55,-0.58 5.29,-0.87 1.57,-0.25 3.92,-0.54 5.33,-0.87 0.41,-0.08 1.24,-0.29 1.28,-0.66 -0.12,-0.33 -0.37,-0.41 -0.66,-0.58 -0.58,-0.24 -1.24,-0.45 -1.82,-0.62 -0.37,-0.12 -0.54,-0.16 -0.99,-0.04 -1.98,0.37 -4.05,0.83 -6.12,1.12l-6.2 1.07c-2.77,0.46 -5.53,0.87 -8.26,1.41 -0.99,0.21 -2.03,0.37 -3.06,0.62l-3.93 0.87c-0.95,0.29 -0.49,0.16 -0.87,0.04l0 -0.04c0.25,-0.04 1.24,-0.33 1.49,-0.42l5.38 -1.28c0.28,-0.04 0.49,-0.08 0.78,-0.16 0.25,-0.04 0.5,-0.13 0.79,-0.17l13.35 -2.68c0.86,-0.21 1.81,-0.38 2.72,-0.54 0.21,-0.04 0.29,0.04 0.37,-0.13 -0.24,0 -0.82,-0.16 -1.03,-0.29 -0.78,-0.37 -1.4,-0.9 -1.24,-1.9 0.04,-0.16 0.13,-0.29 0.17,-0.45 -0.66,0 -1.82,-0.41 -2.4,-0.7 -1.41,-0.75 -1.03,-2.15 0.12,-2.81 1.16,-0.62 2.65,-0.62 4.01,-0.62 -0.08,-0.17 -0.29,-0.21 -0.41,-0.29 -0.12,-0.09 -0.25,-0.13 -0.41,-0.21 -0.87,-0.33 -1.57,-0.62 -2.48,-0.83 -0.21,-0.04 -0.29,0.04 -0.5,0.09 -0.62,0.28 -1.24,0.49 -1.9,0.74l-3.68 1.53c-1.2,0.54 -2.48,1.03 -3.68,1.53l-14.83 6.07c-0.34,0.13 -0.62,0.21 -0.91,0.38 -0.29,0.12 -0.71,0.41 -0.87,0.12 0.12,-0.04 0.25,-0.08 0.37,-0.17 0.87,-0.29 1.69,-0.66 2.52,-0.99 0.99,-0.41 1.94,-0.82 2.89,-1.2 1,-0.41 1.91,-0.82 2.9,-1.24l0.66 -0.33c0.25,-0.08 0.45,-0.16 0.7,-0.29 0.21,-0.12 0.5,-0.2 0.7,-0.33l2.11 -0.95c1.37,-0.66 2.77,-1.24 4.18,-1.9l4.21 -1.9c0.13,-0.08 1.2,-0.5 1.37,-0.62 -0.87,0 -1.99,-0.16 -2.57,-0.45 -0.91,-0.42 -1.2,-0.83 -0.95,-1.82 -0.49,0 -1.07,-0.09 -1.49,-0.17 -2.81,-0.58 -2.27,-2.44 -0.9,-3.26 0.33,-0.17 0.66,-0.29 1.03,-0.46 0.62,-0.2 1.32,-0.33 1.98,-0.45 0.17,0 0.5,-0.08 0.66,-0.08 -0.08,-0.13 -0.7,-0.38 -0.91,-0.46 -0.33,-0.16 -0.66,-0.29 -0.99,-0.37 -0.74,-0.21 -1.57,-0.37 -2.39,-0.46 -0.29,-0.04 -0.34,0 -0.54,0.13 -0.37,0.25 -1.04,0.45 -1.45,0.66 -0.33,0.12 -0.66,0.25 -0.99,0.37 -0.17,0.04 -0.33,0.08 -0.54,0.17 -0.12,0.04 -0.16,0.04 -0.29,0.04 -0.08,0 -0.08,0 -0.12,0.04l-0.12 0.08c0.53,0 1.15,0.17 1.48,0.37 0.71,0.46 0.71,1.28 0.29,1.99 -0.25,0.49 -0.66,0.91 -1.03,1.28 -0.08,0.12 -0.13,0.16 -0.21,0.29 -0.16,0.16 -0.33,0.29 -0.49,0.45 -0.95,0.91 -2.77,2.03 -3.93,2.57 -1.65,0.86 -3.51,1.57 -5.29,2.23 -0.95,0.37 -1.86,0.66 -2.77,1.03l-2.31 0.95c-0.05,0 -0.29,-0.12 -0.33,-0.12 0.08,-0.13 0.45,-0.29 0.62,-0.33l8.92 -4.38c1.2,-0.58 2.36,-1.12 3.43,-1.91 0.91,-0.66 2.32,-2.02 1.9,-3.3 -0.33,-0.87 -1.65,-0.58 -1.98,-0.75 -0.16,-0.04 -0.45,-0.2 -0.62,-0.24l0 -0.09c0.21,0 0.5,-0.08 0.7,-0.16 0.79,-0.17 1.57,-0.5 2.36,-0.83 0.16,-0.04 0.33,-0.12 0.49,-0.25 0.54,-0.24 1.04,-0.53 1.41,-0.99 1.12,-1.36 -1.41,-1.2 -2.19,-1.2 -0.54,0 -0.95,0.09 -1.45,0.09 -0.29,0.49 -1.32,1.11 -1.86,1.32 -0.49,0.25 -1.86,0.74 -2.56,0.54 -0.45,-0.13 -0.7,-0.42 -0.74,-0.91 -0.04,-0.79 1.11,-1.66 1.69,-0.95 0.41,0.53 0.13,0.86 -0.04,1.11 0.54,0 0.87,-0.16 1.2,-0.37 0.74,-0.58 1.98,-2.32 1.28,-3.02 -0.5,-0.49 -1.61,-0.25 -2.27,-0.08 -0.13,0 -0.17,0 -0.25,0.08 -0.13,0.17 -0.21,0.29 -0.37,0.42 -0.67,0.7 -1.33,1.24 -2.19,1.65 -0.21,0.08 -0.38,0.16 -0.58,0.21 -0.58,0.24 -1.33,0.45 -1.95,0.16 -0.24,-0.16 -0.62,-0.5 -0.66,-0.83 -0.12,-0.41 0.25,-0.91 0.42,-1.11 0.95,-1.04 1.77,-0.25 1.61,0.45 -0.08,0.21 -0.21,0.37 -0.33,0.46 -0.13,0.08 -0.37,0.25 -0.54,0.25 0.37,0.49 1.24,0 1.65,-0.29 0.13,-0.05 0.21,-0.17 0.33,-0.25 0.67,-0.58 1.62,-1.53 1.45,-2.52 -0.08,-0.37 -0.41,-0.46 -0.74,-0.5 -0.66,-0.08 -1.33,0.04 -1.95,0.29 -0.28,0.12 -0.45,0.21 -0.74,0.37 -0.74,0.37 -1.36,0.99 -1.94,1.53 -0.58,0.58 -1.49,1.03 -2.4,1.03 0.04,-0.16 0.33,-0.28 0.46,-0.37l1.11 -0.87c0.66,-0.61 2.11,-2.06 2.52,-2.72 0.33,-0.58 -0.74,-0.25 -0.99,-0.17 -0.21,0.08 -0.37,0.17 -0.54,0.25 -0.33,0.21 -0.82,0.62 -1.11,0.91 -0.09,0.08 -0.13,0.12 -0.21,0.16l-0.41 0.42c-0.29,0.2 -0.62,0.58 -0.87,0.78 -0.37,0.25 -0.87,0.83 -1.2,1.16l-1.61 1.57c-0.17,0.17 -0.25,0.29 -0.41,0.46l-1.57 1.61c-0.09,0.04 -0.13,0.12 -0.21,0.16 -0.5,0.46 -0.95,0.91 -1.45,1.41 -0.08,0.08 -0.08,0.12 -0.2,0.2 -0.05,0.09 -0.09,0.09 -0.21,0.17 -0.33,0.33 -0.62,0.7 -0.99,0.99l-1.04 0.99c-0.16,0.13 -0.24,0.25 -0.37,0.38 -0.12,0.08 -0.16,0.08 -0.25,0.2 -0.37,0.33 -0.82,0.83 -1.24,1.16 -0.33,0.25 -0.7,0.66 -0.99,0.99 -0.37,0.41 -4.3,4.38 -4.79,4.8l-0.87 0.78c-0.04,0.04 -0.12,0.12 -0.17,0.21 -0.49,0.45 -0.37,0.41 -0.82,0.41 0.25,-0.33 0.66,-0.58 0.91,-0.87 0.08,-0.12 0.2,-0.16 0.29,-0.29l6.24 -6.4c0.08,-0.13 0.12,-0.17 0.25,-0.29 0.08,-0.13 0.16,-0.17 0.24,-0.29l5.29 -5.58c0.21,-0.21 0.42,-0.41 0.58,-0.58 0.08,-0.16 0.17,-0.21 0.25,-0.29l2.27 -2.35c0.09,-0.09 0.13,-0.17 0.25,-0.29 0.33,-0.29 1.28,-1.16 1.41,-1.45 -0.13,0.04 -0.38,0.21 -0.5,0.29 -0.12,0 -0.17,0.04 -0.29,0.12 -1.07,0.5 -2.85,1.16 -4.01,0.83 -0.37,-0.17 -0.66,-0.41 -0.78,-0.79 -0.38,-0.99 0.12,-2.19 0.7,-2.97l0.78 -0.79c0.42,-0.33 0.96,-0.62 1.45,-0.82 0.62,-0.29 1.86,-0.62 2.56,-0.21 0.29,0.17 0.58,0.54 0.58,0.99 -0.04,0.95 -1.28,1.45 -1.73,0.87 -0.38,-0.41 0.2,-0.87 0.29,-1.03 -0.17,-0.04 -0.29,-0.13 -0.46,-0.17 -0.99,-0.33 -2.02,0.37 -2.48,1.32 -0.21,0.46 -0.41,1.33 -0.21,1.91 0.17,0.66 0.96,0.74 1.57,0.74 0.91,0 3.27,-0.95 3.72,-1.41l1.66 -1.44c0.87,-0.79 3.47,-2.73 4.38,-3.35 0.08,-0.08 0.21,-0.17 0.33,-0.25l0.99 -0.66c0.95,-0.62 2.03,-1.03 3.27,-1.32 1.07,-0.25 2.85,-0.37 3.88,0.2 -0.08,0.09 -0.29,0.21 -0.37,0.29 -0.7,-0.45 -1.9,-0.41 -2.77,-0.24 -0.29,0.08 -0.58,0.12 -0.83,0.24 -0.86,0.29 -2.1,0.95 -2.89,1.49 -0.12,0.04 -0.16,0.13 -0.29,0.21 -0.91,0.62 -1.49,1.03 -2.35,1.78 -0.05,0.04 -0.09,0.04 -0.17,0.12l-1.69 1.49c-0.13,0.12 -0.17,0.12 -0.25,0.29l1.03 -0.29c1.03,-0.17 1.7,0.08 0.99,0.99 -0.25,0.29 -0.58,0.58 -0.62,0.66 0.21,0 0.5,-0.16 0.66,-0.25 1,-0.33 2.9,-0.78 3.64,0.17 0.37,0.58 0.08,1.07 0.04,1.53 0.95,-0.25 2.48,-0.5 3.43,-0.13 1.66,0.62 0.29,2.4 0.25,2.57 0.13,0 0.33,0 0.5,-0.05 0.99,-0.12 2.48,-0.16 3.47,-0.12 0.54,0.04 1.2,0.21 1.28,0.83 0,0.29 -0.12,0.58 -0.25,0.78 -0.08,0.25 -0.29,0.42 -0.41,0.58 0.83,0 1.61,0.12 2.35,0.25 2.61,0.41 4.34,1.57 6.33,3.22l0.33 0.33c0.08,0.04 0.08,0.04 0.2,0.13l1.16 1.07c0.08,0.08 0.21,0.17 0.33,0.29l0.37 0.29c0.21,0.17 0.46,0.37 0.71,0.54 0.91,0.49 1.57,0.33 1.82,0.7 -0.21,0.08 -0.46,0.12 -0.71,0.12 -0.2,0.05 -0.49,0.13 -0.7,0.17 -0.45,0.08 -0.91,0.25 -1.32,0.33 0.08,0.12 0.08,0.08 0.2,0.12 1.41,0.29 2.69,0.83 3.93,1.53 0.13,0.09 0.21,0.17 0.37,0.25l1.12 0.79c0.37,0.29 0.7,0.62 1.07,0.91 0.46,0.37 0.83,0.86 1.24,1.32 0.04,0.08 0.09,0.12 0.17,0.16 0,0.09 0.04,0.13 0.12,0.17 0.09,0.12 0.21,0.25 0.29,0.37 0.17,0.25 0.37,0.5 0.54,0.74l0.74 1.2c0.04,0.13 0.13,0.25 0.21,0.37 0.25,0.42 -0.12,0.13 -1.36,0.38 -0.21,0.04 -0.38,0.08 -0.54,0.12l0 0.08c0.16,0 0.66,0.17 0.83,0.25 0.78,0.29 1.52,0.58 2.19,0.99 0.41,0.25 1.07,0.71 0.57,1.12 -0.16,0.16 -0.49,0.33 -0.7,0.37 -0.16,0.08 -0.7,0.21 -0.82,0.25 0.57,0.16 1.15,0.45 1.73,0.66 0.75,0.29 1.57,0.79 2.11,1.41 0.37,0.45 0.66,1.07 0.54,1.73 -0.09,0.21 -0.29,0.58 -0.5,0.62l0 0.08c0.33,0.05 1.16,0.58 1.41,0.79 0.78,0.54 1.73,1.69 1.48,2.81 -0.08,0.29 -0.24,0.45 -0.45,0.66 -0.13,0.13 -0.5,0.37 -0.7,0.41l0.08 0.05c0.91,0.57 2.77,1.65 3.3,2.43 0.75,1.04 -1.28,1.08 -2.06,1.08l0.25 0.16c0.99,0.54 2.06,1.33 2.81,2.28 0.08,0.08 0.08,0.08 0.16,0.16 0.7,0.91 1.37,2.07 0.25,2.9l-0.5 0.24c0.17,0.17 0.58,0.62 0.79,0.91 0.16,0.17 0.25,0.33 0.37,0.5 0.7,1.07 1.28,2.07 1.74,3.31 0.33,0.82 0.12,0.74 0.7,1.03 0.12,0.08 0.21,0.08 0.25,0.16 0.12,0.05 0.2,0.09 0.29,0.13 0.37,0.25 0.74,0.41 1.07,0.62 0.21,0.12 0.37,0.25 0.54,0.33l1.49 1.03c0.41,0.33 0.82,0.62 1.15,0.95 0.13,0.08 0.17,0.13 0.25,0.21l0.66 0.58c0.71,0.62 1.2,1.4 1.74,2.06 0.87,1.04 1.86,2.48 2.11,3.81 0.08,0.29 0.12,0.66 0.16,1.03l0.01 0zm-154.62 -12.61l0 0c-0.37,-0.41 -0.99,-1.32 -1.36,-1.81l-0.54 -0.75c-0.08,-0.12 -0.12,-0.25 -0.25,-0.37 -0.41,-0.66 -1.32,-2.03 -1.69,-2.73 -0.87,-1.61 -1.82,-3.84 -1.99,-5.66 -0.12,-0.54 -0.12,-1.16 0,-1.74 0.09,-0.41 0.17,-0.57 0.33,-0.91 -0.12,-0.2 -0.12,-0.08 -0.16,-0.24l-0.41 0.86c-0.38,1.04 -0.34,2.19 -0.17,3.27 0.12,0.66 0.33,1.32 0.5,1.94 0.08,0.17 0.08,0.29 0.16,0.46 0.04,0.16 0.08,0.33 0.13,0.45 0.12,0.33 0.2,0.62 0.33,0.95 0.08,0.33 0.24,0.54 0.37,0.83 0.49,1.16 1.94,3.47 2.73,4.59 0.57,0.74 1.03,1.36 1.61,2.1 0.25,0.33 1.11,1.33 1.4,1.66 0.46,0.45 0.99,2.56 1.12,3.18 0.12,0.87 0.04,1.4 -0.7,1.65 -0.67,0.17 -1.41,-0.04 -1.99,-0.41 -0.7,-0.46 -1.44,-1.32 -1.44,-2.23 0.04,-0.95 0.12,-0.71 0.16,-1.08 0.29,0.13 0.7,0.5 1.08,0.17 0.66,-0.62 0.16,-1.78 -0.62,-1.78 -0.54,-0.04 -0.75,0.33 -0.91,0.66 -0.33,0.62 -0.46,1.7 -0.25,2.56 0.54,2.28 3.22,4.76 5.08,3.48 1.16,-0.83 0.62,-2.86 0.13,-4.01 -0.09,-0.17 -0.21,-0.42 -0.25,-0.58 0.16,0.12 0.16,0.21 0.29,0.33 0.08,0.04 0.12,0.08 0.16,0.12l3.14 3.52c0.04,0.08 0.04,0.08 0.13,0.2l0.53 0.62c0.46,0.5 1.04,1.08 1.45,1.62 0.13,0.12 0.17,0.16 0.25,0.33 0.04,0.04 0.08,0.08 0.16,0.16l1.24 1.45c0.09,0.12 0.21,0.2 0.29,0.33l0.54 0.7c0.08,0.08 0.17,0.21 0.25,0.33l1.03 1.32c0.87,1.16 1.78,2.28 2.65,3.43l2.19 2.65c0.2,0.21 0.37,0.41 0.54,0.66 0.33,0.41 2.14,2.52 2.52,2.89 0.08,0.13 0.12,0.13 0.12,0.21 0.08,0.08 0.08,0.08 0.21,0.12 0,-0.28 -0.04,-0.41 -0.17,-0.57 -0.49,-0.58 -1.16,-1.41 -1.69,-2.03 -1.82,-2.23 -3.56,-4.5 -5.29,-6.78l-0.33 -0.45c-0.09,-0.17 -0.17,-0.29 -0.29,-0.46 -0.5,-0.74 -1.99,-2.72 -2.57,-3.47l-0.99 -1.28c-0.08,-0.12 -0.2,-0.25 -0.33,-0.37l-4.13 -4.96c-0.08,-0.12 -0.21,-0.25 -0.33,-0.41 -0.13,-0.13 -0.21,-0.25 -0.33,-0.42 -0.25,-0.29 -0.46,-0.53 -0.71,-0.78l-1.36 -1.7c-0.25,-0.25 -0.45,-0.49 -0.66,-0.78 -0.41,-0.46 -0.37,-0.46 -0.5,-1.04 -0.08,-0.41 -0.2,-0.9 -0.24,-1.28 0,-0.16 -0.05,-0.58 0,-0.7 0,-0.33 0.04,-0.33 0.12,-0.66 0.21,0 0.54,0.33 0.66,0.5l1.12 1.24c0.16,0.24 0.33,0.49 0.53,0.7 0.33,0.45 0.67,0.87 1,1.36l0.41 0.79c0.12,0.24 0.25,0.49 0.37,0.82l0.04 0c0.13,-0.41 0.17,-0.49 0.13,-0.99 -0.21,-1.24 -0.87,-2.35 -1.57,-3.3l-0.54 -0.67c-0.25,-0.45 -0.58,-1.11 -0.75,-1.69 -0.74,-2.98 1.74,-2.52 3.1,-0.37 0.25,0.37 0.46,0.91 0.38,1.4 -0.04,0.25 -0.13,0.29 -0.17,0.5 -0.33,-0.13 -0.49,-0.7 -1.07,-0.58 -0.54,0.08 -0.62,0.74 -0.42,1.07 0.33,0.71 1.53,1.41 2.11,0.67 0.66,-0.95 -0.04,-3.1 -0.58,-4.05l-1.07 -1.45c-0.58,-0.54 -0.66,-0.37 -0.75,-0.99 -0.08,-0.79 -0.2,-2.36 0.25,-2.98 0.62,-0.62 1.86,0.17 2.36,0.62 0.49,0.33 0.95,0.79 1.16,1.37 0.12,0.28 0.2,0.74 0.04,1.07 -0.09,0.08 -0.09,0.12 -0.13,0.25 -0.25,-0.04 -0.58,-0.7 -1.15,-0.83 -0.62,-0.16 -0.91,0.5 -0.71,1.08 0.33,0.66 1.12,1.24 1.86,0.99 0.79,-0.29 0.91,-1.32 0.83,-2.15 -0.04,-0.41 -0.17,-0.83 -0.29,-1.16 -0.08,-0.16 -0.12,-0.25 -0.17,-0.37 -0.28,-0.66 -0.78,-1.36 -1.28,-1.82 -0.04,-0.04 -0.16,-0.16 -0.24,-0.21 -0.09,-0.08 -0.21,-0.12 -0.34,-0.2 0,-0.71 -0.08,-1.41 0.09,-2.23 0.2,-1.33 0.95,-1.91 1.94,-0.67 0.79,0.96 1.69,3.23 1.78,4.59 0.08,-0.04 0.25,-0.33 0.29,-0.49 0.12,-0.25 0.12,-0.29 0.04,-0.62 -0.08,-0.5 0.08,-1.12 0.25,-1.45 0.95,-1.9 3.67,1.2 4.42,2.48 0.82,1.45 1.86,5.62 2.23,7.48 0.08,0.25 0.12,0.45 0.17,0.7 0.12,0.5 0.66,3.06 0.66,3.39l0.08 0c0,-0.37 0.12,-0.04 0,-0.66 0,-0.29 -0.04,-0.5 -0.08,-0.74 -0.38,-2.4 -0.71,-4.8 -1.24,-7.11 -0.25,-0.91 -0.5,-1.74 -0.79,-2.61 -0.08,-0.2 -0.12,-0.41 -0.25,-0.57 0,-0.13 -0.04,-0.21 -0.12,-0.29l-0.25 -0.58c-0.08,-0.09 -0.12,-0.17 -0.16,-0.25 -0.13,-0.21 -0.21,-0.33 -0.33,-0.54 -0.09,-0.16 -0.21,-0.33 -0.34,-0.49 -0.12,-0.17 -0.24,-0.33 -0.37,-0.5l-0.37 -0.45c-0.62,-0.67 -1.61,-1.49 -2.48,-1.66 -0.95,-0.2 -1.53,1.16 -1.57,1.78 -0.12,-0.21 -0.29,-1.57 -1.45,-3.31 -0.04,-0.08 -0.04,-0.04 -0.04,-0.24 0,-0.13 0.04,-0.42 0.04,-0.54 0.17,-0.99 0.54,-1.94 1.12,-2.73 0.08,-0.12 0.17,-0.29 0.33,-0.37 0,1.53 0.58,4.13 2.03,4.71 0.95,0.37 1.77,-0.04 2.1,-0.99 0.17,-0.42 0.25,-0.91 0.25,-1.45 0,-0.29 0,-0.58 -0.04,-0.87 -0.04,-0.24 -0.08,-0.49 -0.08,-0.74 0.16,0.04 0.29,0.21 0.45,0.29 1.12,0.58 1.74,-0.46 1.94,-1.45 0.13,-0.45 0.13,-0.82 0.13,-1.36 0.04,0.04 0,0 0.04,0.08 0.21,0.29 0.33,0.66 0.5,0.99 0.45,0.87 0.82,1.82 1.19,2.69l1 2.35c1.69,4.22 3.18,8.6 4.79,12.9 0.21,0.54 0.37,1.07 0.58,1.61 0.21,0.58 0.41,1.08 0.58,1.65 0.29,0.83 0.62,1.62 0.91,2.4 0.04,0.17 0.16,0.75 0.33,0.79 0,-0.5 0.25,0.04 -0.13,-0.91 -0.04,-0.17 -0.08,-0.29 -0.16,-0.46 -0.46,-1.24 -1.08,-2.89 -1.45,-4.13 -0.2,-0.58 -0.45,-1.16 -0.66,-1.82l-3.8 -11.12c-0.37,-1.07 -0.75,-2.1 -1.16,-3.18l-0.54 -1.36c-0.08,-0.29 -0.2,-0.58 -0.29,-0.87 -0.62,-1.69 -1.32,-3.27 -2.02,-4.88 -0.04,-0.16 -0.12,-0.29 -0.12,-0.49 -0.05,-0.42 -0.05,-3.43 0.82,-2.61 0.21,0.21 0.37,0.46 0.54,0.75 0.25,0.37 0.45,0.78 0.62,1.2l0.58 1.32c0.04,0.16 0.08,0.33 0.16,0.45l0.91 2.23c0.87,2.24 1.78,4.47 2.52,6.74 0.62,1.94 1.41,4.09 2.11,6.04l1.9 5.53c0.13,0.29 0.21,0.58 0.33,0.91 0.04,0.33 0.21,0.66 0.29,0.95 0.08,-0.04 0.08,-0.12 0.17,-0.2 0.08,-0.21 -0.09,-0.42 -0.17,-0.75l-0.74 -2.15c-0.08,-0.33 -0.21,-0.7 -0.33,-1.11l-4.22 -12.94c-0.37,-1.07 -0.7,-2.11 -1.11,-3.18l-1.57 -4.17c-0.17,-0.5 -0.25,-0.67 -0.25,-1.16l-0.04 -1.41c0,-0.82 0.2,-1.57 0.99,-1.86 1.15,-0.37 2.02,0.91 2.35,1.82 0.21,0.66 0.21,1.74 -0.41,2.23 -0.08,-0.45 -0.37,-0.78 -0.79,-0.82 -0.24,0 -0.49,0.08 -0.57,0.2 -0.13,0.13 -0.17,0.38 -0.17,0.66 0.04,0.42 0.29,0.87 0.58,1.04 0.95,0.62 2.23,-0.66 2.23,-2.36 0,-0.95 -0.04,-1.9 -0.49,-2.68l-0.38 -0.62c-0.08,-0.17 0,-0.38 0.05,-0.5 0.04,-0.5 0.16,-0.91 0.33,-1.28 0.08,-0.21 0.16,-0.37 0.24,-0.54 0.09,-0.16 0.21,-0.37 0.38,-0.45 0.78,-0.71 1.52,-0.25 2.06,0.49 0.13,0.17 0.21,0.33 0.29,0.54 0.37,0.91 0.79,2.52 -0.08,3.1 0.04,-0.25 0.08,-0.37 -0.04,-0.7 -0.17,-0.58 -1.08,-0.91 -1.37,-0.21 -0.33,0.79 0.33,1.78 1.16,1.86 0.21,0.04 0.5,-0.08 0.62,-0.12 0.5,-0.29 0.79,-0.91 0.95,-1.45 0.29,-1.16 0.17,-2.31 -0.29,-3.39 -0.2,-0.54 -0.12,-0.62 0.04,-1.2 0.09,-0.2 0.13,-0.41 0.17,-0.62 0.12,-0.33 0.29,-0.78 0.49,-1.07 0.42,-0.5 0.62,-0.09 0.83,0.33 0.58,1.16 0.99,3.55 0.99,5.33 0.09,-0.08 0.42,-0.91 0.54,-1.07 0.41,-0.71 0.25,-1.08 0.04,-1.78 -0.08,-0.37 -0.25,-1.08 -0.25,-1.41 0.05,-0.91 0.25,-1.94 0.62,-2.77 0.17,-0.45 0.54,-0.95 1.08,-1.07 0.49,-0.17 0.99,0.7 1.16,1.03 0.41,0.79 1.03,2.85 0,3.35 -0.09,-0.37 -0.05,-1.16 -0.83,-1.07 -0.79,0.08 -0.87,1.86 0.04,2.1 1.32,0.38 2.31,-1.48 2.31,-2.85 0,-0.87 -0.16,-1.61 -0.41,-2.27 -0.12,-0.37 -0.04,-0.37 0.21,-0.95 0.25,-0.46 0.58,-1.32 1.03,-1.61 0.41,-0.21 0.54,0.29 0.62,0.57 0.54,1.53 0.66,3.43 0.83,5.09l0.25 2.81c0.04,0.49 0.08,1.07 0.08,1.57l0.04 1.28c0.08,0.37 0,0.91 0.04,1.28 0.08,0.79 -0.04,1.9 0.04,2.61l0.17 7.81c0.12,0 0.12,0 0.2,-0.09 0.09,-0.04 0.13,-0.08 0.21,-0.12l-0.08 -0.99c-0.04,-0.54 -0.04,-1.94 -0.04,-2.61 0,-0.24 0,-0.33 -0.04,-0.49 -0.05,-0.7 0,-1.45 0.04,-2.07 0.04,-0.62 0,-1.49 0,-2.15 0,-0.33 0.04,-0.62 0.04,-0.95l0 -3.22c0,-0.41 -0.04,-0.62 -0.04,-0.99 0,-0.38 0,-0.75 0,-1.08l-0.09 -2.02c-0.04,-0.17 0,-0.33 -0.04,-0.5 -0.04,-0.29 0.13,-0.41 0.33,-0.66 0.13,-0.12 0.17,-0.17 0.29,-0.29 0.42,-0.54 1.24,-0.99 1.86,-1.28 0.58,-0.25 1.49,-0.46 2.36,-0.83 0.49,-0.2 0.95,-0.45 1.4,-0.7 0.5,-0.29 1.08,-0.66 1.53,-1.07 0.29,-0.29 0.54,-0.46 0.79,-0.83 0.37,-0.46 0.54,-0.87 0.66,-1.49 -0.33,0.29 -0.41,0.87 -1.94,1.53 -0.13,0.04 -0.25,0.08 -0.37,0.12 0.04,-0.24 0.62,-1.36 0.86,-2.39 0.17,-0.83 0.33,-1.99 -0.29,-2.69 -0.24,-0.25 -0.62,-0.5 -1.15,-0.41 -1.04,0.2 -2.48,2.06 -2.57,2.39l-0.04 0c-0.12,-0.49 -1.32,-1.69 -2.81,0.34 -0.58,0.78 -0.99,1.77 -1.28,2.76 -0.04,0.09 -0.04,0.13 -0.08,0.21 -0.04,0.17 0,0.17 -0.08,0.21 0,-0.54 -0.17,-2.4 -0.91,-2.48 -0.33,0 -0.54,0.29 -0.71,0.49 -0.33,0.38 -1.52,2.48 -1.65,2.9 0,0 0,0 -0.04,-0.04 0,-0.05 -0.04,-0.09 -0.04,-0.13 -0.66,-1.28 -1.74,-1.28 -2.69,-0.16 -0.58,0.66 -0.87,1.61 -1.07,2.52 -0.09,0.29 -0.17,0.7 -0.17,1.03l-0.04 0c0,-0.41 -0.21,-1.12 -0.37,-1.49 -0.17,-0.45 -0.41,-0.91 -0.95,-0.62 0,-0.45 -0.13,-0.82 -0.13,-1.24 0,-1.53 0,-2.15 0.29,-3.63 0.29,-1.37 0.75,-2.73 1.57,-3.81 0.46,-0.45 0.87,-0.91 1.53,-1.11 1.74,-0.75 2.9,1.32 1.86,2.39 -0.58,0.58 -1.65,0.46 -1.69,-0.16 0.29,-0.04 0.58,-0.33 0.78,-0.5 0.21,-0.24 0.21,-0.78 0,-0.99 -0.2,-0.25 -0.45,-0.41 -0.91,-0.29 -1.11,0.29 -1.36,1.57 -0.78,2.48 0.78,1.32 2.77,0.7 3.39,-0.33 0.54,-0.78 0.7,-2.11 0.16,-3.06 -0.08,-0.12 -0.16,-0.29 -0.24,-0.37 -0.05,-0.08 -0.09,-0.12 -0.17,-0.21l-0.29 -0.33c-0.21,-0.16 -0.41,-0.29 -0.66,-0.37 -1.57,-0.45 -3.14,1.28 -3.76,2.56 -0.66,1.24 -1.12,2.48 -1.37,3.93 -0.04,0.33 -0.12,0.7 -0.16,1.12 -0.04,0.12 -0.04,0.33 -0.04,0.53 0,0.21 -0.04,0.42 -0.08,0.62l-0.05 1.24c0,0.5 0.05,0.87 0.05,1.29 0,0.82 0.24,0.78 -0.05,1.36 -0.29,0.7 -0.53,1.45 -0.78,2.19 -0.04,0.12 -0.13,0.37 -0.17,0.5 -0.91,-1.04 -1.94,-1.33 -2.97,-0.29 -0.58,0.57 -0.87,1.53 -1.16,2.31 -0.04,0.21 -0.21,0.7 -0.21,0.95 -0.24,-0.08 -0.74,-0.66 -1.44,-0.58 -0.62,0.09 -0.99,0.33 -1.24,0.79 -0.25,0.41 -0.42,0.99 -0.5,1.53 -0.08,0.62 -0.21,1.2 -0.21,1.9l-0.16 -0.33c-0.12,-0.29 -0.33,-0.58 -0.54,-0.79 -0.45,-0.41 -0.82,-0.33 -1.07,0.25 -0.25,0.66 -0.29,1.57 -0.37,2.31 0,0.17 0,0.34 0,0.46 0,0.16 -0.05,0.25 -0.05,0.45 -0.16,-0.24 -0.28,-1.15 -0.33,-1.4 -0.08,-0.5 0,-0.99 -0.12,-1.65 -0.08,0.12 -0.04,0 -0.08,0.2l-0.25 0.7c-0.25,0.58 -0.66,1.04 -1.08,1.49l-1.28 1.28c-0.12,0.13 -0.2,0.17 -0.33,0.33 -0.87,0.91 -2.35,2.86 -3.06,3.93 -0.16,0.25 -0.28,0.5 -0.45,0.79 -0.62,1.28 -0.95,2.64 -0.95,4.17 -0.54,-0.12 -0.95,-0.33 -1.45,0.08 -0.91,0.79 -0.87,3.76 -0.78,4.84 -0.09,-0.08 -0.13,-0.13 -0.29,-0.21 -0.08,-0.04 -0.21,-0.12 -0.33,-0.16 -0.95,-0.29 -1.57,0.58 -1.82,1.28 -0.29,0.78 -0.21,1.98 -0.08,2.85 0.08,0.29 0.16,0.58 0.2,0.87 -0.82,-0.62 -1.77,-0.37 -1.94,0.82 -0.08,1.08 0.08,2.28 0.29,3.15 -0.08,-0.05 -0.12,-0.17 -0.21,-0.21 -0.08,-0.13 -0.12,-0.17 -0.2,-0.25 -0.13,-0.12 -0.33,-0.33 -0.58,-0.33 -0.37,0 -0.42,0.95 -0.42,1.41 0,0.62 0.05,1.03 0.13,1.65l0.25 1.11c0.04,0.13 0.12,0.21 0.12,0.33l0 0 0 0zm64.81 -61l0.12 0c1.57,0.04 2.56,1.2 1.94,2.85 -1.07,2.65 -4.59,2.32 -4.59,0.62 0,-0.7 0.42,-1.57 1.04,-1.86 0.45,-0.2 1.24,-0.08 1.36,0.5 0.17,0.78 -0.74,1.32 -1.4,1.36 0.12,0.17 0.33,0.21 0.49,0.29 0.17,0.08 0.33,0.13 0.58,0.17 1.12,0.16 2.11,-1.24 1.12,-2.23 -1.12,-1.12 -3.02,-0.33 -4.05,0.62l-0.38 0.37c-0.37,0.33 -0.74,0.66 -1.07,1.07 -0.54,0.66 -1.07,1.32 -1.57,2.07l-1.28 2.23c-0.08,0.17 -0.37,0.87 -0.37,1.03 0.2,-0.08 1.28,-0.2 1.61,-0.24l1.73 0c0.5,0 1.2,0.08 1.74,0.12 0.58,0.04 1.24,-0.04 1.69,-0.12 0.54,-0.09 0.96,-0.25 1.37,-0.46 0.21,-0.12 0.41,-0.21 0.62,-0.33 0.45,-0.17 0.91,-0.33 1.4,-0.37l0.79 -0.08c0.58,-0.09 1.16,0.08 1.69,0.08 0.79,-1.49 1.74,-2.81 2.69,-4.18 0.12,-0.08 0.17,-0.16 0.29,-0.29l0.7 -0.82c0.37,-0.33 0.7,-0.7 1.12,-0.99 0.99,-0.79 2.27,-1.24 3.43,-0.5 0.12,0.08 0.2,0.12 0.29,0.21 0.16,0.12 0.16,0.16 0.33,0.25 0.78,-0.42 1.49,-0.79 2.48,-1.04 0.99,-0.2 1.94,-0.16 2.73,0.58 0.99,0.99 0.28,2.77 -0.62,3.68 -0.54,0.58 -1.62,1.2 -2.4,1.07 -1.45,-0.24 -2.44,-1.69 -1.24,-2.93 0.25,-0.29 0.62,-0.54 1.07,-0.62 0.5,-0.08 0.99,0.16 1.12,0.58 0.16,0.66 -0.7,1.44 -1.28,1.28 -0.29,-0.08 -0.33,-0.29 -0.5,-0.41 -0.12,0.2 -0.04,0.49 0.04,0.66 0.62,0.78 1.99,0.66 2.57,-0.13 0.78,-1.07 -0.21,-2.35 -1.45,-2.52 -1.53,-0.21 -2.77,0.5 -3.89,1.32 -0.12,0.13 -0.24,0.25 -0.41,0.33l-0.83 0.75c-0.24,0.21 -0.49,0.45 -0.7,0.74 -1.03,0.99 -2.02,2.11 -2.68,3.35 0.33,0 1.23,0.25 1.9,0.29 0.2,0 0.29,0.04 0.49,0.04 0.21,0 0.37,0 0.54,0 0.37,0 0.7,-0.04 0.99,-0.08 0.66,-0.08 1.2,-0.25 1.61,-0.54 0.21,-0.12 0.46,-0.45 0.62,-0.49l0.87 -0.17c-0.16,0.29 -0.78,0.79 -1.07,0.95 -1,0.66 -2.03,1.12 -3.27,1.28 -0.45,0.04 -0.91,0 -1.36,0 -0.04,0.13 -0.17,0.29 -0.21,0.41l-2.23 4.22c-0.79,1.53 -1.53,3.1 -2.27,4.67l-1.57 3.1c-0.25,0.5 -0.54,0.99 -0.79,1.53l-1.4 2.69c-0.09,0.12 -0.13,0.24 -0.21,0.37l-0.99 1.9c-0.09,0.12 -0.17,0.21 -0.25,0.33l-0.83 1.53c-0.04,0.12 -0.12,0.21 -0.2,0.37l-0.42 0.75c-0.04,0.12 -0.12,0.2 -0.2,0.37 -0.34,0.62 -0.67,1.24 -1.04,1.86 -0.08,0.16 -0.12,0.16 -0.37,0.16l3.06 -5.83c0.12,-0.2 0.25,-0.41 0.37,-0.62l0.66 -1.32c0.62,-1.24 1.12,-2.48 1.74,-3.72l2.19 -4.71c0.08,-0.12 0.12,-0.21 0.16,-0.33l0.79 -1.69c0.08,-0.13 0.12,-0.21 0.16,-0.33 0.09,-0.21 0.21,-0.42 0.29,-0.67 0.17,-0.29 0.91,-1.86 0.91,-2.06l-0.62 0.58c-0.62,0.49 -1.36,1.03 -2.15,1.28 -0.62,0.16 -1.44,0.33 -1.9,-0.04 -0.49,-0.42 -0.62,-0.87 -0.62,-1.74 -0.08,0.08 -0.12,0.12 -0.16,0.25 -0.5,0.54 -0.95,0.99 -1.45,1.53l-0.45 0.37c-0.46,0.37 -0.95,0.74 -1.49,1.03 0,0.17 0.08,0.25 0.08,0.42 0.08,0.9 -0.21,1.86 -0.7,2.56 -0.5,0.74 -1.12,1.44 -1.9,1.86 -1.33,0.74 -3.1,0.99 -4.43,0.16 -0.74,-0.45 -1.48,-1.11 -1.81,-1.94 -0.17,-0.37 -0.33,-1.12 -0.33,-1.57 0.08,-1.12 0.49,-2.03 0.95,-2.81 0.24,-0.37 0.49,-0.74 0.78,-1.12 0.25,-0.33 0.5,-0.7 0.83,-1.03l1.4 -1.4c0.13,-0.13 0.33,-0.34 0.46,-0.46 -2.03,0 -3.56,0.87 -4.88,2.23 -0.16,0.17 -0.12,0.25 -0.16,0.54 0,0.7 -0.21,1.53 -0.46,2.11 -0.37,0.95 -1.49,2.77 -2.69,2.35 -0.33,-0.12 -0.62,-0.33 -0.66,-0.7 -0.04,-0.16 -0.04,-0.45 0,-0.58 0.04,-0.25 0.09,-0.29 0.17,-0.41 0.62,-0.7 1.24,-0.17 1.4,0.58 0.58,-0.17 1,-1.2 1.08,-1.78 0.08,-0.74 0.2,-1.86 -0.21,-2.4 -0.54,-0.7 -1.57,-0.04 -2.11,0.46l-0.29 0.33c-0.49,0.62 -0.86,1.28 -1.19,2.02 -0.46,1.04 -0.71,2.15 -0.87,3.31 -0.21,1.65 -0.46,3.26 -0.7,4.88 -0.83,4.75 -1.74,9.5 -2.44,14.38l-0.5 3.68c0,0.25 -0.04,0.41 -0.04,0.66 -0.04,0.16 -0.08,0.41 -0.08,0.62 -0.13,0.04 -0.17,0.08 -0.29,0.16 0,-0.45 0.78,-6.48 0.91,-7.39 0.12,-1.2 0.29,-2.48 0.45,-3.68 0,-0.33 0.04,-0.62 0.13,-0.91 0.28,-2.11 0.66,-4.18 0.99,-6.24 0.2,-1.32 0.66,-4.09 0.78,-5.42l0.13 -1.94c0.04,-0.29 0.37,-3.51 -0.09,-3.68 -0.2,-0.08 -0.62,0.37 -0.74,0.54 -0.58,0.58 -0.58,1.12 -0.99,1.12 -0.13,-0.21 -0.13,-0.21 -0.04,-0.42 0.24,-0.7 1.24,-1.73 1.69,-2.23 0.21,-0.16 0.37,-0.41 0.62,-0.54 1.16,-0.53 0.66,1.99 0.66,2.32 0.13,-0.13 0.17,-0.33 0.25,-0.46l0.5 -0.82c0.08,-0.13 0.2,-0.25 0.24,-0.38l0.62 -0.7c0.75,-0.78 2.61,-2.06 3.39,-0.87 0.13,0.21 0.33,0.67 0.33,1 0.17,-0.05 0.25,-0.21 0.38,-0.33l0.78 -0.67c0.17,-0.08 0.25,-0.2 0.41,-0.29l1.24 -0.86c0.17,-0.09 0.29,-0.17 0.46,-0.25 0.08,-0.08 0.12,-0.13 0.25,-0.13 0.04,-0.04 0.08,-0.04 0.12,-0.08 0.04,-0.04 0.04,-0.04 0.08,-0.04l0.71 -1.45c0.08,-0.2 0.16,-0.29 0.24,-0.45 0.25,-0.5 0.5,-0.95 0.75,-1.36 1.24,-2.11 3.26,-4.8 5.62,-5.75 0.5,-0.21 0.99,-0.33 1.45,-0.33l0 0zm78.56 108.33c0.29,0.16 0.79,0.62 1.2,0.53 0.42,-0.04 0.33,-0.95 0.29,-1.36 -0.08,-0.66 -0.33,-1.49 -0.54,-2.11 -0.08,-0.2 -0.2,-0.45 -0.24,-0.66 0.29,0.21 1.65,1.74 2.1,2.23 0.09,0.08 0.09,0.13 0.17,0.17 0.45,0.53 1.65,1.98 2.07,2.56 3.3,4.63 1.94,7.15 2.02,7.52 0,0.13 0.17,0.29 0.17,0.46l0.12 0c0,-0.13 0.08,-0.33 0.12,-0.42 0.38,-1.11 0.33,-2.39 0,-3.51 -0.16,-0.62 -0.37,-1.12 -0.57,-1.69l-0.79 -1.53c-0.12,-0.25 -0.25,-0.5 -0.41,-0.75 -0.04,-0.16 -0.13,-0.25 -0.21,-0.37 -0.04,-0.08 -0.17,-0.25 -0.21,-0.37l-0.41 -0.7c-0.17,-0.25 -0.33,-0.46 -0.5,-0.67 -0.49,-0.62 -0.95,-1.19 -1.44,-1.73 -0.62,-0.79 -2.15,-2.4 -2.81,-2.94l-0.79 -0.74 -0.41 -0.74c-0.33,-0.62 -0.91,-1.9 -0.66,-2.69 0.33,-0.91 1.73,-0.7 2.52,-0.33 0.74,0.37 1.4,0.95 1.65,1.82 0.08,0.41 0,0.62 -0.08,0.99 -0.17,-0.04 -0.08,-0.04 -0.17,-0.12 -0.49,-0.38 -1.28,-0.09 -0.86,1.03 0.08,0.25 0.41,0.7 0.78,0.62 0.7,-0.08 1.24,-1.61 0.7,-3.02 -0.29,-0.78 -0.95,-1.73 -1.61,-2.27 -0.41,-0.33 -0.49,-0.41 -1.07,-0.7 -0.75,-0.38 -1.49,-0.46 -2.19,0 -1.62,1.11 0.08,3.76 0.16,4.09 -0.16,-0.13 -0.37,-0.29 -0.54,-0.46l-2.76 -2.68c-0.34,-0.25 -1.62,-1.53 -1.95,-1.86 -0.12,-0.09 -0.16,-0.17 -0.29,-0.25 -0.33,-0.37 -0.74,-0.79 -1.07,-1.08 -0.37,-0.28 -1.03,-0.99 -1.41,-1.36 -0.08,-0.08 -0.16,-0.16 -0.29,-0.25l-2.64 -2.77c-0.08,-0.08 -0.21,-0.16 -0.25,-0.29 -0.12,-0.08 -0.16,-0.16 -0.29,-0.24 -0.2,-0.21 -0.33,-0.42 -0.49,-0.58l-4.1 -4.59c-0.28,-0.29 -0.82,-1.03 -1.07,-1.2 0,0.58 0.08,0.46 0.45,0.91 0.09,0.08 0.09,0.12 0.13,0.17l2.69 3.14c0.12,0.08 0.12,0.08 0.16,0.16 0.37,0.33 0.62,0.75 0.95,1.12l1.78 1.98c0.08,0.04 0.08,0.08 0.12,0.17l4.47 4.79c0.7,0.66 1.4,1.32 2.02,2.03 0.41,0.49 2.23,2.23 2.73,2.72l1.69 1.7c0.13,0.16 0.21,0.25 0.33,0.37 0.87,0.87 1.29,1.16 1.78,2.32 0.25,0.62 0.66,1.57 0.21,2.19 -0.46,-0.17 -0.87,-0.67 -1.16,-0.95 -0.78,-0.79 -1.69,-1.62 -2.4,-2.53 -0.2,-0.2 -0.37,-0.45 -0.53,-0.78 -0.05,-0.17 0,-0.08 -0.13,-0.17 -0.12,0.62 0.29,1.45 0.5,1.82 0.29,0.5 0.7,0.91 1.07,1.37 0.87,0.95 2.07,2.52 2.03,3.92 0,0.29 -0.17,0.75 -0.33,0.87 -0.46,0.45 -1.24,-0.08 -1.66,-0.37 -0.24,-0.17 -0.49,-0.33 -0.7,-0.5 -0.78,-0.66 -1.28,-1.28 -0.99,-2.52 0.25,0.21 0.58,0.66 0.99,0.46 0.79,-0.46 0.29,-1.62 -0.7,-1.7 -0.5,0 -0.79,0.29 -0.95,0.66 -0.33,0.75 -0.08,1.9 0.2,2.57 0.42,1.03 1.12,1.94 2.07,2.56 0.37,0.2 0.37,0.33 0.66,0.95 0.09,0.25 0.29,0.87 0.17,1.28 -0.25,1.57 -2.28,0.33 -2.94,-0.17 -0.24,-0.12 -0.41,-0.33 -0.58,-0.53 -0.08,-0.09 -0.12,-0.13 -0.16,-0.25 -0.29,-0.46 -0.33,-0.66 -0.21,-1.2 0.13,0.04 0.29,0.25 0.46,0.37 0.78,0.42 1.2,-0.41 0.62,-1.15 -0.71,-0.87 -1.57,-0.38 -1.74,0.7 -0.2,1.11 0.58,2.31 1.16,3.01 0.25,0.34 0.54,0.62 0.83,0.83 0.2,0.17 0.37,0.25 0.53,0.37 0,0.5 0.13,0.91 0.17,1.41 0,0.21 0.08,0.49 0.08,0.7 0.04,0.54 0.12,1.61 -0.66,1.61 -0.41,0 -0.79,-0.2 -1.08,-0.49 -0.82,-0.75 -1.57,-1.78 -1.98,-2.85 -0.12,-0.34 -0.33,-0.75 -0.41,-1.12 -0.13,0.04 -0.13,0.21 -0.17,0.29 -0.08,0.16 -0.04,0.21 0.04,0.33 0.05,0.25 0.13,0.5 0.17,0.74 0.08,0.54 0.08,1.2 -0.21,1.53 -0.37,0.46 -0.78,0.33 -1.36,0.13 -0.41,-0.13 -0.83,-0.33 -1.2,-0.62 -1.78,-1.2 -2.73,-3.23 -3.68,-5.09l-0.74 -1.57c-0.25,-0.62 -1.32,-2.68 -1.49,-3.18l-1.16 -2.52c-0.08,-0.08 -0.08,-0.21 -0.12,-0.33 -0.21,-0.46 -0.62,-1.2 -0.7,-1.66 -0.13,0.09 -0.13,0.17 -0.17,0.34 0,0.16 0.04,0.24 0.12,0.37 0.09,0.25 0.13,0.41 0.25,0.66 0.09,0.21 0.21,0.41 0.29,0.66l1.37 3.31c0.12,0.2 0.16,0.37 0.29,0.62 0.33,0.86 0.74,1.73 1.11,2.56 0.7,1.36 1.49,3.06 2.36,4.26 0.12,0.16 0.25,0.33 0.37,0.49 0.12,0.21 0.25,0.37 0.41,0.58 0.33,0.41 0.62,0.91 0.99,1.28 0.17,0.17 0.29,0.33 0.46,0.46 0.12,0.08 0.16,0.16 0.29,0.24 0.08,0.09 0.33,0.29 0.49,0.42 1.08,0.62 1.86,0.29 2.44,-0.66 0.13,-0.21 0.21,-0.46 0.37,-0.62 0.17,0.78 0.79,1.73 1.33,2.23 0.24,0.29 0.16,1.24 0.12,1.61 -0.08,0.87 -0.33,1.65 -0.62,2.4 -0.08,0.29 -0.29,0.62 -0.33,0.87 -0.16,-0.05 -0.08,-0.09 -0.12,-0.29 0,-0.13 -0.05,-0.25 -0.05,-0.33 -0.08,-0.67 -0.28,-1.29 -0.49,-1.86 -0.5,-1.12 -1.45,-2.2 -2.77,-1.82 -0.37,0.08 -0.7,0.37 -0.83,0.74 -0.45,1.12 -0.16,1.94 -0.04,2.77 -0.37,0 -1.16,-0.5 -1.82,0.45 -0.29,0.46 -0.45,1.24 -0.45,2.03 -0.17,-0.21 -0.62,-1.2 -0.7,-1.41l-0.54 -1.07c-0.08,-0.17 -0.08,-0.21 -0.17,-0.33 -0.08,-0.29 -0.24,-0.5 -0.33,-0.79l-3.39 -8.34c-0.49,-1.29 -1.07,-2.48 -1.61,-3.72 -0.08,-0.17 -0.12,-0.21 -0.16,-0.38 -0.71,-1.61 -1.45,-3.22 -2.15,-4.83l-0.62 -1.49c-0.17,-0.25 -0.25,-0.45 -0.33,-0.74 -0.13,-0.21 -0.33,-0.54 -0.33,-0.75 -0.13,0.09 -0.17,0.33 -0.13,0.46 1.32,3.01 2.61,6.03 3.85,9.09 0.29,0.62 0.53,1.24 0.82,1.9 0.25,0.62 0.5,1.28 0.79,1.94l4.25 10.67c0.13,0.33 0.25,0.62 0.38,0.99l1.32 3.43c0.08,0.12 0.16,0.33 0.21,0.49 0.04,0.29 0.08,2.15 0.37,2.36 0,-0.66 1.24,-2.11 1.69,-2.69 0.66,-0.82 1.32,-1.61 1.94,-2.43 1.33,-1.82 2.44,-3.81 2.69,-6.12 0.13,-0.7 0.08,-1.65 -0.04,-2.32 0.08,0 0.21,0.13 0.33,0.17 0.33,0.16 0.83,0.29 1.2,0.08 0.37,-0.25 0.7,-0.74 0.7,-1.36 0,-0.66 -0.04,-1.28 -0.16,-1.9l-0.25 -1.78c0.37,0.08 1.32,0.7 2.06,-0.08 0.79,-0.75 0.09,-3.06 -0.24,-3.72 0.33,0.08 0.82,0.37 1.32,-0.04 0.33,-0.25 0.41,-0.75 0.41,-1.33 0,-0.78 -0.2,-1.69 -0.49,-2.43 -0.04,-0.13 -0.09,-0.17 -0.13,-0.29l0 0zm-37.23 45.54c0.2,-0.37 0.49,-0.66 0.74,-1.03 1.24,-1.86 2.02,-4.55 1.16,-6.74 -0.17,-0.37 -0.42,-0.78 -0.62,-1.07 -0.25,-0.25 -0.46,-0.46 -0.66,-0.66 -0.83,-0.67 -2.03,-0.79 -3.1,-0.38 -0.79,0.33 -1.45,0.83 -2.07,1.45 -0.62,0.62 -1.08,1.24 -1.45,2.03 -0.16,0.33 -0.37,0.9 -0.41,1.32 -0.04,0.41 -0.08,1.28 0.08,1.57 -0.29,0.08 -0.66,0.37 -0.82,0.54 -0.54,0.45 -1.41,1.86 -1.49,2.56 -0.17,-0.17 -0.83,-2.36 -2.73,-0.46l-0.37 0.42c-0.08,0.12 -0.25,0.37 -0.37,0.49 0.12,-0.45 0.2,-0.91 0.29,-1.4 0.49,-2.32 1.03,-4.63 1.57,-6.95l0.91 -4.17c0.04,-0.45 0.16,-0.95 0.28,-1.41l0.54 -2.81c0.13,-0.49 0.25,-0.9 0.33,-1.4l0.95 -4.18c-0.04,0 -0.16,0.09 -0.2,0.13 -0.17,0.12 -0.21,0.54 -0.25,0.74 -0.08,0.33 -0.21,0.66 -0.25,1.04 -0.21,0.74 -0.41,1.4 -0.58,2.15 -0.08,0.33 -0.16,0.62 -0.25,0.99 -0.45,1.77 -0.95,3.55 -1.32,5.33 -0.33,1.49 -0.66,2.85 -1.03,4.3 -0.54,2.15 -1.04,4.34 -1.45,6.53 -0.25,1.36 -0.91,4.34 -1.65,5.62 -0.13,0.2 -0.25,0.2 -0.46,0.25 -1.11,0.37 -2.68,1.32 -3.34,2.27 -0.34,0.45 -0.75,1.03 -0.75,1.65 0.33,-0.08 0.58,-0.37 0.79,-0.49 0,-0.71 0.49,-1.16 0.99,-1.49 0.21,-0.08 0.33,-0.21 0.58,-0.25 0.66,-0.29 1.86,-0.66 2.64,-0.66 -0.04,0.45 -0.99,2.6 -1.2,3.06l-0.2 0.45c-0.13,0.17 -0.17,0.33 -0.29,0.5 -0.17,0.29 -0.29,0.58 -0.5,0.87 -0.41,0.57 -0.78,1.11 -1.24,1.57 -0.49,0.49 -0.95,0.95 -1.53,1.32 -0.66,0.41 -1.28,0.74 -2.1,0.62 -1.16,-0.17 -2.03,-1.49 -1.08,-2.4 0.25,-0.2 0.62,-0.37 1.12,-0.29 0.29,0.04 0.74,0.33 0.91,0.54 -0.67,-0.17 -1.45,0.41 -1.33,1.12 0.09,0.66 1.04,0.78 1.62,0.29 1.65,-1.58 -0.62,-3.35 -2.24,-2.48 -0.41,0.24 -0.74,0.57 -1.03,0.9 -1.28,1.99 -0.04,3.97 2.19,3.68 0.62,-0.04 1.41,-0.41 1.82,-0.7 0.58,-0.33 0.95,-0.7 1.11,-0.78 0.17,-0.13 0.29,0.04 0.5,0.08 0.95,0.2 2.03,-0.42 2.69,-1.04 0.37,-0.28 0.66,-0.62 0.95,-0.95 0.08,-0.12 0.2,-0.24 0.29,-0.37l0.37 -0.54c0.21,-0.37 0.41,-0.66 0.58,-1.07 0.37,-0.91 0.66,-1.94 0.91,-2.89 0.2,-0.66 0.41,-1.33 0.58,-2.03 0.37,0 1.4,-0.58 1.86,-0.82l1.4 -0.91c0.83,-0.67 1.61,-1.49 1.94,-2.48 0.09,-0.25 0.25,-0.75 0.25,-1.08 -0.08,0.08 -0.25,0.37 -0.33,0.54 -0.12,0.16 -0.25,0.37 -0.41,0.54 -0.04,0.08 -0.13,0.16 -0.17,0.24 -0.78,0.87 -1.61,1.58 -2.64,1.99 -0.17,0.08 -0.25,0.08 -0.33,0.12l0.33 -0.82c0.08,-0.33 0.12,-0.62 0.24,-0.95 0.38,-1.45 0.75,-3.06 1.78,-4.14 0.17,-0.12 0.5,-0.45 0.75,-0.45 0.04,0.58 0.7,1.2 1.19,1.4 0.29,0.13 0.67,0.21 1.12,0.17 0.95,-0.17 1.07,-1.04 0.83,-1.7 -0.42,-0.82 -1.41,-1.07 -2.28,-0.82 -0.16,0 -0.37,0.12 -0.49,0.16 0,-0.54 -0.29,-0.87 0,-1.9 0.12,-0.54 0.41,-1.03 0.74,-1.4l0.37 -0.33c1.08,-0.96 2.61,-1.74 4.05,-1.24 1.62,0.57 2.4,2.52 2.15,4.21 -0.16,1.16 -0.37,2.07 -1.15,3.06 -0.17,0.29 -0.42,0.62 -0.67,0.87 -0.28,0.29 -0.9,0.82 -1.28,0.82 -0.2,0.05 -0.37,0.05 -0.53,0.05 -0.62,0.12 -1.12,0.24 -1.62,0.45 -1.11,0.5 -2.27,1.57 -2.52,2.81 -0.12,0.5 0,0.5 0,0.91 0.13,-0.04 0.75,-0.99 0.79,-1.12 0,-0.24 -0.04,-0.37 0.04,-0.57 0.25,-0.54 1.03,-0.79 1.69,-0.87 1.24,-0.21 2.44,-0.46 3.64,-0.83 0.13,-0.04 0.37,-0.16 0.54,-0.16 -0.37,1.57 -0.7,3.1 -1.37,4.5 -0.16,0.37 -0.28,0.66 -0.45,0.99 -0.12,0.17 -0.17,0.33 -0.25,0.5 -0.08,0.08 -0.08,0.12 -0.12,0.2 -0.08,0.09 -0.13,0.17 -0.17,0.25 -0.29,0.54 -0.62,1.08 -1.03,1.53 -0.04,0.08 -0.08,0.13 -0.17,0.21 -0.37,0.45 -1.11,1.07 -1.73,1.16 -1.41,0.24 -2.44,-1 -1.86,-2.11 0.21,-0.46 0.29,-0.58 0.74,-0.79 0.29,-0.12 0.83,-0.25 1.24,-0.12 0.37,0.12 0.54,0.45 0.54,0.95 -0.17,-0.04 -0.25,-0.17 -0.5,-0.21 -0.66,-0.16 -1.11,0.37 -1.07,0.99 0.08,0.79 1.12,1 1.78,0.34 0.62,-0.62 0.86,-2.4 -0.29,-2.86 -0.42,-0.12 -0.75,-0.2 -1.2,-0.04 -0.7,0.17 -1.28,0.62 -1.65,1.2 -0.34,0.46 -0.58,1.49 -0.5,2.27 0.21,1.91 2.52,2.15 4.3,0.38 0.41,-0.38 0.82,-0.83 1.16,-1.33 0.04,-0.12 0.04,-0.12 0.12,-0.2 0.37,-0.58 0.7,-1.2 1.03,-1.82 0.08,-0.17 0.13,-0.33 0.25,-0.5l0.58 -1.53c0.04,-0.16 0.12,-0.33 0.21,-0.49 0.04,-0.17 0.08,-0.37 0.16,-0.54 0.29,-0.91 0.5,-1.94 0.62,-2.93 0.04,-0.34 0.04,-0.25 0.33,-0.38 0.62,-0.29 1.37,-0.86 1.86,-1.36 0.37,-0.46 0.75,-0.91 1.03,-1.45 0.17,-0.29 0.25,-0.62 0.42,-0.91l0 -0.04c0.12,0.33 0.78,1.04 1.11,1.08 0.46,0.04 1.08,-0.58 1.28,-0.91 0.62,-0.79 1.04,-1.9 1.24,-2.94 0.05,-0.16 0,-0.08 0.09,-0.2 0,0.41 0.16,0.86 0.25,1.24 0.08,0.16 0.12,0.33 0.16,0.53 0.12,0.25 0.17,0.33 0.33,0.42 0.13,0 0.17,-0.09 0.25,-0.13 0.21,-0.16 0.5,-0.53 0.62,-0.78 0.25,-0.37 0.45,-0.79 0.66,-1.2 0.33,-0.87 0.66,-1.82 0.91,-2.77 0,0 0,0 0,0.04 0,0 0,0.04 0.04,0.04 0,0.04 0,0.09 0,0.09 0,0.04 0,0.16 0,0.2l0.25 1.2c0.08,0.62 -0.08,1.28 -0.08,1.86 0.24,-0.29 0.24,-0.45 0.62,-0.83 0.33,-0.24 0.58,-0.41 0.86,-0.62 1.2,-0.78 2.44,-1.36 3.15,-2.68 0.08,-0.17 0.16,-0.25 0.24,-0.46 0.09,-0.2 0.17,-0.33 0.21,-0.58 0.12,-0.24 0.25,-0.86 0.25,-1.19l0.12 0.12c0.17,0.29 0.37,0.7 0.71,0.74 0.41,0.09 0.78,-0.45 0.99,-0.7 0.58,-0.7 0.58,-1.9 0.58,-2.81l-0.09 0c0,0.54 -0.99,3.51 -2.19,0.62 -0.12,-0.29 -0.87,-2.15 -0.82,-2.52 0,-0.08 0.12,-0.41 0.2,-0.5 0.21,-0.45 0.46,-0.29 0.83,-0.08l0.33 0.33c0.45,0.46 0.91,0.95 1.28,1.37 0.12,0.12 0.21,0.2 0.33,0.37 0.29,0.29 1.03,1.11 1.45,1.2 0.54,0.08 0.7,-1.57 0.78,-1.9 0.04,-0.34 0.13,-0.87 0.13,-1.2 0.12,0.04 0.12,0.12 0.25,0.2 2.06,1.7 2.27,-1.86 2.23,-3.22 -0.04,-0.29 -0.13,-0.62 -0.13,-0.91 0.13,0.12 0.21,0.29 0.29,0.46l0.79 1.69c1.69,3.6 2.89,7.52 1.65,11.49 -0.37,1.2 -0.99,2.4 -1.98,3.06 -0.17,0.16 -0.29,0.2 -0.46,0.33l0 0.78c2.19,-1.15 3.1,-3.96 3.43,-6.32 0.04,-0.45 0.13,-0.91 0.17,-1.32 0,-0.25 0.04,-0.25 0.04,-0.46 0,-1.61 0,-1.98 -0.33,-3.55 -0.37,-1.65 -0.95,-3.23 -1.65,-4.75l-0.5 -1c-0.41,-0.91 -0.91,-1.69 -1.41,-2.48 -0.24,-0.45 -1.19,-2.15 -1.19,-2.72 -0.17,0.12 -0.29,0.49 -0.29,0.74 -0.05,0.33 0.08,0.7 0.16,0.91 0.37,1.2 0.79,2.11 0.79,3.39 0.04,0.82 0.04,2.11 -0.5,2.64 -0.54,0.5 -1.65,-0.74 -1.9,-1.11 -0.17,-0.21 -0.29,-0.42 -0.41,-0.66 -0.38,-0.71 -0.38,-1.86 0.33,-2.32 0.04,0.87 1.03,1.32 1.2,0.5 0.2,-0.95 -0.87,-2.4 -1.95,-0.58 -0.24,0.41 -0.33,0.87 -0.41,1.36 -0.08,0.87 0.29,1.95 0.7,2.73 0.13,0.25 0.54,0.83 0.83,0.91 0,0.37 -0.12,0.79 -0.17,1.16 -0.12,0.82 -0.86,0.33 -1.32,0 -0.04,-0.09 -0.12,-0.13 -0.21,-0.17 -0.04,-0.08 -0.08,-0.12 -0.16,-0.16l-0.5 -0.5c-0.37,-0.37 -0.95,-1.07 -1.36,-1.32 -0.29,-0.17 -0.66,-0.29 -0.99,-0.08 -0.25,0.08 -0.42,0.28 -0.54,0.45l-0.16 0.21c0,-0.17 -0.05,-0.33 -0.09,-0.5l-0.33 -1.32c-0.16,-0.62 -0.33,-1.2 -0.49,-1.82 -0.87,-3.55 -1.82,-7.11 -2.48,-10.7 -0.05,-0.17 -0.13,-0.33 -0.13,-0.5 -0.25,0.17 -0.16,0.37 -0.16,0.66 0.08,1.28 0.33,2.65 0.58,3.93 0.08,0.53 0.2,1.03 0.24,1.53 0.29,1.53 0.66,3.01 0.95,4.5 0.33,1.7 0.75,3.43 1.24,5.09 0.33,1.19 0.71,2.27 1.12,3.38 0.21,0.54 0.45,0.87 0.29,1.41 -0.21,0.78 -0.66,1.36 -1.28,1.82 -0.13,0.08 -0.17,0.16 -0.29,0.2 0,-0.45 0.33,-1.48 0.16,-2.6 -0.04,-0.62 -0.12,-1.16 -0.45,-1.65 -0.46,-0.75 -1.45,-1.33 -2.23,-0.58 -0.33,0.33 -0.99,1.28 -1.04,1.82 -0.08,-0.09 -0.08,-0.37 -0.12,-0.54l-1.36 -7.44c-0.05,-0.33 -0.13,-0.78 -0.17,-1.16 -0.16,-1.53 -0.41,-3.26 -0.58,-4.79l-0.53 -4.18c-0.05,-0.2 -0.09,-0.41 -0.13,-0.62l-0.04 0c-0.08,0.34 -0.21,0 -0.12,0.79 0.04,0.25 0.04,0.58 0.12,0.87 0,0.25 0,0.58 0.04,0.82l0.25 2.61c0.08,0.62 0.08,1.16 0.21,1.73 0.08,0.87 0.12,1.74 0.24,2.61 0.25,2.89 0.83,6.2 1.33,9.09l0.45 2.4c0,0.25 0.12,0.54 0.08,0.82 -0.24,1.12 -0.7,2.57 -1.32,3.48 -0.12,0.2 -0.21,0.37 -0.45,0.49 -0.33,-0.25 -0.46,-1.11 -0.54,-1.53 -0.12,-0.58 -0.25,-1.15 -0.37,-1.69 -0.5,-2.44 -0.87,-4.84 -1.12,-7.32 -0.04,-0.66 -0.29,-3.14 -0.33,-3.84 0,-0.62 -0.12,-1.28 -0.12,-1.9 0,-0.75 -0.25,-3.14 -0.33,-3.89 -0.17,-1.81 -0.54,-3.8 -0.67,-5.62l-0.24 -2.35c-0.04,-0.5 -0.09,-0.99 -0.09,-1.49 -0.08,0.04 -0.33,0.33 -0.33,0.37 -0.12,0.17 0.21,2.65 0.25,3.06 0.08,1.03 0.21,2.07 0.29,3.1l0.25 3.18c0.04,0.21 0.04,0.41 0.04,0.66 0,0.33 0.12,0.83 0.12,1.2l0.42 7.77c0.04,0.62 0.12,1.24 0.2,1.86 0,0.41 0.09,0.79 0.17,1.2 0.08,0.79 0.21,1.57 0.37,2.36 0.41,1.57 0.7,3.14 0.21,4.71 -0.25,0.66 -0.5,1.32 -0.91,1.82 -0.54,0.7 -1.24,-0.09 -1.57,-0.54 -0.62,-0.75 -1.16,-2.15 -0.62,-3.06 0.16,-0.25 0.45,-0.5 0.78,-0.58 0,0.33 -0.12,0.75 0.17,0.95 0.54,0.46 1.36,0 0.95,-1.11 -0.29,-0.75 -1.08,-0.79 -1.61,-0.38 -0.29,0.25 -0.46,0.38 -0.62,0.71 -0.17,0.24 -0.29,0.62 -0.37,0.95 -0.13,0.62 -0.09,1.65 0.08,2.31 0.2,0.95 0.49,0.91 0,1.94 -0.42,0.87 -1.12,1.57 -1.94,2.03 -0.34,0.16 -1.45,0.7 -1.86,0.74l0 0zm-118.91 -59.97l0 0.66c0,1.82 1.32,3.85 2.44,5.21l0.74 0.83c1.04,0.99 2.03,2.06 3.18,2.93 0.21,0.17 0.42,0.29 0.58,0.46 0.79,0.62 1.57,1.15 2.4,1.69 0.37,0.25 0.29,0.08 0.46,0.62 0.53,1.94 1.57,3.76 2.81,5.37 0.2,0.25 1.03,1.2 1.24,1.33 0.08,0.08 0.2,0.12 0.2,0.24 -0.62,0.05 -1.69,0.62 -1.69,1.53 0,1.04 1.36,2.32 2.15,2.9 0.12,0.12 0.2,0.16 0.33,0.24 0.29,0.21 0.62,0.42 0.95,0.58l0.49 0.25c0,0.04 0.09,0.04 0.09,0.04 0.08,0.04 0.04,0 0.08,0.09 -0.58,0 -2.31,0.08 -2.31,0.86 0,0.87 2.85,2.81 3.84,2.81 -0.17,-0.29 -2.32,-1.24 -2.32,-2.02 0,-0.37 0.58,-0.54 0.91,-0.66 0.71,-0.13 2.15,-0.17 2.86,-0.17l0.74 -0.08c0.25,0 0.41,-0.04 0.7,-0.04 0.58,0 0.99,0 1.53,0l4.59 0c4.09,0 8.1,-0.13 12.19,-0.13 1.36,0 2.6,0.05 3.97,0.05 -0.21,-0.34 -0.13,-0.34 -0.66,-0.34l-9.67 -0.04c-0.21,0 -0.33,-0.04 -0.5,-0.04 -0.7,0 -1.36,0 -2.03,-0.04 -0.16,0 -0.24,-0.04 -0.45,-0.04 -0.17,0 -0.33,0 -0.5,-0.04 -0.33,0 -0.7,0 -0.99,0 -0.29,-0.04 -0.74,0 -1.03,0 -0.21,0 -0.25,-0.04 -0.46,-0.04l-1.52 0c-0.38,0 -0.62,-0.04 -1,-0.04l-4.13 0c-0.16,0 -0.33,0 -0.5,0 -0.2,0 -0.28,-0.09 -0.45,-0.09 -0.95,0 -0.95,0.13 -1.82,-0.16 -1.28,-0.46 -1.69,-0.79 -2.64,-1.49 -0.38,-0.29 -0.75,-0.87 -0.75,-1.36 0,-1.04 1.08,-1.49 2.03,-1.49 0.78,0 1.32,0.08 1.9,0.54 0.37,0.28 0.74,0.9 0.74,1.36 -0.12,-0.08 -0.25,-0.17 -0.49,-0.17 -0.75,0 -0.95,0.91 -0.46,1.37 0.62,0.62 2.11,0.29 1.66,-1.41 -0.17,-0.66 -0.67,-1.28 -1.2,-1.65 -0.87,-0.66 -2.07,-0.99 -3.23,-1.12 -0.37,-0.04 -0.25,0.09 -0.49,-0.2 -0.13,-0.13 -0.25,-0.21 -0.37,-0.38 -0.25,-0.33 -0.58,-0.62 -0.96,-1.15 -0.49,-0.75 -0.95,-1.49 -1.32,-2.32 -0.49,-0.99 -0.82,-2.23 -0.95,-3.39l-0.04 -1.36c0.08,0 0.54,0.87 0.74,1.16 0.25,0.37 0.54,0.74 0.87,1.07l0.62 0.66c0.66,0.66 1.37,1.28 2.19,1.7 0.29,0.16 0.54,0.33 0.87,0.45 1.32,0.42 2.4,0.46 3.51,-0.37l0.38 -0.33c0.08,-0.04 0.04,-0.04 0.16,-0.17 0,-0.04 0.08,-0.08 0.12,-0.16 0.34,-0.37 0.5,-0.83 0.67,-1.32 0.57,-1.45 0.49,-3.64 0.04,-5.21 -0.04,-0.21 -0.09,-0.46 -0.21,-0.66 -0.33,-0.91 -0.74,-1.53 -1.24,-2.32l-0.33 -0.49c-0.95,-1.24 -2.65,-2.19 -4.22,-2.19 -1.11,0 -1.86,0.78 -1.86,1.9 0,0.95 0.25,1.78 0.71,2.44 1.32,1.86 3.18,0.99 3.18,-0.25 0,-0.66 -0.29,-1.65 -1.03,-1.65 -0.38,0 -0.79,0.41 -0.79,0.78 0,0.41 0.46,0.83 0.87,0.87 -0.17,0.33 -0.25,0.58 -0.74,0.58 -0.38,0 -0.87,-0.46 -1.04,-0.71 -0.54,-0.82 -0.54,-1.98 0,-2.72 0.13,-0.17 0.33,-0.33 0.5,-0.46 0.16,-0.04 0.49,-0.16 0.74,-0.12 0.7,0.12 1.32,0.37 1.9,0.82 0.09,0.09 0.21,0.09 0.25,0.21 0.08,0.04 0.08,0.04 0.12,0.08 1.41,1.2 2.03,2.61 2.2,4.43l0 1.9c-0.05,0.16 -0.05,0.29 -0.09,0.45 0,0.17 -0.04,0.33 -0.08,0.5 -0.29,1.65 -1.28,3.35 -3.14,3.35 -0.58,0 -0.95,-0.09 -1.45,-0.34 -0.37,-0.16 -0.62,-0.28 -0.95,-0.53 -0.12,-0.08 -0.25,-0.17 -0.37,-0.29 -0.08,-0.04 -0.12,-0.08 -0.21,-0.17 -0.66,-0.58 -1.2,-1.24 -1.65,-1.98l-0.41 -0.7c-0.17,-0.33 -0.87,-1.78 -0.87,-2.03 0,-0.37 0.04,-0.78 0.12,-1.11 0.17,-1.29 0.09,-2.57 -0.2,-3.81 -0.13,-0.49 -0.33,-1.07 -0.54,-1.61 -0.25,-0.62 -0.58,-1.24 -0.99,-1.82 -0.33,-0.45 -0.71,-0.99 -1.16,-1.32 -0.33,-0.29 -0.58,-0.58 -0.95,-0.78 0,0.12 0.45,1.57 0.58,1.69 0.08,0.08 0.54,0.33 0.66,0.45 0.12,0.05 0.21,0.13 0.33,0.21 1.45,1.41 1.12,3.56 0.91,5.46 -0.13,0.78 -0.13,1.53 -0.13,2.31 0,0.54 0.05,0.91 0,1.41 0,0.45 0.13,0.91 0.13,1.4 -1.03,-0.58 -2.11,-1.16 -2.98,-1.9 -0.62,-0.54 -1.2,-1.12 -1.73,-1.69l-0.91 -1.04c-1.2,-1.44 -2.69,-3.26 -2.69,-5.33 0,-0.58 0.17,-1.2 0.41,-1.57 0.38,-0.58 1.16,-1.07 1.82,-0.54 0.46,0.33 0.79,1.16 0.79,1.74 0,0.45 -0.04,0.78 -0.21,1.07 -0.12,0.25 -0.45,0.5 -0.74,0.54 0.2,-0.41 0.04,-1.12 -0.21,-1.4 -1.07,-1.24 -2.11,0.49 -0.78,1.77 1.53,1.57 2.72,0.37 2.85,-1.28 0,-0.54 0,-1.11 -0.25,-1.57 -0.21,-0.45 -0.41,-0.83 -0.74,-1.16 -1.04,-1.03 -2.69,-2.27 -3.77,-0.57 -0.24,0.28 -0.45,1.28 -0.45,1.77l0 0zm45.26 58.15l-0.17 0.5c-0.16,0.7 0.37,1.16 0.91,1.16 -0.41,0.37 -3.1,1.44 -3.68,1.65 -0.95,0.33 -2.77,0.78 -3.84,0.78 -0.25,0 -0.42,0 -0.62,0 -0.87,-0.04 -1.94,-0.28 -2.56,-0.7 -0.13,-0.08 -0.29,-0.2 -0.38,-0.33 -0.7,-0.83 -0.29,-2.44 0.87,-2.44 0.75,-0.04 1.41,0.79 1.16,1.37 -0.21,-0.17 -0.37,-0.33 -0.91,-0.21 -0.21,0.04 -0.29,0.12 -0.41,0.21 -0.13,0.04 -0.21,0.2 -0.25,0.37 -0.21,0.54 0.29,1.28 1.28,0.99 0.91,-0.21 1.69,-0.99 1.24,-2.07 -0.08,-0.24 -0.29,-0.57 -0.5,-0.74 -0.99,-0.95 -2.52,-0.66 -3.47,0.08 -1.24,0.95 -1.44,3.43 1.74,4.01 2.73,0.5 5.62,-0.25 8.14,-1.28 0.66,-0.25 1.94,-0.78 2.56,-1.12 0.17,-0.04 0.25,-0.12 0.42,-0.2 0.78,-0.33 0.53,-0.04 1.52,-0.29 0.34,-0.08 0.62,-0.21 0.96,-0.29 -0.21,0.29 -1.16,0.74 -1.16,1.2 0,0.29 0.62,0.49 0.82,0.54 0.83,0.12 1.7,0.04 2.57,-0.09 0.2,-0.04 0.2,0.04 0.29,-0.12 0.08,-0.13 0.16,-0.21 0.2,-0.29 -0.2,0 -0.49,0 -0.7,0.04 -0.37,0.04 -1.9,0.12 -1.49,-0.58 0.42,-0.74 1.82,-1.53 2.56,-1.94 0.62,-0.37 1.24,-0.79 1.99,-1.07 0.16,-0.09 0.33,-0.13 0.54,-0.25 0.08,0 0.16,-0.04 0.24,-0.09 0.13,-0.04 0.21,-0.04 0.25,-0.12 -1.69,0 -3.01,-0.58 -4.42,-1.28 -0.62,-0.29 -1.12,-0.7 -1.69,-1.03l-0.62 -0.38c-0.21,-0.12 -0.38,-0.29 -0.62,-0.45 -0.42,-0.29 -0.83,-0.58 -1.33,-0.74 -0.25,-0.17 -0.45,-0.25 -0.7,-0.34 -0.29,-0.08 -0.58,-0.16 -0.87,-0.24 -0.33,-0.04 -1.44,-0.25 -1.86,-0.17 0,-0.25 0.09,-0.33 -0.04,-0.62 -0.12,-0.54 -0.58,-0.87 -1.07,-1.03 -0.83,-0.29 -1.45,-0.33 -2.52,-0.33l0.53 -0.29c0.21,-0.08 0.37,-0.17 0.54,-0.25 0.37,-0.21 0.79,-0.37 1.07,-0.54l3.23 -1.69c0.2,-0.08 0.37,-0.17 0.58,-0.29l1.03 -0.54c0.21,-0.12 0.37,-0.2 0.54,-0.29 0.58,-0.33 1.57,-0.78 2.19,-1.11l0.78 -0.46c0.09,-0.04 0.17,-0.08 0.29,-0.12l1.08 -0.54c0.2,-0.12 0.37,-0.21 0.53,-0.29 0.13,-0.04 0.17,-0.08 0.33,-0.12l1.41 -0.66c0.17,-0.09 0.33,-0.17 0.54,-0.25 0.2,-0.08 0.37,-0.17 0.58,-0.25 0.29,-0.12 2.06,-0.95 2.35,-0.95l0 -0.08c-0.54,-0.13 -0.04,-0.25 -0.95,0.08 -1.57,0.66 -3.1,1.36 -4.63,2.02 -0.78,0.29 -1.53,0.67 -2.31,1l-2.23 1.07c-0.17,0.04 -0.33,0.13 -0.5,0.17 -0.74,0.41 -1.53,0.7 -2.27,1.11 -0.13,0.04 -0.29,0.08 -0.42,0.17 -0.2,0.08 -0.29,0.16 -0.45,0.2l-0.91 0.46c-1.65,0.83 -3.31,1.53 -4.96,2.35l-0.87 0.46c-0.7,0.29 -0.58,0.25 -1.65,0.04 -0.33,-0.04 -0.7,-0.12 -1.03,-0.25 -0.29,-0.08 -0.79,-0.29 -0.5,-0.62 0.29,-0.33 1.2,-0.74 1.69,-0.99 0.67,-0.25 1.16,-0.54 1.95,-0.7 0.7,-0.21 1.53,-0.33 2.35,-0.33 -0.12,-0.13 -0.41,-0.17 -0.58,-0.25 -1.77,-0.7 -2.72,-0.21 -4.42,0.54 -0.29,0.12 -0.82,0.45 -1.16,0.41 -0.49,-0.08 -0.9,-0.17 -1.32,-0.29 -0.41,-0.12 -0.74,-0.33 -1.11,-0.54 -0.21,-0.12 -0.83,-0.45 -0.95,-0.66 1.07,0 1.61,0.17 2.76,-0.16 0.83,-0.17 1.49,-0.46 1.82,-1.2 0.42,-0.87 -0.2,-1.57 -0.74,-1.94 -0.41,-0.33 -1.65,-0.91 -2.15,-0.91 0,0 0.04,-0.04 0.04,-0.04 0,0.04 0.04,0 0.04,0 0.62,-0.21 2.11,-0.62 2.77,-0.79l11.66 -3.14c0.99,-0.25 1.98,-0.5 2.93,-0.74 0.54,-0.13 0.99,-0.25 1.49,-0.38 1.24,-0.33 2.52,-0.62 3.76,-0.86 0.21,-0.09 0.54,-0.17 0.83,-0.17l0 -0.08c-0.5,-0.13 0.04,-0.25 -1.16,0 -2.77,0.53 -5.66,1.15 -8.35,1.86 -1.98,0.49 -3.93,0.91 -5.87,1.4 -2.31,0.58 -4.67,1.16 -6.98,1.78l-3.39 0.99c-0.25,0.08 -0.95,0.33 -1.12,0.29 -0.2,0 -0.45,-0.12 -0.62,-0.16 -0.54,-0.17 -1.07,-0.34 -1.61,-0.58 -0.62,-0.29 -0.95,-0.58 -0.33,-1.2 1.32,-1.32 3.84,-2.36 2.23,-4.05 -0.12,-0.08 -0.33,-0.21 -0.41,-0.33l5.12 -0.79c0.58,-0.08 1.24,-0.08 1.82,-0.16l1.86 -0.09c0.62,0 1.2,-0.08 1.9,-0.08 0.17,0 0.25,0 0.42,-0.04 1.03,-0.04 2.43,0.04 3.43,0.04 -0.05,-0.08 -0.09,-0.12 -0.17,-0.16 -0.16,-0.13 -1.45,-0.17 -1.74,-0.17 -0.24,0 -0.41,-0.08 -0.7,-0.08 -1.03,0.04 -2.02,0 -3.1,0 -0.49,0 -0.91,0.08 -1.44,0.08 -0.25,-0.04 -0.42,0.04 -0.71,0.04l-0.7 0c-0.54,0.04 -1.03,0 -1.53,0.04l-0.7 0.05c-0.12,0.04 -0.54,0.08 -0.7,0.08l-1.37 0.12c-1.77,0.21 -2.81,0.33 -4.63,0.7 -0.2,0.05 -0.37,0.09 -0.57,0.13 -0.54,0.12 -1.99,-0.33 -2.48,-0.58 -0.38,-0.12 -0.67,-0.29 -1,-0.5 0,-0.29 0.09,-0.37 0.33,-0.45 0.95,-0.54 3.1,-0.99 4.22,-1.24 0.83,-0.25 1.69,-0.37 2.6,-0.54 0.42,-0.08 0.83,-0.16 1.28,-0.2 2.32,-0.42 4.55,-0.79 6.82,-1.08 0.25,0 0.5,-0.04 0.71,-0.08l1.82 -0.13c0.16,0 0.16,-0.04 0.37,-0.04l2.68 -0.04c0.17,0 0.21,0.04 0.38,0.04 -0.05,-0.08 -0.13,-0.25 -0.25,-0.29 -0.13,-0.08 -2.65,-0.04 -2.85,-0.04l-2.15 0.13c-0.25,0.04 -0.33,0.04 -0.58,0.08 -0.83,0 -1.78,0.21 -2.65,0.21 -0.7,0.04 -1.4,0.16 -2.1,0.24 -1.78,0.21 -4.26,0.54 -6,0.95 -0.25,-0.41 -1.2,-1.03 -1.73,-2.31 -0.21,-0.58 -0.58,-1.07 -0.95,-1.61 -0.54,-0.75 -1.24,-1.28 -2.07,-1.66 -0.33,-0.12 -0.79,-0.28 -1.2,-0.28 0.08,0.08 0.25,0.16 0.37,0.24 0.17,0.09 0.21,0.13 0.37,0.21 0.62,0.41 1.33,1.03 1.58,1.78 0.04,0.08 0.04,0.16 0.08,0.25 -0.17,0 -1.2,-0.25 -1.53,-0.29 -0.62,-0.09 -1.03,-0.13 -1.74,-0.13 -1.07,0 -2.19,0.46 -1.86,1.7 0.29,0.86 1.16,1.36 1.86,1.86 0.25,0.08 0.42,0.16 0.66,0.29 0.21,0.08 0.42,0.16 0.62,0.28 0.38,0.13 1,0.29 1.33,0.46l0.04 0.04c-0.54,0 -1.41,0.21 -1.86,0.46 -0.79,0.41 -0.37,0.86 0.16,1.24 0.5,0.28 1.08,0.53 1.62,0.74l1.57 0.58c0,0 0.04,0 0.08,0 0.04,0.04 0.04,0 0.04,0.04 -1.41,0.33 -2.19,0.95 -1.12,2.23 0.33,0.41 0.71,0.7 1.16,0.95 0.29,0.17 1.28,0.62 1.61,0.62 -0.04,0.08 -0.04,0.08 -0.04,0.08 -0.49,0.46 -0.99,0.91 -0.33,1.45 0.87,0.62 2.89,1.16 2.98,1.28 -0.29,0.04 -1.45,0.37 -1.78,0.21 0.04,0.12 0.08,0.12 0.21,0.21 0.33,0.2 0.66,0.78 0.95,1.07l0.74 0.87c0.04,0.12 0.12,0.12 0.21,0.2l0.58 0.67c0.04,0.04 0.12,0.12 0.2,0.2 0.5,0.62 1.16,1.04 1.86,1.45 0.71,0.37 1.86,0.74 2.9,0.74 0,0.04 0,0 -0.05,0.04l-0.29 0.09c-0.12,0.04 -0.24,0.08 -0.33,0.16 -2.68,1.08 2.4,2.03 3.31,2.03 -0.21,0.12 -0.5,0.25 -0.7,0.33 -2.07,0.87 -4.13,1.57 -6.37,1.9 -0.95,0.12 -1.94,0.21 -2.89,0.08 -0.91,-0.08 -1.69,-0.25 -2.48,-0.62l-0.45 -0.29c-0.13,-0.08 -0.13,-0.08 -0.17,-0.12 -0.16,0 -0.33,0.04 -0.41,0.16 0.08,0.05 0.2,0.13 0.29,0.21 0.12,0.04 0.2,0.12 0.33,0.17 1.28,0.66 2.48,0.99 3.96,1.11 0.96,0.08 1.99,0 2.86,-0.16 0.33,-0.04 0.53,-0.09 0.86,-0.17 0.54,-0.12 1.08,-0.25 1.57,-0.45 1.53,-0.5 2.98,-1 4.47,-1.62 0.54,-0.16 0.99,-0.33 1.49,-0.53 0.57,-0.25 1.11,-0.25 1.77,-0.25 0.83,0 1.9,0.12 1.9,1.07 0,0.29 -0.04,0.58 -0.16,0.83 -0.33,0.91 -1.32,1.74 -2.36,1.74 -0.37,0 -0.53,-0.05 -0.82,-0.17 -0.21,-0.12 -0.5,-0.29 -0.62,-0.45 1.2,-0.13 1.24,-2.28 -0.42,-1.45 -0.24,0.12 -0.53,0.37 -0.57,0.74 -0.38,1.74 1.94,2.03 3.22,1.78 1.24,-0.29 2.56,-0.95 3.22,-2.07 0.13,-0.24 0.04,-0.24 0.37,-0.28 1.12,-0.25 2.07,0.33 2.94,0.95 0.12,0.12 0.25,0.2 0.37,0.33 -0.78,0.2 -1.74,0.53 -2.52,0.78 -1.07,0.33 -2.52,1.08 -2.44,2.4 0.08,1.36 2.15,1.28 3.22,1.16 0.13,-0.05 0.17,-0.09 0.34,-0.09l0 0zm9.79 -3.43c0,0.91 0.99,1.99 2.19,1.33 1.82,-1.04 0.95,-2.73 -0.08,-1.86 -0.5,0.41 -0.33,0.99 0.21,0.99 -0.09,0.2 -0.34,0.41 -0.58,0.41 -0.83,0 -1.28,-1.69 -0.33,-2.48 0.49,-0.33 0.74,-0.37 1.28,-0.37 1.07,0 2.19,1.16 2.19,2.23l0 0.33c0,0.79 -0.5,1.57 -0.95,1.9 -0.75,0.58 -0.95,0.7 -1.86,1.12 -0.95,0.37 -2.32,0.78 -3.35,0.95 -0.08,0 -0.29,0 -0.33,0.04 -0.12,0.04 -0.12,0.04 -0.21,0.12 -0.16,0.17 -0.33,0.29 -0.41,0.38 0.16,0 0.37,-0.09 0.54,-0.09 0.7,-0.16 2.93,-0.62 2.93,0.46 0,0.58 -0.62,1.44 -0.87,1.78 -1.28,1.52 -2.77,2.52 -4.63,3.3 -2.35,0.99 -4.58,1.99 -7.23,2.03 -0.12,0 -0.16,0 -0.29,0 -0.16,0 -0.04,-0.04 -0.25,0 -0.16,0.08 -0.29,0.16 -0.45,0.2l0 0.13c0.33,0 0.58,0.04 0.95,0.04 1.28,0 1.86,-0.04 3.14,-0.33 1.08,-0.21 2.03,-0.5 3.02,-0.91 1.32,-0.54 1.57,-0.7 2.73,-1.28l0.86 -0.46c0.58,-0.33 1.08,-0.66 1.62,-1.03 0.12,-0.12 0.24,-0.21 0.37,-0.33 0.66,-0.62 1.03,-0.87 1.57,-1.74 0.33,-0.45 1.44,-2.23 0.33,-2.64l-0.25 -0.08c0.37,-0.09 1.41,-0.62 1.78,-0.87 0.12,-0.08 0.2,-0.13 0.29,-0.21 1.03,-0.74 2.27,-1.78 2.27,-3.14 0,-1.03 -0.7,-1.98 -1.53,-2.36 -2.15,-1.03 -4.67,1 -4.67,2.44l0 0zm10.71 20.96l-0.62 0c-0.29,-0.04 -0.5,-0.13 -0.62,-0.33 0.24,-0.05 0.53,-0.46 0.78,-0.33 1.16,0.49 2.77,-0.46 3.68,-1.08 0.66,-0.41 1.16,-0.87 1.78,-1.32 0.08,-0.13 0.2,-0.21 0.33,-0.29l0.62 -0.62c0.12,-0.12 0.2,-0.17 0.37,-0.33 0.62,-0.62 1.49,-1.49 2.07,-2.19l0.86 -1.04c0.25,-0.33 0.58,-0.7 0.83,-1.03l-1.24 0.66c-0.21,0.13 -0.45,0.21 -0.66,0.29 -0.21,0.08 -0.5,0.17 -0.75,0.21 -0.28,0.08 -0.53,0.08 -0.78,-0.04 -0.29,-0.13 -0.33,-0.33 -0.17,-0.62 0.17,-0.5 0.46,-0.79 0.71,-1.16l-1.16 0.58c-0.66,0.33 -1.98,0.95 -2.73,0.58 -0.54,-0.21 -0.62,-0.79 -0.45,-1.12 -0.17,0 -0.29,0.04 -0.42,0.08l-1.07 0.25c-0.66,0.13 -1.65,0.29 -2.32,-0.16 -0.37,-0.29 -0.24,-0.95 0,-1.33l0.34 -0.53c-0.17,0 -0.38,0.12 -0.5,0.12 -0.17,0.08 -0.33,0.12 -0.5,0.17 -0.33,0.12 -0.7,0.16 -0.99,0.29 -0.2,0.04 -0.37,0.08 -0.54,0.12 -0.16,0.04 -0.2,0.16 -0.33,0.29l-1.65 1.53c-0.29,0.29 -0.7,0.58 -0.99,0.87 -0.25,0.2 -0.5,0.37 -0.75,0.49 -0.49,0.42 -0.99,0.7 -1.52,1.04 -0.71,0.41 -1.37,0.74 -2.15,0.99 -0.5,0.16 -1.04,0.29 -1.53,0.37 -0.71,0.12 -1.57,0.16 -2.23,-0.04 -0.67,-0.25 -1.12,-0.62 -1.29,-1.28 -0.37,-1.49 0.62,-2.61 1.91,-3.02 2.56,-0.87 3.84,2.44 1.19,3.26 -1.03,0.29 -1.53,-0.37 -1.19,-0.99 0.16,-0.29 0.45,-0.45 0.78,-0.49 0.62,-0.09 0.66,0.2 0.95,0.33 0.04,-0.25 0.13,-0.42 0.04,-0.62 -0.33,-1.16 -1.69,-1.12 -2.19,-0.5 -0.74,0.95 -0.33,2.32 0.83,2.61 0.83,0.24 1.69,0.04 2.4,-0.17 0.57,-0.17 1.03,-0.37 1.53,-0.62 1.36,-0.7 3.05,-1.78 4.17,-2.81 0.33,-0.33 0.83,-0.7 1.07,-1.03 -0.24,0.04 -0.45,0.12 -0.78,0.12 -0.95,-0.04 -0.41,-0.66 -0.13,-1.12 0.17,-0.24 0.42,-0.45 0.54,-0.7 -0.41,0.13 -1.98,1.2 -3.39,0.91 -0.41,-0.04 -0.66,-0.21 -0.87,-0.49 -0.57,-0.79 0.05,-1.95 0.54,-2.61l0.33 -0.37c0.04,-0.08 0.13,-0.12 0.17,-0.17 0.33,-0.45 0.91,-0.86 1.4,-1.15 0.29,-0.17 0.58,-0.33 0.95,-0.46 0.62,-0.29 1.86,-0.33 2.24,0.25 0.41,0.66 -0.17,1.53 -0.83,1.74 -0.7,0.2 -1.12,-1.08 -0.17,-1.41l0.09 -0.08c-0.13,0 -0.29,-0.08 -0.5,-0.08 -0.99,-0.05 -1.9,1.03 -2.36,1.77 -0.28,0.5 -1.11,2.28 0.17,2.32 0.87,0 2.98,-1.08 3.43,-1.61 0.37,-0.5 0.87,-0.96 1.36,-1.33 0.58,-0.49 1.15,-0.86 2.01,-0.87l0 0 0.01 0 0 0 0 0 0 0 0 0 0 0 0.01 0 0 0 0 0 0 0 0 0 -0.01 0 0 0 0 0 0 0 0 0 0 0 -0.01 0 0 0c-0.02,0.01 -0.03,0.01 -0.06,0.05 -0.04,0.04 -0.04,0.04 -0.09,0.08 -0.33,0.25 -0.7,0.49 -0.99,0.78 -0.29,0.33 -0.7,0.62 -0.99,1.04 -0.16,0.2 -0.33,0.37 -0.5,0.53 -0.16,0.21 -0.24,0.38 -0.37,0.58 -0.08,0.13 -0.87,1.24 -0.45,1.37 0.58,0.16 2.73,-0.5 3.35,-0.71 0.2,-0.12 0.33,-0.28 0.49,-0.49 0.13,-0.08 0.17,-0.13 0.29,-0.25 0.25,-0.25 1.12,-0.95 1.45,-1.07 -0.09,-0.09 -0.17,-0.09 -0.33,-0.13 -0.91,-0.25 -1.86,-0.29 -2.65,0.13 0.04,-0.09 0.13,-0.13 0.21,-0.21 0.08,0 0.12,-0.04 0.25,-0.12 0.16,-0.05 0.29,-0.17 0.45,-0.21 0.33,-0.13 0.74,-0.29 1.12,-0.37 2.1,-0.46 3.26,0.08 5.04,0.45l1.9 0.33c0.12,0.04 0.17,0.04 0.29,0.04 0.16,0 0.16,0.04 0.33,0.04 0.41,0 0.99,-0.08 1.28,-0.16 0.75,-0.29 0.79,-0.45 1.24,-1.03 0.08,-0.13 0.17,-0.25 0.29,-0.38l3.1 -4.17c0.87,-1.16 1.65,-2.23 2.48,-3.35 0.54,-0.7 1.07,-1.36 1.65,-2.02l4.63 -5.54c0.33,-0.37 0.66,-0.79 0.99,-1.16 0.33,-0.37 0.33,-0.66 0.87,-0.66 -0.08,0.17 -0.16,0.25 -0.29,0.37l-3.14 3.85c-0.2,0.24 -0.37,0.49 -0.58,0.7l-1.11 1.45c-0.09,0.12 -0.17,0.24 -0.25,0.37 -0.12,0.12 -0.21,0.2 -0.29,0.37l-3.22 4.34c-0.38,0.49 -0.71,0.99 -1.04,1.49l-3.18 4.42c-0.16,0.29 -0.33,0.49 -0.54,0.78l-1.57 2.19c-0.2,0.25 -0.37,0.5 -0.53,0.75l-0.5 0.7c-0.29,0.46 -0.87,1.2 -0.87,1.74 0.75,0 1.7,-0.62 2.27,-0.99 0.34,-0.21 0.34,-0.21 0.58,-0.5l6.95 -9.18c0.24,-0.24 0.58,-0.57 0.74,-0.86 0.12,-0.13 0.17,-0.17 0.29,-0.29 0.08,-0.09 0.17,-0.17 0.25,-0.25l1.82 -1.94c0.12,-0.09 0.16,-0.17 0.29,-0.29l2.89 -2.9c0.29,-0.29 0.33,-0.37 0.74,-0.37 -0.04,0.17 -0.25,0.33 -0.37,0.42l-0.58 0.62c-0.04,0.08 -0.12,0.12 -0.16,0.16l-2.23 2.4c-0.34,0.29 -0.58,0.7 -0.91,1.03l-0.38 0.37c-0.33,0.33 -0.57,0.71 -0.86,1.04 -0.17,0.12 -0.25,0.29 -0.33,0.41l-0.75 0.87c-0.66,0.78 -1.65,2.15 -2.27,3.06l-0.62 0.91c-0.13,0.16 -0.17,0.28 -0.29,0.45 -0.17,0.25 -1.12,1.61 -1.16,1.9 0.42,-0.29 1.37,-0.78 2.11,-0.66 0.74,0.16 1.2,0.91 1.2,1.61 0.25,-0.16 0.66,-0.58 0.99,-0.83 0.87,-0.62 2.81,-1.81 3.26,0.05 0.21,0.91 -0.53,2.02 -0.9,2.52 -0.25,0.33 -0.5,0.66 -0.79,0.95 -0.16,0.16 -0.78,0.74 -0.91,0.87 0.17,0 0.29,0.04 0.5,0.04 0.25,0 0.33,0 0.53,-0.04 1.29,-0.09 2.73,-0.79 3.89,-1.37 0.21,-0.12 1.2,-0.7 1.36,-0.78 -0.24,0.37 -0.78,0.78 -1.11,1.07 -0.54,0.37 -1.08,0.7 -1.66,1.03 -2.43,1.2 -5.45,1.49 -8.14,1.08 -1.69,-0.21 -2.39,-0.66 -4.13,-0.5 -0.04,0 -0.17,0 -0.17,0.04 -0.12,0.05 -0.86,1.12 -0.99,1.24 -0.66,0.75 -0.99,1.16 -1.73,1.86l-1.33 1.12c-0.2,0.21 -0.41,0.33 -0.66,0.5 -0.45,0.37 -0.95,0.62 -1.49,0.95 -0.53,0.29 -1.03,0.53 -1.57,0.78 -0.53,0.29 -1.15,0.54 -1.77,0.66 -0.17,0.09 -0.42,0.09 -0.66,0.13l0 0z"/>
 </g>
</svg>
