<?xml version="1.0" encoding="UTF-8"?>
<!DOCTYPE svg PUBLIC "-//W3C//DTD SVG 1.1//EN" "http://www.w3.org/Graphics/SVG/1.1/DTD/svg11.dtd">
<!-- Creator: CorelDRAW -->
<svg xmlns="http://www.w3.org/2000/svg" xml:space="preserve" width="1519px" height="1484px" version="1.1" shape-rendering="geometricPrecision" text-rendering="geometricPrecision" image-rendering="optimizeQuality" fill-rule="evenodd" clip-rule="evenodd"
viewBox="0 0 94.11 91.95"
 xmlns:xlink="http://www.w3.org/1999/xlink"
 xmlns:xodm="http://www.corel.com/coreldraw/odm/2003">
 <g id="Capa_x0020_1">
  <metadata id="CorelCorpID_0Corel-Layer"/>
  <path fill="black" d="M0 43.67l10.47 4.7 1.21 6.73 -8.49 7.91 4.08 7.61 11.63 -2.1 4.81 4.94 -2.06 11.25 7.7 3.87 8.29 -8.13 6.95 1.07 5.5 10.43 8.36 -1.38 1.92 -11.53 6.52 -3.2 10.06 5.09 6.29 -6.04 -5.2 -10.14 2.91 -6.45 11.73 -1.65 1.43 -8.38 -10.47 -4.7 -1.2 -6.73 8.48 -7.9 -4.1 -7.73 -11.62 2.18 -4.85 -4.91 2.02 -11.27 -7.6 -3.85 -8.27 8.13 -6.97 -1.06 -5.51 -10.43 -8.35 1.38 -1.64 10.97 -6.86 3.72 -10.01 -5.05 -6.29 6.03 5.2 10.11 -2.91 6.5 -11.71 1.72 -1.45 8.29 0 0zm6.81 19.03c6.12,2.91 13.07,2.6 18.95,-0.77 2.5,-1.44 4.75,-3.42 6.37,-5.82 1.46,-2.15 2.42,-4.72 2.35,-7.35 -0.12,-5.04 -3.79,-8.44 -8.03,-10.5 1.75,3.64 2.38,7.72 1.4,11.67 -1.02,4.1 -3.62,7.52 -7.15,9.78 -4.13,2.65 -9.07,3.47 -13.89,2.99zm31.52 -31.99c1.46,0.02 2.49,0.03 3.09,0.03 0.75,0 1.74,-0.01 2.99,-0.03l-0.42 4.49c-0.09,0.85 -0.15,1.64 -0.19,2.38 -0.04,0.73 -0.07,1.25 -0.07,1.53 0,0.53 0.06,0.98 0.16,1.34 0.1,0.36 0.29,0.67 0.56,0.91 0.28,0.25 0.65,0.44 1.14,0.57 0.48,0.12 0.99,0.19 1.51,0.19 0.45,0 0.88,-0.05 1.27,-0.14 0.31,-0.07 0.58,-0.18 0.83,-0.32 0.21,-0.12 0.41,-0.27 0.56,-0.44 0.2,-0.19 0.37,-0.45 0.52,-0.75 0.15,-0.29 0.27,-0.65 0.34,-1.1 0.08,-0.46 0.2,-1.51 0.33,-3.15 0.13,-1.39 0.22,-2.66 0.28,-3.82 0.06,-1.12 0.1,-1.69 0.16,-1.69 1.41,0 2.53,0 3.34,0l2.85 0 -0.67 7.5c-0.01,0.14 -0.02,0.26 -0.02,0.35 -0.03,1.47 -0.15,2.5 -0.35,3.1 -0.2,0.6 -0.54,1.12 -1.01,1.56 -0.47,0.45 -1.15,0.84 -2.05,1.2 -0.9,0.36 -1.92,0.6 -3.06,0.75 -1.15,0.15 -2.3,0.23 -3.48,0.23 -1.05,0 -2.06,-0.06 -3.04,-0.17 -0.9,-0.11 -1.71,-0.28 -2.43,-0.49 -0.72,-0.21 -1.35,-0.47 -1.88,-0.75 -0.49,-0.27 -0.86,-0.54 -1.13,-0.82 -0.26,-0.28 -0.46,-0.62 -0.61,-1 -0.17,-0.44 -0.26,-0.91 -0.26,-1.41 0,-0.17 0.01,-0.42 0.03,-0.76 0.02,-0.34 0.06,-0.83 0.12,-1.48l0.19 -1.68c0.04,-0.45 0.09,-1.09 0.15,-1.95l0.25 -4.18 0 0zm21.51 14.41c0.18,-1.24 0.32,-2.36 0.43,-3.34 0.1,-1 0.19,-2.15 0.27,-3.45 0.08,-1.32 0.14,-2.69 0.18,-4.15 0.03,-1.45 0.05,-2.61 0.05,-3.47 1.17,0.03 2.12,0.04 2.84,0.04 0.74,0 1.66,-0.02 2.73,-0.05 1.08,-0.03 2.13,-0.05 3.15,-0.05 1.2,0 2.26,0.04 3.2,0.11 0.7,0.05 1.34,0.15 1.91,0.3 0.58,0.16 1.06,0.35 1.46,0.57 0.39,0.22 0.72,0.47 0.98,0.74 0.26,0.28 0.47,0.6 0.61,0.96 0.15,0.38 0.22,0.77 0.22,1.19 0,0.47 -0.08,0.91 -0.24,1.32 -0.16,0.42 -0.41,0.8 -0.75,1.16 -0.34,0.37 -0.78,0.68 -1.3,0.95 -0.51,0.26 -1.24,0.52 -2.18,0.8l0.73 1.34c0.21,0.37 0.42,0.75 0.66,1.14l1.88 3.1c0.09,0.13 0.24,0.39 0.45,0.79 -1.55,-0.01 -2.59,-0.02 -3.12,-0.02 -0.68,0 -1.78,0.01 -3.32,0.02 -0.15,-0.37 -0.42,-1.05 -0.81,-2.04 -0.16,-0.42 -0.3,-0.74 -0.41,-0.96 -0.22,-0.5 -0.56,-1.21 -0.99,-2.11l-1.45 -2.99c0.51,0.07 1,0.11 1.49,0.11 0.68,0 1.3,-0.08 1.85,-0.23 0.56,-0.16 0.99,-0.39 1.27,-0.72 0.29,-0.32 0.43,-0.66 0.43,-1.01 0,-0.3 -0.1,-0.57 -0.32,-0.8 -0.22,-0.22 -0.56,-0.39 -1.02,-0.5 -0.46,-0.12 -1.18,-0.18 -2.14,-0.18 -0.33,0 -0.67,0.01 -1.02,0.02 -0.35,0.01 -0.76,0.02 -1.22,0.03 -0.13,1.44 -0.24,3.2 -0.33,5.27 -0.1,2.08 -0.16,4.11 -0.19,6.11 -1.56,-0.01 -2.58,-0.02 -3.05,-0.02 -0.54,0 -1.52,0.01 -2.93,0.02l0 0zm-12.45 -19.27c-2.91,-0.75 -5.92,-1.04 -8.92,-0.88 -3.75,0.2 -7.51,1.11 -10.91,2.69 -2.88,1.34 -5.68,3.26 -7.72,5.7 -1.62,1.95 -2.86,4.38 -2.79,6.97 0.05,2.11 0.95,3.95 2.36,5.49 1.68,1.85 4.01,3.21 6.34,4.22 -1.63,-3.21 -2.24,-6.76 -1.34,-10.34 1.18,-4.69 4.67,-8.27 8.83,-10.53 2.48,-1.34 5.19,-2.23 7.96,-2.75 2.04,-0.39 4.11,-0.56 6.19,-0.57zm-4.35 22.72c1.06,0 2.08,0.16 3.06,0.48 0.98,0.32 1.84,0.82 2.57,1.51 0.74,0.7 1.28,1.5 1.65,2.4 0.37,0.9 0.55,1.94 0.55,3.12 0,1.23 -0.21,2.37 -0.6,3.4 -0.4,1.03 -0.98,1.91 -1.74,2.63 -0.75,0.72 -1.65,1.25 -2.7,1.58 -1.04,0.34 -2.13,0.5 -3.26,0.5 -1.12,0 -2.2,-0.16 -3.22,-0.49 -1.03,-0.33 -1.92,-0.86 -2.68,-1.59 -0.76,-0.73 -1.29,-1.54 -1.61,-2.44 -0.32,-0.89 -0.48,-1.89 -0.48,-2.98 0,-1.61 0.33,-3.02 1.01,-4.24 0.67,-1.22 1.66,-2.17 2.99,-2.85 1.31,-0.68 2.81,-1.03 4.46,-1.03zm-0.18 3.32c-0.76,0 -1.45,0.21 -2.07,0.63 -0.61,0.41 -1.09,0.99 -1.42,1.73 -0.33,0.74 -0.5,1.53 -0.5,2.37 0,0.78 0.15,1.5 0.46,2.15 0.3,0.64 0.75,1.15 1.37,1.51 0.62,0.37 1.27,0.55 1.96,0.55 0.74,0 1.42,-0.21 2.03,-0.61 0.61,-0.41 1.08,-0.99 1.41,-1.72 0.32,-0.75 0.48,-1.52 0.48,-2.33 0,-0.78 -0.15,-1.51 -0.45,-2.17 -0.3,-0.67 -0.74,-1.19 -1.32,-1.55 -0.57,-0.38 -1.22,-0.56 -1.95,-0.56l0 0zm9.64 12.01c0.14,-1.5 0.23,-2.69 0.28,-3.6 0.09,-1.34 0.16,-3.18 0.23,-5.51 0.08,-2.35 0.11,-3.92 0.11,-4.74l0 -1.21c1.99,0.02 3.85,0.03 5.56,0.03 1.73,0 3.39,-0.01 4.98,-0.03 -0.1,1.69 -0.16,2.79 -0.16,3.31l-0.87 -0.03 -0.69 -0.02 -0.69 0 -1.96 0c-0.22,0 -0.89,0 -1.98,0.02l-0.07 2.59 1.43 0.02 1.61 0c0.46,0 1.17,0 2.12,-0.03 -0.07,1.39 -0.11,2.48 -0.11,3.27 -1.06,-0.04 -1.85,-0.05 -2.36,-0.05 -0.87,0 -1.83,0.01 -2.86,0.05l-0.1 3.96 -0.02 1.48 0 0.49 -2.13 -0.02c-0.16,0 -0.94,0 -2.32,0.02l0 0zm15.45 0c0.32,-3.58 0.52,-7.51 0.58,-11.8l-4.23 0.11 0.05 -1.22c0.02,-0.65 0.04,-1.37 0.06,-2.15 1.88,0.02 4.07,0.03 6.58,0.03l2.45 -0.01 2.38 0 1.3 -0.02 -0.07 1.08c-0.02,0.58 -0.05,1.06 -0.05,1.43 -0.01,0.38 -0.01,0.66 -0.01,0.86 -1.42,-0.08 -2.59,-0.11 -3.51,-0.11l-0.69 0c-0.11,1.29 -0.18,2.49 -0.24,3.6 -0.07,1.57 -0.13,3.11 -0.17,4.59 -0.03,1.48 -0.06,2.69 -0.06,3.61 -1.08,-0.02 -1.78,-0.02 -2.1,-0.02 -0.28,0 -1.04,0 -2.27,0.02l0 0z"/>
  <path fill="red" d="M6.81 62.7c6.12,2.91 13.07,2.6 18.95,-0.77 2.5,-1.44 4.75,-3.42 6.37,-5.82 1.46,-2.15 2.42,-4.72 2.35,-7.35 -0.12,-5.04 -3.79,-8.44 -8.03,-10.5 1.75,3.64 2.38,7.72 1.4,11.67 -1.02,4.1 -3.62,7.52 -7.15,9.78 -4.13,2.65 -9.07,3.47 -13.89,2.99zm31.52 -31.99c1.46,0.02 2.49,0.03 3.09,0.03 0.75,0 1.74,-0.01 2.99,-0.03l-0.42 4.49c-0.09,0.85 -0.15,1.64 -0.19,2.38 -0.04,0.73 -0.07,1.25 -0.07,1.53 0,0.53 0.06,0.98 0.16,1.34 0.1,0.36 0.29,0.67 0.56,0.91 0.28,0.25 0.65,0.44 1.14,0.57 0.48,0.12 0.99,0.19 1.51,0.19 0.45,0 0.88,-0.05 1.27,-0.14 0.31,-0.07 0.58,-0.18 0.83,-0.32 0.21,-0.12 0.41,-0.27 0.56,-0.44 0.2,-0.19 0.37,-0.45 0.52,-0.75 0.15,-0.29 0.27,-0.65 0.34,-1.1 0.08,-0.46 0.2,-1.51 0.33,-3.15 0.13,-1.39 0.22,-2.66 0.28,-3.82 0.06,-1.12 0.1,-1.69 0.16,-1.69 1.41,0 2.52,0 3.34,0l2.85 0 -0.67 7.5c-0.01,0.14 -0.02,0.26 -0.02,0.35 -0.03,1.47 -0.15,2.5 -0.35,3.1 -0.2,0.6 -0.54,1.12 -1.01,1.56 -0.47,0.45 -1.15,0.84 -2.05,1.2 -0.9,0.36 -1.92,0.6 -3.06,0.75 -1.15,0.15 -2.3,0.23 -3.48,0.23 -1.05,0 -2.06,-0.06 -3.04,-0.17 -0.9,-0.11 -1.71,-0.28 -2.43,-0.49 -0.72,-0.21 -1.35,-0.47 -1.88,-0.75 -0.49,-0.27 -0.86,-0.54 -1.13,-0.82 -0.26,-0.28 -0.46,-0.62 -0.61,-1 -0.17,-0.44 -0.26,-0.91 -0.26,-1.41 0,-0.17 0.01,-0.42 0.03,-0.76 0.02,-0.34 0.06,-0.83 0.12,-1.48l0.19 -1.68c0.04,-0.45 0.09,-1.09 0.15,-1.95l0.25 -4.18 0 0zm21.51 14.41c0.18,-1.24 0.32,-2.36 0.43,-3.34 0.1,-1 0.19,-2.15 0.27,-3.45 0.08,-1.32 0.14,-2.69 0.18,-4.15 0.03,-1.45 0.05,-2.61 0.05,-3.47 1.17,0.03 2.12,0.04 2.84,0.04 0.74,0 1.66,-0.02 2.73,-0.05 1.08,-0.03 2.13,-0.05 3.15,-0.05 1.2,0 2.26,0.04 3.2,0.11 0.7,0.05 1.34,0.15 1.91,0.3 0.58,0.16 1.06,0.35 1.46,0.57 0.39,0.22 0.72,0.47 0.98,0.74 0.26,0.28 0.47,0.6 0.61,0.96 0.15,0.38 0.22,0.77 0.22,1.19 0,0.47 -0.08,0.91 -0.24,1.32 -0.16,0.42 -0.41,0.8 -0.75,1.16 -0.34,0.37 -0.78,0.68 -1.3,0.95 -0.51,0.26 -1.24,0.52 -2.18,0.8l0.73 1.34c0.21,0.37 0.42,0.75 0.66,1.14l1.88 3.1c0.09,0.13 0.24,0.39 0.45,0.79 -1.55,-0.01 -2.59,-0.02 -3.12,-0.02 -0.68,0 -1.78,0.01 -3.32,0.02 -0.15,-0.37 -0.42,-1.05 -0.81,-2.04 -0.16,-0.42 -0.3,-0.74 -0.41,-0.96 -0.22,-0.5 -0.56,-1.21 -0.99,-2.11l-1.45 -2.99c0.51,0.07 1,0.11 1.49,0.11 0.68,0 1.3,-0.08 1.85,-0.23 0.56,-0.16 0.99,-0.39 1.27,-0.72 0.29,-0.32 0.43,-0.66 0.43,-1.01 0,-0.3 -0.1,-0.57 -0.32,-0.8 -0.22,-0.22 -0.56,-0.39 -1.02,-0.5 -0.46,-0.12 -1.18,-0.18 -2.14,-0.18 -0.33,0 -0.67,0.01 -1.02,0.02 -0.35,0.01 -0.76,0.02 -1.22,0.03 -0.13,1.44 -0.24,3.2 -0.33,5.27 -0.1,2.08 -0.16,4.11 -0.19,6.11 -1.56,-0.01 -2.58,-0.02 -3.05,-0.02 -0.54,0 -1.52,0.01 -2.93,0.02l0 0z"/>
 </g>
</svg>
