<?xml version="1.0" encoding="UTF-8"?>
<!DOCTYPE svg PUBLIC "-//W3C//DTD SVG 1.1//EN" "http://www.w3.org/Graphics/SVG/1.1/DTD/svg11.dtd">
<!-- Creator: CorelDRAW -->
<svg xmlns="http://www.w3.org/2000/svg" xml:space="preserve" width="1404px" height="1371px" version="1.1" shape-rendering="geometricPrecision" text-rendering="geometricPrecision" image-rendering="optimizeQuality" fill-rule="evenodd" clip-rule="evenodd"
viewBox="0 0 96.81 94.58"
 xmlns:xlink="http://www.w3.org/1999/xlink"
 xmlns:xodm="http://www.corel.com/coreldraw/odm/2003">
 <g id="Capa_x0020_1">
  <metadata id="CorelCorpID_0Corel-Layer"/>
  <path fill="#E6E6E6" d="M0 44.93l10.78 4.83 1.23 6.92 -8.73 8.13 4.2 7.83 11.97 -2.16 4.94 5.08 -2.12 11.58 7.92 3.98 8.53 -8.36 7.15 1.1 5.66 10.72 8.6 -1.42 1.97 -11.85 6.71 -3.3 10.35 5.24 6.47 -6.21 -5.35 -10.44 3 -6.63 12.05 -1.7 1.48 -8.62 -10.77 -4.83 -1.23 -6.92 8.72 -8.13 -4.22 -7.95 -11.95 2.24 -5 -5.05 2.08 -11.59 -7.81 -3.96 -8.51 8.36 -7.17 -1.09 -5.67 -10.73 -8.59 1.42 -1.69 11.28 -7.05 3.83 -10.3 -5.2 -6.46 6.21 5.35 10.4 -3 6.69 -12.05 1.76 -1.49 8.54 0 0zm48.75 -18.34c-2.99,-0.77 -6.09,-1.07 -9.18,-0.9 -3.85,0.21 -7.72,1.14 -11.22,2.77 -2.96,1.38 -5.84,3.34 -7.94,5.86 -1.67,2 -2.94,4.51 -2.87,7.17 0.05,2.17 0.98,4.06 2.43,5.65 1.73,1.9 4.12,3.3 6.52,4.34 -1.67,-3.31 -2.31,-6.96 -1.38,-10.64 1.22,-4.82 4.81,-8.5 9.09,-10.83 2.54,-1.38 5.34,-2.3 8.18,-2.83 2.1,-0.4 4.23,-0.58 6.37,-0.59l0 0zm-4.48 23.38c1.1,0 2.14,0.16 3.15,0.49 1.01,0.32 1.89,0.84 2.65,1.55 0.76,0.72 1.32,1.54 1.69,2.47 0.38,0.93 0.57,2 0.57,3.2 0,1.28 -0.21,2.45 -0.62,3.5 -0.41,1.07 -1.01,1.97 -1.79,2.71 -0.77,0.74 -1.7,1.28 -2.77,1.62 -1.08,0.35 -2.2,0.52 -3.36,0.52 -1.15,0 -2.26,-0.17 -3.31,-0.5 -1.06,-0.34 -1.98,-0.89 -2.76,-1.64 -0.78,-0.75 -1.33,-1.59 -1.66,-2.51 -0.32,-0.92 -0.49,-1.94 -0.49,-3.07 0,-1.66 0.34,-3.11 1.04,-4.36 0.69,-1.25 1.72,-2.22 3.07,-2.93 1.36,-0.7 2.89,-1.05 4.59,-1.05l0 0zm-0.18 3.41c-0.78,0 -1.49,0.21 -2.13,0.64 -0.63,0.43 -1.12,1.02 -1.46,1.78 -0.34,0.76 -0.52,1.58 -0.52,2.44 0,0.81 0.16,1.54 0.47,2.21 0.31,0.67 0.78,1.19 1.42,1.56 0.64,0.38 1.31,0.56 2.02,0.56 0.76,0 1.45,-0.21 2.08,-0.63 0.63,-0.41 1.12,-1.01 1.45,-1.76 0.33,-0.77 0.49,-1.56 0.49,-2.4 0,-0.8 -0.15,-1.55 -0.46,-2.23 -0.3,-0.69 -0.76,-1.23 -1.35,-1.6 -0.59,-0.38 -1.26,-0.57 -2.01,-0.57l0 0zm9.91 12.35c0.15,-1.53 0.24,-2.77 0.3,-3.7 0.08,-1.38 0.16,-3.27 0.23,-5.67 0.08,-2.41 0.12,-4.04 0.12,-4.87l0 -1.24c2.04,0.01 3.95,0.02 5.71,0.02 1.78,0 3.49,-0.01 5.12,-0.02 -0.1,1.73 -0.16,2.87 -0.16,3.39l-0.89 -0.03 -0.71 -0.01 -0.72 -0.01 -2.01 0c-0.23,0 -0.91,0.01 -2.03,0.02l-0.08 2.67 1.48 0.02 1.65 0c0.47,0 1.2,-0.01 2.18,-0.03 -0.07,1.43 -0.11,2.56 -0.11,3.36 -1.09,-0.04 -1.91,-0.05 -2.43,-0.05 -0.9,0 -1.88,0.01 -2.94,0.05l-0.11 4.08 -0.01 1.52 0 0.5 -2.2 -0.02c-0.17,0 -0.96,0 -2.39,0.02l0 0zm15.9 0c0.33,-3.68 0.53,-7.72 0.6,-12.14l-4.36 0.12 0.05 -1.26c0.03,-0.67 0.05,-1.41 0.06,-2.2 1.94,0.01 4.2,0.02 6.77,0.02l2.52 -0.01 2.46 0 1.33 -0.01 -0.07 1.1c-0.02,0.6 -0.05,1.09 -0.06,1.47 -0.01,0.39 -0.01,0.69 -0.01,0.89 -1.45,-0.08 -2.66,-0.12 -3.6,-0.12l-0.72 0c-0.1,1.33 -0.18,2.57 -0.24,3.7 -0.07,1.63 -0.13,3.2 -0.17,4.73 -0.04,1.53 -0.06,2.76 -0.06,3.71 -1.11,-0.02 -1.83,-0.02 -2.17,-0.02 -0.28,0 -1.06,0 -2.33,0.02l0 0z"/>
  <path fill="red" d="M7 64.5c6.3,2.99 13.45,2.68 19.5,-0.8 2.57,-1.48 4.89,-3.52 6.56,-5.98 1.49,-2.22 2.48,-4.86 2.41,-7.56 -0.12,-5.18 -3.9,-8.68 -8.26,-10.8 1.8,3.74 2.45,7.94 1.44,12.01 -1.05,4.21 -3.72,7.73 -7.36,10.06 -4.25,2.72 -9.33,3.56 -14.29,3.07zm32.43 -32.91c1.5,0.02 2.56,0.03 3.18,0.03 0.77,0 1.79,-0.01 3.08,-0.03l-0.44 4.63c-0.08,0.86 -0.16,1.68 -0.19,2.44 -0.05,0.75 -0.07,1.28 -0.07,1.57 0,0.55 0.05,1.01 0.16,1.38 0.1,0.37 0.3,0.68 0.58,0.94 0.28,0.26 0.67,0.45 1.17,0.58 0.5,0.13 1.01,0.2 1.56,0.2 0.46,0 0.89,-0.06 1.3,-0.15 0.32,-0.07 0.6,-0.18 0.85,-0.32 0.22,-0.13 0.42,-0.28 0.58,-0.46 0.21,-0.2 0.38,-0.46 0.54,-0.77 0.15,-0.29 0.27,-0.67 0.34,-1.14 0.09,-0.47 0.21,-1.55 0.34,-3.23 0.13,-1.43 0.22,-2.74 0.29,-3.93 0.06,-1.15 0.11,-1.74 0.16,-1.74 1.45,0 2.6,0 3.44,0l2.94 0 -0.7 7.72c-0.01,0.14 -0.01,0.26 -0.01,0.35 -0.04,1.51 -0.17,2.57 -0.37,3.19 -0.21,0.62 -0.56,1.16 -1.04,1.61 -0.48,0.46 -1.18,0.87 -2.11,1.23 -0.92,0.37 -1.97,0.63 -3.14,0.78 -1.19,0.15 -2.37,0.23 -3.58,0.23 -1.08,0 -2.12,-0.06 -3.12,-0.18 -0.93,-0.11 -1.77,-0.28 -2.51,-0.5 -0.74,-0.22 -1.39,-0.48 -1.94,-0.77 -0.49,-0.28 -0.88,-0.56 -1.15,-0.84 -0.27,-0.29 -0.48,-0.63 -0.64,-1.03 -0.17,-0.45 -0.26,-0.93 -0.26,-1.45 0,-0.17 0.01,-0.43 0.03,-0.78 0.02,-0.36 0.06,-0.86 0.13,-1.52l0.19 -1.73c0.04,-0.46 0.09,-1.13 0.15,-2.01l0.26 -4.3 0 0zm22.12 14.82c0.19,-1.27 0.33,-2.42 0.45,-3.44 0.1,-1.02 0.19,-2.21 0.28,-3.55 0.08,-1.35 0.14,-2.76 0.18,-4.26 0.03,-1.49 0.06,-2.68 0.06,-3.57 1.2,0.03 2.17,0.04 2.91,0.04 0.77,0 1.71,-0.02 2.82,-0.05 1.11,-0.03 2.18,-0.05 3.23,-0.05 1.23,0 2.33,0.04 3.3,0.11 0.72,0.05 1.37,0.16 1.96,0.32 0.59,0.16 1.09,0.35 1.5,0.57 0.4,0.23 0.74,0.49 1.01,0.77 0.27,0.28 0.48,0.61 0.63,0.99 0.15,0.38 0.22,0.79 0.22,1.22 0,0.49 -0.08,0.94 -0.25,1.36 -0.16,0.43 -0.42,0.82 -0.77,1.19 -0.35,0.38 -0.79,0.7 -1.33,0.97 -0.53,0.27 -1.28,0.55 -2.24,0.83l0.74 1.38c0.22,0.38 0.44,0.77 0.69,1.17l1.93 3.19c0.09,0.14 0.24,0.4 0.46,0.81 -1.59,-0.01 -2.66,-0.02 -3.21,-0.02 -0.7,0 -1.83,0.01 -3.41,0.02 -0.15,-0.38 -0.44,-1.08 -0.84,-2.1 -0.16,-0.42 -0.3,-0.75 -0.42,-0.98 -0.22,-0.52 -0.57,-1.24 -1.02,-2.17l-1.49 -3.08c0.52,0.08 1.03,0.11 1.54,0.11 0.7,0 1.33,-0.07 1.9,-0.23 0.57,-0.16 1.01,-0.41 1.31,-0.74 0.29,-0.33 0.43,-0.68 0.43,-1.05 0,-0.31 -0.1,-0.58 -0.33,-0.81 -0.22,-0.23 -0.57,-0.41 -1.04,-0.53 -0.48,-0.11 -1.21,-0.17 -2.21,-0.17 -0.33,0 -0.68,0.01 -1.04,0.02 -0.36,0.01 -0.78,0.02 -1.26,0.03 -0.13,1.48 -0.24,3.29 -0.34,5.42 -0.1,2.13 -0.16,4.22 -0.19,6.28 -1.61,-0.01 -2.65,-0.02 -3.14,-0.02 -0.55,0 -1.57,0.01 -3.02,0.02l0 0z"/>
 </g>
</svg>
