
<svg xmlns="http://www.w3.org/2000/svg" xml:space="preserve" width="512px" height="512px" version="1.1" style="shape-rendering:geometricPrecision; text-rendering:geometricPrecision; image-rendering:optimizeQuality; fill-rule:evenodd; clip-rule:evenodd"
viewBox="0 0 5780 5780"
 xmlns:xlink="http://www.w3.org/1999/xlink">
 <defs>
  <style type="text/css">
   <![CDATA[
    .fil0 {fill:none}
    .fil1 {fill:white}
   ]]>
  </style>
 </defs>
 <g id="Capa_x0020_1">
  <rect class="fil0" width="5780" height="5780"/>
  <path class="fil1" d="M4696 1611c6,1 14,4 20,6 89,24 113,5 118,6 4,1 22,12 25,15 13,8 36,27 36,44 0,16 -5,23 -19,32 -33,18 -96,8 -125,-9 -8,-5 -13,-5 -17,-14 -7,-14 -12,-27 -19,-40 -7,-14 -13,-27 -19,-40zm-99 -112l83 -12c11,-1 40,5 50,7 21,5 40,11 56,20 15,9 34,23 34,44 0,16 -12,26 -23,32 -17,9 -36,10 -57,10 -10,0 -49,-4 -53,-8 -2,0 -11,-15 -12,-18 -18,-26 -45,-58 -73,-72 0,0 -2,-1 -3,-1 -2,-2 -1,-1 -2,-2zm-102 -174c0,-26 58,-40 88,-40 8,0 36,0 42,6 10,10 31,41 37,52 3,5 4,9 6,13 -8,0 -47,7 -57,9 -9,1 -18,3 -27,5l-28 5c-7,0 -61,-22 -61,-50zm-7 -131c17,0 35,1 49,9l31 25c2,2 3,2 6,4l22 23c4,4 8,7 11,12 -34,-8 -99,-8 -130,15 -8,5 -4,11 -32,0 -31,-13 -62,-33 -25,-63l13 -9c11,-6 16,-9 28,-12 8,-2 17,-4 27,-4zm-258 -101c0,-21 35,-35 53,-41 20,-7 37,-10 58,-10 12,0 13,5 24,13 15,11 53,37 70,41l0 2c-13,1 -94,33 -106,38 -9,4 -17,2 -30,-1 -21,-4 -69,-16 -69,-42zm-105 -59c0,-37 76,-79 136,-60 13,4 41,28 51,37 5,4 12,9 15,14 -37,0 -100,15 -127,38 -1,0 -5,3 -5,3 -5,3 -70,-5 -70,-32zm-3111 493c0,-29 7,-28 17,-41l44 -53c7,80 36,99 38,105 3,10 5,84 -27,84 -41,0 -72,-51 -72,-95zm136 -189c1,7 7,21 10,28 14,37 28,50 28,98 0,18 -10,48 -30,48 -13,0 -25,-14 -33,-23 -14,-15 -25,-40 -30,-62 -4,-17 -5,-16 4,-27 5,-8 10,-15 18,-21 8,-6 20,-19 26,-28l5 -10c1,0 1,-1 1,-1 1,-2 0,-1 1,-2zm666 -339c0,-4 -1,-10 -2,-14 -1,-8 0,-40 0,-49 0,-13 5,-46 8,-59 5,-18 11,-33 21,-46 42,-64 74,-11 74,15 0,30 -5,46 -16,71 -5,13 -5,4 -26,19l-25 21c-12,12 -22,26 -32,40 -1,1 -1,1 -2,2zm177 -249c11,0 22,11 27,19 20,26 7,74 -6,101 -2,3 -3,5 -4,8 -3,6 -2,5 -8,7 -12,6 -23,12 -37,17l-32 9c-4,1 -9,1 -12,2 4,-16 22,-46 22,-84 0,-27 -8,-21 13,-53 7,-10 14,-17 24,-23 3,-1 9,-3 13,-3zm1489 4640c-16,0 -9,-1 -19,-3 3,-6 10,-12 17,-23 5,-8 9,-15 14,-24 10,-17 18,-34 27,-52 4,-10 8,-18 12,-28 6,-15 29,-71 33,-86 9,-1 44,-7 50,-10 -6,23 -21,83 -30,105 -18,46 -18,51 -53,92 -2,3 -3,3 -6,5 -12,11 -26,24 -45,24zm77 -256c4,-7 12,-33 14,-41 3,-11 13,-56 18,-63 10,-15 27,-37 46,-37 13,0 21,5 28,15 19,25 11,55 1,80 -2,7 -4,12 -8,17 -1,2 -3,7 -4,8 -3,3 -2,2 -9,4 -14,4 -28,8 -42,9 -8,1 -15,3 -22,4 -7,1 -15,4 -22,4zm237 -233c11,-5 41,-3 55,11 29,28 -27,31 -48,2 -3,-4 -7,-8 -7,-13zm568 -310c10,0 18,6 24,11 28,24 28,79 17,114 -2,5 -1,3 -9,9l-22 15c-5,4 -29,21 -33,22 0,-15 -19,-107 -19,-110 0,-3 2,-9 3,-12 3,-8 5,-14 8,-21 6,-10 16,-28 31,-28zm-2571 387c-17,0 -32,-7 -34,-23 -2,-18 21,-38 34,-47 12,-8 47,-28 58,-28 3,0 8,4 11,5l36 15c9,3 16,5 26,7 10,3 21,3 29,5 -4,4 -29,17 -36,21 -28,17 -90,45 -124,45zm-97 -48c-16,0 -31,-2 -39,-15 -22,-36 49,-68 77,-79 7,-2 32,-10 39,-10 0,0 12,10 14,11l31 22c5,4 14,8 16,12 -4,0 -14,4 -18,5 -18,6 -36,14 -52,23 -40,25 -13,22 -46,29 -7,1 -14,2 -22,2zm-527 -420c7,-1 64,-16 75,-20 28,-8 22,-9 51,-1 18,5 54,19 54,41 0,38 -40,55 -74,55 -16,0 -29,-1 -44,-4 -9,-3 -25,-23 -34,-33 -11,-12 -19,-25 -28,-38zm-141 -170c0,-19 31,-30 47,-35 11,-4 20,-6 32,-9 24,-5 39,-9 57,2 19,11 11,27 -2,39 -1,1 -1,1 -2,2l-52 41c-11,8 -9,8 -24,5 -9,-2 -18,-5 -25,-8 -14,-7 -31,-19 -31,-37zm-142 -227c0,-8 -1,-9 8,-16 14,-9 41,-16 59,-17 12,0 46,-2 51,5 3,3 16,43 47,68 5,4 18,15 23,16 -2,4 1,1 -4,2 -38,9 -100,4 -132,-12 -6,-2 -11,-5 -16,-8 -11,-6 -36,-25 -36,-38zm1651 -3375c0,-24 29,-15 43,1 5,7 15,21 15,32 -15,0 -24,6 -44,-8 -6,-4 -14,-16 -14,-25zm279 -36l-6 0c-21,0 -37,-23 -37,-44 0,-22 10,-38 18,-52 5,-8 29,-38 32,-38 8,0 19,3 28,4 16,3 73,13 88,13 -1,4 -7,14 -10,19 -11,21 -10,21 -24,37 -14,16 -29,31 -47,43 -9,6 -28,18 -42,18zm-199 60c-2,-22 -16,-46 -35,-57 -41,-23 -63,18 -63,40 0,22 9,39 29,48 17,7 38,5 53,-3 0,16 6,31 -11,57 -9,12 -14,17 -25,26 -37,30 -78,37 -123,19 -17,-7 -35,-20 -47,-35 -25,-33 -26,-79 -10,-116 2,-5 4,-10 6,-14 5,-9 10,-17 16,-25 15,-22 40,-46 62,-60 64,-43 68,-17 134,-27 49,-6 74,-37 114,-47 10,-2 24,-3 36,-4 8,0 12,1 19,1 8,0 12,1 20,1 -11,21 -84,116 -99,132 -2,2 -2,3 -5,6 -2,2 -3,4 -6,6 -18,18 -28,28 -50,43 -5,3 -10,5 -15,9zm297 -219l-55 -7c1,-8 36,-59 42,-67 2,-3 3,-4 4,-7 11,-16 23,-30 34,-44l11 -12c3,-4 7,-7 11,-11 16,-16 48,-41 70,-41 14,0 32,10 38,18 -8,5 -16,11 -23,17 -2,2 -3,3 -5,5 -3,2 -4,2 -6,5 -2,1 -3,3 -5,5 -30,25 -87,97 -108,126 -2,3 -7,10 -8,13zm-170 4684c-18,0 -35,0 -52,3 -5,1 -10,3 -14,3 2,-3 5,-7 8,-10l60 -78c22,-19 69,-45 88,-8 13,26 -8,54 -25,73 -9,9 -12,10 -17,15 -3,3 -2,4 -6,4 -15,0 -27,-2 -42,-2zm67 4c18,-16 20,-15 39,-35 7,-8 14,-18 18,-28 10,-20 -1,-13 27,-33 13,-9 27,-17 46,-17 21,0 42,36 8,78 -17,20 -14,15 -32,32 -19,17 -16,12 -47,8l-59 -5zm-430 -42c-8,0 -13,-1 -18,-5 -8,-5 -8,-12 -8,-21 0,-16 15,-34 23,-44l16 -18c3,-3 5,-4 8,-7l23 -20c5,-3 10,0 20,2l68 17c-1,1 1,0 -2,1l-6 5c-3,2 -5,3 -8,6 -20,14 -45,35 -58,56 -5,9 -1,9 -9,13 -2,1 -3,1 -5,2 -10,5 -29,13 -44,13zm114 18c-16,0 -26,-11 -26,-26 0,-28 29,-54 47,-71 2,-2 3,-2 5,-4 16,-14 11,-9 19,-9 37,0 55,1 91,-9 6,-1 12,-5 18,-6l-30 40c-2,4 -5,6 -7,10 -5,6 -14,19 -20,24 -2,1 -3,2 -5,3 -20,16 -66,48 -92,48zm2243 -1011c0,-13 2,-31 7,-40 1,-2 4,-6 5,-7 7,-7 21,-5 29,-2 46,18 55,110 51,115 -2,3 -10,9 -13,13l-11 12c-8,10 -13,17 -20,28l-9 16c-1,-22 -35,-84 -36,-95 -2,-12 -3,-26 -3,-40zm61 -116c0,-16 0,-45 22,-45 56,0 76,76 80,123 1,6 -15,29 -19,34l-27 38c-3,3 -7,10 -10,12l1 -14c0,-40 -10,-85 -39,-108 -3,-2 -3,-1 -5,-7 -2,-9 -3,-23 -3,-33zm-24 -2657c2,3 8,5 13,6 67,30 105,98 131,162 15,35 41,87 65,113 19,21 30,29 61,37 45,11 30,-31 4,-31 -11,0 -16,4 -24,6 -3,-5 -12,-12 -21,-28 -16,-27 -31,-72 -44,-104 -7,-18 -22,-49 -33,-65 -5,-7 -9,-12 -14,-19l-51 -47c-7,-6 -12,-9 -20,-14 -23,-14 -36,-17 -62,-17 -2,0 -4,0 -5,1zm-4084 2619c39,0 60,46 72,77 11,30 10,32 26,64 3,7 7,12 10,18 3,4 4,6 6,10 14,20 29,41 50,54 19,13 58,25 78,20l4 -1c-21,-2 -45,-13 -61,-25 -7,-5 -11,-10 -15,-15 -3,-3 -4,-3 -7,-7 -16,-22 -26,-41 -36,-66 -17,-41 -27,-89 -56,-118 -18,-19 -44,-23 -68,-13 -2,1 -2,1 -3,2zm-206 -1831c0,6 3,16 6,20 10,17 16,8 36,8 18,0 37,21 47,34 3,4 2,4 7,5 21,-14 -40,-81 -82,-81 -9,0 -14,6 -14,14zm4615 -298c-8,0 -7,15 18,23 24,9 50,10 74,2 43,-13 11,-42 -5,-42 -20,0 -12,28 -63,22 -8,-1 -17,-5 -24,-5zm32 87c0,15 19,11 30,14 31,9 38,24 51,33 31,24 42,0 27,-20 -5,-6 -16,-14 -24,-18 -21,-11 -45,-17 -69,-17 -7,0 -15,2 -15,8zm6 -37c0,11 14,14 26,16 36,7 26,2 65,18 8,3 22,9 32,9 10,0 18,-2 18,-10 0,-10 -16,-17 -24,-22 -25,-14 -56,-4 -83,-10 -12,-2 -34,-11 -34,-1zm-4617 131c0,39 63,104 76,93 10,-10 -12,-24 -16,-28 -22,-27 -20,-43 -25,-59 -14,-39 -35,-21 -35,-6zm-48 12c0,12 10,30 16,38 19,22 44,30 68,60 2,3 3,4 6,7 3,3 3,3 8,4 8,-11 1,-20 -11,-32 -3,-3 -5,-4 -7,-6 -21,-19 -31,-38 -45,-58 -12,-16 -35,-32 -35,-13zm163 2033c0,14 23,24 36,27 27,4 50,-1 77,7 6,2 21,10 21,-2 0,-6 -6,-9 -10,-11 -24,-13 -62,-20 -88,-24 -9,-1 -36,-8 -36,3zm88 -2553c0,9 4,22 14,25 11,3 16,-1 30,9 26,20 25,45 35,45 7,0 6,-13 4,-18 -5,-28 -31,-59 -55,-73 -12,-8 -28,-9 -28,12zm4637 1899c0,-10 -10,-29 -20,-29 -13,0 -21,12 -52,-11 -15,-11 -15,-20 -24,-21 -4,7 -3,10 0,17 9,23 41,45 65,53 8,3 21,7 28,0 1,-2 3,-7 3,-9zm-4573 -1994c0,24 6,42 17,62 4,7 8,13 13,20 3,5 13,17 18,17 3,0 3,-1 5,-1 4,-8 1,-14 -4,-20 -8,-9 -14,-27 -16,-40 -2,-13 3,-47 -12,-54 -10,-6 -21,5 -21,16zm20 116c4,-4 5,-3 5,-8 0,-16 -21,-38 -33,-67 -2,-6 -4,-12 -6,-19 -6,-15 -7,-19 -19,-31 -4,-5 -10,-10 -15,-3 -4,6 -2,13 -1,20 5,22 12,33 27,49 4,5 7,9 11,14 18,22 20,39 31,45zm-250 2259c0,14 19,22 26,22 14,0 16,-21 43,-21l14 0c12,0 20,6 29,4 1,-3 1,-2 1,-4 0,-8 -14,-14 -20,-17 -34,-13 -93,-3 -93,16zm3021 -3366c0,21 -18,40 -33,51 -11,10 -1,20 23,2 16,-11 29,-28 38,-45 28,-49 -5,-54 -24,-34 -8,8 -4,14 -4,26zm-1389 -8c0,8 6,12 10,18 11,15 8,38 4,55 -3,10 -8,17 2,17 2,0 5,-3 6,-4 26,-26 24,-112 -1,-112 -10,0 -21,16 -21,26zm-1661 3259c0,32 51,43 77,47 40,6 36,-13 23,-17 -8,-2 -27,2 -54,-20 0,0 -31,-33 -43,-17 -2,1 -3,4 -3,7zm552 983c0,8 19,13 28,13 25,0 46,-14 79,-19 11,-2 27,3 27,-7 0,-5 -3,-7 -8,-8 -16,-4 -41,-2 -56,1l-51 8c-7,2 -19,3 -19,12zm161 146c0,7 6,10 13,12 28,6 58,-15 86,-24 17,-5 35,-1 35,-10 0,-23 -94,5 -105,8 -6,2 -29,8 -29,14zm3722 -3316c3,13 30,22 43,23 43,1 73,25 85,25 10,0 0,-16 -2,-18 -3,-4 -8,-8 -11,-11 -6,-6 -18,-14 -29,-15 -7,0 -12,-1 -21,-1 -14,0 -26,1 -40,-3 -15,-5 -18,-7 -25,0zm-876 -797c5,20 52,-10 61,-18l28 -31c23,-39 -28,-33 -34,-16 -4,11 -1,26 -19,41 -4,3 -7,6 -11,8 -10,7 -21,10 -25,16zm1166 2743c-2,6 -2,11 6,18 13,10 18,13 28,32 3,5 5,8 6,14 2,9 5,21 12,28 14,17 25,7 25,-11 0,-12 -13,-31 -20,-41 -3,-4 -6,-7 -9,-11l-16 -14c-8,-6 -20,-21 -32,-15zm-4756 286c0,10 14,17 22,21 24,12 52,3 79,8 7,1 33,10 33,2 0,-19 -38,-16 -57,-21 -25,-8 -54,-24 -72,-17 -4,2 -5,3 -5,7zm3663 -2996c0,4 3,6 7,6 11,0 20,-20 62,-25 2,0 26,4 40,-6 12,-9 2,-25 -12,-25 -22,0 -45,7 -60,17 -8,6 -37,22 -37,33zm1113 2688c0,12 14,22 21,28 26,23 26,26 46,52 19,26 50,32 30,-5 -3,-6 -6,-10 -10,-15 -12,-15 -43,-30 -55,-42 -5,-4 -21,-23 -26,-23 -3,0 -6,4 -6,5zm-3002 -2949c0,6 0,17 8,17 13,0 4,-20 23,-51 11,-19 30,-26 30,-47 0,-12 -26,-24 -47,25 -6,15 -14,40 -14,56zm1873 231c5,22 41,-14 70,-26 14,-5 59,-20 59,-37 0,-6 -10,-8 -17,-6 -44,8 -52,31 -81,49 -10,6 -27,13 -31,20zm-526 -200c0,6 6,8 12,5 6,-4 6,-5 11,-11 6,-8 15,-13 24,-19 16,-9 20,-7 32,-11 43,-14 24,-51 -22,-23 -8,4 -22,14 -27,20 -7,7 -30,31 -30,39zm-1377 -30c0,7 13,16 21,-24 4,-20 3,-17 10,-37 2,-6 4,-11 6,-16 6,-14 10,-21 11,-37 2,-18 -10,-27 -28,6 -9,18 -8,35 -10,53 -2,19 0,17 -6,38 -1,4 -4,13 -4,17zm1355 8c0,4 5,4 8,4 11,0 30,-25 39,-34l13 -11c3,-2 4,-3 7,-5 14,-9 43,-28 43,-45 0,-10 -19,-3 -26,1 -17,10 -20,12 -33,29 -7,9 -20,28 -27,35 -4,5 -24,21 -24,26zm1496 3447c0,42 86,111 86,66 0,-9 -5,-22 -14,-25 -12,-4 -14,3 -30,-7 -24,-15 -29,-40 -36,-40 -3,0 -6,4 -6,6zm0 56c0,11 20,33 27,43 3,5 5,9 8,15 10,17 14,32 26,45 22,26 28,-4 9,-35l-21 -24c-15,-15 -20,-20 -31,-38 -13,-22 -18,-9 -18,-6zm-26 15c0,17 15,13 25,50 2,5 3,9 3,15 -1,13 5,38 17,38 32,0 5,-57 -4,-71 -4,-7 -25,-36 -34,-36 -3,0 -7,0 -7,4zm-646 783c0,28 3,32 13,57 4,9 18,32 28,32 12,0 15,-14 15,-24 0,-17 -17,-11 -31,-34 -15,-25 -7,-48 -16,-48 -6,0 -9,11 -9,17zm-221 156l0 11c0,21 16,71 34,71 5,0 8,-1 12,-7 3,-5 3,-12 3,-19 0,-7 -8,-11 -12,-14 -7,-6 -9,-8 -13,-16 -8,-15 -8,-26 -8,-49l-4 -3c-5,1 -7,4 -9,9 -2,5 -3,12 -3,17zm-1451 412c0,11 0,22 13,22 7,0 22,-11 22,-23 0,-12 -14,-19 3,-54 7,-13 14,-18 14,-25 -8,-6 -12,-1 -20,7 -17,17 -32,51 -32,73zm1674 -407c12,-2 12,-14 13,-30 2,-19 -17,-49 -21,-87 -1,-2 -1,-6 -2,-9 -1,-4 -2,-5 -5,-7 -12,3 -8,19 -6,30 2,6 3,10 4,16 5,27 -2,64 12,82 2,4 2,3 5,5zm-54 -122c0,10 14,30 -1,65 -1,2 -2,3 -3,6 -4,12 -5,31 13,31 21,0 20,-51 16,-71 -2,-8 -8,-43 -20,-39 -3,1 -5,5 -5,8zm-194 150c0,11 3,25 3,46 0,17 -3,33 -3,42 0,24 16,44 24,14 11,-40 -9,-55 -9,-94 0,-6 0,-8 -1,-13 0,-9 0,-11 -6,-11 -3,0 -5,3 -6,6 0,1 -2,8 -2,10zm-29 -9c0,9 2,13 2,19 0,11 -3,29 -7,36 -5,11 -11,17 -11,33 0,13 15,20 26,5 14,-21 13,-70 4,-94 -2,-5 -3,-6 -9,-8l-2 2c-2,2 -3,3 -3,7zm-1497 386c0,11 17,18 39,-4l11 -10c9,-10 44,-64 24,-64 -7,0 -11,12 -13,15 -6,15 -22,29 -38,37 -9,4 -23,15 -23,26zm26 46c0,12 8,10 14,6 7,-5 21,-18 24,-25 3,-6 6,-11 8,-17 3,-6 5,-11 7,-17l8 -18c9,-18 29,-35 10,-35 -8,0 -25,37 -37,52l-20 25c-4,4 -6,7 -9,12 -2,5 -5,12 -5,17zm324 -4753c0,19 12,31 25,28 28,-5 31,-56 0,-53 -15,2 -25,15 -25,25zm443 4324c0,44 45,33 43,4 -1,-18 -21,-36 -37,-19 -3,3 -6,9 -6,15zm2004 -2484l0 16 0 1c-1,12 -5,33 -10,42 -16,29 -37,37 -67,29 -19,-5 -34,-17 -48,-30 -8,-9 -16,-19 -22,-30l-8 -17c-10,-24 -9,-63 3,-87 16,-33 43,-23 67,-8 19,14 34,52 17,72 -17,19 -39,0 -42,-20 0,-4 0,-10 0,-13 0,-6 1,-6 1,-11 -9,-2 -14,-2 -18,5 -11,18 -6,48 2,63 23,44 70,32 81,-21 3,-15 2,-33 -1,-46 -9,-39 -41,-85 -67,-115l-12 -13c-8,-9 -16,-18 -25,-27 -3,-3 -4,-3 -7,-6l-14 -12c-21,-21 -56,-44 -82,-59 -19,-11 -34,-17 -51,-26 0,6 2,10 3,16 0,5 1,10 2,16 4,24 10,75 9,98l1 53c1,8 -1,10 -1,16 0,70 -14,180 56,227 6,4 5,4 7,11l12 41c-5,-1 -4,-2 -8,-5l-12 -11c-10,-11 -19,-22 -27,-34 -10,-15 -20,-30 -27,-47 -2,-6 -5,-11 -7,-16 -16,-36 -27,-77 -30,-117l-5 -57c0,-4 0,-8 0,-12l-1 -23c0,-16 0,-32 0,-49 0,-41 -37,-100 -63,-132l-12 -12c-32,-30 -64,-51 -108,-62 -24,-6 -57,-5 -79,11 -19,15 -32,34 -38,59 -18,68 7,174 74,208 18,8 38,14 59,7 28,-9 49,-46 29,-75 -15,7 -40,6 -49,-12 -21,-45 50,-62 73,0 10,26 10,51 1,77 -4,12 -10,20 -18,28 -18,17 -44,18 -71,9 -20,-6 -37,-16 -52,-29 -37,-30 -63,-67 -82,-114 -18,-44 -27,-106 -1,-150 24,-39 85,-57 132,-50 39,7 73,26 101,50l12 10c10,9 19,20 29,29 4,4 7,8 11,12 10,10 22,27 30,38 4,5 16,23 20,26 0,-26 -2,-47 -7,-71 -11,-49 -32,-94 -63,-132 -5,-6 -15,-16 -18,-22 -39,0 -62,-4 -96,-18 -4,-1 -6,-3 -10,-5l-26 -16c-11,-7 -22,-15 -32,-24 -9,-10 -19,-20 -23,-35 -6,-21 8,-49 32,-50 9,-1 17,2 22,6 23,15 14,33 -2,42 -4,2 -7,1 -9,5 -3,6 2,17 4,21 7,11 21,19 33,24 27,13 66,19 88,-3 13,-12 15,-24 7,-42 -8,-20 -21,-35 -37,-48 -17,-14 -56,-36 -78,-37l-78 -6c-9,-1 -19,0 -28,-2 -9,-1 -16,-1 -26,-2 -8,0 -17,-1 -26,-2 -8,0 -18,-2 -26,-2 -21,0 -56,-4 -80,-5 -8,-1 -19,-2 -26,-2 -25,-1 -56,-6 -81,-6l-79 -6c-35,-4 -72,-3 -107,-7 -5,0 -9,0 -14,0 -26,-1 -71,-4 -95,-4 -20,0 -37,-1 -56,-1 -19,0 -38,0 -57,0 -7,0 -8,1 -13,1 -5,0 -10,0 -14,0 -8,0 -18,2 -21,-8 26,0 52,0 78,0 27,0 50,-1 77,-1 13,0 24,1 38,1l116 1c14,0 24,1 38,1l75 4c14,0 24,1 38,1 8,0 11,1 18,1l38 1c8,0 11,1 19,1 13,0 24,1 38,1 6,0 10,1 18,1l129 6c12,2 26,1 38,2 30,3 80,4 112,0 51,-6 6,-41 -16,-55 -8,-6 -15,-9 -25,-14 -7,-4 -7,-2 -17,-3 -27,-1 -56,-9 -80,-18 -13,-4 -51,-23 -53,-23 2,5 4,10 7,14 3,4 6,8 9,12 9,12 20,23 32,32 4,4 7,6 11,10 4,2 22,15 23,19 -20,-2 -52,-26 -68,-38l-33 -30c-11,-11 -22,-21 -31,-33 -59,-73 -49,-159 -121,-196 -9,-4 -21,-9 -34,-7 -24,4 -47,7 -72,11 -25,3 -50,6 -75,9 -74,10 -149,20 -222,32 -49,8 -96,16 -143,26 -25,5 -47,9 -71,14 -12,2 -23,5 -35,7 -10,3 -27,10 -29,-1 10,0 40,-9 52,-11 17,-4 33,-8 51,-11 18,-4 35,-8 52,-12 18,-3 35,-7 52,-11 35,-7 69,-14 104,-21 17,-4 35,-8 52,-11 36,-7 71,-12 107,-19 54,-10 108,-18 162,-27 48,-8 120,-17 162,-26 13,-3 38,-9 40,-21 -4,-10 -12,-12 -21,-17 -17,-8 -37,-14 -55,-19 -12,-4 -16,-5 -30,-2 -61,12 -124,25 -187,35l-189 32c-85,14 -170,27 -253,43 -30,6 -62,12 -93,19l-120 27c-29,8 -15,4 -27,1l0 -2c8,-1 38,-10 46,-12l164 -39c8,-2 15,-3 24,-5 7,-1 15,-4 24,-5l407 -82c27,-6 56,-12 84,-17 6,-1 8,1 11,-3 -8,0 -25,-6 -31,-9 -24,-12 -44,-28 -38,-58 1,-6 3,-9 5,-14 -21,0 -56,-13 -74,-22 -42,-23 -31,-65 4,-85 36,-20 81,-20 123,-20 -3,-4 -9,-6 -13,-8 -4,-3 -8,-4 -13,-6 -26,-11 -47,-20 -75,-26 -7,-1 -9,1 -15,3 -19,8 -38,15 -58,23l-113 46c-37,16 -75,31 -112,47l-453 185c-10,4 -19,7 -28,12 -9,3 -21,12 -27,4 4,-2 8,-3 12,-5 26,-9 52,-21 77,-31 30,-12 59,-25 88,-37 30,-12 58,-25 88,-37l21 -10c7,-3 14,-6 21,-9 7,-4 15,-7 22,-10l64 -29c42,-21 85,-38 127,-59l129 -58c4,-2 37,-15 42,-19 -27,0 -61,-4 -79,-13 -27,-13 -36,-26 -29,-56 -15,0 -32,-2 -45,-5 -86,-17 -69,-75 -28,-99 10,-6 20,-10 32,-15 19,-6 40,-10 60,-13 6,-1 15,-3 21,-3 -3,-4 -22,-11 -28,-14 -10,-5 -20,-8 -31,-11 -22,-6 -47,-11 -72,-14 -10,-1 -11,0 -17,4 -11,7 -31,14 -44,20 -10,4 -20,7 -31,11 -5,2 -10,3 -16,5 -4,1 -5,1 -9,2 -2,0 -2,0 -4,1l-3 2c16,0 35,6 45,12 22,14 22,39 9,60 -8,15 -20,28 -32,40 -2,3 -3,5 -6,8 -5,5 -10,9 -15,14 -29,28 -85,62 -120,79 -51,26 -107,48 -162,68 -28,11 -56,20 -84,31l-71 29c-1,0 -9,-4 -10,-4 3,-4 14,-8 19,-10l273 -133c36,-18 72,-35 104,-59 28,-20 71,-61 58,-101 -9,-26 -50,-17 -60,-22 -5,-2 -14,-7 -19,-8l0 -2c6,0 15,-3 21,-5 25,-6 49,-15 72,-25 6,-2 11,-5 16,-8 16,-8 31,-17 42,-31 34,-41 -43,-36 -66,-36 -17,0 -30,2 -45,2 -9,16 -40,34 -57,41 -15,7 -56,22 -78,16 -13,-4 -21,-13 -22,-27 -1,-25 34,-51 52,-29 12,16 3,26 -2,33 16,0 27,-4 37,-11 23,-17 60,-71 39,-92 -15,-15 -49,-8 -69,-3 -4,1 -5,1 -8,3 -4,5 -6,9 -11,13 -21,21 -41,37 -68,50 -6,3 -11,5 -17,7 -18,7 -41,13 -59,4 -8,-5 -19,-15 -21,-25 -3,-12 8,-28 13,-34 29,-32 54,-8 49,14 -2,6 -6,11 -10,14 -4,2 -11,7 -16,7 11,16 38,0 50,-8 4,-2 7,-5 10,-8 20,-17 50,-47 44,-77 -2,-11 -12,-14 -22,-15 -20,-2 -41,1 -59,9 -9,3 -15,6 -23,11 -23,12 -42,30 -59,47 -18,18 -46,32 -74,32 2,-5 10,-9 14,-12l34 -27c20,-18 65,-62 77,-83 10,-18 -22,-7 -30,-5 -7,3 -12,5 -17,8 -10,6 -25,19 -34,27 -2,3 -3,4 -6,6l-13 12c-8,7 -18,18 -26,24 -11,8 -27,25 -37,35l-49 49c-5,5 -7,8 -12,13l-49 49c-2,2 -3,4 -6,6 -15,13 -29,28 -44,43 -2,2 -3,3 -6,6 -2,2 -3,3 -6,5 -11,10 -20,21 -31,30l-31 30c-5,4 -8,8 -12,12 -3,3 -5,3 -7,6 -12,10 -26,26 -38,35 -10,8 -21,21 -30,31 -12,12 -132,134 -147,146l-26 24c-2,2 -4,4 -6,6 -15,14 -11,13 -24,13 7,-10 19,-18 27,-27 3,-3 6,-5 9,-8l190 -196c3,-3 4,-5 8,-9 3,-3 5,-5 8,-8l161 -171c6,-6 13,-12 18,-18 3,-4 5,-6 8,-9l69 -71c3,-3 4,-6 8,-9 9,-9 38,-36 43,-44 -5,1 -12,6 -16,8 -3,1 -5,2 -9,4 -32,15 -87,36 -122,25 -12,-4 -20,-12 -24,-23 -11,-31 4,-67 22,-91l23 -24c13,-10 30,-19 45,-26 19,-8 57,-18 78,-6 9,5 18,17 17,31 -1,28 -38,44 -53,26 -11,-13 7,-27 9,-32 -5,-1 -9,-4 -13,-5 -31,-10 -62,12 -76,41 -7,13 -13,40 -7,58 6,20 29,22 48,22 28,0 100,-29 114,-42l50 -45c27,-23 106,-83 134,-102 3,-2 7,-5 10,-7l31 -21c29,-18 61,-31 99,-40 33,-8 87,-11 119,6 -2,3 -9,7 -12,9 -21,-14 -58,-13 -84,-7 -9,2 -17,4 -25,7 -27,9 -64,29 -88,45 -4,2 -6,4 -10,7 -27,19 -45,32 -71,54 -2,1 -3,2 -5,4l-52 46c-4,3 -5,3 -8,8l32 -8c31,-6 51,2 30,30 -7,8 -17,17 -19,20 7,0 15,-5 21,-8 30,-10 88,-24 110,6 12,17 3,32 2,46 29,-7 75,-15 105,-4 50,19 8,73 7,78 4,0 10,0 15,-1 31,-4 76,-5 106,-3 17,1 37,6 39,25 0,9 -3,18 -7,24 -3,7 -9,12 -13,18 26,0 49,3 72,7 80,13 133,48 193,99l10 9c3,2 3,2 6,4l36 33c3,3 6,5 10,9l11 9c7,5 14,11 22,16 28,15 48,10 56,22 -7,2 -15,3 -22,4 -7,1 -15,3 -22,4 -14,3 -27,8 -40,11 2,3 3,2 7,3 42,9 82,26 119,47 4,3 7,5 12,8l34 24c11,9 21,18 32,27 14,12 26,27 38,41 2,2 3,3 5,5 1,2 2,3 4,5 3,4 6,7 9,11 5,8 11,15 16,23l23 36c2,4 4,8 7,12 7,12 -4,4 -42,11 -6,1 -11,3 -16,4l0 2c5,0 20,6 25,8 24,9 46,18 67,31 12,7 33,21 17,34 -5,4 -15,9 -21,11 -5,2 -22,6 -25,8 17,4 35,13 52,20 23,9 48,23 65,42 11,14 20,33 16,53 -2,7 -8,18 -15,20l0 2c10,1 36,18 43,24 24,17 53,52 45,86 -2,9 -7,14 -13,20 -4,4 -15,11 -22,12l3 2c27,17 84,50 101,74 23,32 -40,33 -63,33l7 5c31,17 63,41 86,69 2,3 3,3 5,6 21,27 42,63 7,88l-14 7c5,6 17,20 24,28 4,6 7,10 11,15 21,33 39,64 53,102 10,25 3,22 21,31 4,2 6,3 8,5 3,1 6,3 9,4 11,7 22,13 33,19 6,4 11,7 16,10l45 32c13,9 25,18 36,29 3,2 5,3 7,6l21 18c21,18 36,42 53,63 26,31 56,75 64,116 2,9 4,20 5,31zm-4722 -385c-11,-12 -30,-40 -41,-55l-16 -23c-3,-4 -5,-7 -8,-11 -13,-20 -40,-62 -52,-84 -26,-49 -55,-117 -61,-172 -3,-17 -3,-36 0,-53 3,-13 6,-18 11,-28 -4,-7 -4,-3 -5,-8l-13 26c-11,32 -10,67 -5,100 4,21 10,40 15,59 2,6 3,10 5,14 1,5 3,10 4,14 3,10 6,19 10,29 3,10 7,17 11,26 16,35 59,105 84,140 17,22 31,41 49,64 8,10 34,41 43,50 14,14 30,79 34,98 4,26 1,43 -22,50 -20,5 -43,-1 -60,-12 -22,-14 -44,-41 -44,-68 1,-30 4,-22 5,-34 8,5 21,16 33,6 20,-19 5,-54 -20,-55 -16,-1 -22,10 -27,20 -10,20 -14,52 -8,79 17,69 99,145 155,106 36,-25 19,-87 4,-123 -2,-5 -6,-12 -7,-17 5,3 5,6 9,10 2,1 3,2 4,4l96 107c2,3 2,3 4,6l17 19c14,15 31,33 44,49 3,4 5,6 8,10 1,2 2,3 4,5l38 45c3,4 6,6 9,10l16 21c3,3 5,6 8,10l32 41c26,35 54,69 81,104l66 81c6,7 12,13 17,20 10,13 65,78 77,89 2,3 3,3 4,6 2,2 2,3 6,4 0,-9 -1,-13 -5,-18 -16,-18 -36,-43 -52,-62 -55,-68 -109,-137 -161,-207l-10 -13c-3,-5 -6,-9 -10,-14 -15,-23 -60,-84 -78,-106l-30 -39c-3,-4 -6,-8 -10,-12l-126 -151c-3,-4 -6,-8 -10,-13 -4,-4 -7,-8 -10,-12 -8,-9 -15,-17 -22,-25l-42 -51c-7,-8 -13,-16 -20,-24 -12,-14 -11,-14 -15,-32 -3,-12 -6,-27 -7,-39 -1,-5 -2,-17 -1,-21 1,-11 2,-11 4,-20 7,0 17,10 21,15l33 38c6,7 11,14 17,21 10,14 20,27 30,42l13 23c4,8 8,16 11,26l2 0c3,-13 5,-15 3,-31 -6,-37 -26,-71 -48,-100l-16 -21c-8,-14 -18,-34 -23,-51 -23,-91 53,-78 95,-12 7,12 14,28 11,43 -1,8 -4,9 -5,15 -10,-3 -15,-21 -33,-17 -16,2 -18,22 -12,33 10,21 46,42 64,19 20,-28 -1,-94 -17,-123l-34 -44c-17,-17 -20,-12 -22,-30 -2,-25 -7,-73 8,-91 18,-20 56,5 72,18 14,11 28,24 35,42 4,9 6,23 1,33 -2,3 -3,4 -4,8 -7,-2 -17,-22 -35,-26 -19,-5 -28,16 -21,33 9,20 34,38 56,30 24,-9 28,-40 25,-65 -1,-13 -4,-25 -9,-36 -2,-5 -3,-7 -5,-11 -8,-20 -23,-41 -38,-55 -2,-2 -6,-5 -8,-7 -3,-2 -7,-4 -10,-6 0,-22 -3,-43 2,-68 7,-41 29,-58 60,-21 24,30 51,99 54,141 3,-2 7,-11 9,-15 4,-8 3,-9 1,-20 -2,-14 2,-34 7,-43 30,-59 113,36 136,75 25,44 56,172 68,229 2,7 3,14 5,21 3,15 20,93 20,104l2 0c1,-12 4,-2 1,-21 -1,-8 -2,-15 -3,-23 -11,-72 -21,-146 -38,-217 -7,-27 -15,-53 -24,-79 -2,-6 -4,-12 -7,-18 -1,-4 -2,-6 -4,-9l-8 -17c-2,-3 -3,-5 -5,-8 -3,-6 -6,-10 -10,-16 -3,-5 -6,-10 -10,-15 -4,-5 -7,-10 -11,-15l-12 -14c-19,-20 -49,-46 -76,-51 -28,-6 -46,36 -47,54 -4,-6 -9,-48 -44,-100 -2,-3 -2,-2 -2,-8 0,-4 1,-13 2,-17 4,-30 16,-59 33,-83 3,-4 6,-9 10,-11 0,47 18,126 62,144 29,11 55,-2 65,-30 5,-13 7,-28 7,-45 0,-9 0,-18 -1,-26 -1,-8 -2,-15 -2,-23 5,1 9,6 14,9 34,17 53,-14 59,-44 3,-14 4,-25 4,-42 1,1 0,0 1,2 6,10 10,21 15,31 14,27 25,55 37,82l30 72c51,129 97,263 146,394 6,16 12,33 18,49 6,17 13,33 18,50 8,25 18,49 27,74 2,5 6,22 10,24 1,-15 8,1 -3,-28 -1,-5 -3,-9 -5,-14 -14,-38 -33,-89 -45,-126 -6,-18 -14,-36 -20,-56l-116 -339c-11,-33 -23,-65 -35,-97l-16 -42c-3,-9 -7,-18 -10,-27 -18,-51 -40,-100 -61,-149 -2,-5 -4,-9 -4,-15 -1,-13 -1,-104 25,-79 7,6 12,14 17,22 7,12 13,24 19,37l17 41c2,4 3,9 5,13l28 68c27,68 54,137 77,206 19,59 43,125 64,184l58 169c4,10 7,18 10,28 2,10 7,20 9,30 3,-2 3,-4 5,-7 3,-6 -2,-12 -5,-23l-22 -65c-3,-11 -7,-22 -11,-34l-128 -396c-12,-32 -22,-64 -34,-96l-48 -128c-5,-15 -8,-20 -8,-36l-1 -42c0,-25 6,-48 30,-57 35,-12 62,28 72,56 7,20 7,53 -13,67 -2,-13 -11,-24 -24,-25 -7,0 -14,3 -17,7 -4,4 -5,11 -5,20 1,13 9,26 17,32 30,18 69,-21 69,-72 0,-30 -2,-58 -16,-83l-11 -19c-2,-4 0,-11 1,-15 2,-15 6,-27 10,-39 3,-6 5,-11 8,-16 3,-5 7,-11 11,-14 24,-21 47,-8 63,15 4,5 7,10 9,16 12,28 24,78 -2,95 1,-8 2,-11 -1,-21 -5,-18 -33,-28 -42,-7 -10,24 10,55 35,57 6,1 15,-2 19,-4 15,-9 24,-27 29,-44 9,-35 5,-70 -8,-103 -7,-17 -4,-19 1,-37 2,-6 3,-13 5,-19 4,-10 9,-24 15,-32 12,-16 19,-3 25,9 18,36 30,109 30,163 3,-2 13,-27 17,-33 12,-21 7,-32 1,-54 -2,-11 -8,-32 -7,-43 1,-28 7,-59 18,-84 6,-14 17,-29 33,-33 16,-5 31,21 36,31 12,24 31,87 0,103 -3,-12 -2,-36 -26,-33 -24,3 -26,57 1,64 41,11 71,-45 71,-87 0,-26 -5,-49 -12,-69 -4,-11 -1,-12 6,-29 7,-14 18,-41 32,-49 12,-7 16,8 19,17 16,47 20,105 25,156l7 85c1,16 3,33 3,48l1 39c2,12 0,28 1,40 3,23 -1,57 2,79l5 239c4,0 3,-1 6,-3 2,-1 4,-3 6,-4l-2 -30c-2,-16 -2,-60 -2,-80 1,-7 0,-10 -1,-15 -1,-21 0,-44 1,-63 2,-19 1,-45 0,-65 0,-11 2,-19 2,-30l0 -98c0,-12 -2,-19 -2,-30 0,-11 1,-23 0,-33l-2 -62c-1,-5 0,-10 -1,-15 -1,-9 4,-13 10,-20 3,-4 5,-5 8,-9 13,-16 38,-31 57,-39 18,-8 46,-14 72,-25 15,-7 30,-14 43,-22 16,-9 33,-20 47,-33 9,-9 16,-14 24,-25 11,-14 16,-27 20,-45 -10,8 -12,26 -59,46 -4,2 -8,3 -11,4 1,-7 19,-41 26,-73 5,-25 10,-61 -9,-82 -8,-8 -19,-15 -35,-13 -32,6 -76,63 -78,73l-2 0c-4,-15 -40,-51 -85,10 -18,25 -31,55 -40,85 -1,2 -1,4 -2,7 -1,4 0,4 -3,6 0,-17 -5,-74 -28,-76 -9,0 -16,9 -21,15 -10,12 -47,76 -50,89 -1,-1 0,0 -2,-2 0,-1 -1,-2 -1,-3 -20,-40 -53,-40 -82,-6 -18,20 -27,50 -33,77 -2,9 -5,22 -5,32l-1 0c0,-13 -7,-34 -11,-45 -5,-14 -13,-28 -30,-20 0,-13 -3,-25 -3,-37 0,-47 0,-66 9,-112 8,-41 22,-83 48,-115 13,-15 26,-28 46,-35 53,-22 89,41 57,73 -18,18 -51,15 -52,-5 9,-1 18,-9 24,-15 6,-7 6,-23 0,-30 -6,-8 -14,-13 -28,-9 -34,9 -41,48 -24,76 25,40 85,21 104,-10 16,-24 21,-64 5,-93 -2,-4 -5,-9 -8,-12 -1,-2 -2,-4 -4,-6l-10 -10c-6,-5 -12,-9 -19,-11 -48,-15 -96,39 -116,78 -20,38 -33,76 -41,119 -1,11 -4,22 -5,34 -1,5 -2,11 -2,17 0,6 -1,13 -2,19l-1 38c0,15 1,26 1,39 0,25 7,24 -1,42 -9,21 -17,44 -24,66 -1,4 -4,12 -5,16 -28,-32 -60,-41 -91,-9 -18,17 -27,46 -35,70 -2,7 -7,22 -7,29 -7,-2 -22,-20 -44,-17 -19,2 -30,10 -38,24 -7,13 -12,30 -15,46 -3,19 -6,37 -6,58l-5 -9c-4,-9 -10,-18 -17,-25 -13,-12 -25,-10 -32,8 -8,20 -9,48 -12,71 0,5 0,10 0,14 0,5 -1,7 -1,13 -5,-7 -9,-35 -10,-43 -3,-15 0,-30 -4,-50 -3,4 -1,0 -2,6l-8 22c-8,17 -20,32 -33,45l-39 39c-4,4 -6,6 -10,10 -27,28 -72,88 -93,120 -5,8 -10,16 -14,25 -20,39 -30,80 -30,127 -16,-4 -28,-10 -44,3 -27,23 -26,114 -23,147 -3,-2 -5,-4 -9,-6 -3,-2 -7,-4 -11,-5 -28,-9 -47,17 -55,39 -9,24 -7,61 -2,87 2,9 4,18 6,26 -26,-18 -55,-11 -59,26 -3,32 2,69 8,96 -2,-2 -3,-5 -6,-7 -2,-3 -4,-5 -7,-7 -3,-4 -10,-10 -17,-10 -12,0 -13,28 -13,42 0,20 1,32 4,51l8 34c1,4 3,6 3,10zm1979 -1862l4 0c48,1 79,36 59,87 -32,80 -139,70 -139,18 0,-21 12,-47 31,-56 14,-7 38,-3 42,15 5,24 -23,40 -43,42 4,4 10,6 15,8 5,3 10,4 17,5 34,5 65,-37 34,-68 -34,-34 -91,-10 -123,19l-12 11c-11,11 -22,21 -32,33 -17,20 -33,41 -48,63l-39 69c-3,5 -12,26 -12,31 6,-3 39,-6 49,-7l53 0c15,0 37,2 53,3 18,1 38,-1 52,-3 17,-3 29,-8 42,-15 6,-3 12,-6 19,-9 14,-5 27,-10 43,-12l24 -3c18,-2 35,3 52,3 24,-45 52,-86 82,-127 3,-3 5,-6 8,-9l22 -25c11,-11 21,-22 34,-31 30,-24 69,-37 105,-15 4,3 6,4 9,7 4,3 5,5 9,7 24,-13 46,-24 76,-31 31,-7 60,-5 83,17 31,31 9,85 -18,112 -17,18 -49,37 -74,33 -44,-7 -74,-52 -38,-89 8,-9 20,-17 34,-19 15,-3 30,5 33,18 5,19 -21,43 -39,38 -8,-2 -10,-8 -15,-12 -3,6 -1,15 2,20 18,24 60,20 78,-4 24,-32 -7,-72 -45,-77 -46,-6 -84,16 -118,41 -4,4 -8,7 -13,10l-25 22c-7,7 -15,15 -22,23 -31,30 -61,64 -82,103 10,0 39,7 59,8 6,0 8,1 15,1 6,0 11,0 16,0 12,0 22,-1 31,-2 19,-3 36,-7 49,-16 6,-4 14,-14 18,-15l27 -5c-5,8 -24,23 -33,29 -30,20 -61,33 -99,38 -14,2 -28,1 -42,1 -1,3 -5,8 -7,12l-67 129c-24,47 -47,95 -70,142l-48 95c-8,16 -16,31 -24,47l-43 82c-2,4 -4,7 -6,11l-31 58c-2,4 -4,7 -7,11l-25 46c-2,4 -4,7 -6,11l-13 23c-2,4 -4,7 -6,11 -10,20 -21,38 -32,57 -3,5 -4,5 -12,5l94 -177c4,-7 7,-13 11,-20l20 -40c19,-38 35,-75 54,-113l67 -144c2,-4 3,-6 5,-10l24 -52c2,-4 3,-6 4,-10 3,-7 7,-13 10,-20 4,-9 27,-57 27,-63l-19 17c-19,15 -42,32 -66,39 -18,5 -43,10 -58,-1 -15,-12 -18,-27 -18,-53 -3,2 -4,4 -6,7 -14,17 -29,31 -44,47l-14 12c-14,11 -28,22 -45,31 0,5 2,8 2,13 3,28 -6,56 -21,78 -15,23 -34,44 -58,57 -40,22 -94,30 -135,5 -23,-14 -45,-34 -55,-59 -5,-12 -11,-34 -10,-48 2,-35 14,-62 29,-86 7,-12 14,-23 23,-34 8,-11 16,-22 26,-32l42 -43c4,-4 11,-10 14,-14 -62,0 -108,27 -149,69 -5,5 -3,7 -4,16 0,21 -7,46 -14,64 -12,29 -46,85 -83,72 -10,-4 -18,-10 -20,-21 -1,-5 -1,-14 0,-18 2,-7 3,-9 6,-13 18,-21 37,-4 42,18 18,-5 30,-37 33,-54 3,-23 6,-57 -6,-73 -16,-22 -48,-1 -64,13l-10 11c-15,19 -26,39 -36,61 -14,32 -21,66 -26,102 -7,50 -14,99 -22,148 -25,146 -53,291 -74,439l-15 113c-1,7 -2,13 -2,20 -1,5 -2,13 -2,19 -4,1 -6,3 -9,5 0,-14 24,-198 27,-226 4,-37 9,-76 14,-112 1,-10 2,-19 4,-28 9,-64 20,-127 31,-190 6,-41 20,-125 23,-166l4 -59c1,-9 12,-107 -2,-112 -7,-3 -19,11 -23,16 -17,18 -17,34 -30,34 -4,-6 -4,-6 -2,-13 8,-21 38,-53 52,-68 6,-5 12,-12 19,-16 35,-17 21,60 21,71 3,-4 5,-10 7,-14l15 -26c3,-3 6,-7 8,-11l19 -22c22,-24 79,-63 103,-26 4,7 10,20 10,30 5,-1 8,-6 12,-10l23 -20c5,-3 8,-6 13,-9l38 -26c5,-3 9,-5 14,-8 3,-2 4,-3 7,-4 2,-1 3,-1 4,-2 2,-1 2,-1 3,-2l21 -44c3,-6 5,-9 8,-14 7,-14 15,-28 23,-41 38,-65 99,-146 171,-175 15,-7 30,-10 44,-10zm2400 3307c8,5 23,19 36,17 13,-2 10,-29 9,-42 -2,-20 -10,-46 -16,-64 -3,-7 -7,-14 -8,-20 9,6 51,53 65,68 2,2 2,3 4,5 14,16 51,60 64,78 100,141 59,218 61,230 1,4 5,9 6,14l3 0c0,-4 3,-10 4,-13 11,-34 10,-73 0,-107 -5,-19 -11,-35 -18,-52l-23 -47c-5,-7 -8,-15 -13,-23 -2,-4 -4,-7 -6,-11 -2,-3 -5,-7 -7,-11l-13 -22c-5,-7 -10,-13 -15,-20 -15,-19 -29,-36 -44,-53 -19,-24 -65,-73 -86,-90l-23 -22 -13 -23c-10,-19 -28,-58 -20,-82 10,-28 53,-22 76,-10 23,11 44,29 51,55 3,13 0,20 -2,31 -5,-1 -3,-1 -6,-4 -15,-11 -39,-3 -26,32 3,7 13,21 24,19 21,-3 38,-50 22,-93 -9,-24 -30,-53 -50,-69 -13,-10 -15,-13 -32,-22 -23,-11 -46,-13 -67,1 -50,33 2,114 5,125 -6,-4 -12,-10 -17,-15l-85 -82c-10,-7 -49,-46 -59,-56 -3,-3 -5,-5 -9,-8 -10,-11 -22,-24 -33,-33 -11,-8 -31,-30 -42,-41 -3,-3 -5,-5 -9,-8l-81 -85c-3,-2 -6,-5 -8,-8 -3,-3 -4,-5 -8,-8 -6,-6 -10,-12 -16,-18l-125 -140c-8,-8 -25,-31 -32,-36 0,18 2,14 14,28 2,2 2,3 4,5l82 95c3,3 3,3 5,5 11,11 19,23 29,34l54 61c2,2 2,3 4,5l136 146c21,21 43,41 62,63 13,15 68,68 83,83l52 52c4,4 6,7 10,11 27,26 39,35 54,71 8,19 20,47 7,66 -14,-4 -27,-20 -36,-29 -24,-23 -52,-49 -73,-76 -6,-7 -12,-15 -16,-24 -2,-5 0,-3 -4,-6 -4,19 8,44 15,56 9,15 21,28 33,41 26,29 63,78 62,120 0,9 -5,23 -10,27 -14,14 -38,-3 -51,-12 -7,-5 -15,-10 -21,-15 -24,-20 -40,-39 -31,-76 8,6 18,20 31,13 24,-14 8,-49 -22,-51 -15,-1 -24,8 -29,20 -10,23 -2,58 6,78 13,32 35,59 64,78 11,7 11,10 19,29 3,8 9,27 6,40 -8,48 -70,10 -90,-5 -7,-5 -12,-11 -18,-17 -2,-3 -3,-4 -5,-7 -9,-14 -10,-21 -6,-37 4,1 9,8 14,11 24,13 37,-13 19,-35 -21,-27 -48,-11 -53,21 -6,34 18,71 35,93 8,9 17,18 26,25 6,5 11,7 16,11 0,15 3,28 5,43 0,6 2,15 2,21 2,17 4,49 -20,50 -13,0 -24,-7 -33,-16 -25,-22 -47,-54 -60,-86 -4,-11 -10,-23 -13,-35 -3,2 -4,6 -5,9 -2,5 -1,6 1,10 2,8 4,15 5,23 3,16 3,36 -6,47 -11,13 -24,10 -41,4 -13,-4 -26,-11 -37,-19 -54,-37 -84,-99 -112,-156l-23 -48c-8,-18 -40,-82 -46,-97l-35 -77c-2,-3 -3,-6 -4,-10 -6,-14 -18,-37 -21,-50 -4,2 -4,5 -5,10 0,5 1,7 3,11 3,7 5,13 8,20 3,7 6,13 9,20l42 101c3,7 5,12 8,19 11,27 23,53 35,79 21,41 45,93 71,129 4,5 8,11 12,16 4,6 7,11 12,17 10,13 19,28 31,39 5,5 9,11 14,15 3,2 5,4 8,7 3,3 11,9 16,12 33,19 56,9 74,-20 4,-6 6,-13 11,-19 5,24 25,53 41,69 7,8 5,38 4,49 -3,26 -10,50 -19,73 -3,9 -9,19 -11,27 -4,-2 -2,-3 -3,-9 0,-4 -1,-8 -1,-11 -3,-19 -9,-39 -16,-56 -15,-34 -44,-67 -84,-56 -12,3 -22,12 -26,23 -13,34 -4,59 -1,85 -11,-1 -35,-15 -55,13 -9,14 -14,38 -14,62 -5,-6 -19,-36 -22,-43l-16 -32c-2,-5 -3,-7 -5,-11 -3,-8 -7,-15 -10,-23l-104 -256c-15,-39 -33,-75 -49,-113 -2,-5 -3,-7 -5,-12 -21,-49 -44,-98 -65,-147l-20 -45c-4,-8 -7,-15 -10,-23 -3,-6 -10,-17 -10,-23 -4,2 -5,10 -3,14 40,92 79,184 117,277 9,20 17,39 25,59 8,19 16,39 24,59l130 326c4,10 8,19 12,30l40 104c3,5 5,11 6,16 2,9 3,65 12,72 0,-21 37,-65 51,-82 21,-25 41,-49 60,-75 40,-55 74,-116 82,-187 3,-21 2,-50 -2,-70 3,0 7,3 10,5 11,5 26,8 37,2 12,-7 21,-23 21,-41 0,-21 -1,-39 -4,-58l-8 -55c11,3 40,22 63,-2 24,-23 2,-94 -8,-114 11,3 26,11 41,-1 10,-8 13,-23 13,-40 -1,-24 -7,-52 -15,-75 -2,-4 -3,-5 -4,-9zm-1138 1391c7,-11 16,-20 23,-31 38,-57 62,-139 35,-206 -4,-11 -12,-24 -19,-33 -7,-7 -13,-14 -20,-20 -25,-20 -61,-24 -94,-11 -24,10 -45,25 -63,43 -19,19 -33,38 -45,62 -5,10 -11,28 -12,41 -2,13 -3,39 2,48 -8,2 -20,11 -25,16 -16,14 -43,57 -45,78 -5,-5 -25,-72 -84,-14l-11 13c-3,4 -7,12 -11,15 3,-14 6,-28 9,-43 15,-70 31,-141 47,-212l28 -127c2,-14 5,-29 9,-43l17 -86c3,-15 7,-28 10,-43l29 -127c-2,0 -5,2 -7,3 -5,4 -6,17 -7,23 -3,11 -6,21 -8,32 -6,22 -12,43 -17,65 -3,11 -6,20 -8,31 -14,54 -29,108 -40,163 -10,45 -21,87 -32,131 -17,66 -31,132 -44,199 -8,42 -28,133 -51,172 -3,6 -7,6 -13,8 -35,11 -82,40 -103,69 -10,14 -22,32 -22,50 9,-2 17,-11 24,-15 0,-21 14,-35 30,-45 6,-3 10,-6 17,-8 20,-8 57,-20 81,-20 -1,14 -30,80 -36,93l-7 14c-3,5 -5,10 -8,15 -5,9 -10,18 -16,27 -12,17 -24,34 -38,48 -15,15 -29,29 -46,40 -20,13 -40,23 -65,19 -35,-5 -62,-45 -32,-73 7,-6 18,-11 33,-9 10,2 23,10 28,16 -20,-4 -44,13 -40,35 3,20 32,24 49,8 51,-48 -19,-102 -68,-75 -13,7 -23,17 -31,28 -39,60 -2,121 67,112 18,-2 42,-13 55,-21 18,-11 29,-22 34,-25 5,-3 9,2 15,3 29,6 62,-13 82,-31 11,-10 20,-19 29,-30 3,-4 6,-7 9,-11l12 -17c6,-11 12,-20 17,-32 11,-28 20,-59 28,-88 6,-21 12,-41 17,-62 12,-1 44,-18 57,-25l43 -28c25,-20 49,-46 60,-76 2,-8 7,-23 7,-33 -3,2 -8,12 -10,16 -4,6 -8,12 -12,17 -2,3 -4,5 -6,8 -23,26 -49,47 -81,60 -4,2 -7,2 -10,4l10 -26c3,-9 5,-18 8,-29 11,-44 23,-93 55,-126 5,-4 15,-13 22,-14 2,18 21,37 37,43 9,4 20,7 34,5 29,-4 33,-31 25,-51 -12,-25 -43,-33 -69,-26 -6,1 -12,4 -16,5 0,-16 -8,-26 0,-58 4,-16 13,-31 23,-42l11 -11c33,-28 80,-52 124,-37 50,17 73,77 66,128 -5,36 -12,64 -35,94 -6,9 -13,18 -21,26 -9,9 -27,25 -39,26 -6,1 -11,1 -16,1 -19,3 -34,7 -50,14 -34,15 -69,47 -77,85 -3,16 0,15 0,28 5,-1 23,-30 24,-34 0,-8 -1,-11 2,-18 7,-16 31,-23 51,-26 39,-7 75,-14 112,-25 4,-2 11,-5 16,-5 -11,47 -21,94 -42,137 -5,11 -9,20 -14,30 -3,6 -5,10 -7,15 -2,3 -3,4 -4,7 -2,2 -3,5 -5,8 -9,16 -19,32 -31,46 -2,3 -3,4 -5,7 -12,13 -35,32 -54,35 -42,7 -74,-30 -56,-65 6,-13 9,-17 22,-23 9,-4 26,-8 38,-4 12,4 17,13 17,29 -5,-1 -8,-5 -15,-6 -20,-5 -34,11 -33,30 2,24 34,30 54,10 19,-19 26,-74 -9,-87 -13,-4 -22,-6 -37,-2 -21,6 -39,20 -50,37 -10,14 -18,46 -15,69 6,58 77,66 131,12 13,-12 25,-26 35,-41 2,-3 2,-3 4,-6 12,-17 22,-36 32,-55 2,-5 4,-10 7,-15l18 -47c2,-5 4,-10 6,-16 2,-5 3,-11 5,-16 9,-27 16,-59 20,-89 1,-10 1,-8 9,-12 19,-9 42,-26 57,-41 12,-14 23,-28 32,-44 5,-9 8,-19 12,-28l1 -2c3,11 23,32 34,33 13,1 32,-18 39,-27 19,-25 31,-58 37,-90 2,-5 0,-3 3,-6 0,12 5,26 8,37 2,6 3,11 5,17 3,7 5,10 10,13 3,-1 5,-3 8,-5 6,-5 14,-16 18,-23 8,-12 14,-24 20,-37 11,-27 21,-56 28,-84 0,0 0,0 0,1 0,0 0,1 1,1 0,1 0,2 0,3 0,1 1,4 1,6l7 37c3,19 -2,38 -2,56 7,-8 7,-14 19,-25 9,-8 17,-13 26,-19 36,-24 75,-42 96,-82 3,-5 5,-8 7,-14 3,-6 5,-10 7,-17 3,-8 8,-27 8,-37l3 4c5,8 11,21 22,23 12,2 24,-14 30,-22 18,-22 18,-58 18,-86l-3 0c0,16 -30,107 -67,19 -4,-9 -26,-66 -25,-77 0,-3 4,-13 6,-15 7,-14 14,-9 25,-2l11 9c14,14 27,30 39,42 4,4 6,7 10,11 9,9 31,35 44,37 17,3 22,-48 24,-58 1,-10 4,-26 4,-37 3,2 4,4 7,7 64,52 70,-57 68,-99 -1,-9 -3,-19 -3,-28 4,4 6,9 8,14l25 52c51,110 88,230 50,351 -11,36 -30,73 -61,94 -5,4 -9,6 -14,9l0 25c68,-36 95,-122 105,-194 2,-13 4,-27 5,-40 0,-7 1,-8 1,-14 0,-49 1,-61 -10,-109 -11,-50 -28,-98 -50,-144l-15 -31c-13,-27 -28,-51 -43,-76 -8,-14 -37,-65 -37,-83 -5,4 -9,15 -9,23 -1,10 3,21 5,28 12,36 24,64 25,103 1,25 1,65 -16,81 -16,15 -50,-23 -58,-34 -5,-6 -8,-13 -12,-20 -11,-22 -11,-57 10,-71 1,26 31,40 37,15 6,-29 -27,-73 -60,-17 -7,12 -10,26 -12,41 -3,27 8,60 21,83 4,8 16,25 25,28 0,11 -3,24 -5,35 -4,26 -27,11 -40,0 -2,-2 -4,-3 -6,-5 -2,-2 -3,-3 -5,-5l-16 -15c-11,-11 -29,-32 -41,-40 -9,-5 -20,-9 -31,-3 -7,3 -12,9 -16,14l-5 7c0,-5 -2,-11 -3,-15l-10 -41c-5,-19 -10,-37 -15,-56 -27,-108 -55,-216 -76,-326 -1,-5 -3,-11 -3,-16 -8,6 -6,12 -5,20 2,40 10,82 17,121 3,16 6,31 8,46 8,47 20,92 29,138 10,51 23,105 38,155 10,36 21,70 34,104 6,16 14,26 9,42 -7,24 -21,42 -40,56 -3,3 -5,5 -9,6 0,-13 11,-45 6,-79 -2,-19 -4,-35 -14,-51 -14,-23 -44,-40 -68,-17 -11,10 -31,39 -32,55 -3,-3 -3,-11 -4,-16l-41 -227c-2,-11 -4,-24 -5,-36 -5,-46 -13,-99 -18,-146l-17 -128c-1,-6 -2,-12 -3,-18l-2 0c-2,9 -6,0 -3,23 1,8 1,18 3,27 1,8 1,18 2,25l7 80c3,18 3,35 6,53 3,26 5,53 8,79 8,89 25,190 40,278l14 73c1,8 4,16 3,25 -7,34 -21,78 -40,106 -4,7 -7,11 -14,15 -10,-7 -14,-34 -17,-46 -3,-18 -7,-35 -11,-52 -15,-74 -27,-148 -34,-223 -1,-21 -9,-96 -10,-118 0,-19 -4,-39 -4,-58 0,-23 -8,-96 -10,-118 -5,-56 -16,-117 -20,-172l-8 -72c-1,-15 -3,-30 -3,-45 -2,1 -9,9 -10,11 -3,5 7,81 8,93 2,32 6,64 9,95l8 97c1,7 1,13 1,20 0,11 3,26 3,37l13 237c1,19 4,38 6,57 1,13 3,24 5,37 3,23 7,48 12,71 12,48 21,96 6,144 -7,20 -15,41 -27,56 -17,21 -38,-2 -49,-17 -18,-22 -35,-65 -18,-93 4,-8 14,-15 24,-18 -1,11 -4,23 5,30 16,13 41,-1 29,-34 -9,-23 -33,-25 -50,-12 -9,7 -13,11 -19,21 -5,8 -8,19 -11,29 -4,20 -3,51 2,71 7,29 16,28 0,60 -12,26 -34,47 -59,61 -10,6 -44,22 -57,23zm-3631 -1831l0 20c0,55 41,118 75,159l22 25c32,31 63,63 98,90 6,5 12,9 18,14 23,19 48,35 73,52 11,7 9,2 13,18 17,60 48,115 87,164 6,8 31,37 37,41 3,2 6,4 7,8 -19,1 -52,19 -52,46 0,32 41,71 66,89 3,3 6,4 9,7 9,6 19,13 29,18l16 7c0,1 2,1 2,2 3,1 2,0 3,2 -18,0 -71,2 -71,26 0,27 87,86 118,86 -6,-8 -71,-38 -71,-61 0,-12 18,-17 28,-20 21,-4 65,-6 86,-6l23 -2c8,0 13,-1 22,-1 17,0 30,-1 46,-1l141 0c125,0 247,-3 372,-3 41,0 80,1 121,1 -6,-10 -4,-10 -20,-10l-296 -1c-6,0 -9,-1 -15,-1 -21,0 -41,-1 -61,-2 -6,0 -8,-1 -14,-1 -6,0 -11,0 -16,-1 -9,-1 -21,0 -30,-1 -8,-1 -22,0 -31,0 -7,0 -8,-1 -14,-1l-47 0c-11,0 -19,-1 -30,-1l-126 0c-5,0 -10,0 -15,0 -7,0 -9,-2 -15,-2 -28,0 -28,3 -55,-6 -39,-13 -52,-23 -81,-45 -11,-9 -23,-27 -23,-41 0,-32 33,-46 62,-46 25,0 41,2 59,16 11,9 22,28 22,42 -4,-3 -8,-5 -15,-5 -23,0 -29,28 -14,42 19,19 65,8 51,-43 -6,-21 -21,-40 -37,-51 -26,-20 -63,-30 -98,-34 -12,-1 -8,3 -15,-6 -4,-4 -8,-7 -12,-11 -8,-11 -17,-20 -29,-36 -15,-22 -29,-45 -40,-70 -15,-31 -25,-69 -29,-104l-2 -42c3,1 17,27 23,36 8,11 17,23 26,33l20 20c20,20 41,39 66,52 9,5 17,10 27,13 40,13 73,14 107,-11l11 -10c3,-2 2,-2 5,-5 1,-2 3,-3 4,-5 10,-12 15,-25 20,-40 18,-45 16,-112 2,-159 -2,-7 -3,-15 -6,-21 -10,-27 -23,-47 -38,-70l-11 -16c-29,-37 -80,-66 -128,-66 -34,0 -57,24 -57,57 0,29 7,55 21,75 41,57 98,30 98,-8 0,-20 -9,-50 -32,-50 -11,0 -24,12 -24,24 0,13 14,25 27,26 -5,10 -8,18 -23,18 -11,0 -26,-14 -31,-21 -17,-25 -17,-61 0,-84 3,-5 9,-10 14,-13 6,-2 16,-5 23,-4 22,3 41,11 58,25 3,2 6,3 8,6 2,1 2,2 4,3 42,36 62,79 66,135l0 58c-1,5 -1,9 -2,14 0,5 -1,10 -2,15 -9,50 -39,102 -96,102 -18,0 -29,-3 -45,-10 -11,-5 -18,-9 -28,-16 -5,-3 -8,-5 -12,-9 -3,-2 -4,-3 -6,-5 -20,-18 -37,-38 -51,-61l-12 -21c-6,-11 -27,-54 -27,-62 0,-11 2,-24 4,-34 5,-39 3,-78 -6,-116 -4,-16 -11,-33 -17,-49 -7,-20 -17,-39 -30,-56 -10,-14 -22,-30 -35,-41 -10,-8 -18,-17 -30,-24 0,4 15,49 18,52 3,3 17,10 21,14 3,2 6,4 9,7 45,43 35,108 28,166 -3,24 -4,47 -4,71 0,16 2,27 1,43 0,14 3,28 3,42 -31,-17 -64,-35 -90,-58 -19,-16 -37,-33 -53,-51l-28 -32c-37,-44 -82,-99 -82,-162 0,-18 5,-37 12,-48 12,-18 35,-33 56,-17 13,10 24,35 24,53 0,14 -2,24 -6,33 -4,8 -14,15 -23,16 6,-12 1,-34 -7,-43 -32,-38 -64,15 -24,55 47,48 84,11 87,-40 1,-16 0,-33 -7,-48 -6,-13 -13,-25 -23,-35 -32,-31 -82,-69 -115,-17 -7,9 -14,39 -14,54zm1383 1776l-5 15c-6,21 11,35 27,35 -13,11 -94,44 -112,50 -29,11 -85,25 -117,25 -8,0 -13,-1 -19,-1 -27,-1 -60,-8 -79,-21 -4,-3 -8,-6 -11,-10 -21,-25 -9,-74 27,-75 22,-1 42,25 35,42 -7,-5 -12,-10 -28,-6 -6,1 -9,3 -13,6 -3,2 -6,7 -7,11 -6,17 8,39 39,31 28,-7 52,-30 38,-63 -3,-8 -9,-18 -15,-23 -31,-29 -77,-20 -107,3 -37,29 -44,104 53,122 84,15 172,-8 249,-39 20,-8 59,-24 78,-34 5,-2 8,-4 13,-6 24,-11 17,-2 47,-9 10,-3 19,-7 29,-9 -6,8 -35,22 -35,36 0,9 18,15 25,17 25,4 52,1 78,-3 6,-1 6,1 9,-4 2,-3 5,-6 6,-9 -6,0 -15,1 -21,2 -12,1 -58,3 -46,-18 13,-23 56,-46 79,-59 19,-12 38,-24 60,-33 5,-2 10,-4 16,-7 3,-1 5,-2 8,-3 4,-1 6,-1 8,-4 -52,0 -92,-17 -136,-39 -18,-9 -34,-21 -51,-31l-19 -12c-6,-4 -12,-9 -19,-14 -13,-9 -25,-17 -40,-23 -8,-4 -14,-7 -22,-9 -9,-3 -17,-5 -26,-8 -11,-2 -44,-8 -57,-5 0,-8 2,-10 -1,-19 -4,-17 -18,-26 -33,-32 -25,-8 -45,-10 -77,-10l16 -8c6,-3 11,-6 17,-8 11,-6 23,-11 33,-17l98 -51c6,-3 11,-6 17,-9l32 -17c6,-3 11,-6 17,-9 17,-10 47,-24 66,-34l24 -13c3,-2 6,-3 9,-4l33 -17c6,-3 11,-6 17,-8 3,-2 5,-3 9,-4l43 -20c6,-3 11,-5 17,-8 6,-3 11,-5 17,-7 9,-4 63,-29 72,-30l0 -2c-16,-4 -1,-8 -28,3 -48,20 -95,41 -142,61 -24,9 -47,21 -70,31l-69 32c-5,2 -10,4 -15,6 -22,12 -46,21 -69,33 -4,2 -9,3 -13,6 -6,2 -9,4 -14,6l-28 14c-50,25 -101,47 -151,72l-27 13c-21,10 -17,8 -50,2 -10,-2 -22,-4 -32,-8 -9,-2 -24,-8 -15,-19 9,-10 37,-23 52,-30 20,-8 36,-17 59,-22 22,-6 47,-9 72,-9 -4,-4 -12,-6 -17,-8 -55,-22 -84,-7 -135,16 -9,4 -26,14 -36,13 -15,-2 -28,-5 -40,-9 -13,-4 -23,-10 -34,-16 -7,-4 -25,-14 -29,-20 32,0 49,4 84,-5 25,-6 46,-15 56,-37 13,-27 -6,-48 -23,-60 -13,-10 -50,-27 -65,-27 0,0 1,-1 1,-1 0,1 1,0 1,0 19,-7 65,-19 85,-25l356 -95c30,-8 60,-16 89,-23 16,-4 30,-8 46,-12 37,-9 76,-19 114,-26 7,-2 17,-5 25,-5l0 -2c-14,-4 2,-8 -35,-1 -84,17 -172,36 -255,57 -60,15 -120,28 -179,43 -71,18 -142,36 -213,55l-104 30c-7,2 -29,10 -34,9 -6,-1 -14,-4 -19,-5 -16,-5 -33,-11 -49,-18 -19,-9 -29,-18 -10,-37 40,-40 118,-72 68,-123 -3,-3 -10,-7 -12,-11l156 -23c18,-3 38,-3 56,-5l56 -3c19,0 37,-3 58,-3 6,0 8,0 13,-1 31,-1 74,1 105,1 -1,-2 -3,-4 -5,-5 -5,-4 -44,-5 -53,-5 -8,0 -13,-2 -22,-2 -31,1 -62,0 -94,0 -15,0 -28,2 -44,2 -8,-1 -13,1 -22,1l-22 1c-16,1 -31,0 -46,1l-21 1c-5,1 -17,2 -22,2l-42 4c-54,7 -85,11 -141,22 -6,1 -12,3 -18,4 -16,3 -60,-11 -75,-18 -12,-4 -21,-9 -31,-15 0,-9 3,-11 10,-14 30,-16 95,-30 129,-38 25,-7 52,-11 79,-16 13,-3 26,-5 40,-7 70,-12 139,-23 208,-32 8,-1 15,-2 22,-3l55 -4c5,0 5,-1 11,-1l82 -1c6,0 7,1 12,1 -1,-3 -4,-8 -8,-9 -4,-2 -81,-1 -87,-1l-66 4c-7,1 -10,1 -17,2 -26,0 -54,6 -81,7 -21,1 -43,4 -64,7 -55,6 -130,16 -183,29 -8,-12 -37,-31 -53,-70 -7,-18 -18,-34 -29,-50 -17,-22 -38,-39 -64,-50 -9,-4 -24,-9 -36,-9 2,3 7,5 11,7 5,3 7,4 11,7 20,13 41,31 49,54 1,3 1,5 2,8 -5,0 -37,-8 -47,-9 -18,-3 -31,-4 -52,-4 -33,0 -68,14 -57,52 9,26 35,42 57,56 7,3 12,6 19,9 7,3 13,6 20,9 11,4 30,9 40,14l1 1c-16,0 -43,7 -56,14 -25,13 -12,27 5,38 15,9 32,16 49,23l48 17c0,1 1,1 2,1 2,1 1,0 2,1 -43,10 -67,29 -35,68 10,12 22,21 36,29 8,5 39,19 49,19 -1,3 -1,2 -2,3 -14,13 -30,27 -9,43 26,20 88,36 91,40 -10,1 -45,11 -55,6 1,4 2,4 6,6 10,7 21,24 30,33l22 27c2,3 4,4 6,6l18 20c2,2 4,4 6,6 15,19 36,32 57,44 22,12 57,23 89,23 -1,1 0,0 -2,1l-8 3c-4,2 -8,3 -11,5 -82,33 74,62 101,62 -6,4 -15,7 -21,10 -63,27 -126,48 -195,58 -29,4 -59,6 -88,3 -28,-3 -52,-8 -75,-19l-15 -9c-3,-2 -3,-3 -5,-4 -4,0 -10,2 -12,5 3,1 6,4 9,6 4,2 6,4 10,6 39,20 75,30 121,34 29,2 60,-1 87,-6 10,-1 17,-2 27,-4 16,-4 32,-8 48,-14 46,-15 91,-31 136,-49 16,-6 30,-11 45,-17 18,-7 34,-8 54,-8 26,0 58,4 59,33 0,9 -2,18 -5,25 -11,28 -41,53 -72,53 -12,0 -17,-1 -26,-5 -6,-3 -15,-9 -18,-14 36,-3 37,-69 -13,-44 -8,4 -16,12 -18,23 -11,53 60,62 98,54 38,-8 79,-29 99,-63 4,-7 1,-7 11,-9 35,-7 64,10 90,30 4,3 8,6 11,10 -23,6 -53,16 -77,23 -32,10 -77,33 -74,74 3,41 66,39 98,35 4,-1 6,-2 11,-2zm298 -105c0,28 31,61 68,40 55,-31 29,-83 -3,-56 -15,12 -10,30 6,30 -2,6 -10,12 -17,12 -26,0 -40,-52 -10,-75 15,-11 22,-12 39,-12 33,0 67,36 67,69l0 10c0,23 -16,47 -30,57 -22,18 -28,22 -56,34 -29,12 -71,24 -103,29 -2,1 -8,1 -10,2 -4,1 -3,1 -6,4 -5,5 -10,8 -12,11 4,0 11,-2 16,-3 21,-4 89,-18 89,15 0,17 -18,43 -26,54 -39,46 -85,77 -141,101 -72,30 -141,60 -221,61 -4,0 -6,1 -9,1 -5,0 -2,-2 -8,0 -5,2 -9,5 -14,6l0 3c10,0 18,2 29,2 39,0 57,-1 96,-10 33,-7 62,-16 93,-28 40,-16 48,-22 83,-39l26 -14c18,-10 33,-20 49,-32 4,-3 8,-6 12,-10 20,-19 31,-26 48,-53 10,-14 44,-68 10,-80l-8 -3c12,-3 43,-19 54,-27 4,-2 7,-3 10,-6 31,-23 69,-54 69,-96 0,-31 -22,-60 -47,-72 -66,-31 -143,30 -143,75zm328 640l-19 0c-9,-1 -16,-4 -20,-10 8,-2 17,-14 25,-10 35,15 84,-14 112,-33 20,-13 35,-27 54,-41 3,-3 6,-6 10,-9l19 -18c4,-4 7,-6 11,-10 20,-20 46,-46 64,-68l26 -31c8,-10 18,-21 25,-31l-38 20c-6,3 -13,6 -20,9 -6,2 -15,5 -22,6 -9,2 -17,2 -25,-1 -8,-4 -9,-10 -5,-20 6,-14 14,-23 22,-35l-35 18c-21,10 -61,29 -83,18 -17,-7 -20,-25 -15,-35 -4,0 -8,2 -12,3l-33 8c-20,4 -51,9 -70,-5 -12,-9 -8,-29 -1,-41l10 -16c-4,0 -11,3 -15,4 -5,2 -10,3 -15,5 -10,3 -21,5 -30,8 -6,2 -11,3 -16,4 -5,2 -7,5 -11,9l-50 47c-9,9 -21,17 -31,26 -7,6 -14,11 -22,16 -15,12 -30,21 -47,31 -21,13 -42,23 -66,30 -14,5 -31,9 -46,12 -22,3 -48,5 -68,-2 -21,-7 -34,-18 -39,-39 -12,-45 19,-79 58,-92 78,-26 117,74 36,100 -31,9 -47,-12 -36,-31 5,-8 14,-14 24,-15 19,-2 20,7 29,10 1,-7 3,-12 1,-19 -10,-35 -52,-34 -67,-15 -23,29 -10,71 25,80 26,7 52,1 74,-5 17,-5 31,-12 46,-19 42,-21 93,-54 128,-86 10,-10 25,-21 32,-32 -7,2 -14,4 -23,4 -29,-1 -13,-20 -4,-34 5,-7 12,-14 16,-21 -13,3 -60,36 -103,28 -13,-2 -20,-7 -27,-16 -18,-24 2,-59 17,-79l9 -12c2,-2 4,-3 6,-5 10,-13 28,-26 42,-35 9,-5 18,-10 29,-14 20,-8 58,-10 69,8 13,20 -5,47 -25,53 -22,6 -34,-33 -6,-43l3 -2c-4,-1 -9,-3 -15,-3 -31,-1 -58,31 -72,54 -9,15 -34,70 5,71 26,0 91,-33 105,-50 11,-15 26,-28 41,-40 18,-15 36,-26 62,-26 -1,0 -1,0 -2,1 -2,1 -2,1 -3,2 -10,8 -21,16 -30,24 -9,10 -22,20 -31,32 -4,6 -9,11 -14,17 -5,6 -8,11 -12,17 -3,4 -27,38 -14,42 18,5 84,-15 102,-22 7,-3 11,-9 16,-15 3,-2 5,-4 8,-7 8,-8 34,-30 44,-33 -2,-3 -5,-3 -9,-4 -28,-8 -57,-9 -81,4 1,-3 3,-4 6,-6 3,-1 4,-2 7,-4 5,-2 10,-5 15,-7 10,-4 22,-8 33,-11 65,-14 100,3 155,14l57 10c4,1 6,1 10,1 5,0 5,1 10,1 12,0 30,-2 39,-5 22,-8 24,-14 37,-31 3,-4 5,-8 9,-12l95 -127c26,-35 50,-68 76,-102 16,-21 33,-42 50,-62l142 -169c10,-12 20,-24 30,-36 10,-11 10,-19 26,-19 -2,5 -5,7 -9,11l-96 117c-6,8 -11,15 -17,22l-34 44c-3,4 -5,7 -8,11 -3,4 -6,7 -9,11l-98 133c-11,15 -21,30 -32,45l-97 136c-5,8 -10,15 -16,23l-48 67c-6,8 -11,15 -16,23l-16 22c-9,13 -26,36 -26,52 23,0 52,-18 69,-30 10,-6 10,-6 18,-15l212 -280c7,-8 17,-18 23,-26 3,-4 5,-6 8,-9 3,-3 5,-5 8,-8l56 -59c3,-3 5,-5 8,-9l89 -89c8,-8 10,-11 22,-11 -1,5 -7,10 -11,13l-17 19c-2,2 -4,3 -6,5l-68 73c-10,9 -18,21 -28,31l-11 12c-10,10 -17,21 -27,31 -4,4 -7,9 -10,13l-22 26c-21,24 -51,66 -69,94l-19 28c-4,5 -6,9 -9,14 -5,7 -34,49 -36,58 13,-9 42,-24 65,-20 22,4 36,27 36,49 8,-5 21,-18 30,-25 27,-20 86,-56 100,1 6,28 -16,62 -28,77 -7,10 -15,20 -24,29 -5,5 -24,22 -27,26 5,0 9,1 15,1 7,0 10,0 16,-1 40,-3 84,-24 119,-42 6,-3 36,-21 41,-23 -7,11 -23,23 -34,32 -16,12 -32,22 -50,32 -74,36 -166,45 -249,33 -51,-7 -73,-21 -126,-15 -1,0 -5,0 -5,1 -4,1 -26,34 -30,38 -20,22 -30,35 -53,57l-40 34c-7,6 -13,10 -21,15 -14,11 -29,19 -45,29 -16,9 -32,16 -48,24 -17,9 -36,16 -54,20 -5,2 -13,3 -20,4z"/>
  <path class="fil1" d="M2751 3324l-123 560 526 0 -144 -548c5,-4 11,-6 17,-9 8,-5 25,-16 32,-22 3,-2 4,-3 7,-6l8 -6c63,-56 96,-145 73,-234 -49,-196 -322,-263 -465,-94 -56,67 -71,166 -33,247 6,12 12,23 19,34 19,28 39,48 67,68 5,4 10,6 16,10zm-641 -1284l-1 59c0,136 -1,273 0,409l245 0 0 -454c1,-4 0,-2 2,-3 0,-30 5,-66 13,-95l3 -10c1,-4 1,-4 2,-7 2,-5 3,-10 5,-15 11,-25 15,-34 27,-57l14 -24c5,-8 10,-15 15,-23l8 -10c9,-12 20,-25 31,-35 6,-7 12,-14 19,-20 7,-5 13,-12 20,-17l16 -13c2,-1 3,-2 5,-4l37 -25c1,0 2,-1 2,-2l7 -4c2,-1 3,-2 5,-3l96 -45c2,0 3,-1 4,-1l14 -5c2,0 2,0 4,-1 3,-1 4,-1 7,-2 3,-1 4,-2 7,-2 2,-1 5,-2 8,-2 9,-3 28,-8 37,-10 4,0 5,0 8,-1 8,-2 16,-3 24,-4l17 -3c9,-2 34,-2 44,-4 3,0 5,0 8,0 4,0 5,-1 9,-1l55 2c19,1 35,2 52,5l78 16c2,1 6,2 8,2 1,1 2,1 3,1l19 6c2,0 3,1 4,1 1,1 1,1 1,1l9 3c2,1 4,1 6,2 3,1 5,2 8,3l19 8c40,17 79,40 114,66 23,18 39,33 60,54l26 30 35 50c11,18 21,37 28,57l4 10c1,1 1,3 2,4 5,16 10,31 13,47l3 12c1,11 4,22 5,33 1,12 1,23 1,37l0 454 247 0 0 -467c0,-5 -1,-8 -1,-12l-2 -25c-2,-22 -3,-32 -8,-56l-4 -21c-2,-7 -4,-15 -6,-21 0,-1 0,-4 -1,-5l-7 -25c-1,-1 -2,-3 -2,-4 -1,-2 -1,-4 -2,-5l-1 -5c-1,-2 -2,-3 -2,-5 -2,-3 -3,-6 -4,-9l-13 -31c-1,-2 -1,-3 -2,-5 -2,-3 -3,-6 -5,-9 -14,-29 -31,-58 -50,-84 -11,-15 -22,-30 -34,-44l-28 -31c-3,-3 -3,-4 -6,-7l-61 -55c-5,-4 -10,-8 -15,-12l-61 -43c-10,-6 -22,-13 -33,-19 -22,-12 -45,-25 -69,-35 -2,-1 -2,-1 -4,-2l-46 -18c0,-1 0,-1 0,-1 -1,0 -1,0 -1,0 0,0 -1,0 -1,0 -1,0 -2,-1 -3,-1l-4 -2c-2,0 -2,0 -3,-1 -13,-5 -28,-9 -41,-13 -17,-5 -35,-11 -52,-14 -4,-1 -6,-2 -10,-3l-22 -4c-10,-3 -65,-11 -78,-12 -9,0 -23,-3 -36,-3l-37 -2c-25,-1 -51,-1 -76,1 -4,1 -8,0 -13,0 -11,2 -23,2 -35,4 -8,1 -16,2 -23,2 -20,2 -41,7 -61,11l-21 4c-3,0 -4,1 -6,1 -8,3 -15,4 -23,6 0,0 -2,1 -3,1l-12 3c-1,0 -1,0 -1,0l-14 5c-12,4 -25,7 -37,11 -4,2 -7,3 -10,4l-19 7c-2,1 -3,1 -4,2 -2,1 -3,1 -5,2l-36 15c-17,9 -35,17 -52,26l-33 19c-1,1 -2,2 -4,3 -1,1 -2,1 -4,2 -18,12 -36,24 -53,37l-63 53c-11,11 -22,21 -33,32l-12 14c-2,3 -4,5 -6,7 -10,11 -20,24 -29,36 -17,23 -31,46 -46,71 -17,28 -29,59 -41,89l-9 29c-1,1 -1,2 -1,4 -5,15 -9,32 -12,48l-6 33c-3,20 -4,38 -4,59zm-24 511c-7,2 -22,0 -52,9 -23,7 -42,16 -61,28 -9,6 -18,12 -26,20 -2,3 -5,4 -8,7l-14 16c-2,2 -2,2 -4,4 -1,1 -2,3 -3,4 -8,10 -14,21 -20,32l-8 15c-8,21 -12,38 -15,60 -3,20 -1,54 -1,75l0 1161c0,14 -2,9 6,17l20 18c22,19 69,55 94,72l119 77c20,12 39,22 59,33l49 25c12,6 24,12 36,17 13,5 24,11 36,16l32 13c33,14 66,26 100,37l69 21c4,1 8,2 12,3l117 26c3,1 3,1 6,2l107 15c23,3 96,6 114,6l43 1c6,0 9,-1 15,-1 20,0 41,0 59,-2 18,-2 37,-2 55,-4l20 -3c11,-1 23,-2 34,-4l26 -4c12,-1 27,-5 38,-6 5,-1 8,-2 13,-3 5,0 8,-1 13,-2 13,-3 24,-6 37,-8 4,-1 8,-2 12,-3 5,-2 8,-2 13,-3l29 -8c2,-1 4,-1 6,-2 2,0 -2,1 2,0 2,-1 0,0 1,-1 2,0 1,0 3,0l29 -9c2,-1 1,0 3,-1l12 -3c3,-1 0,0 3,-1l31 -10c0,0 0,0 0,-1 1,0 1,0 1,0l35 -12c2,-1 4,-2 6,-2l112 -46c2,-1 4,-2 5,-3l26 -12c2,-1 4,-2 6,-3 21,-10 43,-21 65,-32l50 -29c2,0 1,0 3,-1l14 -8c1,-1 2,-1 2,-2l12 -7c10,-6 19,-10 29,-17l36 -23c6,-4 13,-8 19,-12 42,-28 83,-58 123,-88 11,-8 15,-9 15,-16 1,-40 0,-81 0,-121l-2 -1122 -6 -36 -7 -19c-3,-9 -7,-17 -12,-26l-3 -4c-7,-14 -25,-36 -36,-47 -12,-10 -25,-21 -39,-29l-19 -11c-2,-1 -3,-2 -5,-2 -2,-1 -4,-2 -5,-3l-9 -3c-15,-6 -22,-7 -37,-11 -4,-1 -10,-2 -14,-2 -19,-3 -39,-3 -58,-3l-1566 0c-3,1 -2,1 -2,1z"/>
 </g>
</svg>
